<?xml version="1.0" encoding="UTF-8" standalone="no"?>
<!-- Created with Inkscape (http://www.inkscape.org/) -->

<svg
   width="132.22597mm"
   height="84.162926mm"
   viewBox="0 0 132.22597 84.162926"
   version="1.1"
   id="svg5"
   xmlns="http://www.w3.org/2000/svg"
   xmlns:svg="http://www.w3.org/2000/svg">
  <defs
     id="defs2" />
  <g
     id="layer1"
     transform="translate(-40.993193,-110.86099)">
    <path
       style="display:inline;fill:#71ffef;fill-opacity:1;stroke-width:3.56141;stroke-linejoin:round;stroke-dashoffset:1.51181;paint-order:markers fill stroke"
       d="m 430.17775,425.66767 c -7.92206,0.53237 -16.12129,1.94217 -23.13938,5.80812 -10.00596,7.80705 -16.25939,19.32089 -22.0059,30.3971 -5.01116,9.11011 -6.97981,19.32536 -9.71197,29.17485 -2.54613,5.59079 -2.73486,11.85594 -1.2872,17.76854 2.1113,10.74369 5.01361,21.50566 10.88065,30.86983 -2.91061,4.79249 -5.84288,-1.16009 -14.14261,-4.94465 -12.50906,-6.00753 -23.81419,-13.72992 -35.69851,-20.8914 -16.0796,-9.45991 -31.87117,-19.72262 -47.77569,-29.48568 -21.08234,0.54665 -42.21206,1.1245 -63.34071,1.02581 -13.16057,-0.2171 -26.33936,0.42712 -39.4422,-0.77739 -6.86586,-0.88234 -13.42157,-4.52224 -20.43506,-3.89518 -3.27938,1.07153 -1.32644,4.90144 0.47371,6.4388 14.70068,15.2734 31.23246,28.65216 46.4363,43.41594 14.55997,13.35297 27.69536,28.39845 43.72857,40.05753 10.1029,6.80465 19.66117,14.62162 31.04655,19.27718 6.45311,7.49831 14.72094,3.29277 13.25435,11.72146 -2.58713,1.72412 -0.14988,5.57228 0.004,8.14198 2.75649,9.45517 7.80956,18.04563 12.09151,26.84511 6.2036,6.37525 12.65039,12.71081 18.43442,19.38494 6.0738,1.62788 11.27547,5.64272 17.30363,7.55968 16.00923,6.84321 33.1062,10.49881 50.28834,12.88378 12.03351,2.09443 24.44578,3.06798 36.46742,0.32072 15.48547,-2.80376 29.66975,-10.02176 43.66174,-16.90527 9.79961,-4.92695 13.20011,-16.14755 18.03048,-25.16099 7.78291,-18.97297 5.40763,-25.04739 12.07976,-30.39832 5.49173,2.61038 11.8962,0.89046 17.72845,0.79832 12.98822,-0.76172 25.39404,-5.60632 36.75531,-11.69139 10.1334,-7.19815 19.7145,-15.26924 28.51122,-24.04984 9.89137,-12.13918 20.7907,-23.49706 29.64795,-36.4369 8.78235,-11.69426 17.10051,-23.82757 24.16206,-36.64643 1.29337,-3.21789 3.86086,-6.20383 4.04387,-9.72545 -1.28638,-3.30019 -5.44537,-0.85733 -7.79361,-0.39514 -25.78156,7.5606 -52.02033,13.72429 -78.72255,17.02287 -4.19943,0.89009 -9.13932,-0.4873 -12.86173,1.98533 -7.37621,8.19302 -16.75507,14.21257 -25.31001,21.08056 -9.70005,8.14596 -17.46723,11.00441 -21.97354,10.94979 -5.61021,-0.068 5.13548,-9.85471 2.13176,-37.08174 -1.73328,-10.01022 -4.60263,-19.8789 -8.41176,-29.28852 -8.64759,-14.43865 -18.87086,-28.99393 -33.85274,-37.42964 -9.57551,-5.00612 -20.42653,-7.86353 -31.25669,-7.72431 z"
       id="path15273"
       transform="scale(0.26458333)" />
    <path
       style="display:inline;fill:#7b6d54;fill-opacity:1;stroke-width:3.56141;stroke-linejoin:round;stroke-dashoffset:1.51181;paint-order:markers fill stroke"
       d="m 444.41388,496.84612 c -3.40279,3.42625 -9.49723,7.89728 -9.35907,16.1232 -0.20705,6.15293 3.8201,8.91296 6.30589,12.26361 2.42933,2.26025 9.57278,4.1145 12.61841,5.34328 6.53567,2.22087 21.22156,5.86892 22.46919,1.9513 0.35507,-2.53085 0.63098,-6.34591 0.0155,-8.66099 -0.89984,-5.5954 -0.42278,-12.66285 -2.87726,-17.38098 -2.39625,-4.6062 -7.78544,-7.3416 -12.01828,-9.62661 -5.75669,-1.59764 -11.01744,-0.53295 -16.91437,-0.0905 z"
       id="path23137"
       transform="scale(0.26458333)" />
    <path
       style="display:inline;fill:#000000;stroke-width:0.32987"
       d="m 108.94644,194.41981 c -2.53741,-0.97699 -3.50867,-1.60223 -4.84203,-3.117 -1.23871,-1.40725 -1.31868,-1.64256 -2.0497,-6.0312 -0.41839,-2.51174 -0.70887,-4.78452 -0.64552,-5.05061 0.0834,-0.35026 -0.38856,-0.58636 -1.709686,-0.85531 -1.003669,-0.20433 -2.784968,-0.67979 -3.958441,-1.05659 -1.17347,-0.3768 -2.691879,-0.78806 -3.374242,-0.91391 -0.682359,-0.12585 -1.323307,-0.36254 -1.424326,-0.526 -0.101023,-0.16345 -0.804481,-0.61032 -1.563242,-0.99304 -1.875067,-0.94579 -4.553655,-3.01721 -6.979369,-5.39732 -1.763485,-1.73033 -2.191739,-2.41478 -3.405579,-5.44286 -0.769089,-1.91859 -1.387787,-4.01346 -1.386982,-4.69622 0.0013,-1.07784 -0.133139,-1.28977 -1.070623,-1.68809 -1.635786,-0.69502 -8.201165,-4.77709 -9.318831,-5.79405 -0.544286,-0.49524 -2.027432,-1.70586 -3.295881,-2.69026 -1.268447,-0.9844 -3.720535,-3.20001 -5.449083,-4.92358 -1.728548,-1.72357 -5.737739,-5.4671 -8.909315,-8.31896 -3.171575,-2.85185 -6.063384,-5.56671 -6.426241,-6.03302 -0.362857,-0.46631 -0.993734,-1.23481 -1.401948,-1.70779 -0.408214,-0.47297 -0.742208,-1.2675 -0.742208,-1.76563 0,-0.70474 0.201264,-0.96367 0.907143,-1.16704 1.184543,-0.34129 3.072929,-0.22019 5.525325,0.35434 2.389179,0.55972 4.190598,0.61339 17.959997,0.53515 l 10.702857,-0.0608 4.759337,2.89682 c 2.617638,1.59324 5.14921,3.12308 5.625717,3.39964 0.476508,0.27656 1.931367,1.1301 3.233021,1.89675 1.301655,0.76666 2.463236,1.39392 2.58129,1.39392 0.118057,0 1.214104,0.59377 2.435662,1.31948 1.221559,0.72572 2.546373,1.31948 2.944035,1.31948 0.397662,0 0.723019,-0.0866 0.723019,-0.19244 0,-0.10584 -0.308352,-1.40014 -0.685229,-2.87622 -0.488145,-1.91188 -0.660473,-3.49315 -0.599153,-5.49782 0.07851,-2.56666 0.269035,-3.55414 1.328605,-6.88599 0.481293,-1.51345 2.500581,-4.90797 3.796271,-6.38172 0.58863,-0.66952 1.29633,-1.65453 1.57267,-2.18891 0.61895,-1.19692 3.42265,-2.82398 6.59054,-3.82466 2.00125,-0.63216 2.70889,-0.70357 4.81967,-0.4864 2.95336,0.30387 5.52576,0.75811 6.43247,1.13587 0.36286,0.15117 1.23867,0.69185 1.94625,1.20151 0.70758,0.50966 1.40427,0.92665 1.5482,0.92665 0.5239,0 3.79441,3.72213 5.0028,5.69361 0.68206,1.11278 1.37615,2.10731 1.54244,2.21008 0.16628,0.10277 0.66587,1.07554 1.11019,2.16171 1.52727,3.73349 1.81179,5.34448 1.74697,9.89175 -0.0482,3.38071 -0.18446,4.51994 -0.64383,5.38275 -0.32049,0.60194 -0.53338,1.24241 -0.47309,1.42327 0.13756,0.41269 1.49538,-0.6051 9.62997,-7.21836 1.83025,-1.48796 2.33084,-1.73265 3.55496,-1.73774 2.7291,-0.0113 11.33802,-1.6827 17.91826,-3.47873 4.19356,-1.14459 5.66234,-1.4403 7.21043,-1.45165 1.55795,-0.0114 1.59672,0.0119 1.3901,0.8351 -0.3966,1.58017 -2.78428,6.81615 -3.43023,7.52219 -0.35343,0.38631 -0.95885,1.29615 -1.34537,2.02187 -0.38652,0.72571 -1.2205,1.98747 -1.85329,2.80389 -0.63279,0.81643 -1.60754,2.18913 -2.16613,3.05045 -0.55858,0.86132 -1.19266,1.67775 -1.40906,1.81429 -0.2164,0.13654 -0.90803,0.91624 -1.53695,1.73267 -2.82679,3.66956 -5.08168,6.14362 -7.53383,8.2661 -1.45497,1.25936 -2.78282,2.28974 -2.95079,2.28974 -0.16796,0 -0.6594,0.26784 -1.09208,0.59521 -1.10595,0.83674 -4.5554,2.31498 -6.80446,2.916 -1.04452,0.27912 -3.12023,0.49627 -4.6127,0.48254 -1.49246,-0.0137 -3.07798,0.1136 -3.52337,0.28294 -0.65486,0.24897 -0.84931,0.61088 -1.01634,1.89157 -0.40634,3.11552 -0.91543,4.90967 -1.9002,6.69668 -0.54989,0.99785 -1.31304,2.13858 -1.69588,2.53494 -0.38285,0.39636 -1.21563,1.26457 -1.85063,1.92936 -1.44592,1.51376 -4.84647,3.78245 -5.66953,3.78245 -0.34056,0 -1.17108,0.23699 -1.84561,0.52664 -1.17719,0.50549 -7.25182,1.61689 -9.59603,1.75565 -0.30809,0.0182 -0.35279,0.15854 -0.13991,0.43914 0.17205,0.22679 0.74631,1.77824 1.27613,3.44768 1.08156,3.40791 0.85159,3.20533 5.39993,4.7571 1.5316,0.52254 2.90241,1.13541 3.04625,1.36193 0.14384,0.22652 0.2638,0.67163 0.26658,0.98913 0.007,0.81931 -1.36507,0.74831 -4.14302,-0.21435 -4.63603,-1.60655 -5.91323,-2.43977 -6.25872,-4.08309 -0.30959,-1.47255 -0.41025,-1.81943 -0.97765,-3.36908 -0.29833,-0.8148 -0.48232,-1.891 -0.40886,-2.39156 0.0741,-0.50456 -0.0247,-0.92134 -0.22163,-0.93534 -0.19536,-0.0139 -0.57787,-0.0694 -0.85001,-0.12331 -0.27214,-0.0539 -1.42256,-0.20559 -2.55649,-0.33701 l -2.06169,-0.23896 3.3e-4,1.76421 c 3.3e-4,1.82619 0.79828,6.96123 1.17667,7.57347 0.32029,0.51824 3.35322,2.34824 5.42028,3.27046 0.99786,0.4452 1.91188,0.94599 2.03117,1.11287 0.40825,0.57114 -0.12208,1.18794 -0.99439,1.15653 -0.47951,-0.0173 -1.53983,-0.2886 -2.35626,-0.60295 z m 6.1026,-15.82104 c 2.82636,-0.58532 4.16629,-1.06546 7.91688,-2.83684 0.90714,-0.42844 2.1938,-1.01426 2.85923,-1.30182 0.66543,-0.28756 1.59122,-0.97604 2.0573,-1.52995 1.00012,-1.18857 3.60393,-6.50281 4.11034,-8.38899 0.19484,-0.72571 0.51449,-2.8039 0.71033,-4.61818 0.19584,-1.81429 0.44185,-3.58623 0.54669,-3.93764 0.17741,-0.59465 0.21917,-0.59991 0.60236,-0.0759 0.25139,0.3438 0.3483,1.1259 0.24884,2.00829 -0.13314,1.1813 -0.0492,1.50604 0.45961,1.77836 0.82877,0.44354 6.7911,-0.042 8.52738,-0.69436 3.3951,-1.27572 4.91165,-1.95483 5.87893,-2.63257 1.59435,-1.1171 7.15083,-5.87462 7.15171,-6.12337 3.3e-4,-0.12042 0.40864,-0.68375 0.90715,-1.25184 0.4985,-0.56809 1.64857,-1.90192 2.55572,-2.96407 0.90714,-1.06215 1.98334,-2.30292 2.39155,-2.75725 0.40822,-0.45434 0.74221,-0.93375 0.74221,-1.06536 0,-0.13162 0.42305,-0.7269 0.94011,-1.32285 1.57211,-1.81201 5.35425,-7.54591 6.52911,-9.89844 0.60907,-1.21961 1.10741,-2.2868 1.10741,-2.37154 0,-0.0847 -0.63088,0.0442 -1.40195,0.28647 -7.40472,2.32675 -20.08685,4.94463 -22.92598,4.73244 -0.77107,-0.0576 -1.40194,0.002 -1.40194,0.13171 0,0.33133 -2.16045,2.2934 -4.1714,3.78837 -7.57761,5.63332 -10.79464,8.23619 -12.23625,9.90027 -1.61281,1.86169 -3.1888,3.04378 -3.56135,2.67124 -0.23001,-0.23001 0.53294,-1.91239 0.86725,-1.91239 0.14008,0 0.33991,-0.25977 0.44406,-0.57727 0.10415,-0.3175 0.93261,-1.39371 1.84102,-2.39156 0.90842,-0.99786 1.74432,-2.18539 1.85757,-2.63896 0.11325,-0.45358 0.32122,-0.97312 0.46215,-1.15455 0.14093,-0.18143 0.64001,-1.34953 1.10906,-2.59577 1.12701,-2.9944 1.13252,-5.75079 0.0193,-9.65499 -1.11903,-3.92458 -1.43374,-4.70565 -2.43543,-6.04446 -0.46994,-0.62808 -1.15131,-1.61747 -1.51417,-2.19863 -1.17107,-1.87563 -4.30689,-4.87985 -6.13597,-5.87847 -0.9795,-0.53477 -2.71412,-1.21424 -3.8547,-1.50993 -3.12386,-0.80985 -5.47355,-0.78286 -8.31487,0.0955 -2.39987,0.74189 -2.52748,0.83569 -4.387,3.22479 -2.42026,3.10952 -4.69832,7.74065 -5.18587,10.54249 -0.20522,1.17928 -0.585061,2.57518 -0.844105,3.10198 -0.259044,0.5268 -0.470988,1.38191 -0.470988,1.90025 0,1.81254 1.364133,7.0509 2.219353,8.52244 1.44793,2.49141 2.66863,5.09926 2.50954,5.36129 -0.27208,0.44812 -1.30979,-0.3558 -2.452,-1.89957 -0.92411,-1.24901 -1.734115,-1.81507 -4.585984,-3.20484 -1.905,-0.92835 -3.926431,-2.07102 -4.49207,-2.53927 -0.565638,-0.46826 -2.050053,-1.41382 -3.298701,-2.10125 -1.248647,-0.68743 -3.532022,-2.06475 -5.074165,-3.0607 -1.542142,-0.99596 -2.994669,-1.8987 -3.227838,-2.0061 -0.233166,-0.1074 -1.384148,-0.82595 -2.557737,-1.59676 l -2.133795,-1.40148 -4.039665,0.17674 c -2.221818,0.0972 -8.344471,0.18044 -13.6059,0.18496 -8.278969,0.007 -9.765982,-0.0684 -11.050649,-0.56101 -1.704472,-0.65361 -3.958442,-0.98383 -3.958442,-0.57993 0,0.58086 1.496787,2.11391 6.024915,6.17088 5.60199,5.0191 7.564532,6.86081 11.7561,11.03228 3.350116,3.33406 5.827368,5.45764 7.250675,6.21553 0.474713,0.25277 1.327566,0.86332 1.89523,1.35678 1.572444,1.36688 5.625054,3.48033 8.204249,4.27853 1.283555,0.39723 3.554384,0.77549 5.112987,0.85169 3.092869,0.1512 6.597403,0.75774 6.597403,1.14182 0,0.4828 -1.549436,0.6442 -6.227226,0.64864 l -4.74281,0.005 0.213298,1.33389 c 0.117315,0.73364 0.343279,1.58718 0.502141,1.89675 0.158865,0.30958 0.814525,1.67618 1.45702,3.0369 1.217643,2.57879 1.372022,2.78004 4.13666,5.39237 0.930647,0.87937 1.692086,1.73291 1.692086,1.89675 0,0.16384 0.225611,0.29789 0.501359,0.29789 0.275749,0 1.089228,0.3711 1.807732,0.82467 0.718503,0.45358 1.409004,0.82468 1.534447,0.82468 0.125439,0 1.130372,0.35906 2.233178,0.79791 3.958042,1.57507 8.108802,2.47042 15.199912,3.27874 2.30579,0.26284 3.79566,0.17026 6.5974,-0.40996 z m 6.43247,-36.81864 c -0.45358,-0.25928 -1.12156,-0.47751 -1.48442,-0.48496 -1.51065,-0.031 -3.29787,-0.79883 -4.52623,-1.94463 -1.5707,-1.46514 -2.04573,-3.25378 -1.37911,-5.19285 0.63287,-1.84087 1.48143,-2.84367 3.12075,-3.688 1.26032,-0.64912 1.76482,-0.72487 3.60927,-0.54191 1.93394,0.19182 2.28419,0.34665 3.57256,1.57927 0.78562,0.75162 1.61934,1.73769 1.8527,2.19126 0.23337,0.45357 0.52431,1.78955 0.64654,2.96883 0.12223,1.17929 0.3044,2.61268 0.40483,3.18532 0.13704,0.78143 0.0103,1.21346 -0.50806,1.73182 -0.54448,0.54448 -1.09209,0.68818 -2.58741,0.67896 -1.04321,-0.006 -2.26785,-0.22383 -2.72142,-0.48311 z m 4.13923,-2.72143 c -0.26261,-2.58794 -0.4686,-3.98873 -0.69796,-4.74625 -0.09,-0.29722 -0.76396,-0.93768 -1.49769,-1.42324 -0.98617,-0.65262 -1.91273,-0.93136 -3.55305,-1.06888 -2.1854,-0.18321 -2.23245,-0.17002 -3.10866,0.87129 -0.48931,0.58152 -0.88967,1.38559 -0.88967,1.78682 0,0.83171 2.0363,2.6649 4.82645,4.34504 0.9857,0.59356 2.01098,1.26079 2.27841,1.48273 0.26742,0.22194 0.96774,0.51784 1.55627,0.65756 0.58852,0.13971 1.12444,0.26922 1.19094,0.28779 0.0665,0.0186 0.0192,-0.96822 -0.10504,-2.19286 z m -5.45871,0.74635 c 0,-0.0884 -0.55666,-0.51532 -1.23702,-0.94862 -0.68036,-0.4333 -1.64523,-1.17028 -2.14415,-1.63774 -0.81179,-0.76057 -0.90715,-0.78415 -0.90715,-0.22432 0,0.93166 1.3288,2.23925 2.63896,2.59685 1.42286,0.38836 1.64936,0.41772 1.64936,0.21383 z m 6.26753,-8.33045 c -1.04746,-0.40731 -1.76709,-2.05336 -0.90715,-2.07495 0.22679,-0.006 1.25292,-0.42832 2.28028,-0.93916 1.8478,-0.9188 1.86939,-0.92129 2.00128,-0.23131 0.17427,0.91165 -0.4341,2.36798 -1.24554,2.98159 -0.67433,0.50993 -1.29741,0.58715 -2.12887,0.26383 z m -15.1425,-2.52142 c -0.24336,-0.29323 -0.5182,-1.20489 -0.61073,-2.0259 -0.16479,-1.46195 -0.15204,-1.48647 0.61781,-1.18841 0.43234,0.16739 1.45405,0.68898 2.27048,1.15909 0.81643,0.47011 1.73543,0.85653 2.04222,0.85871 0.67581,0.005 1.10943,0.61314 0.71644,1.00508 -0.15655,0.15613 -1.25418,0.38303 -2.43918,0.50423 -1.76642,0.18066 -2.23427,0.12431 -2.59704,-0.3128 z"
       id="path1330" />
  </g>
</svg>
