<?xml version="1.0" encoding="UTF-8" standalone="no"?>
<!-- Created with Inkscape (http://www.inkscape.org/) -->

<svg
   width="63.571548mm"
   height="74.165405mm"
   viewBox="0 0 63.571548 74.165405"
   version="1.1"
   id="svg221551"
   xmlns="http://www.w3.org/2000/svg"
   xmlns:svg="http://www.w3.org/2000/svg">
  <defs
     id="defs221548" />
  <g
     id="layer1"
     transform="translate(-74.843205,-110.30213)">
    <path
       id="path224931"
       style="display:inline;fill:#71ffef;fill-opacity:1;stroke:none;stroke-width:0.71311;stroke-linecap:butt;stroke-linejoin:round;stroke-miterlimit:4;stroke-dasharray:none;stroke-dashoffset:1.51181;stroke-opacity:1;paint-order:markers fill stroke"
       d="m 84.353653,161.30726 c 2.327211,1.36284 4.352771,3.17794 6.695464,4.34243 1.835356,0.94644 3.845716,1.70886 5.852014,2.30975 2.598936,0.83671 5.258499,2.03793 8.016859,2.50818 3.11577,0.16046 6.16177,0.86432 9.25075,0.30508 2.73443,-0.47969 6.28374,-0.83845 8.76591,-2.12414 1.92688,-0.96553 3.91224,-2.40208 5.83661,-3.3327 1.70903,-1.39936 2.42662,-2.50083 3.11517,-4.55973 1.31012,-3.09681 0.55086,-6.77264 4.01564,-5.58221 2.66121,-1.60398 1.94692,-5.26943 1.55686,-7.83612 -1.15634,-2.78732 -1.94255,-4.79178 -2.75986,-7.68653 -0.7105,-2.33649 -1.18948,-5.4011 -1.88066,-7.69476 -1.36912,-2.3558 -2.87781,-4.60949 -4.67276,-6.66448 -1.58696,-1.82069 -3.39237,-3.70602 -5.62214,-4.5801 -2.33902,-1.01525 -6.3938,-1.83862 -8.99415,-1.80499 -2.57166,0.4588 -5.86659,1.22449 -7.7085,3.33116 -1.32455,1.75086 -3.87153,3.75238 -5.5382,5.19798 -3.220519,-0.97559 -3.260039,0.74795 -2.930389,3.19999 -1.921681,-0.86823 -4.595768,-4.18416 -5.858889,-5.65023 -1.280136,-1.73325 -2.234616,-4.62565 -3.989131,-5.83437 -1.512297,1.6526 -1.887351,3.58738 -3.733213,3.56794 -1.016964,0.90128 -0.293151,3.92609 0.109795,5.94827 0.185355,0.9302 0.564982,2.9417 0.533042,4.3932 -2.922329,0.0388 -4.833518,2.54681 -5.505512,5.30793 -0.815506,2.40942 -1.367319,4.85921 -1.763633,7.37559 -0.222152,2.53046 -0.480253,5.07265 -0.638172,7.56688 0.527537,3.23191 3.313573,4.10243 5.698135,5.80939" />
    <path
       style="fill:#7b6d54;fill-opacity:1;stroke:none;stroke-width:3.81162;stroke-linecap:butt;stroke-linejoin:round;stroke-miterlimit:4;stroke-dasharray:none;stroke-dashoffset:1.51181;stroke-opacity:1;paint-order:markers fill stroke"
       d="m 443.54051,559.6967 c -4.49721,0.17281 -9.26467,0.16349 -13.39494,1.92523 -2.36622,0.25274 -2.537,2.95677 -3.41413,4.58486 -0.53314,3.59507 -0.46363,7.43292 0.84862,10.76068 -0.17425,2.58975 0.34305,5.08685 1.36878,7.35511 0.39767,3.16709 0.61271,6.66954 2.20424,9.38647 0.10377,2.44063 1.80322,4.22233 1.9144,6.72687 0.84311,2.40478 2.15538,4.85064 3.40183,6.89738 -0.0726,2.07399 1.3884,3.53727 1.71025,5.47982 1.56639,2.1639 2.18017,5.17134 4.65793,6.82417 3.42689,2.33141 6.28866,-2.19826 7.78019,-4.73859 1.26743,-2.11011 2.00664,-4.3543 3.0604,-6.44973 0.98676,-1.71649 1.99702,-3.48738 2.66817,-5.40528 2.76221,-2.24914 3.01507,-6.21915 5.06627,-9.05993 2.39694,-5.60982 5.08413,-11.47945 4.33375,-17.80853 -0.19767,-3.98744 -1.81942,-9.47127 -6.48232,-9.87913 -1.42288,-0.93118 -2.85174,-1.71497 -4.46396,-2.26686 -1.24693,-0.95249 -2.60807,-2.12388 -4.08784,-2.69956 -1.91392,-1.83817 -4.73037,-1.62389 -7.17164,-1.63298 z m -15.09287,16.72997 c -0.051,0.0205 -0.27549,-0.13171 0,0 z m 0.62107,6.8904 c -0.0909,0.007 -0.35228,-0.28782 0,0 z m 32.36196,6.45119 c 0.83019,0.89314 -0.72723,-0.47052 0,0 z m 0.84734,1.16239 c 0.0769,0.39096 -0.0891,-0.15482 0,0 z"
       id="path231044"
       transform="scale(0.26458333)" />
    <path
       style="display:inline;fill:#000000;stroke-width:0.32987"
       d="m 98.594235,184.46751 c -0.364836,0 -0.663336,-0.13715 -0.663336,-0.30478 0,-0.16763 0.408215,-0.62131 0.907143,-1.00819 0.498929,-0.38687 1.426688,-1.03381 2.061688,-1.43764 0.96271,-0.61225 1.16916,-0.95172 1.24249,-2.04311 0.0484,-0.71988 0.29661,-2.34796 0.55165,-3.61796 0.25505,-1.27 0.53463,-2.93468 0.6213,-3.69928 0.12448,-1.09814 0.0432,-1.42213 -0.38672,-1.54226 -0.29937,-0.0836 -1.06385,-0.24869 -1.69885,-0.3668 -0.635,-0.1181 -2.416298,-0.57689 -3.958441,-1.01954 -1.542143,-0.44265 -3.397662,-0.98304 -4.123376,-1.20086 -0.725715,-0.21782 -2.432792,-1.11401 -3.793507,-1.99154 -1.360714,-0.87753 -3.189069,-2.2839 -4.06301,-3.12527 -0.873941,-0.84138 -1.732702,-1.79831 -1.908358,-2.12653 -0.175656,-0.32822 -0.592859,-0.59676 -0.92712,-0.59676 -0.334257,0 -0.784616,-0.21312 -1.000796,-0.4736 -0.21618,-0.26048 -0.819526,-0.56727 -1.34077,-0.68175 -0.521241,-0.11448 -1.561002,-0.65242 -2.310582,-1.19541 -0.875353,-0.63411 -1.648025,-1.59972 -2.160036,-2.69942 -0.438443,-0.94168 -0.798619,-2.12513 -0.80039,-2.62989 -0.0016,-0.50476 0.213386,-1.43615 0.478127,-2.06977 0.264744,-0.63362 0.401858,-1.35919 0.304701,-1.61238 -0.09716,-0.25318 0.06031,-2.05532 0.349923,-4.00475 0.289613,-1.94942 0.747146,-4.29925 1.016735,-5.22183 0.26959,-0.92259 0.785187,-2.12276 1.145775,-2.66704 0.360584,-0.54429 0.662768,-1.21227 0.671516,-1.48442 0.0087,-0.27214 0.531757,-1.07907 1.162245,-1.79317 1.054129,-1.19392 1.268766,-1.29203 2.66826,-1.21958 1.442248,0.0746 1.511277,0.039 1.318623,-0.68086 -0.111816,-0.4178 -0.494862,-2.16983 -0.85121,-3.8934 -0.356353,-1.72357 -0.716699,-3.61679 -0.800773,-4.20715 -0.118183,-0.82989 0.007,-1.18534 0.551707,-1.56688 0.387512,-0.27143 1.079751,-0.49501 1.538313,-0.49686 0.655287,-0.003 0.949132,-0.2782 1.372837,-1.28744 0.296501,-0.70625 0.84367,-1.44709 1.215931,-1.64632 0.581291,-0.3111 0.841697,-0.18756 1.844631,0.87511 0.642283,0.68053 1.561595,1.97954 2.042918,2.88668 0.481324,0.90715 1.41261,2.46141 2.069526,3.45393 0.656917,0.99251 1.624502,2.18005 2.150186,2.63896 0.525688,0.45891 1.167295,0.9591 1.425798,1.11153 0.382362,0.22546 0.373291,0.0901 -0.04865,-0.72583 -0.285261,-0.55163 -0.518654,-1.52251 -0.518654,-2.1575 0,-0.72863 0.200231,-1.2666 0.542788,-1.4583 0.388758,-0.21756 0.869857,-0.0818 1.69538,0.47842 0.633928,0.43019 1.434721,0.78217 1.779541,0.78217 0.344822,0 1.217202,-0.63088 1.938632,-1.40195 0.72143,-0.77107 1.76593,-2.10065 2.32113,-2.95462 0.55518,-0.85397 1.32918,-1.65416 1.71999,-1.7782 0.39081,-0.12403 1.08453,-0.49828 1.54161,-0.83165 0.45708,-0.33337 1.94437,-0.95573 3.30508,-1.38304 2.13238,-0.66963 2.81568,-0.74176 4.94806,-0.52236 1.36071,0.14 3.21623,0.391 4.12337,0.55777 0.90715,0.16678 1.94624,0.42692 2.30909,0.57809 0.36286,0.15118 1.23867,0.69186 1.94625,1.20152 0.70758,0.50966 1.40673,0.92665 1.55367,0.92665 0.14693,0 0.9782,0.7543 1.84725,1.67623 0.86906,0.92192 2.12977,2.51767 2.80159,3.5461 0.67182,1.02843 1.46037,2.13888 1.75234,2.46767 0.29197,0.32878 0.79495,1.21943 1.11774,1.97922 0.32279,0.75978 0.9196,2.48396 1.32623,3.8315 0.40664,1.34754 0.66711,2.82793 0.57883,3.28974 -0.0982,0.51368 0.16065,1.47345 0.66672,2.47214 0.45498,0.89786 1.1676,3.00699 1.58359,4.68697 0.416,1.67997 0.86062,3.81256 0.98805,4.73909 0.1496,1.08771 0.0773,2.20747 -0.20402,3.16027 -0.23965,0.81163 -0.76017,1.88215 -1.15671,2.37896 -0.65724,0.8234 -0.8092,0.87011 -1.71843,0.52817 -0.98974,-0.37223 -0.99913,-0.36505 -1.21825,0.9319 -0.12145,0.71886 -0.56642,2.42718 -0.98883,3.79626 -0.71046,2.3027 -0.96174,2.67781 -3.35327,5.00575 -1.42188,1.38409 -3.25086,2.83245 -4.06439,3.21859 -0.81352,0.38614 -2.44401,1.00576 -3.62329,1.37693 -1.17929,0.37117 -3.70279,0.85611 -5.60779,1.07764 -1.905,0.22154 -3.57483,0.49984 -3.71072,0.61847 -0.13589,0.11862 -0.0184,1.959 0.26098,4.08972 0.27944,2.13072 0.63616,4.21098 0.79273,4.62279 0.18145,0.47723 0.74472,0.88305 1.55331,1.11912 0.69775,0.2037 1.81244,0.46824 2.4771,0.58785 0.66466,0.11961 1.53057,0.51756 1.92425,0.88433 0.42032,0.39158 0.59412,0.78853 0.42105,0.9616 -0.17307,0.17306 -1.03548,0.15811 -2.08919,-0.0362 -0.98695,-0.18203 -2.44553,-0.51752 -3.24131,-0.74554 -0.91392,-0.26188 -1.71918,-0.7791 -2.18622,-1.4042 -0.40665,-0.54429 -0.90399,-1.73182 -1.1052,-2.63896 -0.20121,-0.90715 -0.47916,-2.98533 -0.61767,-4.61818 l -0.25184,-2.96884 -2.60129,-0.25759 c -1.43071,-0.14167 -2.647,-0.21186 -2.70288,-0.15598 -0.0559,0.0559 -0.33878,1.65621 -0.62866,3.55629 -0.28988,1.90008 -0.69657,4.19689 -0.90376,5.10404 -0.20718,0.90714 -0.66517,1.97585 -1.01775,2.3749 -0.35259,0.39906 -1.2886,1.02993 -2.08003,1.40195 -0.791427,0.37202 -1.737462,0.67639 -2.102295,0.67639 z m 13.356145,-14.23723 c 0.72571,0.0253 2.65545,-0.23065 4.28831,-0.5688 1.63286,-0.33816 3.71104,-0.93951 4.61818,-1.33635 0.90715,-0.39683 2.39156,-1.07205 3.2987,-1.5005 0.90715,-0.42843 2.1938,-1.01425 2.85923,-1.30182 0.66543,-0.28756 1.58452,-0.96808 2.04243,-1.51226 0.4579,-0.54418 1.35255,-2.06454 1.98812,-3.37857 0.71767,-1.48378 1.23778,-3.14077 1.3725,-4.3726 0.18755,-1.71487 0.12431,-2.09455 -0.46703,-2.80389 l -0.68396,-0.82044 -0.83873,1.04729 c -0.4613,0.57602 -1.58588,1.59576 -2.49907,2.2661 -0.91319,0.67034 -1.73314,1.146 -1.82212,1.05702 -0.089,-0.089 0.016,-0.55207 0.23339,-1.02908 0.21734,-0.47702 0.50978,-0.86731 0.64986,-0.86731 0.14008,0 0.33991,-0.25977 0.44406,-0.57727 0.10415,-0.3175 0.93261,-1.3937 1.84103,-2.39156 0.90841,-0.99786 1.74431,-2.18539 1.85756,-2.63896 0.11325,-0.45357 0.32122,-0.97312 0.46215,-1.15455 0.14094,-0.18142 0.64001,-1.34952 1.10906,-2.59576 0.61003,-1.62081 0.85282,-2.9016 0.85282,-4.49882 0,-1.39692 -0.31206,-3.32737 -0.83352,-5.15618 -0.45844,-1.60779 -1.00171,-3.36859 -1.20727,-3.91287 -0.20555,-0.54429 -0.75823,-1.5035 -1.22816,-2.13158 -0.46993,-0.62809 -1.15131,-1.61748 -1.51416,-2.19864 -0.36286,-0.58116 -1.4912,-1.92279 -2.50741,-2.9814 -1.01621,-1.05861 -2.64907,-2.36229 -3.62857,-2.89706 -0.9795,-0.53477 -2.71411,-1.21424 -3.8547,-1.50993 -1.14058,-0.2957 -2.92188,-0.5671 -3.95844,-0.60312 -1.20505,-0.0419 -2.77597,0.21003 -4.35642,0.69861 -2.39988,0.74189 -2.52748,0.83568 -4.38701,3.22478 -1.05337,1.35337 -2.56717,3.79665 -3.36399,5.42951 -0.8208,1.68199 -1.61179,3.89821 -1.82488,5.11298 -0.20685,1.17929 -0.60662,2.63294 -0.88837,3.23034 -0.350832,0.74387 -0.451868,1.57554 -0.320603,2.63896 0.105424,0.85403 0.437743,2.62637 0.738503,3.93854 0.30551,1.33292 1.05346,3.22536 1.69486,4.28831 0.63143,1.04641 1.3542,2.39375 1.60617,2.9941 0.44563,1.06176 0.43812,1.08563 -0.27537,0.87459 -0.40344,-0.11933 -1.46095,-0.96207 -2.35004,-1.87276 -0.91982,-0.94218 -1.705635,-2.09152 -1.823287,-2.66678 -0.204688,-1.0008 -0.221201,-0.98669 -1.640061,1.40161 -0.788311,1.32692 -2.26445,3.39516 -3.280311,4.59609 -1.015862,1.20092 -2.148128,2.4431 -2.516144,2.76039 -0.36802,0.31729 -2.040032,1.32823 -3.715588,2.24653 l -3.046462,1.66962 0.737371,1.00151 c 0.405556,0.55084 1.941444,1.80364 3.413087,2.784 1.471643,0.98037 2.79597,1.78249 2.94295,1.78249 0.146977,0 1.169531,0.35906 2.272337,0.79791 1.102805,0.43885 3.415297,1.16705 5.138868,1.61821 1.72357,0.45117 4.46974,0.98397 6.1026,1.18401 1.63285,0.20004 3.41415,0.41448 3.95844,0.47652 0.54428,0.062 1.58338,0.13352 2.30909,0.15884 z m 0.5652,-23.23003 c -0.74775,-0.11957 -1.61334,-0.49785 -1.92354,-0.84061 -0.48106,-0.53156 -0.50153,-0.73993 -0.13923,-1.4169 0.23362,-0.43652 0.74037,-0.87838 1.1261,-0.9819 0.38574,-0.10352 1.09138,-0.19024 1.56809,-0.19272 0.47671,-0.003 1.04542,0.21078 1.26379,0.4739 0.21838,0.26313 0.44281,0.74556 0.49874,1.07208 0.0559,0.32652 -0.0992,0.91424 -0.34471,1.30605 -0.53123,0.5194 -1.14258,0.66624 -2.04924,0.5801 z m 3.34496,0.34962 c 0.71765,-0.11501 3.21122,-0.01 4.35036,0.65762 0.78008,0.45716 2.02227,1.46272 2.76041,2.23457 1.20271,1.25764 1.34246,1.57514 1.34564,3.05738 0.002,0.90971 -0.28416,2.44119 -0.63583,3.40329 -0.35166,0.96211 -1.33946,2.88976 -2.19511,4.28366 -0.85564,1.3939 -1.91145,3.01681 -2.34623,3.60645 -0.51007,0.69175 -1.07115,1.07208 -1.58161,1.07208 -0.50773,0 -1.07901,-0.38402 -1.59488,-1.07208 -0.44209,-0.58964 -1.09805,-1.66585 -1.45771,-2.39156 -0.35965,-0.72571 -0.95938,-2.21013 -1.33271,-3.2987 -0.37334,-1.08857 -0.91246,-2.91897 -1.19804,-4.06755 -0.28559,-1.14859 -0.51926,-2.60066 -0.51926,-3.22683 0,-0.62618 0.20698,-1.63388 0.45997,-2.23934 0.25297,-0.60546 0.4482,-0.86227 0.98562,-1.2666 0.94206,-0.41773 2.10271,-0.61509 2.95938,-0.75239 z m 2.19301,16.45942 c 0.32778,-0.34012 1.3427,-2.04528 2.25537,-3.78924 0.91267,-1.74396 1.90869,-3.93299 2.21337,-4.86451 0.37376,-1.14269 0.48412,-2.15944 0.33926,-3.12546 -0.20554,-1.37062 -0.31052,-1.48184 -2.45705,-2.60309 -2.13518,-1.11532 -2.34858,-1.16031 -4.46525,-0.94122 -1.36486,0.14127 -2.33896,0.4135 -2.52356,0.70526 -0.16537,0.26135 -0.30294,0.85613 -0.30571,1.32174 -0.003,0.46561 0.15345,1.72737 0.34719,2.8039 0.19373,1.07653 0.64415,2.91722 1.00092,4.0904 0.35678,1.17319 1.17761,3.23276 1.82409,4.57684 1.14138,2.37302 1.19267,2.42587 1.77137,1.82538 z m 6.32245,-15.30765 c -0.12123,-0.006 -0.51731,-0.18146 -0.88017,-0.39097 -0.36285,-0.20952 -0.84529,-0.56551 -1.07207,-0.79109 -0.22679,-0.22557 -0.41234,-0.68794 -0.41234,-1.02747 0,-0.33953 0.17813,-0.79545 0.39584,-1.01317 0.21772,-0.21771 0.64302,-0.39584 0.94513,-0.39584 0.3021,0 0.9404,0.30765 1.41844,0.68368 0.57192,0.44987 0.86916,1.00185 0.86916,1.61406 0,0.54408 -0.21665,1.01351 -0.52179,1.1306 -0.28698,0.11013 -0.62097,0.19572 -0.7422,0.1902 z m -40.899409,8.81004 2.86387,-0.0945 3.183731,-2.42463 c 2.295141,-1.74791 3.738072,-3.16992 5.169873,-5.09494 1.092378,-1.46867 2.360066,-3.40658 2.817088,-4.30647 0.759259,-1.49501 0.798978,-1.77464 0.460409,-3.2414 -0.203793,-0.88288 -0.372806,-2.89278 -0.375583,-4.46643 -0.0026,-1.57366 -0.136705,-3.06914 -0.297615,-3.32328 -0.233925,-0.36947 -0.94367,-0.41992 -3.541054,-0.2517 -1.786669,0.11571 -3.768034,0.26623 -4.403034,0.33447 -0.635,0.0683 -2.416298,-0.0572 -3.958441,-0.27886 -1.589763,-0.22846 -3.119991,-0.28588 -3.533876,-0.1326 -0.401491,0.14869 -1.129874,0.90381 -1.618633,1.67805 -0.488758,0.77424 -1.000024,1.85621 -1.136148,2.40437 -0.136124,0.54817 -0.564322,2.18419 -0.951557,3.63562 -0.400934,1.5028 -0.846898,4.63923 -1.035835,7.28496 -0.323619,4.53175 -0.313142,4.68119 0.426031,6.07703 0.535524,1.01128 1.096468,1.55774 1.912356,1.86298 0.717847,0.26855 2.237783,0.39617 4.018418,0.33738 z m 52.469489,-2.90523 c 0.31879,-0.17061 0.60301,-0.71319 0.63159,-1.20574 0.0286,-0.49254 0.0302,-1.1182 0.004,-1.39034 -0.0266,-0.27214 -0.12999,-1.26445 -0.22969,-2.20514 -0.0997,-0.94068 -0.46155,-2.49932 -0.80411,-3.46364 -0.34257,-0.96431 -0.6337,-1.49622 -0.64696,-1.18201 -0.0133,0.31421 -0.61581,1.85205 -1.33901,3.41742 l -1.31492,2.84612 0.65518,0.83291 c 0.36034,0.45811 0.65517,1.03083 0.65517,1.27271 0,0.24188 0.40715,0.65311 0.90479,0.91385 0.61594,0.32272 1.08984,0.37503 1.48442,0.16386 z M 87.598859,133.51533 c 0.693338,-0.0659 2.151261,-0.28562 3.239833,-0.48829 1.088571,-0.20267 2.684318,-0.52738 3.546104,-0.72158 0.861785,-0.19421 1.566883,-0.50248 1.566883,-0.68506 0,-0.18258 -0.370128,-0.62311 -0.822505,-0.97894 -0.452377,-0.35585 -1.479606,-1.50094 -2.282728,-2.54466 -0.803125,-1.04372 -2.017446,-2.92634 -2.698499,-4.18361 -0.68105,-1.25726 -1.534008,-2.7146 -1.895463,-3.23852 l -0.657191,-0.95258 -0.69778,1.94219 c -0.668552,1.86083 -0.742258,1.93869 -1.759472,1.85847 -0.707073,-0.0558 -1.061687,0.0633 -1.061687,0.35645 0,0.2421 0.279137,1.98685 0.620301,3.87723 0.341169,1.89038 0.850096,3.98643 1.13095,4.65788 0.479285,1.14585 0.58806,1.21346 1.771254,1.10102 z m 11.668156,-3.14652 c 0.181261,0 0.456547,-0.33399 0.611751,-0.74221 0.155204,-0.40821 0.269284,-0.89065 0.253504,-1.07207 -0.0158,-0.18143 -0.517542,-0.49793 -1.115029,-0.70334 -0.896623,-0.30824 -1.086342,-0.29098 -1.086342,0.0988 0,0.25977 0.226476,0.91027 0.503277,1.44554 0.2768,0.53528 0.651579,0.97323 0.832839,0.97323 z m 0.103886,-14.98371 c -0.734904,0.14698 -1.167288,-0.003 -1.858594,-0.64338 -0.495488,-0.4592 -0.900888,-1.1319 -0.900888,-1.49488 0,-0.36299 0.179472,-1.05387 0.398826,-1.5353 0.363425,-0.79763 0.527476,-0.86082 1.848282,-0.71195 0.797204,0.0899 1.647053,0.36544 1.888563,0.6124 0.2415,0.24697 0.53114,0.82524 0.64365,1.28505 0.14053,0.57438 0.006,1.06455 -0.42879,1.56627 -0.34834,0.40163 -1.064309,0.81644 -1.591049,0.92179 z m 30.689439,-0.002 c -0.75434,0.15087 -1.13157,0.009 -1.76346,-0.66373 -0.44212,-0.47061 -0.85172,-1.16931 -0.91022,-1.55266 -0.0585,-0.38336 0.0597,-0.89714 0.26274,-1.14176 0.203,-0.2446 0.80312,-0.66126 1.33359,-0.92589 0.72458,-0.36147 1.20229,-0.39825 1.92058,-0.14785 0.57244,0.19955 1.07988,0.6884 1.26458,1.21822 0.16967,0.48671 0.19704,1.18619 0.0608,1.55441 -0.13621,0.36821 -0.46396,0.849 -0.72834,1.06841 -0.26437,0.21941 -0.9125,0.48529 -1.4403,0.59085 z m -20.38706,-0.2408 c -0.19902,-0.029 -0.80719,-0.11003 -1.35147,-0.17999 -0.67649,-0.087 -1.12008,-0.40417 -1.40195,-1.00258 -0.22679,-0.48146 -0.41234,-1.29479 -0.41234,-1.8074 0,-0.70947 0.21308,-1.01302 0.89234,-1.27128 0.49079,-0.18659 1.44608,-0.24571 2.12286,-0.13137 0.79456,0.13424 1.41955,0.49639 1.76408,1.02221 0.33478,0.51094 0.44803,1.08522 0.30398,1.54148 -0.12627,0.39995 -0.52794,0.98695 -0.89261,1.30445 -0.36466,0.3175 -0.82586,0.55351 -1.02489,0.52448 z m 10.56711,-0.27708 c -0.39096,0 -1.26573,-0.39481 -1.94393,-0.87735 -0.88553,-0.63007 -1.23167,-1.1182 -1.22804,-1.73182 0.003,-0.46996 0.11559,-1.02824 0.2507,-1.24065 0.13512,-0.2124 0.65239,-0.48826 1.1495,-0.61303 0.49711,-0.12477 1.27224,-0.13438 1.72251,-0.0214 0.45027,0.11302 1.03812,0.62983 1.30633,1.14849 0.2682,0.51865 0.40821,1.02245 0.31111,1.11954 -0.0971,0.0971 -0.21719,0.37568 -0.26688,0.61909 -0.0497,0.24342 -0.20289,0.70234 -0.34042,1.01984 -0.13752,0.3175 -0.56992,0.57727 -0.96088,0.57727 z"
       id="path222143" />
  </g>
</svg>
