<?xml version="1.0" encoding="UTF-8" standalone="no"?>
<!-- Created with Inkscape (http://www.inkscape.org/) -->

<svg
   width="94.199585mm"
   height="82.484947mm"
   viewBox="0 0 94.199585 82.484947"
   version="1.1"
   id="svg201307"
   xmlns="http://www.w3.org/2000/svg"
   xmlns:svg="http://www.w3.org/2000/svg">
  <defs
     id="defs201304" />
  <g
     id="layer1"
     transform="translate(-50.905044,-107.88273)">
    <path
       id="path210019"
       style="display:inline;fill:#71ffef;fill-opacity:1;stroke:#000000;stroke-width:2.27165;stroke-linecap:butt;stroke-linejoin:round;stroke-miterlimit:4;stroke-dasharray:none;stroke-dashoffset:1.51181;stroke-opacity:1;paint-order:markers fill stroke"
       d="m 458.17188,416.82227 c -7.97989,0.55282 -15.68537,3.39317 -22.77344,6.99023 -8.59778,4.98619 -16.02806,10.21932 -21.50326,18.25149 -17.37585,17.53819 -14.91259,38.75847 -14.85083,58.25221 -12.11571,5.05979 -12.32116,14.19322 -22.95255,10.44552 -11.58972,-1.95014 -23.21983,-4.06246 -35.01953,-3.95899 -10.00848,-0.14854 -19.9256,1.61298 -29.55665,4.16407 -15.08799,3.25767 -30.71363,2.90171 -45.76757,6.30273 -9.6678,2.74022 -18.73459,7.21689 -27.86133,11.35156 -7.41824,3.39179 -14.35967,7.6995 -20.89258,12.56641 -2.59626,1.96127 -5.97777,3.37245 -7.55469,6.35938 -0.57627,3.0461 3.21704,4.07099 5.53321,4.2832 4.83941,0.39496 9.88528,0.28381 14.49804,1.63476 8.45593,2.05976 16.44101,5.22103 23.82032,9.81055 4.26264,1.90737 7.03574,5.92962 10.51953,8.9082 14.86503,14.33945 29.41903,29.89259 48.30664,38.97071 8.56673,3.91671 11.50445,10.68063 20.89606,11.62714 3.63533,0.30484 9.88029,6.9723 13.02842,4.85832 v 0 c 0,0 2.28538,8.95836 3.43969,10.40008 6.39615,6.05337 13.58503,8.20028 21.18466,12.61641 5.70678,2.43003 11.63198,4.35516 17.45117,6.51367 17.59648,6.01133 36.15458,8.41121 54.55469,10.42578 7.52319,0.35943 14.99407,-0.74501 22.28515,-2.53125 13.44495,-2.88593 25.65507,-9.49443 38.07422,-15.13867 4.17337,-1.74851 7.70377,-4.72156 10.14063,-8.53125 5.2767,-7.98273 14.72651,-24.3056 16.60566,-33.7257 v 0 c 1.83887,2.57781 5.39981,1.71038 8.36699,-0.59852 2.77175,-2.49958 1.53853,-6.71999 1.61133,-9.98633 -0.33638,-7.21891 -1.5309,-14.35832 -3.41016,-21.33007 -2.07726,-10.74839 -6.42906,-30.7465 -13.04213,-39.87098 v 0 c 4.15355,-7.89541 6.97914,-26.52872 7.90151,-35.42395 0.56059,-10.32112 -2.52703,-20.41771 -5.70508,-30.11523 -2.32348,-7.02351 -5.98456,-13.49305 -10.35742,-19.43555 -6.00934,-9.30232 -13.88404,-17.39182 -22.83399,-23.88867 -8.26242,-5.39632 -18.07672,-7.81612 -27.66797,-9.60351 -2.13938,-0.33397 -4.30029,-0.59621 -6.46874,-0.59375 z"
       transform="scale(0.26458333)" />
    <path
       style="display:inline;fill:#7b6d54;fill-opacity:1;stroke:none;stroke-width:3.2126;stroke-linecap:butt;stroke-linejoin:round;stroke-miterlimit:4;stroke-dasharray:none;stroke-dashoffset:1.51181;stroke-opacity:1;paint-order:markers fill stroke"
       d="m 419.71056,483.65672 c -10.79699,5.35676 -15.42824,6.48123 -22.16924,13.19814 -4.73635,5.32652 -7.14628,12.79721 -12.61135,17.70018 -0.84955,2.98169 -2.44843,10.22083 -0.067,9.5812 4.53076,0.27603 10.43961,0.89849 19.40981,1.18752 4.01211,2.20002 9.87106,2.69518 18.55984,2.9896 2.84285,0.0963 14.94421,-5.16232 18.35744,-12.06381 4.68434,-9.47166 0.186,-15.67531 0.35623,-17.78634 -0.44993,-6.54032 -5.76559,-11.24179 -11.32631,-12.73553 -1.30937,-0.28652 -9.16927,-2.10743 -10.50939,-2.07096 z"
       id="path219795"
       transform="scale(0.26458333)" />
    <path
       id="path201591"
       style="display:inline;fill:#000000;stroke-width:1.24675"
       d="m 459.53125,407.75977 c -6.67769,0.10972 -12.96108,0.86228 -15.58789,2.20312 -2.33393,1.19131 -5.1699,2.16602 -6.30274,2.16602 -1.13287,0 -3.96157,1.4029 -6.28515,3.11718 -2.32358,1.71428 -4.95269,3.11719 -5.84375,3.11719 -0.89102,0 -3.3259,2.38455 -5.41016,5.29883 -2.08429,2.91428 -5.45391,7.26211 -7.48828,9.66211 -11.5502,13.62606 -18.63984,33.3768 -18.80273,52.38476 -0.0965,11.25396 -0.28885,12.07524 -3.70313,15.89649 -4.06889,4.55388 -9.05797,5.26186 -16.26172,2.30469 -2.3123,-0.94919 -9.72162,-2.70697 -16.46484,-3.90625 -21.06153,-3.7457 -57.32611,-1.12786 -76.18359,5.5 -3.83524,1.34796 -10.18952,2.83616 -14.1211,3.30664 -16.09512,1.92608 -43.3892,15.33316 -65.24023,32.04687 -2.46473,1.88527 -5.37785,3.42774 -6.47266,3.42774 -2.79849,0 -3.49401,1.63341 -2.59961,6.10546 0.66606,3.3303 1.31569,3.87161 4.66992,3.88672 3.75614,0.0188 10.24153,1.48487 24.21289,5.46875 3.63128,1.03548 9.80326,3.81798 13.71485,6.18555 3.91158,2.36757 10.09815,5.27601 13.74805,6.46289 4.35104,1.41487 7.56982,3.43081 9.3496,5.85156 3.28939,4.47406 34.05927,32.54805 41.22266,37.61133 7.09975,5.01827 15.24376,8.87159 22.41406,10.60352 3.3358,0.80572 6.88393,2.28236 7.88282,3.28125 0.99888,0.99889 2.88266,1.81445 4.1875,1.81445 1.35188,0 3.16885,1.54244 4.2246,3.58398 4.08123,7.89226 27.86436,24.30249 40.14258,27.69922 20.31296,5.61948 27.23721,7.36719 29.19727,7.36719 1.6535,0 2.26029,1.69558 2.92383,8.17188 0.46049,4.49476 1.70758,12.38088 2.77148,17.52539 1.06379,5.1445 1.61254,10.19444 1.21875,11.2207 -0.59784,1.55807 -3.54901,1.80267 -17.87305,1.48633 l -17.15625,-0.37891 -0.3789,3.26953 c -0.45989,3.96609 0.87471,4.64203 13.4707,6.81836 11.51762,1.99 25.83789,1.39638 31.02344,-1.28515 4.49756,-2.32581 4.4087,-1.8794 2.13672,-10.72266 -2.23272,-8.69053 -4.48438,-23.41087 -4.48438,-29.31445 0,-4.47013 0.092,-4.55867 4.05078,-3.89453 2.22856,0.37387 6.43729,1.0457 9.35157,1.49414 5.02582,0.77336 5.29882,1.03274 5.29882,5.02343 0,3.9173 1.02945,7.49232 6.80664,23.625 1.22782,3.42856 2.58987,8.19766 3.02735,10.59766 l 0.79687,4.36328 7.89063,0.37305 c 7.51801,0.35652 8.20082,0.14143 14.45703,-4.58203 7.19675,-5.43364 18.13672,-19.71129 18.13672,-23.66993 0,-1.41909 -1.09802,-2.84803 -2.54297,-3.30664 -2.01865,-0.6407 -4.98599,1.52842 -14.38477,10.51368 -6.51284,6.22635 -12.38126,11.32031 -13.04101,11.32031 -0.65976,0 -1.19922,-0.94048 -1.19922,-2.0918 0,-2.16612 -0.33034,-3.30665 -5.58789,-19.3125 -3.7299,-11.35532 -3.79935,-12.26134 -0.95703,-12.25 4.6422,0.0176 25.09286,-4.08716 34.59765,-6.94531 11.26542,-3.38755 19.37477,-8.41301 29.14258,-18.05859 8.13185,-8.0301 9.68264,-11.41973 14.35742,-31.40039 0.51772,-2.21299 1.55768,-3.34884 2.96094,-3.23243 6.40358,0.53133 7.60694,-0.24708 10.79883,-6.99414 4.22479,-8.93053 4.1332,-16.20965 -0.43164,-34.61523 -3.6819,-14.84553 -12.56863,-35.50477 -15.80859,-36.74805 -1.39994,-0.53722 -1.15691,-1.80481 1.24218,-6.45703 7.60759,-14.75252 8.30223,-18.52636 8.63672,-46.93359 0.0709,-6.01947 -7.76941,-28.24948 -11.73633,-33.27735 -1.9971,-2.53122 -3.63086,-4.92851 -3.63086,-5.32812 0,-0.39961 -1.89998,-3.48868 -4.22265,-6.86524 -7.86384,-11.43201 -22.09522,-23.00977 -31.9336,-25.97851 -2.4,-0.7242 -6.88693,-2.0534 -9.97265,-2.95508 -4.20459,-1.22859 -11.27739,-1.76206 -17.95508,-1.65234 z m -11.9228,79.08011 c 2.49352,0.51171 5.23629,-1.80262 6.98193,-3.09324 6.27988,-4.64292 2.60222,-14.64122 -4.84022,-13.15983 -3.98971,0.79415 -9.52037,6.45166 -8.8421,9.04539 1.06673,4.07922 3.48701,6.54825 6.70039,7.20768 z m -26.54238,-14.21823 c 0.671,-5.95305 -0.8685,-8.10356 -5.80081,-8.10356 -4.19772,0 -7.8999,3.0858 -8.08835,6.74423 0,0 -0.3312,3.33729 0.12511,5.56579 1.06563,3.10345 2.6632,4.78354 4.96891,4.33109 1.80202,-0.56733 4.28999,-1.83511 5.93523,-3.67736 1.91723,-2.1468 2.85991,-4.86019 2.85991,-4.86019 z m -7.26339,10.06846 c -5.12861,2.9702 -10.9405,7.34748 -10.9405,7.34748 l 1.0636,-9.31692 c 0.39207,-3.43449 0.95324,-6.41626 0.95324,-5.87555 l 0.58667,-2.85727 c -1.41695,-5.37421 13.20023,-35.8866 23.84795,-44.72911 5.8611,-4.86742 22.04406,-8.92594 29.60433,-8.8564 7.3646,0.0677 22.68385,4.24718 29.66211,8.09375 6.92806,3.81891 18.78542,15.19712 23.1914,22.25391 1.37144,2.19651 3.94651,5.9367 5.72266,8.31055 5.59491,7.47787 12.35547,29.9581 12.35547,41.08593 0,6.51221 -4.40215,21.68654 -7.41602,25.56641 -0.53265,0.68572 -1.31806,2.649 -1.74609,4.36328 -0.42803,1.71432 -3.58613,6.20317 -7.01953,9.97461 -3.43336,3.7714 -6.56535,7.83906 -6.95899,9.03906 -0.39363,1.2 -1.14829,2.18164 -1.67773,2.18164 -1.17755,0 -3.85742,5.6697 -3.85742,8.16211 0,5.25978 13.84132,-2.16737 18.70508,-10.03711 l 2.7207,-4.40234 2.14648,2.82813 c 3.62744,4.77637 7.52158,15.31653 8.72071,23.60742 0.628,4.34211 1.72438,9.39737 2.4375,11.23437 0.71316,1.83704 1.65591,8.14629 2.0957,14.02149 0.6689,8.93597 0.48908,10.80219 -1.10547,11.41406 -3.75118,1.43947 -6.48816,-1.60057 -12.43555,-13.81445 -1.00168,-2.05716 -3.02226,-7.66875 -4.49023,-12.46875 -3.3459,-10.9403 -4.26066,-12.42469 -6.99609,-11.375 -2.27766,0.87401 -2.26846,1.20337 0.48046,18.85547 1.00113,6.42874 3.74631,12.67584 7.92579,18.0371 3.31366,4.25057 2.05863,12.97113 -3.54883,24.65625 -5.34936,11.14723 -9.27927,15.92609 -15.19922,18.48438 -2.51505,1.08684 -7.37808,3.30062 -10.80664,4.91992 -14.17546,6.69498 -19.23957,8.51042 -29.92188,10.72266 -10.79187,2.23495 -14.30388,2.47666 -22.44336,1.54883 -26.801,-3.05507 -42.48774,-6.43761 -57.44726,-12.39063 -4.1681,-1.65865 -7.99794,-3.01562 -8.50977,-3.01562 -1.90693,0 -18.83159,-11.63526 -22.2539,-15.29883 l -3.55078,-3.80274 10.43164,-5.72265 c 5.73723,-3.14733 11.8,-6.84341 13.47265,-8.21485 8.21589,-6.73625 22.95914,-26.87893 31.69922,-43.30468 8.02156,-15.07541 9.50441,-38.79991 1.75195,-28.03321 -1.09542,1.5213 -2.70688,5.00911 -3.58203,7.75196 -0.87518,2.74287 -2.84481,6.67139 -4.37695,8.72851 -1.53211,2.05716 -4.21108,6.5441 -5.95117,9.97266 -6.52418,12.85504 -17.67384,26.03915 -29.8125,35.24804 -7.05302,5.35076 -13.3551,9.13993 -16,9.6211 -6.89901,1.25503 -23.19113,-2.66676 -34.40039,-8.28125 -11.46986,-5.74503 -24.38034,-16.15947 -41.87696,-33.78125 -6.63822,-6.68572 -12.40071,-12.15625 -12.80468,-12.15625 -0.40398,0 -2.9573,-1.40426 -5.67383,-3.11914 -7.15721,-4.51813 -22.51855,-9.34766 -29.72656,-9.34766 -11.1568,0 -12.81543,-1.9282 -5.49219,-6.38086 2.57143,-1.56348 6.64574,-4.3991 9.05273,-6.30273 5.68664,-4.49741 34.96748,-17.78533 43,-19.51367 3.42858,-0.73773 14.00269,-1.99985 23.49805,-2.80274 9.49537,-0.80288 20.71663,-2.54663 24.93555,-3.87695 12.16655,-3.83637 30.88151,-4.2735 48.95117,-1.14258 8.30475,1.43894 15.40506,2.61523 15.77734,2.61523 0.37221,0 -0.3917,2.81212 -1.69726,6.24805 -3.76136,9.89911 -4.08271,9.6282 10.61328,8.97461 15.24004,-0.67778 17.86515,0.50589 24.30664,10.97461 3.779,6.14166 7.02966,7.88031 8.3418,4.46094 0.37096,-0.96669 -0.20697,-3.46385 -1.28516,-5.54883 -1.07819,-2.08498 -1.96094,-4.05828 -1.96094,-4.38672 0,-0.32829 3.04434,-1.22942 6.76563,-2.00195 8.44025,-1.75219 16.25311,-7.29035 18.92773,-13.41602 2.25332,-5.16072 2.11973,-25.54703 -0.22692,-28.65702 -3.01649,-3.86458 -9.08196,-8.4243 -14.49352,-9.15204 -7.78735,-1.04725 -12.1178,-0.25943 -16.05891,2.07925 z m 9.44341,4.22981 c 2.94629,-0.0761 5.91898,0.75471 9.25196,2.45508 8.23555,4.20147 8.58077,9.86555 1.03906,17.04688 -7.73469,7.36508 -16.86646,11.11489 -31.0957,12.76953 -14.94906,1.73828 -14.72619,1.73977 -14.71485,-0.1543 0.0211,-4.0009 14.44622,-20.67253 23.57227,-27.24414 4.4146,-3.17894 8.15918,-4.77517 11.94726,-4.87305 z m 17.05845,22.08006 c 0.21648,0.145 -0.91387,4.24866 -5.00561,8.60226 -5.36956,5.71318 -13.62427,8.37167 -17.39561,8.26013 -6.05314,-0.17888 -5.88134,-0.5783 1.45279,-3.39355 4.56948,-1.75404 12.04998,-6.338 16.62127,-10.1856 2.70939,-2.28045 4.15866,-3.39601 4.32716,-3.28324 z"
       transform="scale(0.26458333)" />
    <path
       id="path203157"
       style="display:inline;fill:#d8adff;fill-opacity:1;stroke:#000000;stroke-width:2.03335;stroke-miterlimit:4;stroke-dasharray:none;stroke-opacity:1;paint-order:markers fill stroke"
       d="m 99.186209,111.36965 c 2.068391,0 2.528401,2.82723 0.962371,5.91763 -1.382254,2.72775 -2.117657,3.06215 -5.028818,2.28881 -2.59912,-0.69045 -4.315193,-3.87117 -3.112106,-5.76868 0.441918,-0.69699 3.091701,-0.20864 3.577535,0.6595 0.29747,0.53156 0.404115,0.45615 0.630453,-0.44564 0.307613,-1.22564 1.904946,-2.65162 2.970565,-2.65162 z" />
  </g>
</svg>
