<?xml version="1.0" encoding="UTF-8" standalone="no"?>
<!-- Created with Inkscape (http://www.inkscape.org/) -->

<svg
   width="64.478485mm"
   height="82.484726mm"
   viewBox="0 0 64.478485 82.484726"
   version="1.1"
   id="svg188912"
   xmlns="http://www.w3.org/2000/svg"
   xmlns:svg="http://www.w3.org/2000/svg">
  <defs
     id="defs188909" />
  <g
     id="layer1"
     transform="translate(-68.191149,-107.59105)">
    <path
       style="display:inline;fill:#71ffef;fill-opacity:1;stroke:none;stroke-width:4.81055;stroke-linecap:butt;stroke-linejoin:round;stroke-miterlimit:4;stroke-dasharray:none;stroke-dashoffset:1.51181;paint-order:normal"
       d="m 426.1584,418.28492 c -9.19328,-2.614 -19.05318,-2.94264 -28.08723,0.50671 -6.20688,1.38597 -11.85361,4.66541 -15.50754,9.95267 -10.81141,13.57049 -19.09771,29.28849 -22.83101,46.30951 -1.0517,5.86705 -4.29982,11.62229 -3.93532,17.57041 2.08467,12.64323 5.82295,25.13592 12.47312,36.11348 1.72543,4.30509 5.58514,8.75978 4.76261,13.65763 -5.19022,-0.78841 -8.09036,-6.39977 -11.54057,-9.85 -4.53685,-6.38962 -13.31117,-4.11975 -19.84334,-3.19874 -11.62627,2.15057 -22.50059,7.02549 -33.40173,11.40538 -10.91489,5.15222 -19.67626,14.06942 -25.15207,24.77969 -5.17006,10.1028 -13.41004,19.03786 -15.61574,30.47557 -1.2773,9.50103 4.91674,20.38633 15.08552,21.33359 8.81974,1.12624 18.60793,1.08643 25.87094,-4.80978 16.88768,-11.33249 30.32534,-27.27317 39.65108,-45.27522 4.60176,-6.41946 7.2277,-13.85996 10.81489,-20.81199 0.7243,-1.49004 2.84351,-4.0869 2.81322,-0.86215 -0.16764,8.59703 -3.04164,17.00127 -5.93965,25.02465 -8.15973,15.24582 -17.83598,29.81572 -29.86747,42.31936 -7.57013,6.75797 -17.73601,10.02372 -25.05652,17.00335 -0.71384,3.92663 4.39574,5.89431 6.63979,8.39266 10.08253,8.61438 22.2147,14.26749 34.8698,17.96954 18.4154,5.67044 37.6349,8.56773 56.80209,10.1189 21.49008,-0.9392 41.6226,-9.84056 60.27393,-19.92312 7.14952,-4.93334 11.14582,-13.29885 14.40274,-21.10888 1.4581,-5.51653 4.655,-11.29408 3.40961,-17.082 -3.41536,-8.13366 -8.89231,-15.5616 -9.78438,-24.5978 -0.42445,-4.8323 -2.19052,-9.97427 -1.20672,-14.72977 2.26674,-1.21199 2.40392,3.52208 3.4512,4.73911 4.07153,10.73999 7.28966,22.72504 15.0669,31.61035 2.75138,2.60102 7.81357,0.95115 7.71136,-3.10417 0.56956,-13.73015 -3.46027,-27.16338 -6.18371,-40.50533 -1.65376,-7.12948 -4.85363,-13.98889 -9.1549,-19.87494 -3.75909,-1.6565 -5.03148,3.94801 -7.28654,5.95779 -3.63266,4.0175 -8.52266,8.7698 -14.13783,8.42208 0.31309,-3.73679 2.7985,-6.44639 5.04793,-9.08796 6.06086,-8.89435 14.03217,-16.72436 17.58572,-27.15308 4.08006,-11.25663 7.79594,-23.63879 4.15242,-35.54446 -3.23221,-16.89139 -11.39441,-32.5358 -22.93623,-45.2296 -8.11321,-9.49693 -18.49175,-17.40139 -30.86504,-20.23256 -0.84728,-0.23897 -1.69776,-0.4655 -2.55133,-0.68088 z"
       id="path196988"
       transform="scale(0.26458333)" />
    <path
       style="fill:#7b6d54;fill-opacity:1;stroke:none;stroke-width:4.81055;stroke-linecap:butt;stroke-linejoin:round;stroke-miterlimit:4;stroke-dasharray:none;stroke-dashoffset:1.51181;paint-order:normal"
       d="m 438.85307,485.20372 c -6.87201,-2.36888 -18.71854,2.2225 -21.9159,8.73038 -2.29702,4.67534 -0.96231,16.94499 1.47265,19.37012 9.2695,6.49075 15.29943,9.88615 35.37268,11.51153 4.39913,0.38571 5.66298,-8.13534 5.37156,-10.66507 -1.39556,-6.37293 -1.54803,-13.34718 -4.52817,-19.2068 -3.66954,-4.48536 -10.53927,-7.93608 -15.77282,-9.74016 z"
       id="path200470"
       transform="scale(0.26458333)" />
    <path
       style="display:inline;fill:#000000;stroke-width:0.32987"
       d="m 91.468598,189.76361 c -3.332694,-0.57582 -3.685639,-0.75445 -3.56395,-1.8038 l 0.100314,-0.86501 4.539237,0.10027 c 3.789904,0.0837 4.570512,0.0188 4.728692,-0.39344 0.104196,-0.27153 -0.04086,-1.60737 -0.322353,-2.96852 -0.281491,-1.36115 -0.611493,-3.44783 -0.733334,-4.63708 -0.175557,-1.71352 -0.336101,-2.16226 -0.773592,-2.16226 -0.518595,0 -2.350598,-0.46222 -7.725066,-1.94905 -3.248614,-0.89872 -9.541019,-5.24083 -10.620842,-7.32898 -0.279334,-0.54017 -0.760225,-0.94795 -1.11791,-0.94795 -0.345239,0 -0.827964,-0.20026 -1.072721,-0.44501 -0.24476,-0.24476 -1.020582,-0.63497 -1.724053,-0.86714 -1.965679,-0.64873 -3.96874,-2.85872 -4.619273,-5.09648 -0.30074,-1.03451 -0.450227,-2.20529 -0.332189,-2.60173 0.880528,-2.95743 5.033847,-10.55894 7.271518,-13.30852 1.45948,-1.79337 4.295615,-3.85937 5.403282,-3.93605 0.482086,-0.0334 1.68272,-0.42605 2.668082,-0.8726 0.985358,-0.44655 2.68221,-1.0651 3.770782,-1.37457 1.088571,-0.30946 2.424545,-0.6941 2.968831,-0.85474 0.544285,-0.16065 1.41922,-0.20534 1.944297,-0.0993 0.873918,0.17647 0.938827,0.12597 0.767235,-0.59697 -1.066773,-4.49445 -1.258784,-5.80744 -1.249132,-8.5417 0.01768,-5.00337 1.889766,-10.23364 4.959046,-13.85454 0.538262,-0.635 1.429855,-1.78542 1.981322,-2.5565 0.551467,-0.77107 1.195562,-1.40194 1.431319,-1.40194 0.23576,0 0.93165,-0.37111 1.54643,-0.82468 0.61478,-0.45357 1.36303,-0.82467 1.66276,-0.82467 0.29973,0 1.05021,-0.2579 1.66773,-0.57311 1.39002,-0.70953 6.64977,-0.79595 8.87471,-0.14581 0.81642,0.23856 2.00396,0.59052 2.63896,0.78214 2.60306,0.78547 6.36826,3.84846 8.44889,6.87317 0.61454,0.89338 1.11734,1.71083 1.11734,1.81656 0,0.10572 0.43233,0.74018 0.96073,1.4099 1.04958,1.33028 3.1239,7.21203 3.10515,8.80468 -0.0885,7.51608 -0.27215,8.5143 -2.28499,12.41756 -0.63476,1.23091 -0.69939,1.5666 -0.32899,1.70873 0.85724,0.32896 3.20878,5.79476 4.18295,9.72265 1.20778,4.86981 1.23173,6.79564 0.11392,9.1585 -0.84451,1.78516 -1.16304,1.99149 -2.85732,1.85091 -0.37128,-0.0308 -0.64632,0.26937 -0.78331,0.85488 -1.23686,5.28655 -1.64686,6.18331 -3.7984,8.30793 -2.5844,2.55207 -4.7304,3.88182 -7.71104,4.77812 -2.51481,0.75621 -7.92565,1.84263 -9.15389,1.83798 -0.75204,-0.003 -0.7333,0.23666 0.25358,3.2411 1.39105,4.23487 1.47823,4.53622 1.47823,5.10935 0,0.30462 0.14283,0.55385 0.31739,0.55385 0.17456,0 1.72727,-1.34786 3.45046,-2.99524 2.48676,-2.37736 3.2719,-2.95118 3.806,-2.78167 0.38231,0.12134 0.67291,0.49897 0.67291,0.87444 0,1.0474 -2.89462,4.82507 -4.79877,6.26271 -1.65528,1.24975 -1.83619,1.30711 -3.82533,1.21279 l -2.08788,-0.099 -0.21045,-1.15455 c -0.11576,-0.635 -0.47625,-1.89675 -0.8011,-2.8039 -1.52856,-4.26843 -1.80115,-5.21446 -1.80115,-6.25091 0,-1.05586 -0.0722,-1.12428 -1.40195,-1.3289 -0.77107,-0.11865 -1.88438,-0.29666 -2.47402,-0.39558 -1.047438,-0.17571 -1.072079,-0.15202 -1.072079,1.03069 0,1.56199 0.595867,5.45685 1.186609,7.75622 0.60113,2.33977 0.62468,2.22156 -0.565299,2.83693 -1.372005,0.70949 -5.16096,0.86636 -8.208323,0.33984 z m 18.307792,-14.34107 c 2.82636,-0.58532 4.16629,-1.06545 7.91688,-2.83684 0.90715,-0.42844 2.1938,-1.01425 2.85923,-1.30182 1.56632,-0.67687 2.60613,-1.94147 4.02148,-4.89083 1.48364,-3.0917 1.81576,-5.399 0.93902,-6.52363 -1.10582,-1.41849 -1.83197,-3.07107 -2.09686,-4.77201 -0.72732,-4.67045 -0.72954,-4.7579 -0.12691,-4.98916 0.72375,-0.27772 0.96542,0.11532 1.85069,3.00994 0.3884,1.27 0.92304,2.75442 1.18807,3.2987 1.57358,3.2316 2.2977,4.03605 3.29021,3.65518 0.42189,-0.16189 0.46974,-0.65555 0.29276,-3.01985 -0.11636,-1.55448 -0.36594,-3.224 -0.55462,-3.71005 -0.18869,-0.48605 -0.47902,-1.82369 -0.64517,-2.97253 -0.31728,-2.19364 -1.34735,-4.98242 -2.30711,-6.24617 l -0.56804,-0.74796 -0.71997,1.16493 c -1.28688,2.08221 -4.94875,4.04725 -4.94875,2.65561 0,-0.65946 0.70877,-2.15968 1.02033,-2.15968 0.14008,0 0.33991,-0.25977 0.44406,-0.57727 0.10415,-0.3175 0.93261,-1.3937 1.84103,-2.39156 0.90841,-0.99786 1.74431,-2.18539 1.85756,-2.63896 0.11325,-0.45357 0.32122,-0.97312 0.46215,-1.15455 0.79742,-1.02655 1.96188,-5.04169 1.96188,-6.76471 0,-2.94423 -1.78863,-8.89225 -3.26895,-10.87076 -0.46994,-0.62809 -1.15131,-1.61748 -1.51417,-2.19864 -1.16575,-1.86711 -4.30292,-4.8774 -6.13597,-5.88782 -1.86337,-1.02713 -5.90983,-2.12552 -7.88351,-2.13993 -0.635,-0.005 -2.26684,0.33073 -3.62631,0.74526 -2.40495,0.73333 -2.52355,0.82022 -4.38701,3.21437 -2.415358,3.10324 -4.697152,7.73928 -5.188866,10.54249 -0.206858,1.17929 -0.605157,2.62984 -0.885108,3.22345 -0.329114,0.69785 -0.439334,1.51497 -0.311869,2.31207 0.5579,3.48893 1.38111,6.17727 2.419367,7.90089 1.714948,2.84701 2.577338,5.0045 2.165148,5.41669 -0.607145,0.60714 -1.687661,-0.0449 -3.12573,-1.88617 -1.223482,-1.56653 -1.546596,-1.79259 -2.559169,-1.79041 -2.109829,0.005 -5.363757,0.67753 -7.066946,1.46161 -0.923425,0.42511 -2.346943,0.96135 -3.163372,1.19163 -1.95449,0.5513 -4.691465,2.40605 -6.116158,4.1447 -0.629349,0.76803 -1.757574,2.55808 -2.507168,3.97787 -0.749593,1.41979 -1.479296,2.65715 -1.621562,2.74968 -0.142263,0.0925 -0.641532,0.93052 -1.109485,1.8622 -1.031448,2.05357 -1.056901,3.76915 -0.08202,5.5287 0.944055,1.7039 2.512129,2.27245 5.742906,2.08226 2.383041,-0.14029 2.395332,-0.14594 5.552796,-2.55056 3.29914,-2.51253 6.234559,-5.97293 7.973835,-9.39993 0.460397,-0.90714 1.168753,-2.09468 1.574131,-2.63896 0.405377,-0.54429 0.926502,-1.58338 1.158061,-2.30909 0.231559,-0.72572 0.658144,-1.64881 0.947971,-2.05133 2.051172,-2.84869 1.659108,3.42856 -0.463269,7.41726 -2.312479,4.34597 -6.213754,9.67514 -8.387545,11.45744 -0.442557,0.36286 -2.046633,1.34107 -3.56461,2.17381 l -2.759957,1.51406 0.939718,1.00598 c 0.905486,0.96932 5.383463,4.04771 5.888006,4.04771 0.135422,0 1.148522,0.35906 2.251328,0.79792 3.958042,1.57506 8.108804,2.47042 15.199907,3.27874 2.15356,0.24548 3.08231,0.18136 5.93766,-0.40997 z m 6.43247,-36.1589 c -0.45357,-0.25928 -1.12156,-0.47751 -1.48442,-0.48495 -2.78987,-0.0572 -5.65866,-2.23382 -6.11428,-4.63903 -0.52928,-2.794 0.81113,-5.5669 3.31305,-6.85371 1.30835,-0.67293 1.77126,-0.73726 3.95578,-0.54977 2.38065,0.20433 2.53246,0.26928 4.02233,1.72102 1.86649,1.81872 2.09174,2.36754 2.54902,6.2106 0.45619,3.83388 0.46819,3.6589 -0.30382,4.43091 -0.5324,0.5324 -1.08952,0.65748 -2.88636,0.64805 -1.30481,-0.007 -2.56804,-0.20686 -3.0513,-0.48312 z m 4.28831,-1.62548 c 0,-0.45451 -0.72028,-5.3925 -0.85217,-5.84219 -0.2526,-0.86126 -2.54287,-2.18805 -4.20796,-2.43775 -2.14587,-0.32179 -2.97662,-0.0228 -3.70754,1.33444 l -0.63321,1.17581 1.31927,1.13605 c 0.7256,0.62484 2.06148,1.60524 2.96862,2.17868 0.90714,0.57343 2.16713,1.39213 2.79998,1.81932 1.00985,0.68168 2.31301,1.03981 2.31301,0.63564 z m -3.93486,0.18129 c 0,0 -4.00924,-2.43462 -4.7476,-2.94795 l -0.99659,-0.69285 0.48937,1.37027 c 0.52314,1.46485 5.04736,2.58531 5.25482,2.27053 z m 4.6453,-9.3828 c -0.18418,-0.0716 -0.45726,-0.28973 -0.60683,-0.48468 -0.29657,-0.38654 -0.37942,-2.43003 -0.11531,-2.84413 0.26047,-0.4084 2.09382,-0.57794 2.71581,-0.25114 1.07113,0.56277 1.02869,2.43687 -0.0759,3.34977 -0.46314,0.38279 -1.27482,0.48021 -1.91781,0.23018 z m -14.39776,-1.91173 c -0.86678,-1.0444 -0.54906,-3.44692 0.53236,-4.02568 0.27082,-0.14493 0.99083,-0.26352 1.60004,-0.26352 0.88441,0 1.19973,0.14056 1.56459,0.69739 0.38028,0.58038 0.40543,0.86932 0.14991,1.72217 -0.45938,1.5333 -1.24338,2.23823 -2.48927,2.23823 -0.57845,0 -1.18938,-0.16587 -1.35763,-0.36859 z"
       id="path190589" />
  </g>
</svg>
