<?xml version="1.0" encoding="UTF-8" standalone="no"?>
<!-- Created with Inkscape (http://www.inkscape.org/) -->

<svg
   width="77.308159mm"
   height="102.22157mm"
   viewBox="0 0 77.308159 102.22157"
   version="1.1"
   id="svg116936"
   xmlns="http://www.w3.org/2000/svg"
   xmlns:svg="http://www.w3.org/2000/svg">
  <defs
     id="defs116933" />
  <g
     id="layer1"
     transform="translate(-60.211317,-103.68073)">
    <path
       style="fill:#b15f47;fill-opacity:1;stroke:none;stroke-width:0.264583px;stroke-linecap:butt;stroke-linejoin:miter;stroke-opacity:1"
       d="m 84.979361,109.26374 c -7.079737,15.27265 -17.584042,46.86286 -3.30527,67.27396 8.522647,12.18288 23.553669,13.07371 37.137109,2.9763 7.86298,-5.84504 8.26609,-37.26528 -2.99651,-54.11763 -11.2626,-16.85236 -26.238104,-26.04992 -30.835329,-16.13263 z"
       id="path117155" />
    <path
       style="fill:#ffffff;stroke:none;stroke-width:0.264583px;stroke-linecap:butt;stroke-linejoin:miter;stroke-opacity:1"
       d="m 95.418866,152.81289 c 3.54421,-0.90567 7.983604,-0.90715 9.196374,-0.28677 2.25371,12.35076 -8.95081,6.53379 -9.196374,0.28677 z"
       id="path119697" />
    <path
       style="fill:#000000;stroke-width:0.32987"
       d="m 77.211422,205.66148 c -0.06983,-0.13608 -0.115702,-0.61336 -0.101937,-1.06063 0.02309,-0.75042 0.214106,-0.84499 2.473267,-1.2245 1.34653,-0.22621 2.830946,-0.54437 3.298702,-0.70703 0.467756,-0.16267 1.40712,-0.23836 2.087477,-0.16821 1.144277,0.11799 1.237013,0.0634 1.237013,-0.72805 0,-0.47058 0.145156,-1.12683 0.322567,-1.45833 0.576478,-1.07716 2.911361,-10.67359 3.147746,-12.93731 l 0.230032,-2.20288 -1.60277,-0.82567 c -2.023836,-1.04258 -7.377311,-6.7148 -8.641786,-9.15632 -0.505862,-0.97673 -1.451244,-2.59769 -2.100854,-3.60213 -2.204598,-3.40878 -3.791916,-10.9865 -3.92393,-18.73251 -0.04455,-2.61409 -0.101402,-2.81183 -1.185415,-4.12338 -1.662463,-2.0114 -5.048187,-6.783 -5.048187,-7.11456 0,-0.15667 -0.206275,-0.45605 -0.458388,-0.66529 -0.252113,-0.20923 -0.784325,-1.30361 -1.182693,-2.43195 -1.47953,-4.19063 -1.99546,-5.09213 -3.094634,-5.40737 -1.255654,-0.36012 -2.513986,-2.41035 -2.45427,-3.99881 0.05984,-1.5917 1.446979,-2.51122 3.321426,-2.20176 1.900946,0.31384 2.593848,1.13795 2.746373,3.26639 0.09942,1.38739 -6.59e-4,1.8551 -0.492057,2.29982 -0.59721,0.54047 -0.548488,0.68646 1.529582,4.58332 1.180542,2.21379 2.724176,4.8415 3.430296,5.83936 0.70612,0.99786 1.596598,2.30306 1.978835,2.90045 0.38224,0.59739 0.737029,1.04271 0.788426,0.98961 0.0514,-0.0531 0.163942,-1.45551 0.250104,-3.11645 0.08616,-1.66095 0.241396,-3.15701 0.344962,-3.32459 0.103569,-0.16758 0.277077,-1.25791 0.385575,-2.42296 0.108501,-1.16504 0.329642,-2.78625 0.491427,-3.60268 0.161785,-0.81643 0.385872,-2.22663 0.497972,-3.13377 0.207749,-1.68115 0.956508,-4.29536 3.165111,-11.05065 2.185571,-6.68486 3.720374,-10.13656 5.388979,-12.11959 0.465351,-0.55303 0.846091,-1.10874 0.846091,-1.23489 0,-0.33069 1.418214,-1.46573 1.847622,-1.4787 0.199763,-0.006 1.061159,-0.38208 1.91421,-0.83565 2.219264,-1.18 3.636439,-1.07423 7.048137,0.526 4.044743,1.89716 5.882157,3.13519 7.184537,4.84086 0.62008,0.8121 2.62756,2.77133 4.46107,4.35385 4.57429,3.94813 8.08317,8.3101 12.38354,15.39425 2.05713,3.38879 3.80827,7.31512 3.72123,8.34359 -0.0395,0.46637 0.26701,1.93577 0.68106,3.26533 l 0.75283,2.41738 0.72909,-1.75764 c 0.401,-0.96671 1.52027,-3.09362 2.48727,-4.72648 2.31629,-3.91126 5.27059,-9.75606 5.27601,-10.43808 0.004,-0.47666 -0.96894,-1.1573 -1.25944,-0.88126 -0.31513,0.29946 -1.02353,-1.73542 -1.03366,-2.96923 -0.0206,-2.51501 1.65406,-4.67896 3.6211,-4.67896 2.25811,0 3.2746,1.93292 2.62536,4.99229 -0.34751,1.63753 -0.58268,2.04322 -1.52034,2.62273 -0.66512,0.41106 -1.10924,0.95161 -1.10924,1.35008 0,0.96496 -0.97954,4.18455 -1.34111,4.40801 -0.16953,0.10478 -0.30824,0.47499 -0.30824,0.8227 0,0.66308 -2.23173,5.11355 -4.15135,8.27851 -0.61961,1.02159 -1.12657,2.0054 -1.12657,2.18623 0,0.18084 -0.2081,0.50151 -0.46244,0.71259 -0.25434,0.21109 -0.56279,0.78592 -0.68544,1.27741 -0.12265,0.49148 -0.44327,1.13809 -0.71249,1.43691 -0.51594,0.57266 -0.42044,3.03819 0.16148,4.16899 0.3674,0.71395 0.75041,4.95942 0.39563,4.38537 -0.1441,-0.23316 -0.19121,1.26131 -0.10468,3.32103 0.10778,2.56569 -0.0107,4.78368 -0.37628,7.04365 -0.59241,3.66234 -1.41857,7.65218 -1.74175,8.41168 -0.11581,0.27215 -0.2362,0.56903 -0.26754,0.65974 -0.34606,1.00174 -0.73321,1.63972 -1.50134,2.47403 -0.50111,0.54429 -1.25895,1.59871 -1.6841,2.34316 -1.23264,2.15841 -1.9412,2.87395 -4.49461,4.53893 -2.50079,1.63065 -4.56737,2.51921 -5.85912,2.51921 -1.49068,0 -1.77497,0.27627 -1.29501,1.25849 0.23803,0.48712 0.51216,1.40521 0.60918,2.04021 0.097,0.635 0.3214,1.89675 0.49862,2.8039 0.17721,0.90714 0.41168,3.20798 0.52104,5.11298 0.10936,1.905 0.34615,3.92371 0.52621,4.48602 l 0.32737,1.02238 4.03172,0.19642 c 4.63032,0.22559 7.91566,1.04738 8.10436,2.02722 0.12883,0.66899 -0.0763,0.66437 -5.72198,-0.12887 -1.27,-0.17844 -3.67752,-0.32929 -5.35004,-0.33523 -2.49033,-0.009 -3.00835,-0.0957 -2.86096,-0.47982 0.099,-0.25797 0.004,-0.79859 -0.21196,-1.20139 -0.21557,-0.40279 -0.59026,-2.90079 -0.83265,-5.5511 -0.53471,-5.84659 -1.0681,-10.30435 -1.25535,-10.49161 -0.0762,-0.0762 -0.66981,0.0835 -1.31918,0.35481 -0.90947,0.38 -2.38226,0.4763 -6.411528,0.41922 -4.83042,-0.0684 -5.358074,-0.13705 -6.892808,-0.89659 l -1.661961,-0.82249 -0.175326,3.14402 c -0.09653,1.73101 -0.463471,4.03355 -0.816462,5.12325 -0.352624,1.08857 -0.834469,2.64721 -1.070765,3.46363 -0.236299,0.81643 -0.630893,2.12049 -0.87688,2.8979 -0.245985,0.77741 -0.447245,1.67214 -0.447245,1.98829 0,1.20144 -0.959312,2.04109 -2.331971,2.04109 -0.717725,0 -2.376292,0.29688 -3.685705,0.65974 -2.441388,0.67654 -4.400975,0.8512 -4.626197,0.41234 z m 28.596998,-21.33007 c 2.01408,-0.68663 4.0183,-1.12622 5.33948,-1.17111 0.20165,-0.007 1.48175,-0.74768 2.84467,-1.64629 2.41019,-1.5891 5.20039,-4.33254 5.20039,-5.11324 0,-0.21265 0.447,-0.81489 0.99333,-1.33832 0.97213,-0.93136 1.37484,-1.97054 2.4274,-6.26396 0.913,-3.72412 1.25838,-15.46508 0.52968,-18.00593 -0.17701,-0.6172 -0.32184,-1.5483 -0.32184,-2.06911 0,-2.53485 -2.49608,-11.36821 -4.34768,-15.386 -1.75955,-3.81804 -5.81953,-10.21335 -6.75415,-10.63919 -0.41845,-0.19065 -0.84049,-0.59768 -0.93787,-0.9045 -0.47956,-1.51096 -4.74102,-6.35336 -9.09716,-10.33733 -2.446738,-2.23769 -6.153337,-4.71959 -6.825005,-4.56994 -0.255719,0.057 -1.188595,-0.0516 -2.073059,-0.2413 -1.512174,-0.3243 -1.735206,-0.27863 -3.738471,0.76554 -1.171699,0.61073 -2.560841,1.5508 -3.086984,2.08903 -1.066276,1.09079 -3.295769,5.46733 -4.32941,8.49872 -1.040767,3.05229 -3.364567,11.97394 -3.694582,14.18442 -0.16252,1.08857 -0.439427,2.57299 -0.615353,3.2987 -0.538437,2.22114 -0.773608,5.94802 -0.845328,13.3964 -0.06537,6.78857 0.01247,8.06134 0.774505,12.66334 0.680895,4.11201 1.901025,7.55343 3.528057,9.951 0.468085,0.68976 1.093935,1.77602 1.390775,2.4139 0.29684,0.63788 1.370947,1.97621 2.386904,2.97407 1.015957,0.99785 2.176368,2.35558 2.578694,3.01716 0.755053,1.24161 2.012673,2.26076 2.789764,2.26076 0.244058,0 1.513672,0.52709 2.821366,1.17132 2.152297,1.06032 2.692783,1.18325 5.703138,1.29718 1.829039,0.0692 3.409769,0.21011 3.512749,0.31309 0.36396,0.36396 1.53894,0.17809 3.84599,-0.60841 z m -5.912865,-23.98454 c -2.351707,-1.18111 -3.936218,-2.92098 -4.791727,-5.26155 -0.553782,-1.51509 -0.571714,-1.81214 -0.157701,-2.61274 0.831082,-1.60714 2.455841,-2.09764 6.075743,-1.8342 3.83849,0.27934 4.71148,0.6429 5.0054,2.08451 0.12084,0.59271 0.0902,1.15767 -0.068,1.25546 -0.15823,0.0978 -0.27569,0.65195 -0.26102,1.23144 0.0955,3.76933 -0.0153,4.17261 -1.42644,5.19485 -0.73782,0.53447 -1.57899,0.96378 -1.86927,0.95402 -0.29027,-0.01 -1.41842,-0.46508 -2.506995,-1.01179 z m 3.330675,-1.77686 c 0.36117,-0.55121 0.55629,-1.61474 0.58487,-3.18785 l 0.0429,-2.36069 -1.81429,-0.42622 c -0.99786,-0.23443 -2.33383,-0.3473 -2.96883,-0.25083 -1.091653,0.16585 -2.968832,0.76647 -2.968832,0.94991 0,0.0465 0.210441,0.58519 0.467647,1.19699 0.925164,2.20064 3.609885,4.42139 5.874745,4.85948 0.13189,0.0255 0.4837,-0.32584 0.78179,-0.78079 z M 86.205944,146.81602 c 0,-0.84182 0.608795,-1.37455 2.768129,-2.42227 l 1.613582,-0.78291 -1.204115,-0.2259 c -2.084845,-0.39112 -3.670755,-2.16536 -2.378696,-2.66117 0.257965,-0.099 0.803052,-0.001 1.211299,0.21727 1.189453,0.63658 5.701664,1.63987 6.006078,1.33546 0.152871,-0.15288 0.637213,-0.11141 1.076313,0.0921 1.698271,0.78728 0.337269,2.97881 -1.617815,2.60507 -0.959087,-0.18334 -4.243106,0.87677 -5.96075,1.92417 -1.302004,0.79396 -1.514025,0.78249 -1.514025,-0.0819 z m 25.521966,-2.29193 c -2.35168,-0.68169 -5.2168,-0.90816 -5.91426,-0.46748 -0.57741,0.36482 -0.79832,0.33945 -1.47256,-0.16914 -0.73969,-0.55795 -0.76112,-0.65839 -0.3173,-1.48767 0.26177,-0.48912 0.8502,-1.02108 1.30762,-1.18213 0.45742,-0.16105 1.05434,-0.44452 1.32648,-0.62993 2.47564,-1.68668 5.69212,-2.16535 6.74353,-1.00355 0.82419,0.91072 0.3789,1.33896 -1.40261,1.34892 -0.85107,0.005 -2.14118,0.28962 -2.86689,0.63304 l -1.31948,0.62438 1.58574,0.0267 c 1.69712,0.0286 4.50091,0.6293 4.54137,0.97301 0.0135,0.11453 0.0868,0.54224 0.16286,0.95045 0.15469,0.82981 -0.48059,0.93238 -2.3745,0.38339 z"
       id="path117102" />
  </g>
</svg>
