<?xml version="1.0" encoding="UTF-8" standalone="no"?>
<!-- Created with Inkscape (http://www.inkscape.org/) -->

<svg
   width="69.432831mm"
   height="102.22157mm"
   viewBox="0 0 69.432831 102.22157"
   version="1.1"
   id="svg112129"
   sodipodi:docname="almond-1.svg"
   inkscape:version="1.1.2 (0a00cf5339, 2022-02-04)"
   inkscape:export-filename="/home/camberbean/Projects/everything110/img/favicon.png"
   inkscape:export-xdpi="36.580002"
   inkscape:export-ydpi="36.580002"
   xmlns:inkscape="http://www.inkscape.org/namespaces/inkscape"
   xmlns:sodipodi="http://sodipodi.sourceforge.net/DTD/sodipodi-0.dtd"
   xmlns="http://www.w3.org/2000/svg"
   xmlns:svg="http://www.w3.org/2000/svg">
  <sodipodi:namedview
     id="namedview8"
     pagecolor="#ffffff"
     bordercolor="#666666"
     borderopacity="1.0"
     inkscape:pageshadow="2"
     inkscape:pageopacity="0.0"
     inkscape:pagecheckerboard="0"
     inkscape:document-units="mm"
     showgrid="false"
     inkscape:zoom="0.65522122"
     inkscape:cx="-57.232579"
     inkscape:cy="170.17153"
     inkscape:window-width="1600"
     inkscape:window-height="815"
     inkscape:window-x="0"
     inkscape:window-y="90"
     inkscape:window-maximized="1"
     inkscape:current-layer="svg112129" />
  <defs
     id="defs112126" />
  <g
     id="layer1"
     transform="translate(-61.369312,-95.308656)">
    <path
       style="fill:#b15f47;fill-opacity:1;stroke:none;stroke-width:0.264583px;stroke-linecap:butt;stroke-linejoin:miter;stroke-opacity:1"
       d="m 79.235242,102.39771 c -9.709954,16.52807 -13.512768,50.39646 -3.443949,63.18132 10.090695,12.81263 19.276978,17.5798 36.807987,7.75527 11.8294,-6.6293 10.22927,-39.66918 -2.98513,-56.83888 C 87.750793,88.087993 82.696013,96.506865 79.235242,102.39771 Z"
       id="path112363" />
    <path
       style="fill:#ffffff;stroke:none;stroke-width:0.264583px;stroke-linecap:butt;stroke-linejoin:miter;stroke-opacity:1"
       d="m 85.340173,132.99667 c -3.799366,9.48643 7.039947,13.39348 10.504184,6.9603 4.757993,-8.83571 -9.376819,-9.77516 -10.504184,-6.9603 z m 19.642787,0.37082 c -3.34271,6.17018 2.90363,11.08601 7.91721,7.61635 5.01358,-3.46966 -4.98494,-13.02892 -7.91721,-7.61635 z m -7.378049,19.23966 c 2.417709,-0.61103 5.268859,-0.49531 7.158909,1.23927 0.0521,5.35725 -8.151105,4.19033 -7.158909,-1.23927 z"
       id="path114967" />
    <path
       style="fill:#000000;stroke-width:0.32987"
       d="m 72.66504,197.2894 c -0.06983,-0.13607 -0.115701,-0.61335 -0.101936,-1.06062 0.02309,-0.75042 0.214106,-0.84499 2.473267,-1.2245 1.34653,-0.22621 2.830946,-0.54437 3.298701,-0.70704 0.467756,-0.16266 1.407121,-0.23835 2.087478,-0.1682 1.144276,0.11799 1.237013,0.0634 1.237013,-0.72805 0,-0.47059 0.145156,-1.12683 0.322567,-1.45833 0.576477,-1.07716 2.911361,-10.67359 3.147746,-12.93731 l 0.230031,-2.20288 -1.602769,-0.82567 c -2.023836,-1.04258 -7.377311,-6.71481 -8.641786,-9.15632 -0.505862,-0.97673 -1.451244,-2.59769 -2.100854,-3.60213 -1.745286,-2.69859 -2.829979,-6.74564 -3.577477,-13.34778 -0.205414,-1.81428 -0.413687,-3.34025 -0.462835,-3.39104 -0.159195,-0.16453 -2.452719,6.30087 -2.958196,8.33909 -0.269962,1.08858 -0.658846,3.36895 -0.86418,5.06751 l -0.373341,3.08829 1.018468,1.05079 c 1.351775,1.39468 1.32805,2.5021 -0.08385,3.91401 -1.037563,1.03756 -1.168278,1.08011 -2.225004,0.72431 -1.523666,-0.51301 -2.407616,-2.0399 -2.032969,-3.51164 0.153577,-0.60329 0.580337,-1.23237 0.94836,-1.39794 0.572176,-0.25741 0.677352,-0.63979 0.725863,-2.63896 0.103173,-4.25176 1.764504,-10.12734 4.37506,-15.47313 l 1.581777,-3.2391 0.07017,-4.51285 c 0.0386,-2.48207 0.195009,-4.95493 0.347594,-5.49526 0.152581,-0.54032 0.359865,-1.8763 0.460627,-2.96883 0.100766,-1.09253 0.31558,-2.65441 0.477365,-3.47083 0.161785,-0.81643 0.385872,-2.22663 0.497972,-3.13377 0.207749,-1.68115 0.956508,-4.29536 3.165111,-11.05065 2.185571,-6.68486 3.720374,-10.13656 5.388979,-12.119587 0.465351,-0.553038 0.84609,-1.10874 0.84609,-1.234896 0,-0.330691 1.418214,-1.465725 1.847623,-1.478699 0.199762,-0.006 1.061159,-0.382078 1.91421,-0.83565 2.219263,-1.179995 3.636438,-1.074232 7.048136,0.526001 4.044742,1.897163 5.882159,3.135195 7.184535,4.840861 0.62008,0.8121 2.627564,2.77133 4.461064,4.35385 1.83351,1.58253 4.29572,4.05068 5.47157,5.48479 5.32504,6.4946 10.75668,15.89207 10.63181,18.39446 -0.0284,0.57002 0.11432,1.44873 0.31725,1.95269 0.63101,1.56704 1.6369,5.92347 1.81462,7.85902 0.12633,1.37581 0.59204,2.64016 1.82256,4.94805 2.35921,4.42477 4.65483,9.95962 5.08076,12.24995 0.28561,1.53579 0.52469,2.02642 1.0927,2.24238 1.57422,0.59851 2.31905,3.04836 1.32493,4.35785 -0.68328,0.90004 -2.19012,1.03078 -3.37398,0.29273 -1.28551,-0.80142 -1.64019,-2.06003 -0.96304,-3.41741 0.66071,-1.32442 0.63655,-2.29907 -0.11671,-4.7086 -0.88468,-2.82996 -3.42327,-8.53523 -4.15177,-9.3308 -0.0476,-0.0519 -0.0161,1.58092 0.0699,3.62858 0.10681,2.54315 -0.0127,4.76839 -0.37724,7.0217 -0.59242,3.66235 -1.41857,7.65219 -1.74176,8.41169 -0.1158,0.27215 -0.23619,0.56903 -0.26753,0.65974 -0.34607,1.00174 -0.73322,1.63972 -1.50134,2.47403 -0.50111,0.54429 -1.25896,1.59871 -1.6841,2.34316 -1.23264,2.15841 -1.9412,2.87395 -4.49462,4.53893 -2.50078,1.63065 -4.56736,2.51921 -5.85911,2.51921 -1.49068,0 -1.77497,0.27627 -1.29501,1.25849 0.23803,0.48712 0.51216,1.40521 0.60918,2.04021 0.097,0.635 0.3214,1.89675 0.49861,2.8039 0.17721,0.90714 0.41169,3.20798 0.52104,5.11298 0.10937,1.905 0.34616,3.92371 0.52621,4.48602 l 0.32737,1.02238 4.03173,0.19642 c 4.63032,0.22559 7.91566,1.04738 8.10436,2.02722 0.12883,0.66899 -0.0763,0.66437 -5.72198,-0.12887 -1.27,-0.17844 -3.67752,-0.3293 -5.35004,-0.33523 -2.49033,-0.009 -3.00836,-0.0957 -2.86096,-0.47982 0.099,-0.25797 0.004,-0.79859 -0.21196,-1.20139 -0.21557,-0.40279 -0.59026,-2.90079 -0.83265,-5.5511 -0.53471,-5.84659 -1.0681,-10.30436 -1.25535,-10.49161 -0.0762,-0.0762 -0.66981,0.0835 -1.31919,0.35481 -0.90946,0.38 -2.382252,0.4763 -6.41152,0.41922 -4.83042,-0.0684 -5.358074,-0.13705 -6.892808,-0.89659 l -1.661961,-0.82249 -0.175326,3.14402 c -0.09653,1.73101 -0.463471,4.03355 -0.816462,5.12325 -0.352624,1.08857 -0.834469,2.64721 -1.070765,3.46363 -0.236299,0.81643 -0.630893,2.12048 -0.87688,2.8979 -0.245984,0.77741 -0.447245,1.67214 -0.447245,1.98829 0,1.20144 -0.959311,2.04109 -2.33197,2.04109 -0.717725,0 -2.376292,0.29688 -3.685705,0.65974 -2.441389,0.67654 -4.400975,0.8512 -4.626198,0.41233 z m 28.597,-21.33007 c 2.01408,-0.68662 4.0183,-1.12621 5.33948,-1.1711 0.20165,-0.007 1.48174,-0.74768 2.84467,-1.64629 2.41019,-1.5891 5.20038,-4.33254 5.20038,-5.11324 0,-0.21265 0.447,-0.8149 0.99334,-1.33832 0.97213,-0.93136 1.37483,-1.97054 2.4274,-6.26396 0.913,-3.72412 1.25838,-15.46508 0.52967,-18.00593 -0.17701,-0.6172 -0.32183,-1.5483 -0.32183,-2.06911 0,-2.53485 -2.49608,-11.36822 -4.34769,-15.386 -1.75954,-3.81804 -5.81952,-10.21335 -6.75414,-10.63919 -0.41845,-0.19066 -0.84049,-0.59768 -0.93787,-0.9045 -0.47956,-1.51096 -4.74102,-6.35336 -9.097164,-10.33733 -2.446736,-2.23769 -6.153335,-4.719587 -6.825003,-4.569945 -0.255719,0.05697 -1.188595,-0.05161 -2.073059,-0.241293 -1.512174,-0.324306 -1.735206,-0.278635 -3.738471,0.765539 -1.171698,0.610732 -2.560841,1.550799 -3.086984,2.089029 -1.066275,1.09079 -3.295768,5.46733 -4.32941,8.49872 -1.040766,3.05229 -3.364566,11.97394 -3.694581,14.18442 -0.162521,1.08857 -0.439427,2.57299 -0.615353,3.2987 -0.538437,2.22114 -0.773608,5.94802 -0.845329,13.3964 -0.06537,6.78857 0.01247,8.06133 0.774506,12.66334 0.680895,4.11201 1.901025,7.55343 3.528056,9.951 0.468086,0.68976 1.093935,1.77602 1.390776,2.4139 0.29684,0.63788 1.370946,1.97621 2.386904,2.97406 1.015957,0.99786 2.176367,2.35559 2.578693,3.01717 0.755053,1.24161 2.012673,2.26076 2.789765,2.26076 0.244057,0 1.513671,0.52709 2.821365,1.17132 2.152297,1.06032 2.692783,1.18325 5.703138,1.29718 1.829034,0.0692 3.409769,0.21011 3.512751,0.31309 0.363959,0.36396 1.538939,0.17809 3.84599,-0.60842 z m -2.540519,-18.39328 c -1.763895,-0.64369 -2.909831,-4.4823 -1.699435,-5.69269 0.581703,-0.58171 0.871365,-0.62686 3.440074,-0.53621 3.845,0.1357 4.94805,0.90121 4.94805,3.43395 0,1.20014 -0.39899,1.80948 -1.72021,2.6271 -0.99572,0.61619 -3.50738,0.70104 -4.968479,0.16785 z m 4.538789,-1.79919 c 0.32548,-0.32548 0.49677,-0.94122 0.4359,-1.56688 -0.0986,-1.01366 -0.13254,-1.03237 -2.05009,-1.13122 -1.67865,-0.0865 -3.822921,0.37153 -3.822921,0.81665 0,0.42072 1.036168,2.05247 1.395007,2.19685 0.995464,0.40052 3.523434,0.20326 4.042104,-0.3154 z M 87.75933,143.15277 c -1.710717,-0.77716 -3.368482,-2.6806 -3.652319,-4.19357 -0.52703,-2.80932 0.406393,-6.62872 1.802615,-7.37595 0.338064,-0.18093 2.119013,-0.35006 3.957663,-0.37586 3.508307,-0.0492 4.063587,0.11954 5.925562,1.801 1.51954,1.37221 1.803615,2.36213 1.35704,4.7289 -0.467733,2.47888 -1.85105,4.56035 -3.623924,5.4529 -1.480166,0.74518 -4.081097,0.72831 -5.766637,-0.0374 z m 5.688847,-1.55948 c 1.421275,-0.91275 2.706941,-4.45762 2.261042,-6.23421 -0.114052,-0.45442 -0.775508,-1.2022 -1.469901,-1.66172 -1.099464,-0.7276 -1.649901,-0.84161 -4.261635,-0.88275 -3.404227,-0.0536 -3.829624,0.14763 -4.410535,2.08653 -0.811045,2.70703 0.785078,6.13384 3.349557,7.19138 1.014466,0.41834 3.535096,0.14065 4.531472,-0.49923 z m -6.044645,-4.25538 c -0.962063,-1.46829 -0.071,-3.46604 1.545959,-3.46604 1.991894,0 2.600211,3.27092 0.739859,3.97822 -1.258171,0.47836 -1.701945,0.37892 -2.285818,-0.51218 z m 19.170978,5.01767 c -1.67638,-0.94948 -2.67861,-2.45074 -3.14911,-4.71716 -0.50058,-2.41124 -0.21562,-3.43741 1.45173,-5.22787 1.23971,-1.33123 1.56702,-1.50751 2.79914,-1.50751 0.7674,0 1.8502,0.23525 2.40623,0.52278 1.3692,0.70804 3.84831,3.03021 4.42447,4.14438 1.23052,2.37957 -0.0914,6.00616 -2.59734,7.1258 -1.46107,0.65278 -3.85074,0.5003 -5.33512,-0.34042 z m 4.94967,-1.14915 c 0.93969,-0.66737 1.80291,-2.24701 1.80291,-3.2992 0,-0.87567 -0.40193,-2.85193 -1.42885,-3.37539 0.82857,1.94267 -0.7754,3.61973 -2.95944,2.4604 -1.48125,-0.78629 -1.63538,-3.42942 0.78294,-3.76979 -0.28152,-0.28152 -1.35771,-0.64184 -2.52048,-0.30088 -1.36768,0.40105 -1.62872,0.63116 -2.18446,1.92557 -1.08119,2.51827 -0.23901,4.81564 2.2391,6.10797 0.99325,0.51797 3.67082,0.67563 4.26828,0.25131 z"
       id="path112310" />
  </g>
</svg>
