<?xml version="1.0" encoding="UTF-8" standalone="no"?>
<!-- Created with Inkscape (http://www.inkscape.org/) -->

<svg
   width="69.432838mm"
   height="102.22157mm"
   viewBox="0 0 69.432838 102.22157"
   version="1.1"
   id="svg126370"
   inkscape:version="1.1.2 (0a00cf5339, 2022-02-04)"
   sodipodi:docname="almond-4.svg"
   xmlns:inkscape="http://www.inkscape.org/namespaces/inkscape"
   xmlns:sodipodi="http://sodipodi.sourceforge.net/DTD/sodipodi-0.dtd"
   xmlns="http://www.w3.org/2000/svg"
   xmlns:svg="http://www.w3.org/2000/svg">
  <sodipodi:namedview
     id="namedview126372"
     pagecolor="#ffffff"
     bordercolor="#666666"
     borderopacity="1.0"
     inkscape:pageshadow="2"
     inkscape:pageopacity="0.0"
     inkscape:pagecheckerboard="0"
     inkscape:document-units="mm"
     showgrid="false"
     inkscape:snap-global="false"
     inkscape:zoom="0.59419893"
     inkscape:cx="110.23244"
     inkscape:cy="27.768478"
     inkscape:window-width="1920"
     inkscape:window-height="967"
     inkscape:window-x="0"
     inkscape:window-y="0"
     inkscape:window-maximized="1"
     inkscape:current-layer="layer1" />
  <defs
     id="defs126367" />
  <g
     inkscape:label="Layer 1"
     inkscape:groupmode="layer"
     id="layer1"
     transform="translate(-71.766399,-93.118672)">
    <path
       style="fill:#b15f47;fill-opacity:1;stroke:none;stroke-width:0.264583px;stroke-linecap:butt;stroke-linejoin:miter;stroke-opacity:1"
       d="m 87.744236,105.18329 c -10.243642,24.50988 -9.419972,53.25811 4.941315,66.22708 12.935339,11.68126 38.331359,1.37285 37.610859,-20.20637 -0.68662,-20.56436 -4.53374,-32.92497 -15.80488,-44.38296 C 93.308503,85.286858 90.329881,98.996645 87.744236,105.18329 Z"
       id="path126704"
       sodipodi:nodetypes="sssss" />
    <path
       style="fill:#ffffff;stroke:none;stroke-width:0.264583px;stroke-linecap:butt;stroke-linejoin:miter;stroke-opacity:1"
       d="m 94.857323,136.2584 c -1.18751,-3.75979 5.884817,-2.64883 11.406867,-2.83157 2.00579,-0.0664 -0.0381,7.27975 -4.53246,7.43015 -4.494366,0.1504 -6.147553,-2.29727 -6.874407,-4.59858 z m 19.590287,-0.86053 c -0.979,-2.66428 6.05303,-2.8287 9.06787,-1.88528 3.34155,1.04567 0.33624,6.17206 -2.91889,6.69094 -2.59446,0.41357 -4.59532,-0.5775 -6.14898,-4.80566 z"
       id="path132048"
       sodipodi:nodetypes="ssssssss" />
    <path
       style="fill:#000000;stroke-width:0.32987"
       d="m 83.062129,195.09942 c -0.06983,-0.13607 -0.115702,-0.61335 -0.101937,-1.06063 0.02309,-0.75042 0.214106,-0.84498 2.473267,-1.2245 1.34653,-0.2262 2.830946,-0.54436 3.298702,-0.70703 0.467756,-0.16266 1.40712,-0.23836 2.087477,-0.1682 1.144277,0.11798 1.237013,0.0634 1.237013,-0.72806 0,-0.47058 0.145156,-1.12683 0.322567,-1.45832 0.576478,-1.07716 2.911361,-10.67359 3.147746,-12.93731 l 0.230032,-2.20288 -1.60277,-0.82567 c -2.023835,-1.04259 -7.377311,-6.71481 -8.641786,-9.15632 -0.505862,-0.97674 -1.451244,-2.5977 -2.100854,-3.60213 -1.745286,-2.69859 -2.829978,-6.74565 -3.577477,-13.34778 -0.205414,-1.81429 -0.413687,-3.34026 -0.462835,-3.39105 -0.159195,-0.16452 -2.452719,6.30087 -2.958196,8.3391 -0.269962,1.08857 -0.658846,3.36895 -0.86418,5.06751 l -0.373341,3.08828 1.018468,1.0508 c 1.351774,1.39467 1.32805,2.5021 -0.08385,3.914 -1.037564,1.03756 -1.168278,1.08011 -2.225004,0.72432 -1.523667,-0.51302 -2.407616,-2.0399 -2.03297,-3.51164 0.153578,-0.6033 0.580338,-1.23237 0.948361,-1.39794 0.572176,-0.25741 0.677352,-0.63979 0.725862,-2.63896 0.103174,-4.25177 1.764505,-10.12735 4.375061,-15.47314 l 1.581777,-3.2391 0.07017,-4.51285 c 0.0386,-2.48206 0.195009,-4.95493 0.347594,-5.49525 0.152581,-0.54033 0.359865,-1.8763 0.460627,-2.96883 0.100766,-1.09253 0.315581,-2.65441 0.477365,-3.47084 0.161785,-0.81643 0.385873,-2.22662 0.497972,-3.13376 0.207749,-1.68115 0.956508,-4.29537 3.165111,-11.05065 2.185571,-6.68486 3.720374,-10.136567 5.388979,-12.119591 0.465351,-0.553036 0.846091,-1.10874 0.846091,-1.234897 0,-0.330691 1.418214,-1.465723 1.847622,-1.478698 0.199763,-0.006 1.061159,-0.382078 1.91421,-0.83565 2.219264,-1.179996 3.636439,-1.074232 7.048137,0.526002 4.04474,1.89716 5.88216,3.135193 7.18454,4.840863 0.62008,0.812101 2.62756,2.771331 4.46106,4.353851 1.83351,1.58252 4.29572,4.05068 5.47157,5.48479 5.32504,6.4946 10.75669,15.89207 10.63181,18.39446 -0.0284,0.57002 0.11432,1.44873 0.31725,1.95268 0.63101,1.56704 1.6369,5.92347 1.81462,7.85902 0.12633,1.37581 0.59204,2.64017 1.82256,4.94806 2.35921,4.42477 4.65483,9.95961 5.08076,12.24994 0.28561,1.5358 0.52469,2.02642 1.0927,2.24238 1.57422,0.59852 2.31905,3.04837 1.32493,4.35785 -0.68328,0.90005 -2.19012,1.03079 -3.37397,0.29274 -1.28551,-0.80142 -1.6402,-2.06004 -0.96305,-3.41741 0.66071,-1.32443 0.63655,-2.29907 -0.11671,-4.7086 -0.88468,-2.82997 -3.42327,-8.53524 -4.15177,-9.3308 -0.0476,-0.0519 -0.0161,1.58092 0.0699,3.62857 0.10681,2.54316 -0.0127,4.7684 -0.37724,7.02171 -0.59242,3.66235 -1.41857,7.65219 -1.74176,8.41169 -0.1158,0.27214 -0.23619,0.56903 -0.26753,0.65974 -0.34607,1.00174 -0.73322,1.63972 -1.50134,2.47403 -0.50111,0.54428 -1.25896,1.5987 -1.6841,2.34316 -1.23264,2.15841 -1.9412,2.87395 -4.49462,4.53892 -2.50078,1.63066 -4.56736,2.51921 -5.85911,2.51921 -1.49068,0 -1.77497,0.27628 -1.29501,1.2585 0.23803,0.48711 0.51216,1.40521 0.60918,2.04021 0.097,0.635 0.3214,1.89675 0.49861,2.80389 0.17721,0.90715 0.41169,3.20799 0.52104,5.11299 0.10937,1.905 0.34616,3.92371 0.52621,4.48602 l 0.32737,1.02238 4.03173,0.19642 c 4.63032,0.22558 7.91566,1.04737 8.10436,2.02721 0.12883,0.669 -0.0763,0.66438 -5.72198,-0.12886 -1.27,-0.17844 -3.67752,-0.3293 -5.35004,-0.33523 -2.49033,-0.009 -3.00836,-0.0957 -2.86096,-0.47983 0.099,-0.25796 0.004,-0.79859 -0.21196,-1.20138 -0.21557,-0.4028 -0.59026,-2.90079 -0.83265,-5.5511 -0.53472,-5.8466 -1.0681,-10.30436 -1.25535,-10.49162 -0.0762,-0.0762 -0.66981,0.0835 -1.31919,0.35481 -0.90946,0.38 -2.38225,0.4763 -6.41152,0.41923 -4.83042,-0.0684 -5.35807,-0.13706 -6.892809,-0.89659 l -1.661961,-0.8225 -0.175326,3.14403 c -0.09653,1.73101 -0.463471,4.03354 -0.816462,5.12324 -0.352624,1.08857 -0.834469,2.64721 -1.070765,3.46364 -0.236299,0.81643 -0.630893,2.12048 -0.87688,2.89789 -0.245985,0.77741 -0.447245,1.67214 -0.447245,1.98829 0,1.20144 -0.959312,2.04109 -2.331971,2.04109 -0.717725,0 -2.376292,0.29689 -3.685705,0.65974 -2.441388,0.67655 -4.400975,0.85121 -4.626197,0.41234 z m 28.596991,-21.33007 c 2.01409,-0.68663 4.01831,-1.12621 5.33949,-1.17111 0.20165,-0.007 1.48174,-0.74768 2.84467,-1.64628 2.41019,-1.5891 5.20038,-4.33254 5.20038,-5.11324 0,-0.21266 0.44701,-0.8149 0.99334,-1.33832 0.97213,-0.93136 1.37483,-1.97054 2.4274,-6.26397 0.913,-3.72411 1.25838,-15.46508 0.52967,-18.00593 -0.17701,-0.6172 -0.32183,-1.5483 -0.32183,-2.0691 0,-2.53486 -2.49608,-11.36822 -4.34769,-15.38601 -1.75954,-3.81803 -5.81952,-10.21334 -6.75414,-10.63918 -0.41845,-0.19066 -0.84049,-0.59769 -0.93787,-0.9045 -0.47956,-1.51097 -4.74102,-6.35336 -9.09716,-10.33733 -2.44674,-2.237692 -6.15334,-4.719591 -6.82501,-4.56995 -0.25572,0.05697 -1.188593,-0.05161 -2.073057,-0.241293 -1.512174,-0.324304 -1.735206,-0.278634 -3.738471,0.76554 -1.171699,0.610731 -2.560841,1.550794 -3.086984,2.08903 -1.066275,1.090783 -3.295769,5.467323 -4.32941,8.498723 -1.040767,3.05229 -3.364567,11.97393 -3.694582,14.18442 -0.16252,1.08857 -0.439427,2.57298 -0.615353,3.2987 -0.538437,2.22114 -0.773608,5.94801 -0.845328,13.3964 -0.06537,6.78856 0.01247,8.06133 0.774505,12.66334 0.680895,4.11201 1.901025,7.55343 3.528057,9.95099 0.468085,0.68977 1.093935,1.77602 1.390775,2.4139 0.29684,0.63788 1.370947,1.97621 2.386904,2.97407 1.015957,0.99786 2.176368,2.35558 2.578694,3.01717 0.755053,1.24161 2.012673,2.26075 2.789764,2.26075 0.244058,0 1.513672,0.5271 2.821366,1.17133 2.1523,1.06031 2.69278,1.18325 5.70314,1.29717 1.82903,0.0692 3.40977,0.21012 3.51275,0.3131 0.36396,0.36396 1.53894,0.17808 3.84598,-0.60842 z m -11.57727,-13.64967 c -0.654584,-0.0987 -0.702299,-0.25571 -0.553386,-1.82034 0.100564,-1.05661 -0.03068,-2.33685 -0.342778,-3.3434 -0.372918,-1.20275 -0.410088,-1.74642 -0.141521,-2.07001 0.299136,-0.36044 0.481723,-0.33422 1.021735,0.14672 0.36163,0.32208 0.83621,1.00468 1.05462,1.51689 l 0.39711,0.9313 7.50137,0.10147 c 7.75013,0.10483 8.8001,0.28889 7.73338,1.35561 -0.43111,0.43111 -1.63008,0.50859 -7.66458,0.49527 l -7.15352,-0.0158 -0.32585,0.90432 c -0.60159,1.66956 -0.80326,1.90709 -1.52658,1.79796 z m -1.925431,-19.13884 c -1.186108,-0.55503 -3.438471,-2.68757 -3.475172,-3.2903 -0.0079,-0.12976 -0.138411,-0.87773 -0.290019,-1.66215 -0.234049,-1.21099 -0.17779,-1.5174 0.37278,-2.03033 0.884213,-0.82378 1.987134,-0.97909 7.328542,-1.03203 5.41937,-0.0537 5.6497,0.0687 5.33652,2.83711 -0.20219,1.78735 -1.37575,3.75589 -2.92337,4.90368 -1.297,0.96192 -4.576738,1.10346 -6.349281,0.27402 z m 5.516961,-1.46116 c 2.59785,-1.50403 3.43987,-5.56774 0.6037,-4.83479 1.1525,1.52888 0.24481,3.67685 -1.54091,4.30496 -2.13387,0.75056 -4.227949,-2.74428 -2.72204,-4.22291 -1.943741,-0.10169 -3.962249,0.39895 -3.881808,1.46798 0.09979,1.32612 1.550518,2.89529 3.016537,3.56932 1.150981,0.52918 3.365581,0.3864 4.524521,-0.28456 z m 13.61834,0.84927 c -1.54029,-0.81385 -2.19205,-1.48657 -2.82352,-2.91434 -1.02544,-2.31853 -0.9591,-3.16428 0.3158,-4.02574 0.97667,-0.65994 1.52834,-0.75714 4.28832,-0.75553 3.23838,0.002 5.61656,0.4371 6.04876,1.10696 0.71865,1.11382 0.01,4.20557 -1.29652,5.65364 -1.35452,1.50168 -4.58523,1.96408 -6.53284,0.93501 z m 4.61818,-1.3525 c 2.1872,-2.11568 3.0696,-4.87928 0.28999,-4.67769 1.67956,3.08233 -1.39581,4.65952 -2.58034,3.99282 -1.17222,-0.65976 -1.99085,-2.74059 -0.82931,-4.11042 -2.59781,-0.0869 -3.76142,-0.22031 -3.64718,1.97945 0.0294,0.56656 1.38911,1.98002 2.50993,2.56452 0.99261,0.51765 3.7411,0.75027 4.25691,0.25132 z"
       id="path126651"
       sodipodi:nodetypes="sssssssscssssssscssssssscsssssssscssssscssssssssscscssssssssssscssscscssssscsssssssssscsssssssssssssssssssssssssssssssssscssscsssssssssssscscsssssscscsscscsss" />
  </g>
</svg>
