<?xml version="1.0" encoding="UTF-8" standalone="no"?>
<!-- Created with Inkscape (http://www.inkscape.org/) -->

<svg
   width="61.184029mm"
   height="102.22157mm"
   viewBox="0 0 61.184029 102.22157"
   version="1.1"
   id="svg120146"
   xmlns="http://www.w3.org/2000/svg"
   xmlns:svg="http://www.w3.org/2000/svg">
  <defs
     id="defs120143" />
  <g
     id="layer1"
     transform="translate(-75.604892,-87.221034)">
    <path
       style="fill:#b15f47;fill-opacity:1;stroke:none;stroke-width:0.264583px;stroke-linecap:butt;stroke-linejoin:miter;stroke-opacity:1"
       d="m 90.704436,93.379098 c -7.69434,12.930092 -10.866292,42.067452 -7.534963,55.143832 3.331332,13.07637 16.839967,29.44535 37.458467,18.03082 19.36119,-10.71847 8.79865,-50.13037 -1.36396,-61.26712 C 112.31391,97.670356 98.637428,80.047959 90.704436,93.379098 Z"
       id="path120351" />
    <path
       style="fill:#ffffff;stroke:none;stroke-width:0.264583px;stroke-linecap:butt;stroke-linejoin:miter;stroke-opacity:1"
       d="m 96.657455,131.04307 c 1.686503,5.40011 9.964325,5.8226 11.323995,-1.98255 1.1518,-6.61188 -14.766886,-9.04143 -11.323995,1.98255 z m 19.410695,-0.35079 c 2.32969,5.3287 11.95972,4.93956 8.1586,-4.25776 -1.90032,-4.59809 -11.75666,-3.97209 -8.1586,4.25776 z"
       id="path124805" />
    <path
       style="fill:#000000;stroke-width:0.32987"
       d="m 84.093486,189.20178 c -0.06983,-0.13607 -0.115702,-0.61335 -0.101936,-1.06063 0.02309,-0.75041 0.214105,-0.84498 2.473267,-1.2245 1.34653,-0.2262 2.830945,-0.54436 3.298701,-0.70703 0.467756,-0.16266 1.407121,-0.23836 2.087478,-0.1682 1.144276,0.11799 1.237013,0.0634 1.237013,-0.72805 0,-0.47059 0.145156,-1.12683 0.322566,-1.45833 0.576478,-1.07716 2.911362,-10.67359 3.147747,-12.93731 l 0.230031,-2.20288 -1.602769,-0.82567 c -1.916242,-0.98716 -7.455461,-6.77394 -8.490593,-8.87005 -0.384553,-0.77872 -1.36277,-2.47606 -2.173812,-3.77187 -1.382931,-2.20955 -1.623957,-2.42319 -3.876439,-3.43616 -1.321001,-0.59407 -2.673438,-1.38635 -3.00542,-1.76063 -0.925434,-1.04335 -2.034428,-3.12057 -2.034428,-3.81063 0,-0.95552 1.857865,-5.78788 3.463026,-9.00743 l 1.446438,-2.90118 0.0703,-4.52089 c 0.03867,-2.4865 0.195141,-4.96298 0.347726,-5.50331 0.152581,-0.54032 0.359865,-1.8763 0.460627,-2.96883 0.100766,-1.09253 0.31558,-2.65441 0.477365,-3.47084 0.161785,-0.81643 0.385872,-2.22662 0.497972,-3.13376 0.207749,-1.68115 0.956508,-4.29537 3.165111,-11.05065 2.18557,-6.684861 3.720374,-10.136566 5.388979,-12.119589 0.465351,-0.553037 0.84609,-1.108741 0.84609,-1.234897 0,-0.330692 1.418214,-1.465724 1.847623,-1.478699 0.199762,-0.006 1.061159,-0.382078 1.914209,-0.835649 2.219264,-1.179996 3.636439,-1.074232 7.048142,0.526002 4.04474,1.89716 5.88216,3.135192 7.18453,4.840863 0.62008,0.812097 2.62756,2.771328 4.46107,4.35385 1.83351,1.582522 4.29571,4.050679 5.47157,5.484789 5.32504,6.4946 10.75668,15.89207 10.63181,18.39446 -0.0284,0.57002 0.11431,1.44873 0.31724,1.95268 0.63088,1.56671 1.64065,5.92609 1.80521,7.79352 0.11938,1.35457 0.65908,2.75124 2.24804,5.81759 l 2.09095,4.03507 -0.55391,1.16156 c -0.39669,0.83187 -0.84054,1.22452 -1.56376,1.38336 -1.13522,0.24934 -1.09549,0.14196 -1.83222,4.95236 -0.54179,3.53762 -1.37043,7.60579 -1.71336,8.41169 -0.11581,0.27214 -0.2362,0.56903 -0.26753,0.65974 -0.34607,1.00174 -0.73322,1.63972 -1.50135,2.47403 -0.5011,0.54428 -1.25895,1.59871 -1.6841,2.34316 -1.23264,2.15841 -1.94119,2.87395 -4.49461,4.53892 -2.50078,1.63066 -4.56737,2.51922 -5.85911,2.51922 -1.49069,0 -1.77498,0.27627 -1.29502,1.25849 0.23803,0.48711 0.51217,1.40521 0.60919,2.04021 0.097,0.635 0.3214,1.89675 0.49861,2.80389 0.17721,0.90715 0.41168,3.20799 0.52104,5.11299 0.10936,1.905 0.34616,3.92371 0.52621,4.48602 l 0.32737,1.02238 4.03173,0.19642 c 4.63031,0.22559 7.91565,1.04738 8.10435,2.02721 0.12884,0.669 -0.0763,0.66438 -5.72197,-0.12886 -1.27,-0.17844 -3.67752,-0.3293 -5.35004,-0.33523 -2.49033,-0.009 -3.00836,-0.0957 -2.86096,-0.47983 0.099,-0.25796 0.004,-0.79858 -0.21196,-1.20138 -0.21557,-0.4028 -0.59027,-2.90079 -0.83266,-5.5511 -0.53471,-5.8466 -1.06809,-10.30436 -1.25535,-10.49162 -0.0762,-0.0762 -0.66981,0.0835 -1.31918,0.35482 -0.90946,0.37999 -2.38226,0.47629 -6.41152,0.41922 -4.83042,-0.0684 -5.35808,-0.13706 -6.892814,-0.89659 l -1.661961,-0.82249 -0.175326,3.14402 c -0.09653,1.73101 -0.463471,4.03354 -0.816462,5.12324 -0.352624,1.08858 -0.834469,2.64721 -1.070765,3.46364 -0.236299,0.81643 -0.630893,2.12048 -0.87688,2.89789 -0.245984,0.77742 -0.447245,1.67215 -0.447245,1.98829 0,1.20144 -0.959311,2.04109 -2.33197,2.04109 -0.717725,0 -2.376292,0.29689 -3.685705,0.65974 -2.441389,0.67655 -4.400976,0.85121 -4.626198,0.41234 z m 28.596994,-21.33007 c 2.01408,-0.68663 4.0183,-1.12621 5.33948,-1.17111 0.20165,-0.007 1.48175,-0.74768 2.84467,-1.64628 2.41019,-1.5891 5.20039,-4.33254 5.20039,-5.11324 0,-0.21265 0.44136,-0.8095 0.98079,-1.32631 1.4168,-1.35738 2.77762,-6.27047 3.13165,-11.3065 l 0.19131,-2.72142 -0.91486,-0.0223 c -1.69114,-0.0412 -3.21895,-0.30178 -3.92493,-0.66954 -0.51107,-0.26623 -0.88502,-0.26666 -1.38035,-0.002 -1.47506,0.78952 -3.36153,-0.91506 -3.36153,-3.03732 0,-1.34205 0.72131,-2.0707 2.34868,-2.37258 1.06813,-0.19814 1.26828,-0.11739 1.89675,0.76522 0.38644,0.5427 0.70262,1.43953 0.70262,1.99294 0,0.8768 0.13975,1.03243 1.08659,1.21005 0.59763,0.11212 1.67341,0.15596 2.39062,0.0974 l 1.30403,-0.10643 -0.10564,-3.54988 c -0.0581,-1.95244 -0.24323,-4.02964 -0.4114,-4.61601 -0.16817,-0.58636 -0.30576,-1.49224 -0.30576,-2.01304 0,-2.53486 -2.49608,-11.36822 -4.34768,-15.38601 -1.75955,-3.81803 -5.81953,-10.21334 -6.75414,-10.63918 -0.41845,-0.19066 -0.8405,-0.59769 -0.93788,-0.9045 -0.47956,-1.51096 -4.74102,-6.353362 -9.09716,-10.337329 -2.44673,-2.237691 -6.15333,-4.719591 -6.825,-4.56995 -0.25572,0.05697 -1.1886,-0.05161 -2.07306,-0.241293 -1.512174,-0.324304 -1.735206,-0.278633 -3.738471,0.76554 -1.171698,0.610731 -2.560841,1.550796 -3.086984,2.089032 -1.066275,1.090785 -3.295768,5.467324 -4.32941,8.49872 -1.040766,3.05229 -3.364566,11.97393 -3.694581,14.18442 -0.162521,1.08857 -0.439427,2.57298 -0.615353,3.2987 -0.538437,2.22114 -0.773608,5.94802 -0.845329,13.3964 -0.0651,6.7612 0.0059,7.93687 0.764422,12.66334 0.379235,2.36297 1.312338,5.83774 1.661641,6.18777 0.137276,0.13756 1.465026,0.3676 2.95056,0.51121 2.301249,0.22246 2.725492,0.18545 2.86667,-0.2501 0.230239,-0.71033 1.714058,-1.33589 3.168706,-1.33589 1.048756,0 1.318481,0.16499 1.910753,1.16882 1.059068,1.79498 1.11785,2.51801 0.280439,3.44936 -1.66273,1.84926 -4.040342,1.76484 -5.340136,-0.1896 -0.596408,-0.89678 -0.78864,-0.96495 -2.721428,-0.96495 -1.143831,0 -2.079693,0.0305 -2.079693,0.0678 0,0.0373 0.380631,0.62871 0.845847,1.31425 0.465216,0.68553 1.088716,1.76832 1.385557,2.4062 0.29684,0.63789 1.370946,1.97621 2.386903,2.97407 1.015958,0.99786 2.176368,2.35558 2.578694,3.01717 0.755053,1.24161 2.012673,2.26075 2.789764,2.26075 0.244058,0 1.513672,0.5271 2.821366,1.17133 2.152293,1.06032 2.692783,1.18325 5.703143,1.29717 1.82903,0.0692 3.40976,0.21012 3.51275,0.3131 0.36395,0.36396 1.53894,0.17808 3.84598,-0.60842 z m -4.03905,-21.38811 c 0.19408,-1.36656 5.46907,-3.4072 9.17684,-3.55008 3.13025,-0.12063 3.52378,0.0616 2.45046,1.13496 -0.32558,0.32558 -1.10049,0.51837 -2.08357,0.51837 -2.46142,0 -5.06329,0.59446 -7.2607,1.65891 -1.11276,0.53902 -2.10538,0.98005 -2.20582,0.98005 -0.10044,0 -0.13519,-0.334 -0.0772,-0.74221 z m -9.463654,-11.41845 c -1.710717,-0.77716 -3.368482,-2.6806 -3.652319,-4.19358 -0.52703,-2.80932 0.406393,-6.62871 1.802615,-7.37595 0.338064,-0.18092 2.119013,-0.35006 3.957658,-0.37586 3.50831,-0.0492 4.06359,0.11955 5.92557,1.801 1.51954,1.37221 1.80361,2.36214 1.35704,4.72891 -0.46774,2.47888 -1.85105,4.56035 -3.62393,5.4529 -1.48016,0.74518 -4.08109,0.7283 -5.766634,-0.0374 z m 5.688844,-1.55948 c 1.4126,-0.90718 2.70727,-4.45632 2.26639,-6.21294 -0.35895,-1.04913 -1.60517,-1.62417 -2.10489,-1.8006 0.77028,0.72475 0.89044,3.37244 -1.83456,3.40508 -2.34072,0.028 -3.02146,-3.24202 -1.83181,-4.08137 -0.74467,-0.0897 -3.062191,-0.0552 -3.514153,0.31992 -0.263035,0.21829 -0.650936,0.9733 -0.862003,1.67778 -0.811045,2.70703 0.785078,6.13384 3.349556,7.19137 1.01447,0.41835 3.5351,0.14065 4.53147,-0.49922 z m 13.12634,0.76228 c -1.67639,-0.94947 -2.67861,-2.45073 -3.14912,-4.71715 -0.50057,-2.41125 -0.21561,-3.43742 1.45173,-5.22787 1.23971,-1.33124 1.56703,-1.50751 2.79915,-1.50751 0.7674,0 1.8502,0.23525 2.40622,0.52278 1.3692,0.70804 3.84832,3.03021 4.42447,4.14437 1.23053,2.37958 -0.0914,6.00617 -2.59734,7.12581 -1.46106,0.65278 -3.85074,0.5003 -5.33511,-0.34043 z m 4.94966,-1.14914 c 1.6933,-1.20259 2.26683,-3.64354 1.25754,-5.35212 l -0.54537,-0.92325 c -0.47254,1.79292 -2.64936,2.3168 -3.7951,1.23705 -1.20929,-1.13963 -0.44693,-3.57073 0.3318,-3.68917 -1.02958,-0.10018 -1.89637,0.53876 -2.32148,0.63921 -0.52596,0.12428 -0.97951,0.66456 -1.41943,1.69085 -1.09685,2.55885 -0.26933,4.84597 2.22377,6.14611 0.99324,0.51798 3.67082,0.67563 4.26827,0.25132 z m -40.969217,15.67388 c -0.248663,-0.9525 -0.687275,-3.66156 -0.974687,-6.02013 -0.287416,-2.35857 -0.560677,-4.32908 -0.607251,-4.3789 -0.113908,-0.12186 -2.25904,5.56649 -2.335507,6.19319 -0.0332,0.27214 -0.178252,0.77325 -0.32233,1.11358 -0.394105,0.93094 0.452549,2.04885 2.666486,3.52079 1.076412,0.71565 1.972481,1.30166 1.991261,1.30224 0.01877,6.6e-4 -0.169306,-0.77827 -0.417972,-1.73077 z m 52.612257,-7.1331 c 0.34838,-0.22085 0.25074,-0.62645 -0.4737,-1.96779 -0.50188,-0.92927 -0.96289,-1.63922 -1.02445,-1.57766 -0.0616,0.0616 -0.0135,0.94934 0.10678,1.97284 0.21351,1.81669 0.49841,2.1387 1.39137,1.57261 z"
       id="path120298" />
  </g>
</svg>
