<?xml version="1.0" encoding="UTF-8" standalone="no"?>
<!-- Created with Inkscape (http://www.inkscape.org/) -->

<svg
   width="70.55584mm"
   height="90.93557mm"
   viewBox="0 0 70.55584 90.93557"
   version="1.1"
   id="svg159513"
   xmlns="http://www.w3.org/2000/svg"
   xmlns:svg="http://www.w3.org/2000/svg">
  <defs
     id="defs159510" />
  <g
     id="layer1"
     transform="translate(-69.246217,-112.25193)">
    <path
       style="fill:#de514d;fill-opacity:1;stroke:#000000;stroke-width:0.264583px;stroke-linecap:butt;stroke-linejoin:miter;stroke-opacity:1"
       d="m 90.626064,113.93553 c -0.845362,0.19773 -2.492433,4.81279 -3.330345,6.58648 -0.837909,1.7737 -2.856495,9.59754 -3.627427,11.48883 -0.770932,1.89128 -2.79088,9.85631 -3.075022,11.15898 -0.284141,1.30268 -4.376996,14.50598 -4.534924,15.23852 -0.157929,0.73253 -2.103678,12.32802 -2.872914,14.56073 -0.769237,2.23271 -2.284979,12.22715 -2.25311,13.87975 0.03187,1.6526 -0.152619,1.77996 1.591538,1.48225 1.74416,-0.29772 9.448035,-2.30746 11.521379,-2.82083 2.073341,-0.51337 12.872037,-3.36191 15.19193,-3.81359 2.319891,-0.45167 13.096751,-2.10345 14.938361,-2.48306 1.8416,-0.37961 10.28954,-1.62949 12.53599,-1.95248 2.24646,-0.32299 3.90252,-0.0572 5.25531,-0.38987 1.35278,-0.3327 0.71164,-0.55979 0.0764,-1.23087 -0.63521,-0.67107 -4.43068,-5.25552 -5.77572,-6.29931 -1.34504,-1.04379 -6.12931,-7.60565 -7.34043,-9.1084 -1.21113,-1.50275 -6.45634,-10.2838 -8.01764,-12.7883 -1.56129,-2.50451 -6.72958,-12.11492 -8.46799,-15.10003 -1.73841,-2.9851 -4.345419,-8.88315 -5.818823,-11.45286 -1.473401,-2.5697 -4.194545,-5.46645 -4.813787,-6.26362 -0.619238,-0.79717 -1.182806,-0.69232 -1.182806,-0.69232 z"
       id="path161440" />
    <path
       style="fill:#ffffff;stroke:none;stroke-width:0.264583px;stroke-linecap:butt;stroke-linejoin:miter;stroke-opacity:1"
       d="m 82.123321,155.90849 c 0.173345,2.02037 1.204214,5.21256 2.904898,7.0162 1.700683,1.80363 3.903977,2.16058 5.315066,2.166 1.411092,0.005 3.713702,-1.63605 4.575823,-3.27347 0.862119,-1.63742 0.221703,-9.38033 0.221703,-9.38033 0,0 -3.615087,0.82432 -5.597578,1.20901 -1.982491,0.38469 -7.419912,2.26259 -7.419912,2.26259 z"
       id="path184979" />
    <path
       style="fill:#ffffff;stroke:none;stroke-width:0.264583px;stroke-linecap:butt;stroke-linejoin:miter;stroke-opacity:1"
       d="m 99.203051,152.87245 c 2.678449,-1.23881 6.943959,-1.38345 8.268339,-1.88618 1.32437,-0.50273 3.10301,-0.29334 3.10301,-0.29334 0,0 0.80709,2.44564 0.0611,5.56219 -0.74594,3.11654 -1.70168,4.7168 -2.83227,5.83417 -1.1306,1.11737 -2.5467,1.24598 -4.28285,0.54956 -1.73615,-0.69642 -3.26201,-3.09419 -3.868405,-4.86965 -0.606394,-1.77546 -0.448964,-4.89675 -0.448964,-4.89675 z"
       id="path185047" />
    <path
       id="path159714"
       style="fill:#000000;stroke-width:0.32987"
       d="m 90.449219,112.25195 c -1.309716,0.29981 -1.662666,1.81537 -2.191394,2.86406 -3.371078,7.90401 -5.976788,16.15307 -8.564008,24.36076 -1.219017,4.25434 -2.552281,8.47364 -3.812331,12.71496 -0.641377,2.21933 -1.048517,4.5627 -1.830181,6.7663 -0.553644,1.18955 -1.531851,2.12467 -1.744664,3.46775 -0.348842,1.38873 -0.168744,3.03176 0.02344,4.50781 0.02397,4.65468 -1.822632,9.02366 -2.362114,13.60456 -0.391777,2.69204 -0.728916,5.39107 -0.721634,8.09208 0.08665,0.66169 0.416391,1.27726 0.863045,1.76625 4.736585,-1.44872 9.609681,-2.33675 14.369013,-3.65381 2.05602,-0.53538 4.102428,-1.10554 6.150518,-1.6704 0.332734,4.7676 0.163635,9.5492 1.172173,14.24809 0.264649,1.33051 0.638566,2.65109 1.249702,3.86714 2.279039,-0.26562 4.666709,-0.0113 6.84961,-0.82227 0.566946,-0.52074 0.105176,-1.49016 -0.597651,-1.59653 -1.303782,-0.71387 -2.957297,-0.28379 -4.244304,-0.95314 -1.028204,-1.32335 -1.023571,-3.09494 -1.320354,-4.67326 -0.447033,-3.52334 -0.371009,-7.08331 -0.490035,-10.62668 2.916195,-0.76916 5.857694,-1.43394 8.81445,-2.02734 0.27625,5.24221 -0.0774,10.55299 0.94962,15.72998 0.0668,0.61371 0.35538,1.32048 1.0914,1.27197 1.32306,-0.0778 2.57685,-0.61087 3.9005,-0.73911 0.98127,-0.182 1.99737,-0.2572 2.96082,-0.48354 0.58188,-0.48334 0.4586,-1.37006 0.18946,-1.98828 -1.94662,-0.0604 -3.8932,-0.12211 -5.83985,-0.18164 -0.47023,-3.4128 -0.65619,-6.85952 -0.52238,-10.30271 0.009,-1.22853 0.016,-2.45706 0.0263,-3.68557 5.7251,-0.87454 11.416,-1.96256 17.13382,-2.87574 4.19551,-0.54205 8.42898,-0.76557 12.62399,-1.29614 0.73617,-0.77258 -0.12111,-1.7607 -0.59212,-2.42356 -2.5332,-3.50642 -5.78002,-6.39925 -8.65007,-9.6155 0.70307,0.009 1.52073,0.39161 2.0876,-0.20237 3.20467,-1.80836 6.24874,-3.98547 9.70342,-5.30154 0.84248,-0.16536 2.1268,0.13061 2.51434,-0.85907 0.42011,-1.16095 0.0507,-2.93165 -1.38934,-3.09601 -1.1893,-0.23934 -2.13608,0.60309 -2.99364,1.27931 -2.02936,1.56814 -4.33665,2.70566 -6.44037,4.16379 -0.62423,0.41634 -1.2834,0.77424 -1.9488,1.1194 -3.68525,-2.92345 -7.16731,-6.11913 -10.30341,-9.62672 -4.26731,-5.17494 -6.80752,-11.45909 -10.27613,-17.14669 -1.22639,-2.10404 -2.42895,-4.22043 -3.56109,-6.37698 0.25562,-0.41151 0.7829,0.0564 1.38125,0.0703 0.6908,0.009 1.10295,-0.69576 0.95654,-1.32297 0.054,-2.71606 0.26162,-5.49121 -0.34951,-8.1575 -0.53638,-0.79468 -1.79858,-0.24567 -1.91994,0.61385 -0.38443,1.35754 -0.16398,2.79638 -0.23826,4.18888 0.0215,1.38103 0.29024,2.74337 0.16406,4.12695 -1.43102,-1.81356 -2.25871,-3.99754 -3.409823,-5.98566 -1.639282,-3.06858 -3.461013,-6.04228 -5.514728,-8.85007 -0.707339,-1.18548 -1.894802,-2.26772 -3.346927,-2.28341 z m 0.943359,3.8086 c 2.31179,2.51511 3.804555,5.62986 5.572169,8.5224 2.066668,3.5885 3.793533,7.36123 5.773283,10.99503 1.27419,2.10205 2.58669,4.18486 3.67408,6.39272 -1.9322,-0.27476 -4.00499,0.0518 -5.57315,1.27485 -1.652298,1.0885 -2.736336,3.01016 -2.674461,5.00432 -0.369104,3.78295 -0.723951,7.67277 0.824453,11.23902 0.634779,1.68787 1.712838,3.39075 3.514328,3.98506 1.77123,0.71182 4.01897,1.12306 5.63704,-0.16316 2.21309,-1.67559 2.95782,-4.55767 3.36805,-7.16957 0.18703,-1.34083 0.27038,-2.69343 0.4096,-4.03966 1.31818,2.39726 3.01057,4.54966 4.48242,6.84766 1.48165,2.45086 3.45275,4.56385 5.2933,6.74668 2.59084,3.05412 5.42788,5.89226 8.04069,8.92324 0.49332,0.50636 0.004,1.32395 -0.66407,1.20703 -5.45113,0.77119 -10.94225,1.30329 -16.34767,2.37246 -5.14307,0.91882 -10.31965,1.6614 -15.461305,2.5736 -3.463885,1.00272 -7.024197,1.63632 -10.456647,2.75511 -2.381887,0.67979 -4.84607,1.01941 -7.231789,1.69461 -2.259938,0.59263 -4.519631,1.18662 -6.77993,1.77805 0.514364,-4.30483 0.985951,-8.6244 1.919922,-12.86328 0.917023,1.73387 2.028132,3.40158 2.542968,5.31445 1.645063,0.93022 3.529824,0.083 5.109732,-0.56935 3.305421,-1.27769 6.648672,-2.57797 10.150576,-3.18651 0.846332,-0.0848 1.760033,0.15507 2.556099,0.0352 1.181694,-1.37061 1.153938,-3.7922 -0.271485,-4.97852 -0.601797,-0.51989 -1.478187,-0.42223 -2.008984,0.14085 -1.146425,0.91361 -2.209476,2.02856 -3.670068,2.42427 -3.027143,1.29119 -6.186062,2.20329 -9.250635,3.37629 -1.291901,-0.74249 -1.592147,-2.3169 -2.251953,-3.53906 -0.991,-2.30527 -1.974668,-4.84783 -1.409187,-7.39075 0.730018,-4.22706 1.763528,-8.39862 2.852047,-12.54585 2.368167,-8.87823 5.356117,-17.59115 7.866389,-26.41972 0.653913,-2.60129 1.445949,-5.16985 2.545738,-7.61955 0.509667,-1.22322 0.908842,-2.48684 1.303216,-3.7507 l 0.615234,0.63282 z m 20.355472,2.8789 c -0.79157,0.16194 -0.71865,1.22253 -0.90128,1.84468 -0.4913,2.77738 -0.64326,5.52051 -0.4288,8.35064 0.17099,0.95572 0.0319,2.35051 0.85742,3.13671 0.64623,0.46627 1.37152,-0.39141 1.1543,-1.04101 0.34998,-3.9228 0.48324,-7.95347 -0.041,-11.85156 -0.0968,-0.25513 -0.34861,-0.49083 -0.64062,-0.43946 z m -3.79493,0.44532 c -1.1704,0.0377 -1.37795,1.47966 -1.36259,2.39573 -0.12014,3.08807 -0.18426,6.13804 0.30791,9.17262 0.38229,0.61041 1.18894,0.67191 1.83984,0.67579 0.0274,-3.99548 -0.2613,-7.98974 -0.3789,-11.97852 -0.0532,-0.17142 -0.21484,-0.32735 -0.40626,-0.26562 z m -5.23632,10.18945 c 0.14367,0.5657 -0.37099,-0.21998 0,0 z m -14.894534,13.39453 c -1.713861,0.18058 -3.503725,0.94104 -4.318393,2.55428 -2.438296,3.73047 -2.780746,8.43954 -2.150357,12.74845 0.445577,2.50691 1.667351,5.07295 3.896484,6.44141 1.482936,0.61936 2.937437,1.54088 4.61167,1.41875 2.755966,-0.0416 5.460682,-1.91704 6.170672,-4.63402 1.093624,-3.43538 0.529954,-7.11603 -0.120233,-10.57965 -0.482872,-2.26109 -1.387795,-4.70103 -3.52055,-5.89224 -1.050259,-0.62112 -1.996223,-1.42431 -3.080261,-1.97622 -0.471197,-0.22794 -0.991547,-0.12883 -1.489032,-0.0808 z m 16.509834,0.59187 c 2.05395,0.20957 3.10039,2.26125 3.98958,3.87547 0.47453,0.87281 1.18002,1.77322 0.88981,2.83058 -3.24134,0.81936 -6.56946,1.22628 -9.813613,2.03599 0.285066,-2.87391 0.712113,-6.17966 3.153813,-8.08032 0.52273,-0.36507 1.12831,-0.66823 1.78041,-0.66172 z m -17.789427,1.06759 c 3.453801,0.30808 6.825102,2.69356 7.736433,6.13403 0.347406,0.76007 -0.245444,1.66271 -1.096076,1.59157 -3.616416,0.66083 -7.261096,1.28218 -10.729714,2.53946 -0.03246,-3.39899 1.021776,-6.74448 2.653683,-9.69542 0.362352,-0.40658 0.903249,-0.57501 1.435674,-0.56964 z m 15.441707,8.22335 c 0,0 0.15389,-0.53838 0,0 -0.0243,1.99292 0.47247,4.67976 2.52469,5.39592 0.56073,0.18713 2.00828,0.89731 3.11554,0.34651 0.98974,-0.49234 1.64548,-2.23985 2.15024,-2.29269 -0.4454,0.41902 -0.51755,2.09667 -1.14542,3.05276 -0.88844,1.3529 -2.38868,2.02096 -3.30131,2.20649 -0.99722,0.076 -1.95311,-0.48731 -2.73595,-1.05741 -0.95648,-0.77929 -1.28308,-1.95035 -1.75589,-3.01549 -0.39286,-1.21801 -0.956566,-3.51064 -0.956566,-3.51064 0.718506,-0.63066 1.627796,-1.09728 2.104666,-1.12545 z m -14.67188,2.75196 c 0.07601,1.52632 -0.217543,3.45067 1.180098,4.5027 0.980274,0.38748 2.07709,1.28846 3.279341,1.16521 1.192998,-0.1223 2.493177,-1.26163 3.022379,-2.72644 0,0 -0.54417,1.9523 -1.198709,3.10308 -1.01997,1.63952 -3.223974,2.56464 -5.183927,1.8245 -2.12074,-0.69099 -3.777731,-1.5436 -4.310422,-3.70973 -0.227352,-0.82331 -0.738875,-2.43164 -0.975446,-3.25266 1.223299,-0.49773 2.758913,-1.21736 4.075355,-1.41448 0.03711,0.16927 0.07422,0.33854 0.111328,0.50782 z" />
  </g>
</svg>
