<?xml version="1.0" encoding="UTF-8" standalone="no"?>
<!-- Created with Inkscape (http://www.inkscape.org/) -->

<svg
   width="82.708305mm"
   height="90.953514mm"
   viewBox="0 0 82.708305 90.953514"
   version="1.1"
   id="svg5"
   xmlns="http://www.w3.org/2000/svg"
   xmlns:svg="http://www.w3.org/2000/svg">
  <defs
     id="defs2" />
  <g
     id="layer1"
     transform="translate(-56.891733,-101.54794)">
    <path
       style="fill:#de514d;fill-opacity:1;stroke:none;stroke-width:0.504986;stroke-dasharray:0.504986, 1.00997"
       d="m 90.89233,104.1651 c -0.684715,0.18668 -0.529209,1.09194 -0.757047,1.62659 -0.526785,2.30829 -1.725721,4.38461 -2.330604,6.67011 -1.422505,4.73888 -2.697651,9.52087 -4.266959,14.20523 -2.731169,8.48301 -5.258271,17.04815 -6.977885,25.80064 -1.515248,7.76122 -3.1199,15.52406 -3.937479,23.39753 -0.179427,0.53894 0.372242,1.00476 0.883126,0.80488 3.653092,-0.97707 7.308271,-1.92332 10.992017,-2.79174 2.212173,-0.48255 4.349869,-1.23327 6.533227,-1.81818 5.983499,-1.44844 12.018744,-2.55066 18.096964,-3.54755 6.1488,-1.0119 12.25462,-2.1814 18.46242,-2.71613 1.02052,-0.17928 2.15377,-0.10249 3.07354,-0.63097 0.61429,-0.63009 -0.19568,-1.37594 -0.59366,-1.86918 -4.41913,-4.98305 -9.33293,-9.57636 -12.94351,-15.21275 -1.55932,-2.31079 -3.1032,-4.63539 -4.65781,-6.9473 -0.33606,-0.49346 -1.07168,-0.10629 -0.97496,0.44825 -0.17088,2.66585 -0.007,5.46012 -1.23849,7.93498 -0.75197,1.54987 -1.98826,3.09386 -3.75339,3.45862 -1.47091,0.12547 -2.96749,-0.17065 -4.22282,-0.96785 -2.08245,-1.26087 -2.923617,-3.77895 -3.402899,-6.01512 -0.656966,-3.39347 -0.425932,-7.00885 0.401523,-10.39966 0.431528,-1.71806 2.046746,-2.78987 3.564646,-3.48832 1.15581,-0.53427 2.48841,-0.60309 3.70527,-0.27301 0.66335,-0.0233 0.55762,-0.82243 0.27187,-1.2032 -1.87463,-3.62637 -4.15647,-7.02353 -5.87004,-10.737 -1.671886,-3.08706 -3.190271,-6.2277 -5.07057,-9.20429 -1.284581,-2.00835 -2.493102,-4.09164 -4.05476,-5.90127 -0.282345,-0.23064 -0.533385,-0.61282 -0.93172,-0.62331 z m -1.873009,28.47969 c 0.867992,-0.0579 1.324168,0.83397 2.04022,1.1657 1.21122,0.76031 2.576214,1.45406 3.275185,2.77374 1.280136,2.2629 1.662988,4.90263 1.969434,7.44727 0.07588,1.62702 0.179728,3.31466 -0.02698,4.95573 -0.419455,1.51014 -0.895049,3.12018 -2.006166,4.27731 -1.126567,0.84073 -2.476469,1.35559 -3.807624,1.77696 -1.252379,0.10389 -2.446227,-0.45468 -3.534995,-0.85136 -2.529985,-1.0189 -4.244136,-3.51838 -4.694002,-6.13961 -0.593389,-3.15244 -0.549749,-6.4402 0.260194,-9.51734 0.535014,-1.77935 1.427903,-3.5113 2.784067,-4.80133 1.035492,-0.84349 2.479072,-0.97627 3.740664,-1.08707 z"
       id="path7685" />
    <path
       style="fill:#000000;stroke-width:0.32987"
       d="m 92.847017,191.60803 c -0.83594,-1.93976 -1.545346,-6.74663 -1.722282,-11.67004 -0.102167,-2.84285 -0.290928,-5.27361 -0.419472,-5.40168 -0.128544,-0.12807 -0.870752,0.0225 -1.649351,0.33457 -0.778599,0.31209 -2.380504,0.76796 -3.55979,1.01306 -3.457177,0.71853 -11.584128,2.74079 -13.194805,3.2833 -2.085171,0.70234 -2.240939,0.65538 -2.630994,-0.79317 -0.318915,-1.18436 0.01639,-6.63511 0.511552,-8.31585 0.112212,-0.3809 -0.115616,-0.58892 -0.793433,-0.72449 -1.22872,-0.24574 -1.926332,-1.76693 -1.496934,-3.26416 0.275861,-0.96186 0.189072,-1.13824 -1.192441,-2.42335 -0.819476,-0.7623 -1.949592,-1.66363 -2.511364,-2.00296 -1.103884,-0.66677 -5.41106,-5.20867 -5.41106,-5.70594 0,-0.16672 -0.457052,-0.76017 -1.01567,-1.31879 -0.829876,-0.82988 -0.977312,-1.19032 -0.805978,-1.97039 0.275837,-1.25588 1.138238,-1.99767 2.529577,-2.17581 0.6218,-0.0796 2.238415,-0.50805 3.592478,-0.95211 3.591339,-1.17774 8.242686,-2.18353 10.097922,-2.18353 h 1.616664 l 0.591437,-2.88636 c 0.325291,-1.5875 1.164646,-4.66766 1.865234,-6.8448 0.700588,-2.17715 1.745943,-5.5913 2.323015,-7.58702 0.577068,-1.99571 1.249907,-4.14811 1.495195,-4.78311 0.245288,-0.635 0.833806,-2.49052 1.30782,-4.12338 0.474013,-1.63286 1.073447,-3.43659 1.332071,-4.0083 0.258629,-0.5717 0.470234,-1.22125 0.470234,-1.44343 0,-0.22219 0.816428,-2.45786 1.814285,-4.96817 0.997857,-2.51031 1.814286,-4.67071 1.814286,-4.80089 0,-0.13018 0.408214,-1.10618 0.907143,-2.1689 0.642352,-1.36822 1.138302,-1.99087 1.699068,-2.13314 1.040341,-0.26395 2.974433,0.7835 3.445903,1.86619 0.199568,0.45829 0.923445,1.5108 1.608613,2.33891 0.68517,0.8281 1.24577,1.64718 1.24577,1.82017 0,0.173 0.34827,0.83143 0.77394,1.46319 1.09868,1.63061 2.24684,3.72363 5.2445,9.56034 1.44428,2.81215 2.81267,5.33565 3.04086,5.60779 0.22819,0.27215 0.96718,1.49547 1.64221,2.7185 0.67502,1.22302 1.35288,2.30129 1.50636,2.39615 0.15348,0.0949 0.45578,0.70795 0.67178,1.36242 0.44534,1.34941 4.92064,9.28147 6.13465,10.87312 0.43936,0.57603 1.35078,1.42983 2.02538,1.89734 0.6746,0.46751 3.02556,2.62275 5.22435,4.78942 5.28522,5.208 11.67103,9.9496 11.67103,8.66599 0,-1.43191 3.52264,-1.93406 4.43454,-0.63213 1.15758,1.65267 0.26735,4.57813 -1.57852,5.18732 -0.95557,0.31536 -1.34449,0.29274 -2.1527,-0.1252 -0.54254,-0.28056 -1.08118,-0.80862 -1.19698,-1.17346 -0.12439,-0.39191 -0.50516,-0.66784 -0.93052,-0.67432 -0.39598,-0.006 -1.31374,-0.44773 -2.03946,-0.98156 -0.72571,-0.53383 -1.83902,-1.32416 -2.47402,-1.75631 -0.635,-0.43214 -2.34208,-1.88307 -3.79351,-3.22428 -3.76013,-3.47462 -1.95255,-1.20406 4.09893,5.1488 3.66563,3.84817 6.02223,7.00116 5.89553,7.88787 -0.0883,0.61771 -0.40318,0.71385 -3.06719,0.93637 -7.41363,0.61925 -10.33597,0.97606 -14.42113,1.76079 -2.40981,0.46291 -5.71744,1.05411 -7.35029,1.31378 -1.63286,0.25967 -3.45127,0.55282 -4.04091,0.65143 l -1.07208,0.17929 0.041,4.6857 c 0.0225,2.57714 0.13387,5.72479 0.2474,6.99479 l 0.20643,2.3091 2.5392,-0.10334 c 2.71165,-0.11034 3.89327,0.25493 3.89327,1.20351 0,0.95521 -0.70262,1.37385 -2.30576,1.37385 -0.83274,0 -2.35738,0.21966 -3.3881,0.48812 -2.74246,0.71432 -3.07621,0.47296 -3.18363,-2.3024 -0.0281,-0.72572 -0.19343,-2.21013 -0.36742,-3.29871 -0.17398,-1.08857 -0.31746,-4.03617 -0.31883,-6.55022 -0.002,-4.03886 -0.0635,-4.54762 -0.52613,-4.37007 -0.28801,0.11052 -1.14155,0.29103 -1.89676,0.40114 -0.75521,0.11011 -2.00917,0.40668 -2.78659,0.65903 -0.77741,0.25235 -1.85078,0.45883 -2.38527,0.45883 -1.309828,0 -1.424036,0.59801 -1.172523,6.13945 0.198948,4.38333 0.511015,6.48152 1.270132,8.53977 0.474801,1.28736 0.782551,1.47329 2.448611,1.47936 1.92587,0.007 3.06682,0.5847 3.06682,1.55277 0,0.96513 -0.0951,0.99426 -3.96646,1.21474 l -3.141788,0.17892 z m 5.019233,-0.37041 c 1.95491,-0.28905 1.50502,-0.57264 -1.47243,-0.92816 l -2.132171,-0.25458 -0.636073,-2.47403 c -0.420551,-1.63574 -0.704038,-4.20647 -0.836659,-7.58701 -0.24451,-6.23258 -0.133726,-7.05715 0.966173,-7.19131 0.446852,-0.0545 1.70311,-0.37259 2.79168,-0.70688 1.08857,-0.33429 2.96287,-0.70776 4.16511,-0.82994 l 2.18588,-0.22215 0.19547,1.42384 c 0.10751,0.78311 0.1991,2.90826 0.20355,4.72254 0.01,3.93903 0.59392,10.10986 0.99551,10.51436 0.16333,0.16451 0.73604,0.13161 1.33331,-0.0766 0.57584,-0.20074 1.99361,-0.46197 3.15059,-0.5805 3.15889,-0.32364 2.2712,-0.90884 -1.06308,-0.70082 -3.18259,0.19855 -2.81271,0.65697 -3.39557,-4.20839 -0.35311,-2.9476 -0.25577,-10.73025 0.14226,-11.37428 0.11425,-0.18486 0.60718,-0.33512 1.0954,-0.33392 0.90315,0.002 2.8739,-0.33193 11.88931,-2.01594 2.78519,-0.52026 7.4611,-1.11098 10.39091,-1.31272 2.92981,-0.20173 5.51159,-0.42145 5.73727,-0.48826 0.31832,-0.0942 0.32494,-0.30887 0.0295,-0.95726 -0.20945,-0.45969 -0.4983,-0.8358 -0.64189,-0.8358 -0.14359,0 -0.74019,-0.7051 -1.32578,-1.56688 -0.58559,-0.86179 -1.81736,-2.32132 -2.73727,-3.2434 -3.61345,-3.62195 -5.30006,-5.56645 -8.29176,-9.55957 -3.07491,-4.1042 -3.58282,-5.09249 -2.61718,-5.09249 0.27214,0 0.4948,0.12127 0.4948,0.26948 0,0.14821 1.81841,2.06954 4.04091,4.26962 5.36554,5.31142 10.16978,8.98558 11.74933,8.98558 0.48622,0 0.70327,0.20613 0.70327,0.6679 0,0.74553 1.38344,1.44018 2.29316,1.15144 0.76939,-0.24419 1.59382,-2.14358 1.35179,-3.11436 -0.12415,-0.49798 -0.56295,-0.92137 -1.16175,-1.12097 -0.86279,-0.2876 -1.05333,-0.21163 -1.84367,0.73508 -0.72068,0.86325 -1.03877,1.01633 -1.74406,0.83931 -1.95631,-0.491 -9.85149,-6.91777 -13.57469,-11.04997 -0.90714,-1.00679 -2.31806,-2.25392 -3.13536,-2.7714 -1.87501,-1.18716 -4.09456,-4.50899 -7.61499,-11.39677 -0.60274,-1.17929 -2.15987,-3.92546 -3.46027,-6.1026 -1.30041,-2.17714 -2.98865,-5.22019 -3.75165,-6.76234 -1.81544,-3.6693 -4.56584,-8.71498 -5.70591,-10.46764 -0.49893,-0.76701 -0.90714,-1.51157 -0.90714,-1.65458 0,-0.143 -0.59377,-0.97854 -1.319485,-1.85675 -0.725714,-0.87822 -1.31948,-1.72325 -1.31948,-1.87786 0,-0.4909 -1.420533,-1.62628 -2.034718,-1.62628 -0.650567,0 -1.558409,1.57276 -2.755851,4.7743 -0.408959,1.09342 -1.300546,3.47245 -1.981299,5.28673 -2.425977,6.4655 -5.408388,15.69033 -6.932111,21.44156 -0.432605,1.63286 -1.072523,3.71104 -1.422041,4.61819 -0.349517,0.90714 -0.955746,2.98532 -1.347173,4.61818 -0.39143,1.63285 -0.853832,3.50833 -1.027558,4.16771 l -0.315871,1.19888 -2.05987,-0.15779 c -1.541368,-0.11807 -2.848693,0.0513 -5.193637,0.67265 -6.279689,1.66409 -9.650449,2.76273 -9.912371,3.23076 -0.254142,0.45413 0.93022,2.65511 2.108119,3.91766 0.253896,0.27214 1.096256,1.23701 1.871911,2.14415 0.775656,0.90715 1.960243,2.02046 2.632419,2.47403 0.672176,0.45357 1.99771,1.5254 2.945635,2.38184 l 1.723499,1.55716 -0.426292,1.17889 c -0.542577,1.50047 -0.114286,2.26543 1.349308,2.40997 1.044082,0.10311 1.065315,0.13645 0.840288,1.31948 -0.809709,4.25687 -1.070765,8.44398 -0.546651,8.7679 0.152225,0.0941 1.005764,-0.0411 1.896753,-0.30036 2.604793,-0.758 11.039796,-2.85445 12.835563,-3.19018 0.907143,-0.1696 2.434237,-0.59665 3.393542,-0.949 3.171606,-1.16492 3.038925,-1.34996 3.038925,4.23811 0,3.06129 0.169751,5.54971 0.455673,6.67987 0.250619,0.99062 0.554937,2.39489 0.67626,3.12061 0.121326,0.72571 0.37311,1.80191 0.559523,2.39156 0.304176,0.96215 0.463144,1.06911 1.55036,1.04317 0.66629,-0.0159 1.95364,-0.13864 2.86078,-0.27277 z M 72.106971,176.44773 c 0.103371,-0.49892 0.419047,-2.76266 0.701502,-5.03052 0.282458,-2.26785 0.799714,-5.60779 1.149462,-7.42207 2.082338,-10.80198 3.388221,-17.21527 4.09728,-20.12208 0.965791,-3.95927 4.081648,-14.42228 6.287005,-21.11169 0.598134,-1.81429 1.640259,-5.37688 2.315837,-7.91688 0.675577,-2.54 1.411464,-4.91507 1.635311,-5.27793 0.328339,-0.53224 1.365329,-3.46729 2.010439,-5.69026 0.619563,-2.13494 4.936613,3.93826 10.375913,14.59676 1.57399,3.08428 3.5361,6.7211 4.36024,8.08182 2.4234,4.00117 5.24216,9.02044 7.01071,12.48373 1.54697,3.02939 3.23178,5.72991 4.76545,7.63834 0.36451,0.45358 0.66603,0.98199 0.67007,1.17427 0.004,0.19227 0.67532,1.13215 1.49175,2.08862 0.81643,0.95647 1.48453,1.83825 1.48467,1.9595 3.1e-4,0.26359 1.09056,1.49891 5.33238,6.04194 6.5289,6.99252 6.34698,6.74251 5.44862,7.48808 -0.23888,0.19825 -1.90885,0.5229 -3.71104,0.72144 -5.68042,0.62579 -7.74483,0.92293 -13.50268,1.94346 -3.08429,0.54667 -7.53753,1.2953 -9.89611,1.66363 -2.35857,0.36833 -4.95629,0.82592 -5.77272,1.01688 -0.81643,0.19096 -3.04306,0.70337 -4.948055,1.13868 -1.905,0.43532 -4.280065,1.07434 -5.277922,1.42003 -0.997857,0.3457 -2.556493,0.73357 -3.463636,0.86195 -1.519389,0.21501 -4.27607,0.93522 -9.704255,2.53533 -2.864631,0.84443 -3.089207,0.82221 -2.860221,-0.28303 z m 4.647593,-1.09538 c 1.27,-0.35175 4.238831,-1.08468 6.597402,-1.62872 2.358572,-0.54405 4.807857,-1.1967 5.442857,-1.45033 0.635,-0.25363 1.970974,-0.62705 2.968831,-0.82982 0.997857,-0.20277 2.408052,-0.50827 3.133766,-0.67888 4.34021,-1.02041 5.04507,-1.15242 15.17403,-2.84188 3.99142,-0.66575 8.44467,-1.41186 9.8961,-1.658 1.45143,-0.24615 4.33039,-0.5895 6.39768,-0.763 2.0673,-0.1735 3.90138,-0.45811 4.07573,-0.63246 0.30647,-0.30647 -0.24592,-0.9573 -5.91042,-6.96368 -3.25164,-3.44789 -6.06935,-6.91145 -7.53182,-9.2582 -0.54429,-0.87339 -1.55493,-2.37912 -2.24587,-3.34609 -0.69095,-0.96695 -1.61408,-2.35187 -2.0514,-3.07758 l -0.79513,-1.31948 -0.0103,2.21038 c -0.0247,5.29536 -1.78344,9.02427 -4.7929,10.16176 -1.60909,0.60818 -4.57905,-0.20691 -6.05997,-1.66313 -2.58891,-2.54573 -3.62391,-8.22716 -2.58794,-14.20591 0.40627,-2.34462 0.66371,-3.01321 1.48296,-3.85128 1.95564,-2.0006 5.00899,-2.94187 6.66612,-2.055 0.36682,0.19631 -0.47728,-1.49221 -2.10251,-4.20585 -1.49345,-2.4936 -2.92244,-5.05338 -3.17553,-5.68838 -0.25309,-0.635 -0.92974,-1.97097 -1.50367,-2.96883 -0.57393,-0.99785 -1.3158,-2.40805 -1.64862,-3.13376 -0.96299,-2.09985 -5.615395,-9.49272 -6.489409,-10.31196 l -0.79558,-0.74572 -0.391352,1.69541 c -0.21524,0.93248 -0.734924,2.38137 -1.154852,3.21975 -0.419928,0.83839 -1.324623,3.60252 -2.010433,6.14252 -0.685806,2.54 -1.72659,6.10259 -2.312848,7.91688 -4.484607,13.87846 -6.115007,19.74659 -7.927818,28.53377 -1.474206,7.14586 -3.391408,17.85331 -3.632454,20.28701 -0.107815,1.08857 -0.274498,2.48171 -0.370404,3.09587 -0.162983,1.04369 -0.124361,1.10154 0.59114,0.8854 0.421033,-0.12719 1.804607,-0.51906 3.074607,-0.87081 z m 12.370129,-19.99114 c -0.453571,-0.0728 -1.418441,-0.37997 -2.144155,-0.68258 -3.897093,-1.62502 -5.642224,-5.06286 -5.568894,-10.97051 0.04804,-3.86973 0.678912,-6.32243 2.225604,-8.65262 1.31504,-1.98119 2.044901,-2.43364 4.437878,-2.75108 1.356043,-0.17988 1.716317,-0.10892 2.239907,0.4412 0.34317,0.36056 1.241905,0.96709 1.997185,1.34785 2.26542,1.14204 3.544102,3.65263 4.208572,8.2632 0.34352,2.38356 0.46074,4.48082 0.31998,5.725 -0.23694,2.09425 -1.30884,4.67384 -2.318244,5.57896 -0.608989,0.54607 -3.885266,1.96436 -4.337967,1.8779 -0.129355,-0.0247 -0.606294,-0.1045 -1.059866,-0.17732 z m 2.474026,-1.09724 c 0.11213,-0.18143 0.462874,-0.32987 0.779434,-0.32987 0.812853,0 2.627837,-1.97364 3.053197,-3.32009 0.80687,-2.55406 0.89374,-4.12542 0.41828,-7.56563 -0.66827,-4.83522 -1.784825,-7.04777 -4.18213,-8.28723 -0.687884,-0.35565 -1.538332,-0.93427 -1.889882,-1.28582 -0.696365,-0.69636 -1.901843,-0.62134 -3.786691,0.23568 -0.928766,0.42229 -0.866605,0.43767 1.011085,0.25017 2.276724,-0.22734 3.536158,0.32855 5.776369,2.54961 1.052094,1.04309 1.322769,1.63974 1.919336,4.23075 0.888183,3.85757 0.916673,7.88837 0.06897,9.75485 -1.128674,2.48509 -3.873724,3.87426 -6.249277,3.16253 -3.502495,-1.04938 -4.811031,-2.97684 -5.635775,-8.30145 -0.297708,-1.92204 0.257678,-6.59497 0.934027,-7.85874 0.520895,-0.9733 1.028202,-2.36723 0.861529,-2.36723 -0.07858,0 -0.51152,0.63088 -0.962103,1.40195 -0.513786,0.87923 -1.02139,2.59184 -1.36142,4.59331 -0.507499,2.98722 -0.505912,3.35649 0.02481,5.77273 0.916736,4.17368 1.926633,5.57857 5.096873,7.09037 1.289132,0.61475 3.809307,0.78229 4.123376,0.27411 z m 1.270785,-2.62515 c 0.336075,-0.27888 0.819008,-0.90922 1.073183,-1.40074 l 0.462142,-0.89368 -1.36206,0.48056 c -1.928576,0.68044 -2.813908,0.60152 -4.079329,-0.36367 -0.802607,-0.61217 -1.167341,-1.2023 -1.326933,-2.14692 -0.266739,-1.57882 0.439529,-5.80917 1.076142,-6.44578 0.65888,-0.65888 3.037227,-0.56568 4.237185,0.16604 l 1.021245,0.62275 -0.22128,-1.20125 c -0.449702,-2.44126 -1.371428,-3.61547 -3.804244,-4.84637 -1.348337,-0.68219 -2.026299,-0.84107 -2.894264,-0.67823 -1.015003,0.19041 -1.239523,0.4447 -2.148153,2.43293 -1.714725,3.75209 -1.736592,8.40076 -0.05703,12.12456 0.812236,1.80084 2.138473,2.81981 4.608457,3.54076 0.558124,0.1629 2.491325,-0.62452 3.414941,-1.39096 z m -0.33307,-2.68915 c 1.524492,-0.6946 1.86538,-2.36436 1.045992,-5.12353 -0.556821,-1.87503 -1.430647,-2.53678 -3.129267,-2.3698 -0.982405,0.0966 -1.140275,0.26014 -1.536544,1.59204 -0.242907,0.81643 -0.4439,2.25136 -0.446654,3.18872 -0.0044,1.47821 0.115335,1.79409 0.902135,2.38111 1.025843,0.76536 1.990294,0.86639 3.164338,0.33146 z m 15.840996,2.35141 c 1.74643,-1.6098 2.53418,-3.73277 2.76152,-7.44225 0.14419,-2.35263 0.0586,-2.91315 -0.75521,-4.94805 -1.32849,-3.32169 -3.56442,-6.68245 -4.62255,-6.94803 -2.14272,-0.53779 -5.72051,1.88576 -6.38233,4.32329 -0.19704,0.72572 -0.45319,2.74307 -0.56922,4.483 -0.19211,2.88061 -0.12827,3.42634 0.71388,6.1026 0.73122,2.32376 1.18765,3.19327 2.18011,4.1532 1.21888,1.17893 1.91815,1.43727 4.16934,1.54035 0.83818,0.0384 1.39795,-0.24416 2.50446,-1.26411 z m -5.36201,-0.24201 c -2.0923,-1.03067 -3.43813,-5.41819 -3.1305,-10.20568 0.32727,-5.09337 2.12608,-8.03098 4.91765,-8.03098 0.86219,0 1.29695,0.28181 2.2737,1.47381 1.51427,1.84796 2.87244,4.779 3.08393,6.65535 0.13817,1.22581 0.0743,1.43707 -0.43417,1.43707 -0.32788,0 -0.97806,-0.43798 -1.44485,-0.97329 -0.75156,-0.86189 -1.58549,-1.16146 -2.90191,-1.04244 -0.65864,0.0596 -1.41042,1.87733 -1.41042,3.41037 0,1.63206 0.58891,2.64546 1.92452,3.31175 1.29957,0.64831 2.17026,0.21645 2.81567,-1.39659 0.6089,-1.52179 1.19747,-1.49595 1.19747,0.0526 0,1.68041 -0.69581,3.47536 -1.8252,4.70837 -0.9132,0.99698 -1.276,1.16454 -2.5076,1.15812 -0.79196,-0.004 -1.94319,-0.25543 -2.55829,-0.55843 z m 4.37944,-1.3212 c 0.6557,-0.67507 1.19217,-1.34021 1.19217,-1.4781 0,-0.1379 -0.64008,-0.16298 -1.4224,-0.0557 -1.29067,0.1769 -1.53246,0.0912 -2.61088,-0.92592 -1.43466,-1.35306 -1.84954,-3.03391 -1.28511,-5.20653 0.73403,-2.82549 3.22412,-3.70735 5.2769,-1.8688 l 0.78318,0.70146 -0.24543,-0.82468 c -0.5236,-1.75942 -1.19804,-3.10264 -2.33669,-4.65379 -0.9636,-1.3127 -1.37004,-1.61374 -2.17869,-1.61374 -1.09802,0 -2.90815,1.62323 -2.90815,2.60787 0,0.30739 -0.18195,0.74083 -0.40432,0.9632 -0.24909,0.24909 -0.45366,1.73738 -0.53284,3.87638 -0.10997,2.97057 -0.0222,3.76739 0.60772,5.51685 0.84789,2.35487 1.42036,3.11578 2.80346,3.7263 1.51678,0.66952 1.97157,0.56286 3.26108,-0.76475 z m -37.315287,14.14781 c -0.8798,-0.263 -3.412071,-2.19446 -6.053087,-4.61692 -2.208838,-2.02604 -5.198263,-6.19684 -4.733942,-6.60472 0.780518,-0.68565 10.38782,-3.25669 13.311126,-3.56223 2.261962,-0.23642 2.479096,-0.0299 2.027573,1.929 -0.179878,0.78038 -0.712995,3.57127 -1.184699,6.20199 -0.471701,2.63071 -0.964412,5.22844 -1.094912,5.77273 -0.249599,1.04104 -0.896095,1.29148 -2.272059,0.88015 z m 1.733899,-2.2821 c 0.222076,-1.63886 1.702071,-9.60243 2.023064,-10.88572 0.169577,-0.67793 0.07015,-0.7422 -1.148113,-0.7422 -0.733572,0 -1.751646,0.15911 -2.262384,0.35357 -0.510741,0.19447 -1.670825,0.49108 -2.577968,0.65914 -2.321111,0.43001 -7.422078,2.01189 -7.422078,2.30169 0,1.48586 8.864052,9.8804 10.433017,9.8804 0.63565,0 0.772608,-0.22484 0.954462,-1.56688 z"
       id="path908" />
    <path
       style="fill:#000000;stroke:none;stroke-width:0.504986;stroke-dasharray:0.504986, 1.00997"
       d="m 91.029503,102.27315 c -0.88991,0.21448 -1.249714,1.2249 -1.66887,1.9371 -1.348891,2.95714 -2.368965,6.05281 -3.529462,9.08668 -2.734821,7.33687 -5.057037,14.81992 -7.166803,22.35809 -1.077169,3.3754 -2.119503,6.76343 -2.928951,10.21567 -0.206536,0.8254 -0.41307,1.6508 -0.619606,2.4762 -2.128306,-0.22889 -4.30053,-0.2139 -6.377033,0.35986 -3.334181,0.87605 -6.696098,1.71551 -9.912027,2.97042 -0.542398,0.17094 -1.1607,0.66564 -0.864187,1.29962 0.913172,2.46265 2.927075,4.2591 4.599876,6.20472 1.548651,1.68245 3.539797,2.86267 5.195163,4.43128 0.462661,0.40432 0.920123,0.81454 1.376823,1.22557 -0.258668,0.95973 -0.947436,2.11604 -0.339974,3.0764 0.52733,0.6763 1.501976,0.58465 2.215663,0.8464 -0.132609,1.76831 -0.583396,3.5071 -0.715917,5.28097 -0.09389,1.42368 -0.357479,2.90328 0.0073,4.30486 0.305763,0.63457 1.145854,0.24891 1.656961,0.17313 4.923157,-1.33447 9.888145,-2.49609 14.84236,-3.70277 1.42748,-0.31098 2.759281,-1.01403 4.205758,-1.21162 0.55803,0.17456 0.373978,0.93468 0.468485,1.37828 0.1886,3.21764 -0.04256,6.49753 0.477009,9.70117 0.515268,2.06507 0.765358,4.20289 1.459571,6.21901 0.204862,0.5373 0.696598,0.98865 1.311974,0.78532 1.417135,-0.0857 2.889625,-0.0542 4.248129,-0.50677 0.437882,-0.21166 0.0768,-0.71636 -0.298458,-0.70768 -1.395664,-0.3049 -2.823118,-0.43233 -4.238281,-0.61471 -0.79764,-2.74327 -1.239047,-5.55958 -1.348796,-8.40393 -0.08079,-2.50466 -0.348752,-5.0265 -0.05663,-7.52182 0.01609,-0.4953 0.344051,-0.88134 0.841036,-0.92885 2.513494,-0.62574 5.020358,-1.36654 7.605264,-1.61339 0.41255,-0.0469 0.82049,-0.0815 1.23539,-0.10714 0.5056,3.56481 0.29961,7.22858 0.60474,10.83447 0.17005,1.82391 0.19648,3.69335 0.69718,5.46435 0.36387,0.72856 1.31267,0.28576 1.904,0.18481 1.54036,-0.41465 3.15936,-0.43525 4.6984,-0.85595 0.48976,-0.21395 0.082,-0.77575 -0.32658,-0.73677 -1.60544,-0.26436 -3.22131,0.15194 -4.82256,-0.004 -0.58006,-0.1854 -0.47408,-1.01011 -0.61662,-1.46856 -0.59419,-3.97495 -0.55791,-8.02142 -0.42091,-12.03108 0.0934,-0.59756 -0.0333,-1.29157 0.29425,-1.80662 0.75302,-0.37752 1.65248,-0.18688 2.4595,-0.4016 6.17238,-0.97857 12.27988,-2.42412 18.51036,-2.94303 2.61737,-0.29631 5.27332,-0.33967 7.88271,-0.72586 0.66003,-0.11976 0.43249,-0.91721 0.16741,-1.30078 -0.49716,-0.87242 -1.36882,-1.44281 -1.89654,-2.3006 -2.34277,-3.21563 -5.4454,-5.76774 -7.93655,-8.86048 -2.0644,-2.5555 -4.13117,-5.13256 -5.84853,-7.93864 -0.0453,-0.22038 -0.4367,-0.54746 -0.25867,-0.76336 0.276,-0.15751 0.829,0.18177 0.86993,-0.32371 -0.22831,-0.58235 -0.93963,-0.82135 -1.36868,-1.24314 -2.53974,-1.96337 -4.01567,-4.84835 -5.56411,-7.57458 -2.1371,-4.05635 -4.38743,-8.0621 -6.70771,-12.02102 -2.87975,-5.05176 -5.296814,-10.35766 -8.357482,-15.30843 -0.680363,-1.28229 -1.444969,-2.52662 -2.377001,-3.65082 -0.784286,-0.95568 -1.231807,-2.20902 -2.334636,-2.87506 -0.278913,-0.18061 -0.590171,-0.36693 -0.933638,-0.36198 z m -0.269184,1.40504 c 1.025493,0.37142 1.629648,1.40534 2.300607,2.20514 5.106316,7.10888 8.390384,15.28044 12.958514,22.72011 2.65164,4.41444 4.98252,9.0041 7.4902,13.49976 1.05443,1.911 2.41591,3.62144 3.60272,5.44512 0.83762,1.82839 2.4436,3.14709 3.4357,4.86848 2.63062,3.14502 5.53011,6.05451 8.28328,9.09144 0.89026,1.04126 1.96698,1.97455 2.60983,3.1983 0.14884,0.53619 -0.64589,0.62007 -0.99983,0.74786 -3.3018,0.67024 -6.68494,0.81288 -10.00637,1.37006 -6.38046,1.01146 -12.73974,2.15281 -19.11677,3.18603 -4.07011,0.74517 -8.108768,1.67806 -12.097423,2.77812 -2.925477,0.98697 -6.001906,1.37019 -8.961752,2.22872 -2.502863,0.65816 -4.969036,1.46644 -7.489164,2.05203 -0.23205,0.0711 -0.603848,0.0139 -0.439076,-0.32562 0.484016,-3.97254 1.023766,-7.95181 1.705645,-11.89406 1.25681,-6.68508 2.55969,-13.36669 4.022055,-20.00488 1.455391,-6.02041 3.332573,-11.92905 5.146075,-17.84856 1.49589,-4.56447 2.881817,-9.16355 4.13716,-13.80015 0.494268,-1.98684 1.293447,-3.82949 2.000355,-5.7428 0.473739,-1.2338 0.767459,-2.55162 1.312828,-3.74812 0.03135,-0.0204 0.06798,-0.0305 0.105416,-0.027 z M 73.57053,149.27478 c 0.429752,-0.0764 1.131348,0.0414 1.024896,0.62504 -0.639615,3.62917 -1.369862,7.27509 -2.028553,10.91377 -0.241009,0.90625 -0.226018,1.90207 -0.703286,2.70811 -0.407117,0.53171 -1.174255,0.25882 -1.723782,0.16358 -1.825638,-0.91405 -3.346815,-2.30751 -4.901057,-3.61114 -2.242119,-1.93794 -4.197358,-4.22125 -5.625102,-6.82931 -0.17499,-0.23255 -0.182396,-0.49619 0.136602,-0.57185 2.291405,-0.95533 4.731117,-1.51118 7.119252,-2.15942 2.203325,-0.52115 4.426246,-1.11035 6.70103,-1.23878 z"
       id="path1236" />
    <path
       style="fill:#000000;stroke:none;stroke-width:0.504986;stroke-dasharray:0.504986, 1.00997"
       d="m 118.566,145.30702 c -0.51997,0.28958 0.10631,0.82592 0.3265,1.11092 3.18674,3.41211 6.54468,6.68227 10.17357,9.62488 1.5499,1.16174 3.10101,2.48716 5.00477,3.00949 0.31697,0.0312 0.79487,0.11794 0.69544,0.54889 0.18903,0.95771 1.34209,1.42481 2.22141,1.34956 0.91641,-0.067 1.32149,-1.08839 1.64055,-1.82211 0.34829,-0.7969 0.377,-1.86333 -0.38704,-2.43511 -0.48153,-0.32044 -1.12806,-0.74602 -1.71861,-0.52172 -0.75313,0.45106 -1.25069,1.24452 -2.00808,1.67078 -1.14284,0.0606 -2.05912,-0.82259 -2.98437,-1.36324 -4.38635,-3.00504 -8.21338,-6.6885 -11.95337,-10.45451 -0.31815,-0.23023 -0.58812,-0.70925 -1.01077,-0.71783 z"
       id="path1275" />
    <path
       style="fill:#000000;stroke:none;stroke-width:0.504986;stroke-dasharray:0.504986, 1.00997"
       d="m 105.16068,131.71058 c -2.19597,0.0303 -4.09932,1.52408 -5.351564,3.22142 -1.040572,1.71898 -0.97319,3.81875 -1.199409,5.75137 -0.178964,1.95945 -0.09682,3.96788 0.583353,5.8332 0.561819,1.957 1.36884,3.97745 3.05327,5.23808 1.14029,0.92595 2.70732,1.05327 4.11736,0.99639 1.15926,-0.27177 2.07133,-1.16462 2.843,-2.02779 1.74581,-2.17378 2.08958,-5.09066 2.17434,-7.78495 0.0533,-1.48807 -0.25371,-2.96638 -0.89756,-4.30991 -1.0396,-2.35485 -2.21978,-4.76006 -4.13183,-6.53555 -0.32673,-0.28819 -0.76145,-0.40446 -1.19096,-0.38226 z m -0.44386,1.34191 c 1.28404,-0.086 2.01065,1.14784 2.68497,2.03716 1.35516,2.04592 2.55937,4.34729 2.57993,6.82855 0.003,0.54147 -0.6273,0.12647 -0.84984,-0.0415 -0.86635,-0.66042 -1.61017,-1.66948 -2.80194,-1.69826 -0.61253,-0.13158 -1.33101,-0.0612 -1.68314,0.52739 -0.8127,1.29912 -1.0466,2.97109 -0.69774,4.45676 0.4375,1.3542 1.81421,2.51152 3.27825,2.39015 1.33246,-0.30424 1.48484,-1.88998 2.28683,-2.75709 0.35933,0.99579 0.0724,2.11111 -0.19457,3.10395 -0.4805,1.32874 -1.2926,2.59784 -2.53077,3.33756 -1.19983,0.31883 -2.51237,0.0891 -3.65036,-0.36696 -1.49179,-0.84578 -2.11134,-2.61806 -2.5414,-4.16598 -0.766747,-3.24057 -0.727951,-6.68783 0.2235,-9.88435 0.44282,-1.46652 1.34701,-3.01043 2.85341,-3.59077 0.33571,-0.11173 0.68901,-0.17237 1.04287,-0.17659 z"
       id="path1314" />
    <path
       style="fill:#000000;stroke:none;stroke-width:0.504986;stroke-dasharray:0.504986, 1.00997"
       d="m 90.720909,141.25336 c -0.762167,-0.0716 -1.596514,0.28619 -1.787874,1.09033 -0.521766,1.67771 -0.850829,3.48833 -0.562094,5.23983 0.286588,0.9716 1.291262,1.58375 2.224653,1.8271 1.48708,0.2891 3.205208,-0.59838 3.531743,-2.14717 0.201981,-1.7063 -0.130217,-3.52631 -1.039053,-4.9961 -0.510807,-0.80037 -1.462698,-1.07424 -2.367375,-1.01399 z"
       id="path1353" />
    <path
       style="fill:#000000;stroke:none;stroke-width:0.357079;stroke-dasharray:0.357079, 0.714158"
       d="m 88.459587,132.64847 c -1.013196,0.0749 -2.016467,0.41219 -2.887067,0.92886 -0.409578,0.27275 -0.0959,0.90981 0.363505,0.82008 1.413531,-0.059 2.971067,-0.33053 4.239406,0.47045 1.172001,0.71958 2.17016,1.64502 3.037403,2.70902 0.759389,1.13043 0.925304,2.55349 1.25466,3.82831 0.482414,2.30566 0.629824,4.63681 0.443568,6.97339 -0.130058,1.58106 -0.869542,3.13726 -2.176134,4.07663 -1.194758,0.89845 -2.786766,1.29175 -4.220416,0.81982 -1.512962,-0.44092 -2.984037,-1.3178 -3.749088,-2.74313 -0.873641,-1.5744 -1.212948,-3.3494 -1.500693,-5.08406 -0.158991,-1.71872 -0.02874,-3.47142 0.199679,-5.17578 0.166272,-1.33363 0.639304,-2.59599 1.211339,-3.80303 0.1187,-0.40453 0.543925,-0.95427 0.122142,-1.31485 -0.505531,-0.27646 -0.836467,0.35598 -1.077799,0.69982 -1.139814,1.76069 -1.469091,3.88705 -1.832964,5.91296 -0.281311,1.5189 -0.361273,3.09216 0.01341,4.60338 0.497147,2.17453 0.980139,4.56336 2.67611,6.15673 1.139888,1.01465 2.510766,1.81806 3.997917,2.18926 0.903904,0.17491 1.862754,0.28504 2.769508,0.0879 0.410212,-0.16876 0.710253,-0.55205 1.188789,-0.5502 0.998894,-0.27332 1.689295,-1.13957 2.325026,-1.9033 1.149537,-1.53099 1.512239,-3.4993 1.610201,-5.37081 0.03988,-2.39668 -0.310468,-4.79283 -0.865629,-7.12011 -0.48722,-1.96245 -1.414635,-3.9717 -3.200104,-5.06931 -0.938255,-0.54925 -1.872742,-1.11044 -2.710625,-1.80777 -0.362069,-0.24127 -0.799076,-0.3513 -1.232156,-0.33429 z"
       id="path1663" />
    <path
       style="fill:#ffffff;stroke:none;stroke-width:0.714158;stroke-dasharray:0.714158, 1.42832"
       d="m 87.394641,134.86846 c -1.324623,-0.10551 -1.96724,1.24254 -2.413984,2.25652 -1.81497,3.83505 -1.882605,8.49387 -0.161528,12.37241 0.845193,1.88369 2.75322,3.24601 4.78468,3.51086 2.075466,-0.14283 4.099631,-1.61093 4.762222,-3.58986 -0.915511,0.0233 -1.853022,0.64155 -2.832819,0.69752 -2.03979,0.34104 -4.059397,-1.50937 -3.883697,-3.58094 0.07663,-1.83146 0.23664,-3.7673 1.036806,-5.44756 0.818859,-0.86838 2.218394,-0.61205 3.263019,-0.36851 0.704596,0.15615 1.30342,0.62275 1.968635,0.83442 0.01778,-0.9986 -0.344305,-2.10749 -0.729985,-3.07524 -0.973733,-1.9197 -3.053826,-3.05654 -5.075267,-3.562 -0.236598,-0.0448 -0.477705,-0.0584 -0.718082,-0.0476 z"
       id="path1852" />
    <path
       style="fill:#ffffff;stroke:none;stroke-width:0.714158;stroke-dasharray:0.714158, 1.42832"
       d="m 104.56581,133.8119 c -1.27748,0.22946 -2.51863,1.19221 -2.95269,2.42941 -0.11604,0.89506 -0.72418,1.67683 -0.74298,2.61186 -0.3565,3.01763 -0.52929,6.23991 0.85926,9.04516 0.54884,1.63209 2.08832,2.77966 3.75281,3.05633 1.12354,-0.0524 1.77822,-1.19854 2.54818,-1.87237 0.24417,-0.29026 1.09288,-1.14405 0.25004,-1.02023 -1.12509,0.0454 -2.513,0.46214 -3.36776,-0.5544 -1.10178,-0.92661 -1.86755,-2.27469 -1.7741,-3.74598 -0.0356,-1.72566 0.66702,-3.85077 2.52303,-4.35719 1.21806,-0.34699 2.3266,0.43038 3.27357,1.10337 0.5263,0.028 0.12867,-0.73034 0.0541,-0.99379 -0.86727,-1.94859 -1.77439,-4.05558 -3.48028,-5.41997 -0.27911,-0.18077 -0.60745,-0.29728 -0.94319,-0.2822 z"
       id="path1891" />
  </g>
</svg>
