<?xml version="1.0" encoding="UTF-8" standalone="no"?>
<!-- Created with Inkscape (http://www.inkscape.org/) -->

<svg
   width="82.70829mm"
   height="90.953819mm"
   viewBox="0 0 82.70829 90.953819"
   version="1.1"
   id="svg86079"
   sodipodi:docname="brick-N.svg"
   inkscape:version="1.1.2 (0a00cf5339, 2022-02-04)"
   xmlns:inkscape="http://www.inkscape.org/namespaces/inkscape"
   xmlns:sodipodi="http://sodipodi.sourceforge.net/DTD/sodipodi-0.dtd"
   xmlns="http://www.w3.org/2000/svg"
   xmlns:svg="http://www.w3.org/2000/svg">
  <sodipodi:namedview
     id="namedview188842"
     pagecolor="#ffffff"
     bordercolor="#666666"
     borderopacity="1.0"
     inkscape:pageshadow="2"
     inkscape:pageopacity="0.0"
     inkscape:pagecheckerboard="0"
     inkscape:document-units="mm"
     showgrid="false"
     inkscape:zoom="0.63785073"
     inkscape:cx="192.0512"
     inkscape:cy="151.28932"
     inkscape:window-width="1920"
     inkscape:window-height="969"
     inkscape:window-x="0"
     inkscape:window-y="0"
     inkscape:window-maximized="1"
     inkscape:current-layer="svg86079" />
  <defs
     id="defs86076" />
  <g
     id="layer1"
     transform="translate(-54.157741,-108.81176)">
    <path
       style="display:inline;fill:#de514d;fill-opacity:1;stroke:none;stroke-width:0.504986;stroke-dasharray:0.504986, 1.00997"
       d="m 88.204689,110.75541 c -0.684715,0.18668 -1.526856,1.56843 -1.754694,2.10308 -0.526785,2.30829 -1.393359,4.47305 -1.998242,6.75855 -1.422505,4.73888 -3.307685,9.58514 -4.876993,14.2695 -2.731169,8.48301 -4.842707,16.86796 -6.562321,25.62045 -1.515248,7.76122 -3.157227,14.9595 -3.974806,22.83297 -0.179427,0.53894 0.177827,2.77375 0.688711,2.57387 3.653092,-0.97707 6.208151,-1.55429 9.891897,-2.42271 2.212173,-0.48255 6.757303,-1.78927 8.940661,-2.37418 5.983499,-1.44844 10.695839,-2.53452 16.774058,-3.53141 6.1488,-1.0119 10.98569,-1.80134 17.19349,-2.33607 1.02052,-0.17928 5.41698,-0.74523 6.33675,-1.27371 0.61429,-0.63009 -0.52367,-2.38087 -0.92165,-2.87411 -4.41913,-4.98305 -9.35948,-9.56399 -12.97006,-15.20038 -1.55932,-2.31079 -3.00263,-4.55755 -4.55964,-6.86784 -0.33366,-0.49509 -2.11782,-2.87292 -2.3453,-3.38782 -2.88556,-6.53138 -4.97957,-9.99816 -9.225138,-17.69814 -1.826542,-3.31271 -3.02794,-5.49159 -4.908239,-8.46818 -1.284581,-2.00835 -2.47963,-4.25549 -4.041288,-6.06512 -0.282345,-0.23064 -1.288861,-1.64826 -1.687196,-1.65875 z"
       id="path7685" />
    <path
       style="display:inline;fill:#ffffff;stroke:none;stroke-width:0.714158;stroke-dasharray:0.714158, 1.42832"
       d="m 81.132024,144.75301 c -1.81497,3.83505 -1.657493,8.48342 0.06358,12.36196 0.845193,1.88369 3.491254,3.53344 5.522714,3.79829 2.075466,-0.14283 4.992788,-1.2424 5.655379,-3.22133 0.578328,-7.20493 0.446541,-8.71035 -1.527354,-13.28171 -0.973733,-1.9197 -3.740141,-3.03862 -5.850812,-3.27213 -1.90956,0.65022 -3.416767,2.60094 -3.863511,3.61492 z"
       id="path1852" />
    <path
       style="display:inline;fill:#ffffff;stroke:none;stroke-width:0.714158;stroke-dasharray:0.714158, 1.42832"
       d="m 100.61896,140.43164 c -1.170299,0.56125 -2.703943,1.97915 -3.138003,3.21635 -0.11604,0.89506 -0.250495,4.62454 -0.269295,5.55957 -0.3565,3.01763 0.348806,4.57852 1.601266,7.44712 0.688992,1.57805 2.478772,2.16062 4.143262,2.43729 1.12354,-0.0524 2.58888,-0.85059 3.52245,-2.32983 1.84562,-5.01289 1.24893,-10.07855 0.15103,-13.04875 -1.73757,-2.86963 -3.25766,-3.85143 -6.01071,-3.28175 z"
       id="path1891" />
    <path
       id="path908"
       style="display:inline;fill:#000000;stroke-width:1.24675"
       d="m 332.99414,411.26172 c -0.57967,-0.0208 -1.12373,0.0276 -1.61523,0.15234 -2.11943,0.53772 -3.99409,2.88932 -6.42188,8.06055 -1.88571,4.01658 -3.42773,7.7072 -3.42773,8.19922 0,0.49202 -3.086,8.65674 -6.85742,18.14453 -3.77143,9.48779 -6.85743,17.93757 -6.85743,18.77734 0,0.83974 -0.79985,3.29433 -1.77734,5.45508 -0.97748,2.16079 -3.24166,8.97895 -5.0332,15.15039 -1.79155,6.17144 -4.01629,13.18399 -4.94336,15.58399 -0.92708,2.4 -3.46935,10.53528 -5.65039,18.07812 -2.18106,7.54288 -6.13336,20.44523 -8.78125,28.67383 -2.6479,8.22856 -5.81939,19.87109 -7.04883,25.87109 l -2.23633,10.90821 h -6.10937 c -7.01192,0 -24.59246,3.8026 -38.16602,8.2539 -5.11772,1.67834 -11.22802,3.29681 -13.57813,3.59766 -5.2586,0.67328 -8.51801,3.47798 -9.56054,8.22461 -0.64756,2.94829 -0.0897,4.31071 3.04687,7.44726 2.11131,2.11132 3.83789,4.35426 3.83789,4.98438 0,1.87944 16.27902,19.04438 20.45117,21.56445 2.12324,1.28251 6.39496,4.68918 9.49219,7.57031 5.22147,4.85711 5.55044,5.52478 4.50781,9.16016 -1.62292,5.65882 1.01227,11.40716 5.65626,12.33594 2.56182,0.51239 3.4241,1.29866 3,2.73828 -1.87148,6.3524 -3.13895,26.95337 -1.9336,31.42969 1.47422,5.47483 2.0624,5.65256 9.94336,2.99804 6.0876,-2.05043 36.8046,-9.6925 49.87109,-12.4082 4.45715,-0.92636 10.51039,-2.65052 13.45313,-3.83008 2.94274,-1.17947 5.74854,-1.74771 6.23437,-1.26367 0.48584,0.48404 1.1998,9.67139 1.58594,20.41602 0.66874,18.60816 3.35031,36.77604 6.50977,44.10742 l 1.45508,3.37695 11.87304,-0.67773 c 14.63191,-0.83331 14.99219,-0.94211 14.99219,-4.58985 0,-3.65884 -4.31292,-5.84268 -11.5918,-5.86914 -6.29692,-0.0229 -7.45938,-0.72618 -9.2539,-5.59179 -2.86911,-7.77922 -4.04885,-15.70848 -4.80078,-32.2754 -0.9506,-20.94402 -0.51889,-23.20507 4.43164,-23.20507 2.02012,0 6.07738,-0.78061 9.01562,-1.73438 2.93828,-0.95376 7.67691,-2.07407 10.53125,-2.49023 2.85434,-0.41617 6.08138,-1.09791 7.16992,-1.51563 1.74853,-0.67105 1.98073,1.25064 1.98828,16.51563 0.005,9.50192 0.54752,20.64353 1.20508,24.75781 0.6576,4.11432 1.28247,9.72392 1.38867,12.4668 0.406,10.48955 1.66605,11.40291 12.03125,8.70312 3.89564,-1.01465 9.65928,-1.8457 12.80664,-1.8457 6.05912,0 8.71485,-1.58312 8.71485,-5.19336 0,-3.58518 -4.46609,-4.96586 -14.71485,-4.54883 l -9.59765,0.39063 -0.7793,-8.72657 c -0.42909,-4.8 -0.85051,-16.69712 -0.93555,-26.4375 l -0.15429,-17.70898 4.05078,-0.67774 c 2.22856,-0.37269 9.102,-1.48146 15.27344,-2.46289 6.1714,-0.98143 18.6733,-3.21526 27.78125,-4.96484 15.43997,-2.96591 26.48388,-4.31382 54.5039,-6.6543 10.0687,-0.84102 11.26002,-1.20441 11.59375,-3.53906 0.47887,-3.35134 -8.42885,-15.26823 -22.2832,-29.8125 -22.87174,-24.01081 -29.7037,-32.59336 -15.49219,-19.46094 5.48572,5.06914 11.93789,10.55422 14.33789,12.1875 2.4,1.63333 6.60677,4.6191 9.34961,6.63672 2.74288,2.01763 6.21237,3.68826 7.70899,3.71094 1.60766,0.0245 3.04744,1.06759 3.51757,2.54883 0.43767,1.37892 2.4729,3.37321 4.52344,4.43359 3.05465,1.57962 4.52512,1.66652 8.13672,0.47461 6.97652,-2.30245 10.33995,-13.35916 5.96484,-19.60547 -3.44655,-4.92068 -16.75976,-3.02327 -16.75976,2.38867 0,4.85144 -24.13569,-13.07012 -44.11133,-32.7539 -8.31039,-8.18899 -17.19642,-16.3346 -19.74609,-18.10156 -2.54967,-1.76697 -5.99373,-4.99476 -7.6543,-7.17188 -4.58838,-6.01568 -21.50237,-35.99362 -23.18555,-41.09375 -0.81637,-2.47359 -1.95898,-4.79171 -2.53906,-5.15039 -0.58008,-0.35853 -3.1421,-4.4342 -5.69336,-9.05664 -2.55129,-4.62248 -5.34458,-9.24484 -6.20703,-10.27344 -0.86245,-1.02856 -6.03349,-10.56671 -11.49219,-21.19531 -11.32974,-22.06001 -15.66977,-29.96988 -19.82226,-36.13281 -1.60883,-2.38776 -2.92578,-4.87739 -2.92578,-5.53125 0,-0.65382 -2.11937,-3.74908 -4.70899,-6.87891 -2.58961,-3.12986 -5.32385,-7.10772 -6.07812,-8.83984 -1.5592,-3.58055 -7.35249,-7.0597 -11.41016,-7.20508 z m 0.18945,10.95117 3.00782,2.81836 c 3.30336,3.09634 20.88769,31.03817 24.52734,38.97461 1.2579,2.74284 4.06128,8.07235 6.23047,11.84375 2.16918,3.77144 4.72703,8.8207 5.68359,11.2207 0.95656,2.4 6.35742,12.07537 12.00196,21.5 6.1426,10.25628 9.33171,16.63845 7.94531,15.89649 -6.26317,-3.35195 -17.80197,0.2043 -25.19336,7.76562 -3.09638,3.16751 -4.06996,5.69509 -5.60547,14.55664 -3.91548,22.59685 -0.004,44.06975 9.78125,53.69141 5.59718,5.50382 16.8227,8.58379 22.9043,6.28515 11.37433,-4.29917 18.02188,-18.39229 18.11523,-38.40624 l 0.0391,-8.35352 3.00391,4.98633 c 1.65286,2.74284 5.14244,7.9782 7.75391,11.63281 2.61142,3.65469 6.43112,9.34548 8.48828,12.64648 5.52744,8.86961 16.17713,21.95884 28.46679,34.99024 21.40914,22.70128 23.49621,25.162 22.3379,26.32031 -0.65897,0.65896 -7.59088,1.73488 -15.4043,2.39063 -7.81338,0.65574 -18.69397,1.95248 -24.17969,2.88281 -5.48572,0.93029 -22.31666,3.75136 -37.40234,6.26758 -38.28269,6.38536 -40.94762,6.88356 -57.35157,10.74023 -2.74285,0.64483 -8.07232,1.80003 -11.84375,2.56641 -3.77142,0.76637 -8.8207,2.17811 -11.2207,3.13672 -2.4,0.9586 -11.65798,3.42421 -20.57226,5.48047 -8.91429,2.05621 -20.1336,4.8268 -24.9336,6.15624 -4.8,1.32945 -10.02979,2.8103 -11.62109,3.29102 -2.70426,0.81691 -2.85038,0.59895 -2.23438,-3.3457 0.36248,-2.32124 0.9929,-7.58689 1.40039,-11.70117 0.91104,-9.19824 8.15672,-49.66781 13.72852,-76.67579 C 287.88868,568.5601 294.0503,546.38176 311,493.92773 c 2.21578,-6.85715 6.15016,-20.32187 8.74219,-29.92187 2.59204,-9.6 6.01052,-20.04808 7.59765,-23.2168 1.58713,-3.16868 3.55173,-8.64363 4.36524,-12.16797 z m -7.42773,104.9707 c -0.87931,0.038 -1.92573,0.1484 -3.20703,0.31836 -9.04432,1.19978 -11.80126,2.91048 -16.77149,10.39844 -5.84576,8.80702 -8.23054,18.07737 -8.41211,32.70313 -0.27715,22.32812 6.31771,35.32108 21.04688,41.46289 2.74286,1.14372 6.38923,2.30492 8.10351,2.58007 1.71429,0.27523 3.51696,0.57657 4.00586,0.66993 1.711,0.32677 14.0948,-5.03377 16.39649,-7.09766 3.81507,-3.42093 7.8662,-13.17066 8.76172,-21.08594 0.532,-4.70241 0.0894,-12.62994 -1.20899,-21.63867 -2.51138,-17.42578 -7.34403,-26.9141 -15.90625,-31.23047 -2.8546,-1.43909 -6.2518,-3.731 -7.54883,-5.09375 -1.48419,-1.55939 -2.62184,-2.10025 -5.25976,-1.98633 z m 59.12891,6.01758 c 3.05631,0 7.74494,3.28222 11.38689,8.24361 4.30356,5.86261 6.95572,11.08449 8.20184,18.00612 l 1.00913,10.28887 c 0,0 -1.28573,-8.5335 -3.13915,-11.23214 -0.91597,-1.33369 -4.23643,-6.18952 -8.45385,-6.58974 -4.3163,-0.4096 -9.54128,3.70793 -11.36614,8.68894 -2.91855,7.96626 -3.11575,18.37495 2.30659,23.48887 4.07592,3.84424 8.52131,4.03893 13.03732,2.07709 4.00124,-1.73821 6.52303,-10.6796 6.44775,-10.08685 -1.33847,10.54009 -6.26855,14.75519 -8.74679,17.30664 -4.87374,5.01774 -6.59151,5.42109 -12.32422,2.89062 -5.22746,-2.30747 -7.39108,-5.18369 -10.5957,-14.08398 -2.3808,-6.61213 -3.60537,-10.58196 -3.61967,-21.81699 -0.008,-5.90218 1.74662,-14.32241 3.54102,-18.29102 1.53321,-3.39096 8.16498,-8.89004 12.31498,-8.89004 z m -63.82813,4.00781 c 2.34351,0.0301 4.74044,0.85139 8.5625,2.78516 9.1949,4.65222 12.67925,9.09155 14.37891,18.31836 l 2.97477,15.21022 c 0,0 -1.05823,-6.62517 -5.88746,-13.24394 -4.82923,-6.61876 -14.03711,-2.63938 -16.39353,-0.0221 -7.04987,7.83021 -5.70837,16.16107 -4.42565,22.07532 0.84,3.87306 3.91406,9.6575 6.94754,11.97122 4.78269,3.64796 8.77489,4.39339 14.1105,-0.58054 5.33561,-4.97393 5.83431,-9.4286 5.83431,-9.4286 l -2.43197,10.98914 c -0.96066,1.85772 -2.78643,4.24089 -4.05664,5.29492 -3.49083,2.89679 -10.7968,5.87155 -12.90625,5.25586 -9.33537,-2.72485 -14.3481,-6.57648 -17.41797,-13.38281 -6.34795,-14.0742 -6.266,-31.64309 0.21485,-45.82422 3.43419,-7.51457 4.28291,-8.47565 8.11914,-9.19531 0.82012,-0.15386 1.59578,-0.23269 2.37695,-0.22266 z m -56.66211,57.08204 c 4.60446,0 4.98077,0.24243 4.33985,2.80468 -1.21321,4.85023 -6.80715,34.95042 -7.64649,41.14453 -0.68732,5.07228 -1.20496,5.92188 -3.60742,5.92188 -5.92995,0 -39.43164,-31.7279 -39.43164,-37.34375 0,-1.09531 19.28003,-7.07398 28.05273,-8.69922 3.42857,-0.63519 7.81183,-1.75718 9.74219,-2.49219 1.93035,-0.73496 5.77823,-1.33593 8.55078,-1.33593 z"
       transform="scale(0.26458333)" />
  </g>
</svg>
