<?xml version="1.0" encoding="UTF-8" standalone="no"?>
<!-- Created with Inkscape (http://www.inkscape.org/) -->

<svg
   width="67.951378mm"
   height="94.865303mm"
   viewBox="0 0 67.951378 94.865303"
   version="1.1"
   id="svg92190"
   sodipodi:docname="brick-C.svg"
   inkscape:version="1.1.2 (0a00cf5339, 2022-02-04)"
   xmlns:inkscape="http://www.inkscape.org/namespaces/inkscape"
   xmlns:sodipodi="http://sodipodi.sourceforge.net/DTD/sodipodi-0.dtd"
   xmlns="http://www.w3.org/2000/svg"
   xmlns:svg="http://www.w3.org/2000/svg">
  <sodipodi:namedview
     id="namedview188701"
     pagecolor="#ffffff"
     bordercolor="#666666"
     borderopacity="1.0"
     inkscape:pageshadow="2"
     inkscape:pageopacity="0.0"
     inkscape:pagecheckerboard="0"
     inkscape:document-units="mm"
     showgrid="false"
     inkscape:zoom="0.59598064"
     inkscape:cx="239.10173"
     inkscape:cy="171.98545"
     inkscape:window-width="1920"
     inkscape:window-height="969"
     inkscape:window-x="0"
     inkscape:window-y="0"
     inkscape:window-maximized="1"
     inkscape:current-layer="layer1" />
  <defs
     id="defs92187" />
  <g
     id="layer1"
     transform="translate(-41.794911,-102.75746)">
    <path
       style="display:inline;fill:#de514d;fill-opacity:1;stroke:none;stroke-width:0.264583px;stroke-linecap:butt;stroke-linejoin:miter;stroke-opacity:1"
       d="m 46.596897,182.66082 c 0.718074,0.81126 1.427435,0.284 2.775395,-0.0799 1.347959,-0.36391 14.856989,-4.40777 16.8789,-4.67995 2.021909,-0.27217 14.03731,-3.09683 15.70568,-3.16931 1.668367,-0.0725 11.898553,-1.83994 14.208956,-2.18605 2.310402,-0.34611 10.656522,-0.49297 11.281452,-1.13642 0.62493,-0.64345 0.32964,-0.74069 -0.29472,-1.80686 -0.62437,-1.06616 -7.854177,-8.32208 -10.31459,-11.09676 -2.460414,-2.77468 -7.972121,-11.25781 -9.484389,-14.21862 -1.512266,-2.96081 -6.438395,-12.43448 -7.584448,-13.93183 -1.146053,-1.49735 -5.828916,-11.21769 -8.339627,-15.8443 -2.510713,-4.62662 -4.666729,-7.01624 -5.625248,-6.36478 -0.958517,0.65146 -1.696016,4.40454 -3.604641,7.88749 -1.908622,3.48295 -1.887746,7.2137 -5.441138,16.22794 -3.553391,9.01423 -3.790367,13.32983 -4.744637,17.22534 -0.954271,3.89551 -3.000272,14.95675 -3.759457,18.89117 -0.759185,3.93442 -1.657488,14.28286 -1.657488,14.28286 z"
       id="path133205" />
    <path
       style="display:inline;fill:#ffffff;stroke:none;stroke-width:0.264583px;stroke-linecap:butt;stroke-linejoin:miter;stroke-opacity:1"
       d="m 62.55177,138.76656 c -2.735416,0.8272 -3.4593,2.05349 -4.193638,4.05103 -0.734338,1.99754 -0.985502,7.74654 -0.710676,8.95222 0.274825,1.20567 0.885211,4.84819 3.609554,6.47437 2.724343,1.62618 4.534575,1.52041 5.895893,1.17716 1.361318,-0.34326 3.036379,-2.3013 3.553028,-4.80177 0.516647,-2.50047 -0.48487,-9.36393 -1.076623,-10.96224 -0.591752,-1.5983 -2.04383,-3.45734 -3.320299,-4.24643 -1.276469,-0.78909 -3.757239,-0.64434 -3.757239,-0.64434 z"
       id="path110778" />
    <path
       style="display:inline;fill:#ffffff;stroke:none;stroke-width:0.264583px;stroke-linecap:butt;stroke-linejoin:miter;stroke-opacity:1"
       d="m 75.326988,140.99595 c -2.03749,5.42524 -0.832369,9.29377 -0.697122,10.65099 0.135247,1.35721 2.257775,4.77004 4.032732,5.38557 1.774954,0.61554 3.245329,0.3555 4.049299,-0.0713 0.803974,-0.42682 2.133325,-2.53073 2.825407,-5.07453 0.692081,-2.54381 0.623972,-5.57371 -0.04764,-7.28691 -0.671607,-1.7132 -2.871303,-5.53149 -3.895831,-6.344 -1.024527,-0.8125 -2.012262,-1.4954 -3.398226,-0.79857 -1.385964,0.69683 -2.86862,3.53879 -2.86862,3.53879 z"
       id="path110780" />
    <path
       id="path92311"
       style="display:inline;fill:#000000;stroke-width:0.329869"
       d="m 65.761719,106.48828 c -1.29199,0.18932 -1.729247,1.63609 -2.25586,2.63867 -0.930801,2.16938 -1.668426,4.41743 -2.581997,6.59445 -1.777868,4.53773 -3.278712,9.18126 -4.669206,13.84194 -0.996401,2.77667 -1.901829,5.60898 -2.586687,8.46986 -0.876079,3.25436 -2.091157,6.48041 -3.080598,9.7313 -1.209149,3.3326 -2.573603,6.61602 -4.138152,9.798 -1.463213,2.22745 -2.386448,4.75613 -3.445313,7.18945 -0.697075,1.78663 -1.479986,3.72254 -1.117187,5.67188 0.170345,1.14716 1.506302,1.27587 2.433593,1.36719 0.443146,0.0934 1.418455,-0.18049 1.376954,0.5371 -0.621245,3.5573 -1.434045,7.15244 -1.192527,10.78501 0.03189,0.70226 0.400002,1.85211 1.32121,1.52452 2.222147,-0.61478 4.434754,-1.27587 6.695283,-1.74746 2.92062,-0.66389 5.763425,-1.68184 8.734323,-2.10652 1.464292,-0.33849 2.878113,-0.91117 4.287414,-1.38523 0.447463,0.40998 0.227545,1.19511 0.324219,1.7539 0.04911,3.73247 -0.110977,7.52628 0.868974,11.16652 0.434539,1.655 0.504451,3.51135 1.523455,4.95916 0.611659,0.74489 1.573888,0.0445 2.351334,0.0853 1.406437,-0.2269 2.872621,-0.11638 4.244518,-0.51952 0.799185,-0.32094 0.553576,-1.49605 -0.214857,-1.68841 -1.359867,-0.63352 -2.917399,-0.42619 -4.328112,-0.82917 -0.818717,-0.54979 -0.741542,-1.70433 -1.031867,-2.55303 -0.678661,-3.26469 -0.828872,-6.60043 -0.990706,-9.89533 0.05213,-0.99261 -0.258846,-2.21196 0.493276,-2.9989 1.384089,-0.70815 2.96975,-0.90948 4.468404,-1.27767 1.224471,-0.25791 2.52109,-0.36987 3.676127,-0.82585 0.36102,0.75073 0.191292,1.69167 0.272279,2.51817 0.09202,4.54275 0.162707,9.1188 0.984632,13.59926 -0.01897,0.59862 0.535274,0.92364 1.077219,0.77596 2.276223,-0.17376 4.501309,-0.73396 6.76548,-1.01253 0.766688,-0.34385 0.369238,-1.35948 0.476562,-2.00781 -2.003294,0.0377 -4.006505,0.0797 -6.009765,0.11914 -0.369049,-3.31197 -0.538606,-6.57584 -0.476779,-9.91445 0.0067,-1.51819 0.03672,-3.03619 0.05295,-4.5543 2.571222,0.11846 5.023166,-0.80287 7.538345,-1.17595 6.401469,-1.17674 12.812113,-2.10847 19.321233,-2.43122 0.93679,-0.12295 2.00492,-0.0111 2.80253,-0.59791 0.11455,-1.09901 -0.49907,-2.1386 -1.14844,-2.97656 -0.89748,-0.51671 -1.26564,-1.60572 -1.97212,-2.33882 -3.15882,-3.7718 -6.865957,-7.06782 -9.772605,-11.05623 -1.113489,-1.5342 -2.19751,-3.08999 -3.368552,-4.58152 2.649174,0.43134 5.324767,0.95179 7.796877,2.01954 1.13458,0.30499 1.87604,-0.91083 2.09765,-1.84375 -0.0399,-0.71563 -0.83385,-1.09074 -1.31786,-1.53189 -3.88977,-2.60215 -7.57195,-5.50492 -11.227933,-8.42317 -0.994064,-0.82819 -2.269644,-1.74714 -2.210062,-3.19533 -0.1717,-1.31941 -1.677321,-1.94179 -2.857251,-1.66606 -0.459715,0.0759 -1.12182,0.10039 -1.169342,-0.50374 -1.534474,-3.12784 -3.599756,-5.95423 -5.289813,-8.99231 -0.510915,-1.24553 -1.031771,-2.48692 -1.745059,-3.63651 -1.97782,-3.55392 -3.817547,-7.19213 -5.948301,-10.65646 -0.463307,-1.6407 -1.673335,-2.94389 -2.716674,-4.25176 -0.799013,-0.93104 -1.818002,-1.93397 -3.121216,-1.9709 z m 0.416015,3.46094 c 0.932878,0.49738 1.377842,1.58107 1.9952,2.40339 2.255758,3.4814 4.37384,7.0455 6.238258,10.73816 1.810492,3.49219 3.558909,7.02065 5.634371,10.36576 0.445579,0.85832 1.029964,1.71528 1.327484,2.61183 -1.002629,0.2051 -2.091511,-0.16661 -3.066152,0.29531 -1.959154,0.73531 -3.996231,2.02069 -4.576426,4.16563 -0.733611,2.61127 -0.564092,5.36517 -0.565472,8.04904 -4.68e-4,2.65185 0.676899,5.39 2.286175,7.53299 1.488971,1.89331 4.089938,2.58953 6.404281,2.29676 2.03783,-0.56449 3.268197,-2.55677 4.009399,-4.40887 0.787269,-1.84384 0.810291,-3.86698 0.919349,-5.83278 0.106919,-0.45625 0.03042,-1.17473 0.469705,-1.43402 0.611664,0.73151 0.948817,1.68424 1.542476,2.44787 1.629219,2.25081 3.171068,4.56216 4.76115,6.83989 1.415341,2.02988 2.995957,3.93505 4.733895,5.69659 2.308803,2.53033 4.701513,4.99034 6.924723,7.5952 0.37063,0.29327 0.25231,0.73741 -0.25326,0.74858 -2.54587,0.51818 -5.171822,0.45842 -7.736328,0.87109 -3.906687,0.54882 -7.742783,1.51137 -11.662736,1.98318 -3.674151,0.57368 -7.363006,1.10397 -10.981228,1.96617 -1.409805,0.0964 -2.817499,0.24386 -4.162101,0.71278 -2.604006,0.76707 -5.332809,1.08875 -7.862617,2.10268 -2.799926,0.77358 -5.729764,1.02288 -8.46519,2.03736 -1.964005,0.56305 -3.989664,1.08371 -5.952065,1.70955 -0.306291,-0.71536 0.0369,-1.604 0.06656,-2.34849 0.447993,-3.00328 0.748931,-6.041 1.454924,-8.99721 0.269003,-0.76042 1.290544,-0.84517 1.886299,-1.07786 4.12879,-1.15256 8.196596,-2.51755 12.28123,-3.80886 1.297265,-0.26783 2.644607,-0.67115 3.916456,-0.55078 0.728609,0.43182 0.750816,1.73987 1.787149,1.70368 1.191595,0.048 2.726863,0.25266 3.484274,-0.90478 0.950154,-1.0803 1.752133,-2.69986 0.92071,-4.07853 -0.627273,-1.29728 -2.286898,-2.55612 -3.670674,-1.5036 -0.964933,0.66134 -1.663784,1.81277 -2.942185,1.90839 -4.176515,0.49439 -8.260921,1.57676 -12.276709,2.80125 -1.647222,0.50356 -3.245723,1.1479 -4.859206,1.74741 1.450568,-7.43199 2.617487,-14.92413 4.987536,-22.12895 1.032221,-3.35486 1.795647,-6.76526 2.96729,-10.06052 1.895381,-5.81494 3.600923,-11.68907 5.269783,-17.57224 0.508836,-1.69533 1.43992,-3.224 1.928673,-4.92912 0.253465,-0.53439 0.310853,-1.36864 0.834999,-1.69393 z m -2.794922,27.20312 c -1.329195,0.23038 -2.641652,0.67405 -3.84375,1.28516 -0.436887,0.41476 -0.551331,1.13978 -0.969693,1.61931 -1.067388,1.48117 -1.829799,3.28445 -1.955742,5.15297 -0.326574,3.43952 -0.595377,7.10255 0.85317,10.341 1.050508,2.17262 3.06797,3.84187 5.343955,4.59525 2.434493,0.64335 5.327254,0.0582 7.056436,-1.84915 1.859797,-2.35173 2.055576,-5.53657 1.885898,-8.41575 -0.100604,-2.15295 -0.491713,-4.28444 -1.032383,-6.3616 -0.7766,-2.12479 -2.326257,-4.012 -4.423828,-4.93359 -0.625457,-0.27131 -0.894581,-0.94136 -1.564794,-1.1357 -0.415807,-0.20819 -0.883617,-0.32112 -1.349269,-0.2979 z m 16.558594,1.56641 c 1.119206,0.63766 2.093501,1.53851 2.777544,2.5939 1.474656,1.91752 1.950893,3.66687 1.915168,6.19152 -0.01442,0.40098 -0.874834,-2.07327 -1.01693,-2.12917 -0.998249,-0.96771 -2.61231,-1.53221 -3.87164,-0.71701 -1.563432,1.06553 -1.939486,3.20011 -1.729923,4.96506 0.214149,1.83173 1.71647,3.49372 3.614634,3.57162 2.443644,-0.56627 2.805994,-3.2171 2.805994,-3.2171 -0.125375,3.15858 -1.532565,5.50687 -3.754612,5.7822 -1.594707,0.31647 -3.087584,-0.83877 -3.666016,-2.26954 -0.906831,-2.04725 -1.762169,-4.24813 -1.461271,-6.5317 0.168669,-2.5297 0.516134,-5.28793 2.232891,-7.2782 0.542023,-0.57863 1.332792,-1.06474 2.154161,-0.96158 z m -17.216797,1.13086 c 1.257663,-0.0433 2.133291,1.02614 3.257484,1.42037 1.543291,0.90049 3.26018,3.58844 3.492064,7.59966 0,0 -0.697708,-1.76916 -1.416109,-2.68141 -1.116533,-0.775 -2.141382,-0.73326 -3.470157,-0.69214 -0.999671,0.0685 -1.292547,1.22595 -1.583412,2.00907 -0.496834,1.78313 -0.927148,3.77796 -0.229088,5.56515 0.631503,1.60188 2.453918,2.41179 4.117469,2.01032 1.368994,-0.099 1.664712,-1.14094 2.478834,-3.25788 0.01544,0.72868 -1.027115,4.06547 -1.459585,4.59131 -1.193649,1.17117 -3.046332,2.17602 -4.697265,1.33985 -2.284651,-0.88268 -3.757045,-3.12107 -4.188427,-5.46771 -0.518459,-2.55091 -0.410107,-5.21337 0.04975,-7.76472 0.376783,-1.44829 0.947871,-2.81081 1.772505,-4.06017 0.457938,-0.53555 1.228678,-0.5483 1.875932,-0.6117 z m 24.933594,1.80469 c 1.263001,1.01942 2.414174,2.19805 3.705038,3.19733 1.329707,1.16183 2.797523,2.17432 4.140665,3.30267 -0.339261,0.13013 -0.844618,-0.18928 -1.214375,-0.28694 -1.666512,-0.72358 -3.697155,-1.18705 -4.696175,-2.85721 -0.675753,-1.10075 -1.472311,-2.17225 -1.96445,-3.35781 l 0.0078,-0.002 z m -40.572265,22.30078 c -0.229669,1.5023 -0.160832,3.46771 -1.59961,4.37109 0.06657,-1.55941 0.837306,-3.034 1.59961,-4.37109 z" />
    <path
       id="path94190"
       style="display:inline;fill:#ffb843;fill-opacity:1;stroke:#000000;stroke-width:1.8;stroke-miterlimit:4;stroke-dasharray:none"
       d="m 83.539288,103.66863 c -1.661494,0.29101 -3.582928,0.67075 -4.625129,2.11373 -0.367646,1.19218 0.201075,2.41633 0.584113,3.52689 0.296787,0.72936 1.376938,0.6613 1.585938,-0.0918 0.556293,-0.93824 1.646291,-2.07114 2.83789,-1.58594 0.710506,0.63106 -0.149077,1.46463 -0.487769,2.05211 -0.789175,1.16028 -1.82565,2.32361 -1.984887,3.75844 0.200736,0.94384 0.267569,2.16246 1.177734,2.70508 1.404944,0.52017 3.19126,0.0119 3.88867,-1.37696 -0.0534,-0.7179 -1.272571,-1.29226 -0.75495,-1.98386 0.878,-1.44929 2.788,-2.26351 2.99507,-4.10641 0.1407,-2.74453 -2.50478,-5.20339 -5.21668,-5.01128 z m 0.488281,14.71288 c -0.884782,0.0183 -0.833977,1.06339 -1.190951,1.62699 -0.527582,1.29779 0.555021,3.00011 2.013058,2.83465 1.585222,0.13268 2.404272,-1.9118 1.761882,-3.17648 -0.431,-0.97618 -1.579875,-1.38191 -2.583989,-1.28516 z" />
  </g>
</svg>
