<?xml version="1.0" encoding="UTF-8" standalone="no"?>
<!-- Created with Inkscape (http://www.inkscape.org/) -->

<svg
   width="70.120293mm"
   height="85.869835mm"
   viewBox="0 0 70.120293 85.869835"
   version="1.1"
   id="svg5"
   xmlns="http://www.w3.org/2000/svg"
   xmlns:svg="http://www.w3.org/2000/svg">
  <defs
     id="defs2">
    <marker
       style="overflow:visible"
       id="Arrow1Lstart"
       refX="0"
       refY="0"
       orient="auto">
      <path
         transform="matrix(0.8,0,0,0.8,10,0)"
         style="fill:context-stroke;fill-rule:evenodd;stroke:context-stroke;stroke-width:1pt"
         d="M 0,0 5,-5 -12.5,0 5,5 Z"
         id="path82791" />
    </marker>
  </defs>
  <g
     id="layer1"
     transform="translate(-69.02111,-109.17627)">
    <path
       style="display:inline;fill:#de514d;fill-opacity:1;stroke-width:0.504986;stroke-dasharray:0.504986, 1.00997"
       d="m 94.551343,112.00879 c -0.6976,0.13642 -0.58856,1.07187 -0.87371,1.57785 -0.70425,2.37054 -1.91887,4.55166 -2.53636,6.9519 -1.80721,6.40833 -3.76702,12.7747 -5.79852,19.1186 -1.00578,3.51205 -2.02118,7.01555 -3.0226,10.52967 -1.38955,5.21821 -3.20772,10.07317 -4.13581,15.39126 -0.55195,2.07133 -0.83158,2.78918 -1.02891,6.00492 -0.71114,3.15283 -0.41124,6.80682 -0.77535,10.0158 -0.006,0.79928 -0.29435,1.6854 0.0551,2.43803 0.56282,0.53828 1.3357,-0.0982 1.97085,-0.15796 4.15337,-1.16268 8.37711,-2.04476 12.55629,-3.10248 3.63762,-1.16613 7.37811,-2.00374 11.125817,-2.80341 4.25606,-0.78083 8.55815,-1.29238 12.80017,-2.15425 2.12864,-0.24562 4.28919,-0.5117 6.37952,-1.05187 3.99597,-0.84134 8.14559,-0.88751 12.17896,-1.63826 0.50181,-0.0448 1.18794,-0.46837 0.84142,-1.04001 -1.21755,-1.77456 -2.80578,-3.2629 -4.24093,-4.85916 -2.52932,-2.61411 -4.98626,-5.30309 -7.16936,-8.21719 -2.06241,-2.70074 -3.07053,-5.08911 -4.96761,-7.90572 -1.53797,-3.02099 -6.32383,-12.42501 -8.48066,-15.44711 -2.40084,-3.60695 -4.96428,-8.0808 -7.04417,-11.88497 -1.42044,-2.717 -2.948407,-5.38699 -4.646437,-7.93181 -0.70575,-1.3835 -1.70432,-2.61761 -2.80163,-3.70699 -0.1126,-0.0809 -0.24592,-0.13094 -0.38608,-0.12684 z"
       id="path30314" />
    <path
       id="path30429"
       style="display:inline;fill:#ffffff;fill-opacity:1;stroke-width:1.90861;stroke-dasharray:1.90861, 3.81722"
       d="m 405.96138,531.80947 c -9.61529,1.68153 -11.8565,11.6199 -14.48716,19.90982 -2.7903,8.39131 -2.38116,19.40801 -0.93024,27.03259 2.33639,7.70886 4.85416,15.74441 10.30196,21.47894 4.39233,3.63927 10.7617,3.59638 16.89681,1.25972 0.99298,-0.45003 6.18079,-2.45786 10.4448,-9.87876 2.86467,-4.98555 5.01686,-20.67371 4.63631,-28.07854 -0.56146,-10.92492 -3.56375,-17.4603 -12.49372,-28.30107 -1.16858,-1.5305 -12.66611,-3.78694 -14.36876,-3.4227 z"
       transform="scale(0.26458333)" />
    <path
       style="display:inline;fill:#ffffff;fill-opacity:1;stroke-width:1.90861;stroke-dasharray:1.90861, 3.81722"
       d="m 340.05809,536.14163 c -4.6899,3.25087 -10.03363,12.93547 -11.74336,17.638 -4.22615,11.06315 -4.19324,19.14173 -2.61419,30.89231 1.80315,8.88438 7.31211,17.80133 15.43448,22.62288 3.9826,2.34183 14.24494,4.26893 18.97455,2.22187 9.46632,-3.14455 15.23553,-15.10906 14.95996,-25.18983 -0.89251,-21.19449 -6.40188,-33.12043 -11.86546,-41.61145 -9.45383,-7.22607 -16.84876,-9.12114 -23.14598,-6.57378 z"
       id="path30390"
       transform="scale(0.26458333)" />
    <path
       id="path1233"
       style="display:inline;fill:#000000;stroke-width:1.24724;stroke-miterlimit:4;stroke-dasharray:none"
       d="m 356.80469,412.63477 c -0.51404,-0.002 -1.01278,0.0564 -1.4961,0.17773 -2.92868,0.73508 -8.33809,9.49029 -10.37695,16.79688 -0.47837,1.71428 -2.80629,7.88628 -5.17383,13.71484 -5.33696,13.13892 -12.93994,34.98864 -16.48633,47.37695 -1.47224,5.14284 -3.16857,10.47235 -3.76757,11.84375 -1.49387,3.42029 -8.76758,27.37045 -8.76758,28.86914 0,0.66607 -3.36619,11.5202 -7.48047,24.11914 -4.11428,12.59894 -7.48047,23.96991 -7.48047,25.26953 0,5.33719 -7.33456,23.09273 -20.72266,50.16016 -11.35474,22.95647 -14.18554,29.7353 -14.18554,33.97461 0,5.0843 0.15314,5.29688 3.84179,5.29688 2.56985,-10e-6 5.66714,-1.49455 9.35157,-4.51368 6.25253,-5.12345 6.13729,-5.46619 3.63867,10.7461 -1.90118,12.33581 -2.41669,25.80574 -1.11524,29.19726 0.9917,2.58429 4.27238,2.48795 14.16993,-0.41601 8.80582,-2.58361 23.40677,-6.2642 42.94726,-10.82813 6.80135,-1.58853 14.52687,-3.75379 17.16797,-4.81054 2.64109,-1.05676 6.1818,-1.92188 7.86914,-1.92188 3.75607,0 4.86792,3.36743 4.9375,14.96094 0.0514,8.555 -0.0861,8.85886 -10.53711,23.0664 -3.56075,4.84067 -4.69349,9.24012 -2.85156,11.08204 1.05643,1.05641 13.97153,-0.1825 23.19727,-2.22461 5.14573,-1.13904 6.52652,-1.98033 6.83984,-4.16407 0.47546,-3.31377 -3.65605,-4.7138 -11.00195,-3.72851 l -4.84961,0.65039 3.05664,-4.54883 c 1.68172,-2.50159 3.68148,-5.94978 4.44336,-7.66406 2.01839,-4.54152 2.83858,-18.60282 1.39062,-23.84571 -0.68678,-2.48677 -0.89267,-5.03956 -0.45703,-5.67187 1.04471,-1.51638 9.18085,-3.81081 17.19727,-4.84961 l 6.43164,-0.83398 3.41406,5.16015 c 3.22522,4.87363 3.37179,5.70803 2.64453,15.13867 -0.59546,7.72211 -1.68254,11.81263 -4.79687,18.07032 -3.51417,7.06099 -3.79453,8.31648 -2.2168,9.88476 1.40065,1.39227 2.92821,1.53505 6.79297,0.63477 2.74288,-0.63889 6.98346,-1.17629 9.42383,-1.19141 5.73683,-0.0384 8.42159,-2.13012 9.45117,-7.36719 0.91041,-4.63098 1.04238,-4.60488 -9.97071,-1.91601 -3.28407,0.80179 -3.45761,0.67203 -2.21679,-1.64649 4.11367,-7.68642 5.46507,-14.82442 4.74609,-25.06445 -0.40184,-5.72375 -1.36571,-11.16982 -2.14062,-12.10352 -1.11954,-1.34898 -0.68092,-1.85589 2.13086,-2.46289 10.25926,-2.21484 16.04181,-3.33962 29.0957,-5.66211 7.88572,-1.40299 18.82678,-3.36785 24.3125,-4.36523 5.48572,-0.99734 20.07314,-2.58785 32.41601,-3.53516 12.34284,-0.94733 22.52125,-1.7817 22.61914,-1.85351 1.43755,-1.05298 1.21277,-4.71855 -0.45117,-7.36524 -3.04176,-4.83836 -17.65608,-22.42808 -20.15234,-24.25586 -2.85619,-2.09128 -24.17188,-26.04257 -27.70899,-31.13476 -2.44486,-3.51961 -2.49226,-3.78293 -0.34961,-1.92578 3.49278,3.0274 46.67463,24.65625 49.22657,24.65625 2.6914,0 4.03596,-5.20491 2.31836,-8.97461 -0.72246,-1.58563 -8.2679,-9.82119 -16.76953,-18.30078 -10.18281,-10.15639 -15.72919,-16.64634 -16.25,-19.01758 -0.875,-3.98385 -3.80113,-6.07227 -8.50782,-6.07227 -5.85547,0 -7.04101,1.17338 -7.04101,6.96289 0,4.4312 0.5802,5.82849 3.10742,7.48438 1.70899,1.11961 3.95439,1.71115 4.98828,1.31445 1.03385,-0.39685 1.87891,-0.28391 1.87891,0.25196 0,0.53582 3.50725,4.58447 7.79297,8.99609 4.28572,4.41158 6.3881,7.12285 4.67382,6.02539 -1.71428,-1.09746 -8.44665,-4.97232 -14.96093,-8.61133 -20.46622,-11.4328 -25.79321,-15.73706 -33.11914,-26.75586 -7.79127,-11.71873 -15.02235,-24.22802 -20.5586,-35.56445 -2.1767,-4.45716 -7.35934,-13.71315 -11.51758,-20.57031 -6.78058,-11.18158 -12.26782,-21.47693 -29.71484,-55.7461 -13.47862,-26.47438 -24.60975,-40.36461 -32.32031,-40.39843 z m 0.5332,11.57421 4.74805,5.50586 c 2.6113,3.0282 4.7507,5.9807 4.75195,6.56055 0.002,0.57989 1.26573,2.81216 2.80859,4.96094 1.54286,2.14877 3.36702,4.85919 4.05274,6.02344 7.3381,12.45925 12.37086,21.72799 20.15234,37.10742 9.68077,19.13318 10.23373,20.11825 15.69141,27.96289 1.88572,2.71045 3.42773,5.45705 3.42773,6.10547 0,0.64837 1.21291,2.94834 2.69532,5.11133 1.4824,2.16302 1.93189,3.23212 0.99804,2.375 -2.72058,-2.49718 -10.77596,-1.80593 -17.13672,1.4707 -13.02493,6.70949 -15.86202,14.43499 -14.95312,40.71484 0.53144,15.36537 0.88653,17.39323 4.38086,24.96094 2.18317,4.72815 5.31893,9.30014 7.36328,10.73633 4.83568,3.39711 15.26791,5.87497 20.55664,4.88281 9.87481,-1.8525 18.45076,-16.6984 18.625,-32.24023 0.0482,-4.30285 0.5269,-8.94692 1.0625,-10.31836 0.86778,-2.2218 1.26748,-1.94945 3.67383,2.49414 1.48535,2.74284 4.62576,7.51193 6.97851,10.59765 2.3528,3.08569 5.80997,8.13499 7.6836,11.22071 3.01341,4.96282 7.76462,11.20773 18.60937,24.45898 1.74966,2.13793 6.37722,7.2112 10.28321,11.27344 13.54276,14.08463 22.68554,24.29775 22.68554,25.33984 0,1.27106 -5.55477,2.24738 -21.19336,3.72461 -14.93166,1.41045 -28.38178,3.4595 -32.41601,4.93945 -1.71432,0.62888 -7.20442,1.50175 -12.19922,1.93946 -4.99484,0.4377 -10.60447,1.26934 -12.4668,1.84961 -1.86228,0.58023 -11.80221,2.26518 -22.08789,3.74218 -10.28572,1.47701 -20.94462,3.23635 -23.6875,3.91016 -2.74284,0.67381 -11.15831,2.65852 -18.70117,4.41211 -7.54286,1.75363 -14.71621,3.72303 -15.94141,4.375 -1.22518,0.65201 -8.51988,2.54279 -16.20898,4.20117 -7.68909,1.65842 -19.30993,4.44611 -25.82422,6.19531 -6.51428,1.74921 -12.84567,3.49088 -14.07031,3.8711 -2.03525,0.63194 -2.16332,-0.0401 -1.48047,-7.82227 0.41088,-4.68261 1.87173,-15.52625 3.24609,-24.09765 2.35665,-14.69764 2.72253,-15.76165 6.4336,-18.70118 2.16422,-1.71428 6.75652,-5.77725 10.20312,-9.02734 3.44659,-3.25009 7.2018,-5.91432 8.3457,-5.92187 3.767,-0.0232 6.09004,-1.51152 7.93946,-5.0879 2.32923,-4.50428 2.29601,-6.64528 -0.1875,-11.8789 -1.69155,-3.56466 -2.6698,-4.24024 -6.14258,-4.24024 -4.62479,0 -9.29165,4.61468 -9.31055,9.20704 -0.0108,2.63969 -7.84066,11.98828 -10.04101,11.98828 -1.50823,0 -1.58086,0.75363 1.41406,-14.71485 4.10375,-21.19544 9.72088,-44.92962 13.14453,-55.5332 1.73665,-5.37868 4.26411,-14.07434 5.61719,-19.32422 1.35308,-5.24988 3.23502,-11.79036 4.18164,-14.5332 4.31171,-12.49338 15.7487,-50.01389 19.29297,-63.29492 2.15366,-8.07016 4.94824,-16.48562 6.20898,-18.70118 1.26074,-2.21552 3.30483,-7.3475 4.54297,-11.40429 z m -8.81445,104.01172 c -1.46638,0.0942 -3.23053,0.51263 -5.4961,1.23633 -8.23553,2.63067 -11.0957,3.94963 -11.0957,5.11524 0,0.64826 -1.39096,3.0025 -3.0918,5.23242 -4.72291,6.19204 -6.93678,13.9282 -7.74609,27.07226 -1.59005,25.82408 4.68322,39.92153 20.98047,47.1543 7.00316,3.10791 14.44076,3.19491 21.23437,0.24805 6.94407,-3.01214 10.17554,-6.61673 13.54688,-15.11133 2.39692,-6.03957 2.64658,-8.49117 2.09375,-20.57031 -1.13671,-24.83842 -6.2432,-37.47299 -17.45899,-43.19727 -2.59987,-1.32692 -5.82498,-3.51249 -7.16796,-4.85547 -1.73725,-1.73723 -3.35487,-2.48126 -5.79883,-2.32422 z m 74.80674,17.03977 c 1.71054,3.594 4.36988,9.53086 6.03336,19.08949 1.66347,9.55863 -3.24689,25.73793 -9.06707,33.81771 -3.00652,4.17375 -14.43796,1.29164 -18.941,-3.7165 -1.24524,-1.38493 -3.69535,-6.63399 -5.44531,-11.66601 -2.81893,-8.10581 -3.08662,-10.32881 -2.34375,-19.48438 1.36013,-16.76303 0.83273,-22.04609 9.30256,-30.03752 17.97186,-2.37317 17.69957,6.24884 20.46121,11.99721 z m -79.69737,-6.61985 c 2.72116,-0.0812 9.27636,-3.10393 15.04072,5.79949 5.76436,8.90341 12.08911,19.04204 11.71384,34.95479 -0.37527,15.91276 -4.22902,23.0075 -11.02604,25.68322 -6.30681,2.48275 -7.1151,3.51184 -14.9961,-0.61132 -6.76681,-3.54029 -10.39138,-8.64153 -13.57226,-19.10157 -3.12953,-10.29112 -0.82842,-29.86466 4.81055,-40.91796 1.9276,-3.77841 4.53066,-5.70225 8.02929,-5.80665 z m -59.22265,99.34766 c 0.11821,0.0814 -0.079,0.83456 -0.4961,2.32422 -0.47994,1.71428 -1.6857,3.95777 -2.67773,4.98633 -1.59151,1.65014 -1.69659,1.57713 -0.9043,-0.62305 0.49385,-1.37144 1.69767,-3.61688 2.67578,-4.98828 0.84996,-1.19174 1.28413,-1.78058 1.40235,-1.69922 z"
       transform="scale(0.26458333)" />
    <path
       style="display:inline;fill:#ffdc0e;fill-opacity:1;stroke:#000000;stroke-width:0.8;stroke-linecap:butt;stroke-linejoin:miter;stroke-miterlimit:4;stroke-dasharray:none;stroke-opacity:1"
       d="m 93.213174,155.88969 c 0.314439,1.03329 0.22804,3.69354 0.766815,3.5742 0.538775,-0.11935 0.593633,-1.99463 0.787307,-2.96126 0.513153,-2.56116 1.181957,-3.43429 1.787412,-3.83255 0.607832,-0.39981 1.646234,-0.99307 1.594386,-1.53015 -0.03791,-0.39267 -1.134369,-0.47318 -1.8358,-0.91975 -0.737248,-0.46938 -0.978327,-0.91261 -1.418011,-3.48561 -0.193516,-1.13245 -0.197094,-3.65202 -1.020024,-3.06666 -0.484432,0.34459 -0.477539,2.0298 -0.687266,2.96894 -0.55587,2.48916 -1.396514,3.35774 -2.181444,3.74728 -1.134099,0.56283 -2.968614,0.76334 -2.919987,1.23615 0.04719,0.45886 1.94161,0.48268 3.015986,0.95487 0.916167,0.40267 1.59697,1.62658 2.110626,3.31454 z"
       id="path48792" />
    <path
       style="display:inline;fill:#ffdc0e;fill-opacity:1;stroke:#000000;stroke-width:0.804504;stroke-linecap:butt;stroke-linejoin:round;stroke-miterlimit:4;stroke-dasharray:none;stroke-dashoffset:0.4;stroke-opacity:1;paint-order:normal"
       d="m 108.29963,151.70512 c 1.0464,0.79792 1.50836,1.66786 1.66073,2.43969 0.15238,0.77186 0.26325,2.96396 0.4918,2.8787 0.22853,-0.0853 0.62733,-1.71842 0.71386,-2.40057 0.27015,-2.12979 0.59837,-2.8851 1.1886,-3.68933 0.31173,-0.42472 2.14972,-1.62889 2.00263,-1.96171 -0.35421,-0.80149 -1.47564,-0.53408 -2.06668,-0.89733 -1.24904,-0.76767 -1.3671,-2.14086 -1.60036,-3.24374 -0.1175,-0.55554 -0.43711,-2.81564 -0.76741,-2.88676 -0.59852,-0.1289 -0.56332,3.17977 -0.90121,4.5378 -0.33788,1.35802 -0.35337,1.62898 -1.18423,2.34528 -0.82301,0.70952 -2.83874,0.58439 -2.89689,1.39932 0.22682,0.69658 2.31277,0.68078 3.35916,1.47865 z"
       id="path65355" />
  </g>
</svg>
