<?xml version="1.0" encoding="UTF-8" standalone="no"?>
<!-- Created with Inkscape (http://www.inkscape.org/) -->

<svg
   width="83.020462mm"
   height="98.176598mm"
   viewBox="0 0 83.020462 98.176598"
   version="1.1"
   id="svg84335"
   xmlns="http://www.w3.org/2000/svg"
   xmlns:svg="http://www.w3.org/2000/svg">
  <defs
     id="defs84332" />
  <g
     id="layer1"
     transform="translate(-65.33329,-97.215605)">
    <path
       style="fill:#bcffd6;fill-opacity:1;stroke:none;stroke-width:0.264583px;stroke-linecap:butt;stroke-linejoin:miter;stroke-opacity:1"
       d="m 90.8228,137.72817 c -16.402408,13.81293 -18.013002,20.84089 -15.152935,26.88634 3.141429,6.64018 7.016481,8.52395 9.905078,8.31139 1.345828,-0.099 8.471078,-6.12184 14.595167,-11.4328 2.96985,6.68453 10.21421,11.46318 14.11543,11.10104 3.90122,-0.36214 5.95129,-2.29712 6.06419,-4.36492 0.11289,-2.06781 -1.90185,-11.17352 -4.67848,-16.77297 -2.77664,-5.59944 -3.9319,-7.53055 -6.57104,-12.71955 -4.56403,-2.9547 -4.59453,-7.69742 -18.27741,-1.00853 z"
       id="path84758" />
    <path
       style="fill:#a3d480;fill-opacity:1;stroke:#000000;stroke-width:0.264583px;stroke-linecap:butt;stroke-linejoin:miter;stroke-opacity:1"
       d="m 87.947486,187.84466 c 2.541942,-2.27873 2.189665,-2.85379 2.549469,-8.68632 0.359802,-5.83252 -1.70067,-21.43246 -1.70067,-21.43246 0,0 -3.370699,1.70038 -9.239221,2.64507 -5.868524,0.94468 -12.250142,-1.46899 -12.250142,-1.46899 0,0 9.507307,-2.91361 12.290674,-4.67128 2.783369,-1.75766 10.703718,-7.79651 10.703718,-7.79651 0,0 -0.464542,-0.68778 0.341331,-5.01939 0.805871,-4.3316 2.083893,-5.10033 2.083893,-5.10033 0,0 -1.599507,0.51411 -0.299175,-4.0594 1.300332,-4.5735 3.098893,-6.31746 3.098893,-6.31746 0,0 -1.979854,-3.48267 1.03569,-7.22717 3.015541,-3.7445 5.140784,2.15469 5.140784,2.15469 0,0 0.91535,-0.28735 2.40927,-0.13286 1.49392,0.15449 2.33956,1.41157 2.33956,1.41157 0,0 -0.19858,-2.0563 2.47083,-3.92107 2.66942,-1.86477 3.68088,2.32189 3.54546,4.01915 -0.13541,1.69727 -1.83668,5.77382 -1.83668,5.77382 0,0 1.42283,3.81752 1.14982,5.31125 -0.27301,1.49374 -2.73575,4.22054 -2.73575,4.22054 0,0 -1.18029,6.12752 -0.55894,7.75066 0.62136,1.62314 3.04471,2.98671 3.50163,5.16053 0.45693,2.17383 -2.17342,5.35 -2.17342,5.35 0,0 0.0868,8.54772 -0.4776,13.05423 -0.56437,4.50651 -1.53703,10.75814 -3.38905,14.81426 -1.852,4.05613 -4.27906,5.99338 -7.414427,6.93723 -3.135368,0.94386 -6.910178,0.47015 -9.076325,-0.59566 -2.166146,-1.0658 -1.509622,-2.1741 -1.509622,-2.1741 z"
       id="path90182" />
    <path
       style="display:inline;fill:#7b6d54;fill-opacity:1;stroke:#000000;stroke-width:0.264583px;stroke-linecap:butt;stroke-linejoin:miter;stroke-opacity:1"
       d="m 138.94173,148.84699 c 0,0 -1.07114,-2.43676 -2.76389,-0.39889 -1.69275,2.03787 1.22236,1.58241 1.48754,2.544 0.26518,0.96159 -0.85357,7.70975 -0.92943,10.99799 -0.0759,3.28824 -1.68079,10.59623 -2.12337,14.65197 -0.44258,4.05574 0.45683,14.18896 -0.14337,15.82121 -0.6002,1.63224 2.4266,1.60427 3.54736,0.87167 1.12076,-0.7326 0.7337,-1.28458 0.12182,-2.78763 -0.61189,-1.50306 -1.78469,-10.09329 -0.63396,-15.23295 1.15073,-5.13966 3.60317,-20.90828 4.61443,-22.60275 1.01126,-1.69448 4.07677,-9.32611 5.10119,-10.00854 1.02441,-0.68242 0.4214,-1.66247 -0.51323,-1.59039 -0.93462,0.0721 -1.72193,0.16169 -2.78792,1.67301 -1.06599,1.51132 -2.89859,5.72985 -3.65587,6.13987 -0.75729,0.41002 -1.3213,-0.0786 -1.3213,-0.0786 z"
       id="path101763" />
    <path
       style="fill:#ffffff;stroke:none;stroke-width:0.264583px;stroke-linecap:butt;stroke-linejoin:miter;stroke-opacity:1"
       d="m 95.247207,124.19073 c -0.02469,-6.97225 3.608361,-6.65721 4.131482,-6.85051 0.523121,-0.19331 1.894631,0.77509 2.416771,2.7772 0.52215,2.00212 -0.78607,6.71617 -1.978494,8.13588 -1.192418,1.41971 -3.028148,0.20909 -4.209547,-1.39363 -1.181399,-1.60272 -0.360212,-2.66894 -0.360212,-2.66894 z m 11.727393,-2.478 c 0.64174,-6.18415 3.84617,-3.655 4.54877,-3.04213 0.70259,0.61288 1.84227,4.23582 0.88057,6.87346 -0.96169,2.63764 -1.45626,3.11999 -2.6559,3.21113 -1.19965,0.0911 -2.53776,-2.40136 -3.08837,-3.95049 -0.55061,-1.54913 0.31493,-3.09197 0.31493,-3.09197 z"
       id="path104764" />
    <path
       style="fill:#000000;stroke-width:0.32987"
       d="m 92.547574,195.01165 c -0.725714,-0.23419 -2.581233,-0.68148 -4.123376,-0.99399 -5.363464,-1.08687 -5.626113,-1.19326 -6.09721,-2.46961 -0.234376,-0.635 -0.644567,-1.74831 -0.911534,-2.47403 -0.595824,-1.61967 -1.639016,-4.94265 -2.381804,-7.58701 -0.305776,-1.08857 -0.677355,-2.2761 -0.825734,-2.63896 -0.148376,-0.36286 -0.50899,-1.32773 -0.801357,-2.14416 -1.054901,-2.94576 -4.373678,-9.02312 -6.901688,-12.63841 -2.067124,-2.95617 -2.838067,-3.80011 -3.875974,-4.24293 -0.751806,-0.32076 -1.295607,-0.77853 -1.295607,-1.09063 0,-0.63399 2.121425,-1.64546 4.538198,-2.16377 0.920852,-0.19748 2.383424,-0.62825 3.250157,-0.95726 1.321813,-0.50175 1.64594,-0.80056 2.010456,-1.85344 0.239021,-0.6904 0.690715,-1.53828 1.003765,-1.8842 0.499562,-0.55201 0.509195,-0.67573 0.07876,-1.01149 -0.665579,-0.51917 -2.710761,-3.63531 -3.735347,-5.69138 -0.460525,-0.92414 -0.883686,-2.11167 -0.940354,-2.63896 -0.08469,-0.78802 0.03279,-0.97794 0.659935,-1.06683 0.419631,-0.0595 1.458722,0.11632 2.309091,0.39063 2.487781,0.80253 4.045104,1.14024 6.331378,1.37297 l 2.146297,0.21848 1.565524,-1.37804 1.565527,-1.37803 -1.664389,-1.8674 c -1.838785,-2.06307 -2.294171,-3.16602 -1.595615,-3.86458 0.500228,-0.50023 0.36101,-0.55489 3.625579,1.42345 0.977356,0.59228 2.137832,1.17176 2.578833,1.28773 0.970276,0.25516 2.554794,-0.57708 2.361629,-1.24041 -0.452213,-1.55286 -0.324912,-2.68453 0.58129,-5.16759 0.546618,-1.49776 1.294087,-3.1049 1.661048,-3.57141 0.565242,-0.71859 0.638107,-1.15971 0.476834,-2.88673 -0.191127,-2.04675 0.231127,-3.94582 1.364788,-6.13809 0.477154,-0.9227 2.259172,-1.99804 3.311114,-1.99804 0.401096,0 0.498556,-0.16579 0.339341,-0.57727 -0.122857,-0.3175 -0.353103,-1.24526 -0.511662,-2.06169 -0.158555,-0.81643 -0.429293,-2.21076 -0.601637,-3.09853 -0.430028,-2.21511 -0.27523,-7.77124 0.243108,-8.72578 0.365688,-0.67343 0.332143,-0.85562 -0.258948,-1.4063 -0.528425,-0.49231 -0.632163,-0.869497 -0.46764,-1.700368 0.206574,-1.043271 0.903854,-1.860902 1.604897,-1.881907 0.192575,-0.0058 0.687717,0.304012 1.100313,0.688404 0.52861,0.49248 0.68669,0.906537 0.53523,1.401948 -1.08879,3.561383 -1.278122,4.646443 -1.27386,7.300453 0.0026,1.70741 0.237968,3.84482 0.55361,5.03052 0.30187,1.13393 0.78263,2.98945 1.06837,4.12338 0.87342,3.46618 1.20657,4.20584 1.89431,4.20584 0.49771,0 0.5873,-0.15765 0.42178,-0.7422 -0.49877,-1.76133 -0.91792,-6.51951 -0.74827,-8.49416 0.10133,-1.17929 0.49536,-3.03481 0.87562,-4.12338 0.38027,-1.08857 0.60962,-2.30891 0.50968,-2.71187 -0.12719,-0.51284 0.10497,-1.05351 0.77381,-1.80207 0.87022,-0.97395 1.03254,-1.03433 1.81817,-0.67637 0.68162,0.31057 0.86265,0.6261 0.86265,1.50354 0,1.09546 -0.59625,1.90553 -1.68455,2.28866 -1.36256,0.47968 -2.11207,8.47552 -1.16972,12.47866 0.40612,1.72518 1.47322,3.80872 1.58504,3.0948 0.0276,-0.17644 0.0847,-0.46924 0.12688,-0.65067 0.0422,-0.18143 0.0938,-0.50403 0.11469,-0.7169 0.0209,-0.21287 0.42235,-0.84374 0.89205,-1.40195 0.7073,-0.84057 1.09518,-1.01492 2.25797,-1.01492 1.51241,0 2.23487,0.53713 2.66212,1.97922 0.13438,0.45357 0.37494,0.98875 0.53459,1.18928 0.15965,0.20053 0.23502,1.46744 0.16749,2.81536 -0.0821,1.638 -0.35205,2.90016 -0.8141,3.80586 -0.54729,1.07279 -0.64981,1.70554 -0.49208,3.03732 0.10958,0.92523 0.36425,1.81095 0.56592,1.96826 0.20168,0.15731 1.1089,0.55325 2.01604,0.87988 1.70034,0.61222 4.30046,2.78608 4.65013,3.88781 0.10897,0.34333 1.00422,2.12803 1.98944,3.96599 1.36336,2.54338 1.74481,3.55353 1.59663,4.22818 -0.10708,0.48754 -0.41091,0.9694 -0.67517,1.07081 -0.26426,0.1014 -0.96029,-0.0191 -1.54673,-0.26774 -0.58643,-0.24867 -1.88267,-0.63592 -2.88053,-0.86058 -1.88361,-0.42406 -4.21116,-1.58012 -5.57056,-2.7668 -0.66312,-0.57886 -0.57245,-0.27595 0.57423,1.91839 1.21664,2.32821 1.58163,2.74107 3.42641,3.87579 1.1356,0.6985 2.21317,1.27512 2.39459,1.28138 0.18143,0.006 0.92364,0.29819 1.64935,0.64873 0.72572,0.35055 1.78345,0.6424 2.35052,0.64855 1.05064,0.0114 3.21372,-0.83417 7.05078,-2.75624 1.17929,-0.59073 2.76653,-1.26976 3.5272,-1.50896 1.20651,-0.37939 1.53193,-0.36425 2.54956,0.11865 1.31199,0.62258 3.76739,1.51878 4.16112,1.51878 0.14235,0 0.86781,-0.96426 1.61213,-2.14279 0.74431,-1.17854 1.99393,-2.8114 2.77692,-3.62857 1.16378,-1.2146 1.63729,-1.48578 2.59432,-1.48578 0.64388,0 1.35044,0.21658 1.57014,0.48129 0.48125,0.57988 0.17698,2.26918 -0.51165,2.8407 -0.68929,0.57206 -4.04776,7.60279 -4.79487,10.03775 -0.45035,1.46776 -2.17667,10.0739 -2.77501,13.83413 -0.28691,1.80305 -0.58816,3.38591 -0.66946,3.51745 -0.15749,0.25483 -1.05928,9.46442 -1.06265,10.85232 -0.006,2.43971 0.73027,8.22793 1.16654,9.17187 0.40765,0.88204 0.42724,1.2331 0.10266,1.83958 -0.46652,0.87171 -2.04874,1.52361 -3.69793,1.52361 -0.78686,0 -1.3886,-0.24749 -1.88409,-0.77491 -0.58807,-0.62598 -0.66778,-0.93329 -0.41473,-1.59888 0.17231,-0.45318 0.34231,-3.48152 0.3778,-6.72963 0.0656,-6.00244 0.41447,-11.82981 0.97568,-16.29658 0.17097,-1.36071 0.54968,-4.40376 0.84159,-6.76234 0.29191,-2.35857 0.74244,-5.28248 1.00118,-6.49758 0.60516,-2.84198 0.59863,-4.10342 -0.0225,-4.34176 -0.2711,-0.10403 -0.78224,-0.66492 -1.13587,-1.24641 -0.47687,-0.78415 -0.55863,-1.21483 -0.3165,-1.66724 0.17955,-0.3355 0.24832,-0.7364 0.15284,-0.8909 -0.2446,-0.39578 -3.15076,0.61945 -6.92765,2.42007 -3.27582,1.56175 -5.60379,2.21349 -6.89237,1.9296 -0.98451,-0.21689 -4.90917,-1.79712 -5.42472,-2.18421 -0.58681,-0.44059 -0.84298,-0.0754 -0.45833,0.65345 1.51563,2.87176 3.79228,9.63862 4.5333,13.47434 0.28041,1.45142 0.66281,2.95184 0.84978,3.33425 0.49738,1.01729 -0.70692,3.16724 -2.44062,4.35708 -1.3647,0.93658 -4.6275,1.89736 -5.21352,1.53518 -0.15986,-0.0988 -0.97329,-0.38508 -1.80762,-0.63618 l -1.51697,-0.45654 0.46548,0.71622 c 3.49511,5.37781 6.93857,11.46056 7.81052,13.79698 l 0.69609,1.86519 1.555,0.0251 c 2.86231,0.0462 6.74073,0.629 7.17448,1.07804 0.2361,0.24442 0.4642,0.74129 0.50689,1.10415 0.0882,0.75005 -0.30331,1.81428 -0.66751,1.81428 -0.13379,0 -0.67457,-0.37092 -1.20172,-0.82427 -1.04151,-0.89571 -0.98992,-0.86929 -1.94806,-0.99769 -1.43718,-0.19262 -5.31988,-0.8316 -6.02013,-0.99075 -0.40821,-0.0928 -0.7422,-0.39728 -0.7422,-0.67668 0,-0.27939 -0.12282,-0.43208 -0.27293,-0.33931 -0.27922,0.17257 -1.45759,-2.00395 -3.46352,-6.39727 -0.62128,-1.36072 -1.95389,-3.72962 -2.96135,-5.26422 -1.60704,-2.44793 -1.85047,-2.69072 -1.98443,-1.97922 -0.72328,3.84151 -1.54945,6.51816 -2.7621,8.9488 -0.78476,1.57295 -1.54308,2.90893 -1.68517,2.96883 -0.14209,0.0599 -0.59812,0.66558 -1.01341,1.34594 -0.45186,0.74029 -1.01032,1.23701 -1.39075,1.23701 -0.34963,0 -1.08493,0.40027 -1.634,0.88949 -0.54907,0.48923 -1.252876,0.95621 -1.564023,1.03774 -0.311147,0.0815 -1.812392,0.21233 -3.336105,0.29067 -2.205604,0.1134 -3.214327,-6.6e-4 -4.948052,-0.55942 -1.197715,-0.38603 -2.539175,-0.97561 -2.98102,-1.31018 -1.398068,-1.05865 -1.142106,-3.14574 0.690006,-5.62622 0.466991,-0.63225 0.695911,-1.8883 0.981097,-5.38312 0.276282,-3.38571 0.27616,-4.76875 -3.3e-4,-5.37591 -0.204995,-0.4496 -0.372602,-1.1794 -0.372602,-1.62177 0,-0.78155 -0.03032,-0.77177 -1.072078,0.34586 -0.949838,1.01902 -1.279375,1.15781 -2.890091,1.21724 -2.394708,0.0884 -4.569301,-0.95705 -6.802261,-3.27011 -1.935246,-2.00467 -3.949416,-5.59799 -4.273349,-7.62375 L 73.825591,161.2 h -1.791593 c -1.348994,0 -1.728767,0.10186 -1.537278,0.41234 0.139875,0.22678 1.108816,1.54896 2.153204,2.93818 2.60294,3.46236 2.820202,3.84 5.4737,9.51441 1.048763,2.24274 2.494554,6.3595 3.70718,10.55585 0.393208,1.36071 1.028274,3.31063 1.41126,4.33314 l 0.696339,1.85912 1.665626,0.19613 c 2.676329,0.31515 7.553535,1.75052 9.138772,2.68955 0.300231,0.17785 0.597114,0.62024 0.65974,0.9831 0.08718,0.50514 -0.07938,0.67097 -0.710811,0.70768 -0.453571,0.0264 -1.418441,-0.14366 -2.144156,-0.37785 z m 45.439026,-2.66583 c 0.10551,-0.10551 -2.6e-4,-0.66217 -0.23506,-1.23701 -0.46816,-1.1462 -0.74548,-3.1914 -1.01395,-7.47764 -0.21185,-3.38239 0.37865,-11.1381 1.00462,-13.19481 0.24848,-0.81643 0.61538,-2.59772 0.81534,-3.95844 0.3809,-2.59216 1.22227,-6.27718 2.25947,-9.8961 0.33799,-1.17929 0.54978,-2.33285 0.47065,-2.56347 -0.28497,-0.8305 3.76714,-9.89703 5.0635,-11.32949 0.50207,-0.55478 0.52346,-0.70813 0.13248,-0.94977 -0.32584,-0.20138 -0.61992,-0.0578 -0.97649,0.47687 -2.81321,4.21802 -4.4795,6.51455 -4.89577,6.74751 -0.29114,0.16293 -0.41377,0.50297 -0.29396,0.81517 0.20315,0.5294 -0.10644,0.68496 -1.08233,0.54384 -0.26615,-0.0385 -0.90841,-0.42719 -1.42726,-0.86377 -1.50011,-1.26226 -1.80952,-0.9199 -0.43801,0.48466 1.17995,1.20838 1.24782,1.39205 1.23845,3.3515 -0.005,1.14018 -0.15659,2.75439 -0.33585,3.58715 -0.41673,1.93583 -1.40904,8.36877 -1.55654,10.09071 -0.0622,0.72571 -0.1884,1.98746 -0.28051,2.80389 -0.56636,5.0194 -1.40485,20.76641 -1.1988,22.51364 0.0341,0.2892 2.46722,0.33836 2.75002,0.0556 z m -38.924091,-2.48601 c 0.498929,-0.20406 0.907143,-0.58284 0.907143,-0.84173 0,-0.25889 0.439098,-0.65533 0.975768,-0.88099 0.53667,-0.22565 1.3931,-0.99781 1.90317,-1.71589 0.86073,-1.21176 2.46827,-4.34288 3.34953,-6.52415 0.48067,-1.18975 2.26782,-12.07977 2.6745,-16.2972 0.33857,-3.51108 0.12174,-7.39434 -0.45637,-8.17321 -0.30989,-0.41752 -0.58814,-0.30311 -1.8492,0.76039 -2.09201,1.76426 -3.65633,2.19005 -7.07948,1.92692 -2.342813,-0.18008 -3.148518,-0.4029 -4.833247,-1.33666 l -2.021758,-1.12055 -1.457052,0.87487 c -1.118478,0.67159 -1.419959,1.02819 -1.297419,1.53462 0.0878,0.36286 0.251427,1.84728 0.363622,3.2987 0.112196,1.45143 0.424421,4.46095 0.693836,6.68783 0.947935,7.83529 -0.01692,18.11638 -1.838719,19.59242 -0.604015,0.48938 -0.624424,0.60525 -0.184177,1.0455 1.510077,1.51008 7.600904,2.21167 10.149853,1.16913 z m -11.917785,-18.84617 1.570508,-1.07208 -0.168956,-2.57903 c -0.09293,-1.41847 -0.271146,-3.27399 -0.396042,-4.12338 -0.124895,-0.84939 -0.225677,-2.24915 -0.223962,-3.11059 0.0016,-0.86143 -0.01633,-1.56652 -0.04007,-1.56688 -0.288195,-0.004 -4.67713,1.78974 -4.967201,2.03041 -0.402056,0.33358 -2.884675,0.63495 -5.957197,0.72315 -1.494625,0.0429 -1.731271,0.13986 -1.731558,0.70943 -9.89e-4,1.77922 3.110715,6.64566 5.393251,8.43486 1.086118,0.85136 2.989593,1.59076 4.14909,1.61171 0.440898,0.008 1.508361,-0.46796 2.372139,-1.0576 z m 29.448626,0.24178 c 0.58001,-0.27524 1.5302,-0.93486 2.11154,-1.46582 1.24759,-1.13951 1.3279,-2.02766 0.53185,-5.88208 -0.61471,-2.97636 -1.64219,-6.18043 -3.08968,-9.63479 -0.57018,-1.36072 -1.28094,-3.0678 -1.57947,-3.79351 -0.65149,-1.58377 -5.69144,-6.67169 -5.69144,-5.74562 0,0.32653 0.14844,0.68544 0.32987,0.79757 0.18142,0.11213 0.32987,0.49199 0.32987,0.84414 0,0.35215 0.12219,0.64027 0.27153,0.64027 0.14935,0 0.90623,0.77932 1.68196,1.73182 1.27787,1.56908 1.39558,1.86427 1.25255,3.14125 -0.0901,0.80424 -0.56441,1.99607 -1.10468,2.77565 -0.91991,1.32738 -0.94844,1.49359 -1.00393,5.84771 -0.0314,2.46482 -0.26593,5.77281 -0.52115,7.35109 l -0.46404,2.86959 0.85102,0.32814 c 2.08205,0.8028 4.64033,0.88449 6.0942,0.19459 z M 81.072983,158.68683 c 0.401831,-0.25061 1.226223,-0.45566 1.831983,-0.45566 0.605761,0 1.909849,-0.38178 2.897972,-0.84841 2.23646,-1.05612 2.155464,-1.00623 4.372633,-2.69312 2.279079,-1.73399 3.501396,-3.30501 3.746477,-4.81526 0.154613,-0.95278 0.03616,-1.31321 -0.660509,-2.00989 -1.48684,-1.48684 -2.668369,-1.09089 -6.536538,2.19046 -0.970442,0.82322 -2.395316,1.81513 -3.166387,2.20424 -0.771072,0.3891 -1.397284,0.81578 -1.391584,0.94816 0.0057,0.13239 0.40009,0.52496 0.876412,0.8724 l 0.866048,0.6317 0.97222,-1.2119 c 1.010144,-1.25918 4.471257,-3.18527 5.72381,-3.18527 0.814624,0 1.604449,0.79826 1.291244,1.30504 -0.117041,0.18937 -0.502541,0.34432 -0.85667,0.34432 -1.098718,0 -3.366954,1.25298 -5.076087,2.80405 -0.899536,0.81634 -1.850393,1.48426 -2.113019,1.48426 -0.262627,0 -0.936838,-0.34493 -1.498251,-0.7665 -1.722717,-1.2936 -2.114292,-1.31042 -4.116178,-0.17673 -1.01894,0.57703 -3.483755,1.60572 -5.477365,2.28597 -3.372276,1.15067 -3.544596,1.25043 -2.474026,1.43227 3.31156,0.56249 9.661596,0.36228 10.787815,-0.34013 z m 22.612687,-2.98763 c 1.13119,-0.30401 2.2313,-0.6842 2.44469,-0.84485 0.21339,-0.16066 0.64215,-1.10018 0.95281,-2.08783 0.432,-1.37345 0.52434,-2.50574 0.39266,-4.81512 -0.1545,-2.70984 0.0582,-5.95463 0.60011,-9.15452 l 0.19078,-1.1265 -0.83823,0.54922 c -0.46102,0.30208 -1.13157,0.54923 -1.4901,0.54923 -1.07565,0 -1.09996,0.58991 -0.034,0.82404 0.54587,0.1199 0.99249,0.4103 0.99249,0.64535 0,0.23505 0.0928,0.89124 0.20617,1.45821 0.13214,0.66067 0.0743,1.03084 -0.16104,1.03084 -0.20197,0 -0.33186,-0.30509 -0.28864,-0.67799 0.0698,-0.6022 -0.13774,-0.69407 -1.85663,-0.8219 -2.37484,-0.17661 -3.68469,0.37689 -5.120742,2.16387 -1.218316,1.51603 -2.553676,1.88701 -5.029975,1.39739 -1.386259,-0.2741 -1.857334,-0.22996 -2.868198,0.26876 l -1.209511,0.59671 1.338599,-0.0466 c 1.575223,-0.0548 3.309347,1.01299 3.822875,2.35396 0.1829,0.4776 0.236237,1.64685 0.118526,2.59831 -0.163286,1.31986 -0.452559,1.96849 -1.220302,2.73624 -0.553456,0.55345 -0.951095,1.05824 -0.883639,1.12175 0.252736,0.23794 2.798552,1.2626 3.751213,1.50981 1.681048,0.43623 4.041014,0.34915 6.190044,-0.22841 z m 6.80724,-2.27 c 0.38078,-0.64538 0.69177,-1.49891 0.69109,-1.89676 -10e-4,-0.84319 -1.25586,-3.03985 -1.56143,-2.73427 -0.1142,0.11419 -0.0503,0.36495 0.14197,0.55724 0.37482,0.37482 0.0316,2.49513 -0.59268,3.66165 -0.24358,0.45514 -0.22877,0.77392 0.0517,1.11182 0.21623,0.26054 0.43453,0.47372 0.48511,0.47372 0.0506,0 0.40351,-0.52803 0.78428,-1.1734 z m -32.010133,-0.0144 c 0.359766,-0.11166 0.368165,-0.2375 0.04208,-0.6304 -0.590276,-0.71125 -1.158926,-0.60376 -1.569159,0.29661 -0.325044,0.71339 -0.291219,0.77273 0.359387,0.63041 0.395013,-0.0864 0.920476,-0.21989 1.167694,-0.29662 z m 5.570081,-3.34793 c 3.788153,-2.56937 5.192726,-3.65935 4.984216,-3.86786 -0.08117,-0.0812 -1.585122,-0.20071 -3.342116,-0.26565 l -3.194538,-0.11807 -0.939018,1.01248 c -0.516461,0.55687 -1.439075,1.66402 -2.050255,2.46035 l -1.111233,1.44787 0.971233,0.77712 c 0.534178,0.42741 1.067456,0.77785 1.185062,0.77875 0.117605,9.9e-4 1.691098,-1.00035 3.496649,-2.22499 z m -4.701896,-2.49433 c 0.855558,-1.05439 1.502849,-1.96398 1.438425,-2.02133 -0.06443,-0.0573 -0.933565,-0.25984 -1.931422,-0.45001 -1.859373,-0.35434 -3.545068,-0.76711 -4.875487,-1.19384 -0.650531,-0.20865 -0.525391,0.10607 0.926545,2.33021 1.99452,3.0553 2.321026,3.46866 2.642494,3.34548 0.134135,-0.0514 0.943884,-0.95613 1.799445,-2.01051 z m 9.039002,-3.89316 c 0.579605,-0.20205 0.998052,-0.53469 0.929887,-0.73919 -0.06817,-0.2045 -0.604407,-0.65242 -1.191649,-0.99539 l -1.067707,-0.62358 -1.153335,1.11536 -1.153331,1.11536 0.92804,0.20837 c 1.417745,0.31833 1.57637,0.31359 2.708095,-0.0809 z m 22.146256,-1.0997 c -0.39835,-0.64455 -0.78639,-1.1719 -0.8623,-1.1719 -0.37353,0 -0.061,0.99853 0.55931,1.78717 0.97,1.23316 1.18081,0.80507 0.30299,-0.61527 z m 9.34383,-0.42969 c -0.49457,-0.86179 -1.29077,-2.08643 -1.76932,-2.72143 -0.47856,-0.635 -1.06551,-1.64294 -1.30434,-2.23987 -0.44361,-1.10874 -2.78619,-3.36792 -3.49224,-3.36792 -0.60625,0 -2.78865,2.98714 -2.78865,3.81692 0,0.47959 0.55115,1.1987 1.56688,2.04437 0.86178,0.71749 2.08643,1.57198 2.72143,1.89884 1.93553,0.99632 4.74918,2.10729 5.37429,2.12203 0.52347,0.0123 0.48818,-0.16553 -0.30805,-1.55294 z m -21.492316,0.32987 c 0.238314,-0.49893 1.153842,-1.38958 2.034496,-1.97922 l 1.6012,-1.07208 h -1.5056 c -1.616578,0 -4.263841,-0.61615 -6.196537,-1.44223 -0.657316,-0.28096 -1.288193,-0.41776 -1.401948,-0.304 -0.405892,0.4059 -0.194495,0.77764 0.61784,1.08649 1.498356,0.56967 0.858071,1.64935 -0.978118,1.64935 -0.506285,0 -0.822854,0.24334 -0.950227,0.73041 -0.223365,0.85415 0.242887,1.23667 1.516007,1.24376 0.498929,0.003 0.907143,0.14261 0.907143,0.31074 0,0.39307 0.80457,0.59771 2.538492,0.64566 1.202572,0.0333 1.440738,-0.0806 1.817252,-0.86888 z m -8.314185,-1.85828 c 0,-0.25098 -0.310547,-0.53754 -0.690105,-0.6368 -0.662201,-0.17317 -0.666803,-0.15472 -0.113809,0.45633 0.316963,0.35024 0.627509,0.6368 0.690105,0.6368 0.06259,0 0.113809,-0.20535 0.113809,-0.45633 z m -2.309091,-1.85276 c -0.272143,-0.17587 -0.643247,-0.31977 -0.824676,-0.31977 -0.181428,0 -0.107207,0.1439 0.164936,0.31977 0.272142,0.17587 0.643246,0.31977 0.824675,0.31977 0.181428,0 0.107208,-0.1439 -0.164935,-0.31977 z m 15.370072,-1.01481 c 4.29788,-0.59778 6.84967,-1.85537 7.50045,-3.6964 0.27854,-0.788 -0.57657,-1.07608 -4.02123,-1.35471 -2.92849,-0.23687 -3.67527,-0.002 -3.67527,1.15826 0,0.34064 -0.14844,0.61935 -0.32987,0.61935 -0.18143,0 -0.32987,-0.50154 -0.32987,-1.11453 0,-0.94633 0.16179,-1.1816 1.07208,-1.55897 0.68448,-0.28377 2.06454,-0.41096 3.81717,-0.3518 l 2.74508,0.0927 -0.10612,-0.90618 c -0.0824,-0.70343 -0.33987,-0.96631 -1.15086,-1.17498 -1.48364,-0.38175 -2.66833,-1.93302 -2.91102,-3.81179 -0.11121,-0.86093 -0.41928,-2.0574 -0.6846,-2.65884 -0.40026,-0.9073 -0.63605,-1.07582 -1.38466,-0.98961 -0.76417,0.088 -0.8865,0.23913 -0.79929,0.98736 0.13177,1.13058 -1.24305,4.14427 -2.59088,5.67936 -0.798222,0.90913 -1.297411,1.18914 -2.119958,1.18914 -0.591741,0 -1.469423,-0.30956 -1.95041,-0.6879 l -0.874519,-0.6879 -0.836471,1.92491 c -0.46006,1.0587 -1.058422,2.37695 -1.32969,2.92944 -0.271269,0.55249 -0.407337,1.22834 -0.302369,1.50188 0.104964,0.27353 0.662448,0.77592 1.238847,1.1164 0.985394,0.58209 5.231802,2.06439 6.08212,2.1231 0.21365,0.0147 1.53726,-0.13296 2.94134,-0.32825 z m -6.66638,-16.96311 -0.265291,1.56266 c -0.145909,0.85946 -0.170725,1.93943 -0.05515,2.39995 0.322151,1.28354 1.378828,2.16068 2.500036,2.07525 0.825362,-0.0629 1.045685,-0.2818 1.415955,-1.40682 h 1e-5 c 0.24119,-0.73279 0.55989,-2.25094 0.26741,-2.64595 -0.2007,0.53285 -0.15281,0.92147 -0.930623,1.35363 -0.777809,0.43216 -1.317646,0.42894 -1.776584,-0.12786 -1.267124,-1.53732 -0.937239,-3.2536 0.144954,-4.02586 0.442485,-0.30993 1.222805,-0.55529 2.016663,0.48085 0.24103,-0.13899 -0.480909,-1.0014 -0.557931,-1.23273 -1.264355,-1.54509 -2.56649,0.43028 -2.759449,1.56688 z m 13.95362,4.82083 c 0.39652,-0.50347 0.76763,-1.34879 0.82467,-1.8785 0.085,-0.78889 0.42014,-0.95683 0.0791,-2.13446 -0.62383,2.03468 -1.38515,2.39678 -2.00972,2.20159 -0.62456,-0.1952 -0.98251,-0.47555 -1.0136,-2.08176 -0.0311,-1.60622 0.42151,-2.59155 1.64329,-2.16118 -0.30529,-0.54199 -0.78722,-0.5418 -1.18061,-0.39084 -0.69468,0.26658 -1.65063,3.22393 -1.34929,4.17421 0.3172,1.0003 1.73637,3.2275 2.04195,3.20457 0.1338,-0.01 0.5677,-0.43018 0.96422,-0.93364 z"
       id="path84553" />
  </g>
</svg>
