<?xml version="1.0" encoding="UTF-8" standalone="no"?>
<!-- Created with Inkscape (http://www.inkscape.org/) -->

<svg
   width="95.550484mm"
   height="98.17659mm"
   viewBox="0 0 95.550484 98.17659"
   version="1.1"
   id="svg53888"
   inkscape:version="1.1.2 (0a00cf5339, 2022-02-04)"
   sodipodi:docname="fiddler-S.svg"
   xmlns:inkscape="http://www.inkscape.org/namespaces/inkscape"
   xmlns:sodipodi="http://sodipodi.sourceforge.net/DTD/sodipodi-0.dtd"
   xmlns="http://www.w3.org/2000/svg"
   xmlns:svg="http://www.w3.org/2000/svg">
  <sodipodi:namedview
     id="namedview53890"
     pagecolor="#ffffff"
     bordercolor="#666666"
     borderopacity="1.0"
     inkscape:pageshadow="2"
     inkscape:pageopacity="0.0"
     inkscape:pagecheckerboard="0"
     inkscape:document-units="mm"
     showgrid="false"
     inkscape:snap-global="false"
     inkscape:zoom="1.1848345"
     inkscape:cx="186.94595"
     inkscape:cy="177.66195"
     inkscape:window-width="1600"
     inkscape:window-height="815"
     inkscape:window-x="0"
     inkscape:window-y="90"
     inkscape:window-maximized="1"
     inkscape:current-layer="layer1" />
  <defs
     id="defs53885" />
  <g
     inkscape:label="Layer 1"
     inkscape:groupmode="layer"
     id="layer1"
     transform="translate(-56.197461,-96.012872)">
    <path
       style="fill:#bcffd6;fill-opacity:1;stroke:none;stroke-width:0.264583px;stroke-linecap:butt;stroke-linejoin:miter;stroke-opacity:1"
       d="m 95.587856,134.7711 c 0,0 -2.541342,-0.14126 -4.854128,0.53094 -2.312786,0.67219 -6.554142,1.32147 -9.438185,3.14894 -2.884043,1.82747 -4.790887,5.4943 -5.445368,7.09498 -0.654481,1.60069 -0.962507,5.68258 -0.411996,7.69894 0.550513,2.01636 2.71703,2.01978 2.71703,2.01978 0,0 -1.165204,3.11613 0.08254,6.41625 1.247744,3.30012 3.117776,6.27211 5.338858,8.08612 2.221082,1.81401 4.598641,2.08732 5.749843,1.65402 1.151202,-0.43331 2.736077,-1.7923 3.296698,-2.40864 0.560617,-0.61635 -0.715592,-11.65516 -0.534707,-13.29635 0.180887,-1.6412 0.855988,-10.58127 1.256636,-12.00112 0.400645,-1.41985 2.24278,-8.94386 2.242779,-8.94386 z m 16.901914,35.00699 c 0,0 2.29785,1.31679 5.07254,1.48203 2.77468,0.16524 5.08336,-2.16412 5.73654,-2.88246 0.65318,-0.71834 0.65425,-1.88782 0.42281,-3.28695 -0.23144,-1.39913 -0.90232,-4.56567 -0.90232,-4.56567 0,0 0.48982,0.43805 1.79906,-0.39355 1.30923,-0.83159 2.48072,-2.40129 2.94142,-4.22854 0.46069,-1.82726 -0.95591,-6.35568 -1.51493,-7.5648 -0.55902,-1.20913 -3.73505,-5.71896 -4.63082,-6.54388 -0.89577,-0.82493 -6.74204,-4.86336 -7.2962,-5.03259 -0.55416,-0.16922 -1.61391,-0.25282 -1.61391,-0.25282 0,0 -0.80863,3.1678 -0.47246,5.32667 0.33616,2.15887 -0.88745,8.96055 -0.16635,10.55732 0.72109,1.59676 1.77153,2.84461 1.70908,7.66826 -0.0624,4.82365 -1.08446,9.71698 -1.08446,9.71698 z"
       id="path66948"
       inkscape:label="wings" />
    <path
       style="fill:#a3d480;fill-opacity:1;stroke:none;stroke-width:0.264583px;stroke-linecap:butt;stroke-linejoin:miter;stroke-opacity:1"
       d="m 98.459784,125.69069 c -0.867609,-2.82189 0.158384,-6.82548 0.814064,-7.9927 0.65568,-1.16722 3.068832,-1.92757 4.109412,-1.59937 1.04057,0.32821 1.74736,2.9322 2.33941,3.23186 0.59205,0.29966 2.44232,-0.32382 3.12377,0.30006 0.68145,0.62389 0.98318,0.99589 1.15089,0.41851 0.1677,-0.57739 0.63862,-2.65738 2.20284,-3.24255 1.56423,-0.58516 2.37213,-0.43861 3.183,1.15749 0.81088,1.59611 0.74209,4.84735 0.49123,6.08815 -0.25086,1.24081 -1.78862,2.78071 -1.81964,3.86091 -0.031,1.08019 1.55718,3.39974 1.36761,4.46913 -0.18957,1.06939 -2.10513,1.82018 -2.69265,3.81647 -0.58751,1.99629 -1.12763,7.37448 -1.00282,8.75422 0.12481,1.37974 1.52739,1.67902 2.49001,2.80456 0.96262,1.12554 2.35021,2.082 1.29312,4.01541 -1.05709,1.93342 -2.33711,2.46234 -2.31843,3.59958 0.0187,1.13724 0.28778,8.66819 -0.34288,11.1295 -0.63067,2.46131 -0.8812,8.10244 -2.29877,12.56028 -1.41756,4.45785 -4.35247,8.20759 -6.97638,9.84089 -2.62392,1.63329 -7.306289,1.39313 -10.793922,0.0522 -2.118008,-0.81433 -1.724422,-2.3967 -1.299271,-2.97218 1.976862,-3.30785 2.628823,-5.283 2.783289,-11.61185 -2.067361,-10.21558 -2.264967,-16.03128 -2.200114,-17.95776 -0.993551,0.30193 -3.720915,1.55489 -6.204795,2.52971 -2.48388,0.97482 -6.998036,0.81498 -9.481528,0.66474 -2.483493,-0.15025 -6.028332,-1.08986 -6.048768,-2.36348 0.93496,-0.9439 2.556819,-0.89144 4.052513,-1.08879 1.419838,-0.18825 2.702398,-1.38778 5.899228,-2.39264 3.562263,-1.11974 7.704837,-4.01208 8.834611,-4.96322 2.060605,-1.73479 4.584703,-3.53465 4.584703,-3.53465 0,0 0.557194,-2.24876 0.584353,-3.83509 0.02716,-1.58634 -0.09805,-3.35542 1.440396,-5.93448 1.538449,-2.57906 0.161045,-0.40126 -0.456019,-1.45009 -0.617063,-1.04883 3.191538,-8.35482 3.191538,-8.35482 z"
       id="path72186"
       sodipodi:nodetypes="cssssssssssssssssssscccssccsscsssc"
       inkscape:label="fill" />
    <path
       style="fill:#7b6d54;fill-opacity:1;stroke:none;stroke-width:0.717399;stroke-linejoin:round;stroke-dashoffset:1.51181;paint-order:markers fill stroke"
       d="m 148.64308,140.40391 c -2.82336,2.41344 -2.58747,5.14051 -5.6102,7.31534 -2.39098,-1.61884 -5.80282,-1.11279 -1.87706,2.77957 0.25617,2.30545 0.35306,5.04678 -0.0556,6.45679 -1.39175,4.80254 -2.11005,9.67454 -2.50722,14.66378 -0.51926,6.12537 -0.41786,12.87784 -0.60243,19.02135 -0.89366,3.16834 5.51931,1.1491 3.95292,-0.71524 -1.0029,-6.50192 -1.23472,-15.03951 0.15617,-21.46504 0.75423,-4.96969 1.47659,-9.75694 2.65464,-14.62653 0.70515,-4.2711 4.05387,-9.02431 6.16728,-12.73329 0.70513,-0.86633 -1.11999,-1.96792 -2.27855,-0.69673 z"
       id="path83365"
       sodipodi:nodetypes="cccsccccccc"
       inkscape:label="cane" />
    <path
       style="fill:#000000;stroke-width:0.32987"
       d="m 95.94183,193.80892 c -0.725714,-0.23419 -2.581234,-0.68148 -4.123376,-0.99399 -5.363464,-1.08688 -5.626114,-1.19326 -6.097211,-2.46961 -0.234376,-0.635 -0.644566,-1.74831 -0.911534,-2.47403 -0.595824,-1.61967 -1.639015,-4.94266 -2.381804,-7.58701 -0.305776,-1.08857 -0.677355,-2.2761 -0.825734,-2.63896 -0.148376,-0.36286 -0.50899,-1.32773 -0.801357,-2.14416 -1.054901,-2.94576 -4.373679,-9.02313 -6.901688,-12.63841 -2.067124,-2.95617 -2.838067,-3.80011 -3.875974,-4.24294 -0.712585,-0.30402 -1.295608,-0.78265 -1.295608,-1.0636 0,-0.6942 1.504271,-1.41958 4.492505,-2.16632 1.374206,-0.34341 2.566426,-0.69225 2.649375,-0.77519 0.08295,-0.083 -0.153512,-0.65 -0.525467,-1.2601 -0.469454,-0.77002 -0.676662,-1.67648 -0.677517,-2.96387 l -0.0013,-1.8546 -1.287355,-0.20586 c -1.591207,-0.25444 -6.204698,-2.20496 -7.834003,-3.3121 -0.980202,-0.66606 -1.336531,-0.75377 -1.880232,-0.46278 -0.908141,0.48602 -6.835121,0.0994 -7.196189,-0.46946 -0.145665,-0.22948 -0.267119,-0.51065 -0.269897,-0.62482 -0.0028,-0.11416 1.887578,-0.27133 4.200793,-0.34926 l 4.205844,-0.14168 2.968831,1.37597 c 3.473203,1.60972 6.203271,2.55037 6.962407,2.39889 0.341766,-0.0682 0.779104,-0.8916 1.195928,-2.25166 0.569422,-1.85796 0.960948,-2.43856 2.933324,-4.34984 1.251907,-1.21312 2.571252,-2.29933 2.931879,-2.41378 0.360624,-0.11446 0.655683,-0.34405 0.655683,-0.51019 0,-0.16615 -0.779318,-0.69881 -1.731818,-1.18369 -1.517297,-0.7724 -2.160857,-0.88891 -5.195455,-0.94059 -1.905,-0.0324 -4.700379,-0.25083 -6.211949,-0.48531 -2.06317,-0.32005 -2.938942,-0.61696 -3.512965,-1.19098 -0.917211,-0.91721 -2.387,-3.84462 -2.682403,-5.34258 -0.178858,-0.90698 -0.12746,-1.04534 0.323968,-0.87211 0.295104,0.11324 0.995979,1.06787 1.557503,2.12139 0.561522,1.05352 1.34114,2.21424 1.732488,2.57938 0.820331,0.76539 4.309143,1.33615 9.240335,1.51169 2.019835,0.0719 3.439447,0.29211 4.052409,0.6286 1.689298,0.92735 4.145013,1.87139 4.868009,1.87139 0.388798,0 1.743011,-0.28613 3.009366,-0.63584 1.266351,-0.34972 3.304137,-0.68371 4.528407,-0.74221 2.192634,-0.10478 2.225957,-0.12019 2.226624,-1.0302 6.59e-4,-1.09743 1.859329,-6.00715 2.688085,-7.10118 0.468462,-0.61841 0.544625,-1.16464 0.391315,-2.80639 -0.191127,-2.04675 0.231127,-3.94582 1.364788,-6.13809 0.477154,-0.92271 2.25917,-1.99804 3.31112,-1.99804 0.40109,0 0.49855,-0.1658 0.33934,-0.57727 -0.12286,-0.3175 -0.35311,-1.24526 -0.51167,-2.06169 -0.15855,-0.81643 -0.42929,-2.21077 -0.60163,-3.09853 -0.43003,-2.21511 -0.27523,-7.77124 0.24311,-8.72578 0.36568,-0.67343 0.33214,-0.85562 -0.25895,-1.406306 -0.52843,-0.492304 -0.63217,-0.869494 -0.46764,-1.700365 0.20657,-1.043271 0.90385,-1.860902 1.60489,-1.881907 0.19258,-0.0058 0.68772,0.304012 1.10032,0.688404 0.52861,0.49248 0.68669,0.906538 0.53523,1.401948 -1.08879,3.561386 -1.27812,4.646446 -1.27386,7.300456 0.003,1.7074 0.23797,3.84482 0.55361,5.03052 0.30187,1.13393 0.78264,2.98945 1.06837,4.12338 0.87343,3.46617 1.20657,4.20584 1.89431,4.20584 0.49772,0 0.5873,-0.15765 0.42178,-0.74221 -0.49877,-1.76132 -0.91792,-6.5195 -0.74826,-8.49415 0.10132,-1.17929 0.49535,-3.03481 0.87561,-4.12338 0.38027,-1.08857 0.60963,-2.30891 0.50968,-2.71187 -0.12719,-0.51284 0.10497,-1.05351 0.77381,-1.80207 0.87022,-0.973952 1.03254,-1.034332 1.81818,-0.67637 0.68161,0.31057 0.86265,0.62609 0.86265,1.50354 0,1.09546 -0.59626,1.90553 -1.68456,2.28866 -1.36256,0.47968 -2.11206,8.47551 -1.16972,12.47866 0.40612,1.72518 1.47322,3.80872 1.58504,3.0948 0.0276,-0.17644 0.0847,-0.46925 0.12688,-0.65067 0.0422,-0.18143 0.0938,-0.50404 0.11469,-0.7169 0.0209,-0.21287 0.42235,-0.84375 0.89205,-1.40195 0.7073,-0.84057 1.09518,-1.01492 2.25797,-1.01492 1.51242,0 2.23487,0.53713 2.66212,1.97922 0.13438,0.45357 0.37495,0.98875 0.53459,1.18928 0.15965,0.20053 0.23502,1.46744 0.16749,2.81536 -0.0831,1.65843 -0.35143,2.89895 -0.83002,3.83706 -0.54249,1.06338 -0.65937,1.71382 -0.50175,2.79243 0.11302,0.77337 0.41617,2.05459 0.67366,2.84715 0.45588,1.40317 0.44411,1.47129 -0.44831,2.59357 -1.98335,2.49418 -1.97348,2.26904 -0.14018,3.19805 0.91062,0.46145 3.01795,1.88037 4.68295,3.15318 2.62343,2.00547 3.20944,2.31418 4.39284,2.31418 1.5372,0 4.88592,-0.90684 7.17959,-1.94425 1.12591,-0.50924 1.97632,-0.65374 3.23282,-0.54933 1.67129,0.13887 1.73373,0.11111 3.15766,-1.4038 0.79896,-0.85001 1.96716,-2.13874 2.59601,-2.86384 0.62884,-0.7251 1.25461,-1.2071 1.3906,-1.07112 0.48249,0.48249 -1.3316,3.58782 -3.03965,5.20322 -1.60336,1.51638 -1.85741,1.63951 -3.38298,1.63951 -1.52346,0 -4.90083,0.99022 -7.51788,2.20418 -0.64002,0.29688 -1.61008,0.42643 -2.49932,0.33377 l -1.4533,-0.15144 1.5097,2.5404 1.50971,2.5404 1.81428,-0.78684 c 0.99786,-0.43276 2.77916,-1.27016 3.95844,-1.86089 1.17929,-0.59073 2.76653,-1.26977 3.5272,-1.50896 1.20651,-0.37939 1.53193,-0.36425 2.54956,0.11864 1.31199,0.62259 3.76739,1.51879 4.16112,1.51879 0.14236,0 0.86781,-0.96426 1.61213,-2.1428 0.74431,-1.17854 1.99393,-2.81139 2.77692,-3.62857 1.16379,-1.21459 1.63729,-1.48577 2.59432,-1.48577 0.64388,0 1.35045,0.21658 1.57014,0.48129 0.48125,0.57987 0.17698,2.26918 -0.51165,2.8407 -0.68929,0.57205 -4.04776,7.60279 -4.79487,10.03775 -0.45035,1.46776 -2.17667,10.0739 -2.775,13.83413 -0.28691,1.80305 -0.58817,3.38591 -0.66947,3.51745 -0.15749,0.25482 -1.05928,9.46442 -1.06264,10.85231 -0.006,2.43972 0.73026,8.22794 1.16653,9.17188 0.40765,0.88204 0.42724,1.2331 0.10266,1.83958 -0.46652,0.87171 -2.04874,1.52361 -3.69793,1.52361 -0.78686,0 -1.3886,-0.2475 -1.88409,-0.77492 -0.58807,-0.62597 -0.66778,-0.93328 -0.41472,-1.59887 0.1723,-0.45318 0.3423,-3.48152 0.37779,-6.72963 0.0656,-6.00244 0.41447,-11.82982 0.97569,-16.29658 0.17096,-1.36071 0.54968,-4.40377 0.84158,-6.76234 0.29191,-2.35857 0.74244,-5.28248 1.00118,-6.49759 0.60516,-2.84198 0.59863,-4.10341 -0.0225,-4.34175 -0.27111,-0.10403 -0.78225,-0.66492 -1.13588,-1.24641 -0.47687,-0.78415 -0.55862,-1.21484 -0.3165,-1.66725 0.17955,-0.33549 0.24833,-0.7364 0.15284,-0.8909 -0.24123,-0.39032 -3.12964,0.61034 -6.81289,2.36026 -1.70778,0.81137 -3.44977,1.58257 -3.87111,1.71377 -0.43363,0.13504 -0.69565,0.42205 -0.60381,0.66139 0.48282,1.25821 0.57522,3.62516 0.20222,5.18 -0.30307,1.26336 -0.81213,2.15257 -1.89513,3.31038 -0.81431,0.87067 -1.68299,1.58304 -1.93031,1.58304 -0.24731,0 -0.44966,0.0469 -0.44966,0.10435 0,0.67892 0.76825,4.18571 1.03279,4.71432 0.27145,0.54242 0.19663,0.99193 -0.34029,2.04438 -0.37854,0.74199 -1.32008,1.7827 -2.09232,2.31269 -1.3647,0.93659 -4.6275,1.89737 -5.21352,1.53519 -0.15986,-0.0988 -0.97329,-0.38508 -1.80762,-0.63618 l -1.51697,-0.45654 0.46548,0.71622 c 3.49511,5.37781 6.93857,11.46055 7.81052,13.79698 l 0.69609,1.86518 1.555,0.0251 c 2.86231,0.0462 6.74074,0.62899 7.17448,1.07803 0.2361,0.24443 0.4642,0.7413 0.50689,1.10415 0.0882,0.75006 -0.30331,1.81429 -0.66751,1.81429 -0.13379,0 -0.67457,-0.37092 -1.20172,-0.82427 -1.04151,-0.89571 -0.98992,-0.86929 -1.94806,-0.9977 -1.43718,-0.19261 -5.31988,-0.83159 -6.02013,-0.99074 -0.40821,-0.0928 -0.7422,-0.39729 -0.7422,-0.67668 0,-0.27939 -0.12282,-0.43208 -0.27293,-0.33931 -0.27922,0.17256 -1.45759,-2.00395 -3.46352,-6.39728 -0.62128,-1.36071 -1.95389,-3.72961 -2.96135,-5.26421 -1.60704,-2.44793 -1.85047,-2.69072 -1.98443,-1.97923 -0.72328,3.84152 -1.54945,6.51817 -2.7621,8.94881 -0.78476,1.57295 -1.54308,2.90892 -1.68517,2.96883 -0.14209,0.0599 -0.59812,0.66558 -1.01341,1.34593 -0.45187,0.7403 -1.01032,1.23702 -1.39075,1.23702 -0.34963,0 -1.08493,0.40027 -1.634,0.88949 -0.54907,0.48923 -1.25288,0.95621 -1.56403,1.03774 -0.31114,0.0815 -1.81239,0.21233 -3.336103,0.29067 -2.205604,0.1134 -3.214327,-6.6e-4 -4.948052,-0.55942 -1.197716,-0.38603 -2.539175,-0.97561 -2.98102,-1.31018 -1.398069,-1.05865 -1.142106,-3.14574 0.690006,-5.62622 0.466991,-0.63226 0.695911,-1.8883 0.981096,-5.38312 0.276283,-3.38571 0.276161,-4.76875 -3.29e-4,-5.37592 -0.205008,-0.44959 -0.372615,-1.18674 -0.372615,-1.63808 0,-0.79392 -0.03454,-0.78129 -1.060856,0.38761 l -1.060856,1.20825 -2.418591,-0.18292 c -1.967774,-0.14882 -2.722817,-0.37814 -4.050739,-1.23026 -0.897679,-0.57604 -2.242055,-1.81159 -2.987499,-2.74567 -1.70277,-2.13366 -3.185077,-5.03694 -3.464804,-6.78624 l -0.215003,-1.34455 h -1.791594 c -1.348994,0 -1.728767,0.10186 -1.537277,0.41233 0.139875,0.22679 1.108816,1.54897 2.153204,2.93819 2.60294,3.46235 2.820202,3.84 5.4737,9.51441 1.048763,2.24274 2.494554,6.3595 3.70718,10.55585 0.393208,1.36071 1.028274,3.31062 1.41126,4.33314 l 0.696339,1.85911 1.665627,0.19614 c 2.676329,0.31515 7.553535,1.75052 9.138772,2.68955 0.300231,0.17785 0.597114,0.62024 0.65974,0.98309 0.08718,0.50515 -0.07938,0.67098 -0.710811,0.70769 -0.453571,0.0264 -1.418441,-0.14366 -2.144156,-0.37785 z m 45.43903,-2.66583 c 0.10551,-0.10551 -2.7e-4,-0.66217 -0.23506,-1.23701 -0.46816,-1.1462 -0.74548,-3.1914 -1.01395,-7.47765 -0.21185,-3.38238 0.37864,-11.13809 1.00461,-13.1948 0.24849,-0.81643 0.61539,-2.59773 0.81534,-3.95844 0.38091,-2.59216 1.22227,-6.27719 2.25948,-9.89611 0.33799,-1.17928 0.54978,-2.33284 0.47065,-2.56346 -0.28497,-0.8305 3.76713,-9.89703 5.0635,-11.32949 0.50207,-0.55479 0.52346,-0.70813 0.13248,-0.94977 -0.32584,-0.20138 -0.61992,-0.0578 -0.97649,0.47686 -2.81321,4.21802 -4.4795,6.51456 -4.89577,6.74751 -0.29114,0.16293 -0.41377,0.50298 -0.29397,0.81518 0.20315,0.5294 -0.10643,0.68496 -1.08232,0.54383 -0.26615,-0.0385 -0.90842,-0.42718 -1.42726,-0.86376 -1.50012,-1.26226 -1.80953,-0.9199 -0.43801,0.48466 1.17994,1.20837 1.24782,1.39204 1.23844,3.35149 -0.005,1.14019 -0.15658,2.7544 -0.33585,3.58715 -0.41672,1.93584 -1.40903,8.36878 -1.55653,10.09071 -0.0622,0.72572 -0.1884,1.98747 -0.28052,2.8039 -0.56635,5.0194 -1.40484,20.76641 -1.19879,22.51364 0.0341,0.28919 2.46722,0.33835 2.75002,0.0556 z m -38.92409,-2.48601 c 0.49892,-0.20406 0.90714,-0.58284 0.90714,-0.84173 0,-0.25889 0.43909,-0.65534 0.97577,-0.88099 0.53667,-0.22566 1.39309,-0.99781 1.90317,-1.7159 0.86073,-1.21175 2.46826,-4.34288 3.34952,-6.52414 0.48068,-1.18975 2.26782,-12.07978 2.67451,-16.2972 0.33857,-3.51108 0.12174,-7.39434 -0.45637,-8.17321 -0.3099,-0.41752 -0.58814,-0.30311 -1.8492,0.76038 -2.09202,1.76427 -3.65634,2.19005 -7.07948,1.92693 -2.34282,-0.18008 -3.148522,-0.40291 -4.833251,-1.33666 l -2.021758,-1.12056 -1.457053,0.87488 c -1.118477,0.67158 -1.419959,1.02818 -1.297418,1.53462 0.0878,0.36286 0.251427,1.84727 0.363622,3.2987 0.112195,1.45143 0.424421,4.46095 0.693836,6.68782 0.947934,7.8353 -0.01692,18.11639 -1.83872,19.59243 -0.604015,0.48938 -0.624424,0.60525 -0.184176,1.0455 1.510076,1.51008 7.600904,2.21166 10.149858,1.16913 z m -11.91779,-18.84618 1.570508,-1.07208 -0.168956,-2.57903 c -0.09293,-1.41846 -0.271147,-3.27398 -0.396042,-4.12337 -0.124896,-0.84939 -0.225678,-2.24916 -0.223962,-3.11059 0.0016,-0.86143 -0.01633,-1.56653 -0.04007,-1.56688 -0.288194,-0.004 -4.677129,1.78974 -4.967201,2.03041 -0.402055,0.33358 -2.884675,0.63495 -5.957197,0.72314 -1.494625,0.0429 -1.731271,0.13986 -1.731558,0.70944 -9.89e-4,1.77922 3.110715,6.64566 5.393252,8.43485 1.086117,0.85137 2.989593,1.59077 4.14909,1.61171 0.440898,0.008 1.508361,-0.46795 2.372139,-1.0576 z m 29.44862,0.24178 c 0.58002,-0.27523 1.53021,-0.93485 2.11154,-1.46582 1.2476,-1.1395 1.32791,-2.02766 0.53186,-5.88207 -0.7914,-3.83186 -1.98439,-7.22975 -4.96289,-14.13535 -0.26307,-0.60994 -1.1269,-1.47305 -2.0978,-2.09607 -0.90781,-0.58254 -1.65056,-1.17506 -1.65056,-1.31671 0,-0.14165 -0.40821,-0.51655 -0.90714,-0.83311 -0.49893,-0.31656 -0.72159,-0.37817 -0.49481,-0.1369 0.22679,0.24127 0.41234,0.70586 0.41234,1.03243 0,0.32658 0.1222,0.59377 0.27154,0.59377 0.14935,0 0.90623,0.77932 1.68196,1.73182 1.27787,1.56907 1.39557,1.86427 1.25255,3.14125 -0.0901,0.80424 -0.56441,1.99606 -1.10468,2.77564 -0.91991,1.32738 -0.94845,1.4936 -1.00394,5.84772 -0.0314,2.46482 -0.26592,5.77281 -0.52114,7.35108 l -0.46404,2.8696 0.85102,0.32813 c 2.08205,0.80281 4.64033,0.8845 6.09419,0.19459 z m 5.52034,-11.53983 c 1.15417,-1.24859 1.69085,-3.56583 1.30464,-5.63311 -0.30082,-1.6102 -0.7331,-2.10531 -1.84557,-2.11379 -0.36472,-0.003 -1.84327,-0.51808 -3.28568,-1.14512 -1.44241,-0.62704 -2.67277,-1.08986 -2.73413,-1.0285 -0.0614,0.0614 0.32765,1.13106 0.86448,2.37709 1.13002,2.62288 2.05276,5.11099 2.88629,7.78265 0.57399,1.83981 0.60607,1.87388 1.2422,1.31948 0.35914,-0.313 1.06464,-1.01441 1.56777,-1.5587 z M 84.467238,157.4841 c 0.401832,-0.25061 1.226223,-0.45566 1.831984,-0.45566 0.60576,0 1.909849,-0.38179 2.897971,-0.84841 2.23646,-1.05613 2.155464,-1.00624 4.372633,-2.69313 2.27908,-1.73399 3.501397,-3.305 3.746477,-4.81525 0.154614,-0.95278 0.03616,-1.31322 -0.660508,-2.00989 -1.467428,-1.46743 -2.604078,-1.10655 -6.333731,2.0109 -0.900559,0.75273 -2.952322,2.0524 -4.559475,2.88813 -1.607154,0.83575 -3.540678,1.96376 -4.29672,2.50671 -0.756043,0.54295 -3.076194,1.56635 -5.155894,2.27423 -3.501126,1.19169 -3.69602,1.30152 -2.630552,1.4825 3.311559,0.56249 9.661596,0.36228 10.787815,-0.34013 z m 22.612692,-2.98763 c 1.13119,-0.30401 2.2313,-0.6842 2.44469,-0.84486 0.21339,-0.16066 0.64215,-1.10018 0.95281,-2.08782 0.432,-1.37345 0.52433,-2.50575 0.39266,-4.81512 -0.15451,-2.70984 0.0582,-5.95463 0.60011,-9.15453 0.18992,-1.12141 0.18724,-1.12418 -0.59304,-0.61292 -0.86581,0.5673 -4.66598,1.24462 -6.98307,1.24462 -1.60056,0 -4.25272,-0.61909 -6.178541,-1.44224 -0.657316,-0.28095 -1.288193,-0.41775 -1.401949,-0.30399 -0.405892,0.40589 -0.194494,0.77764 0.617841,1.08649 1.499622,0.57015 0.85785,1.64935 -0.98083,1.64935 -0.546779,0 -0.823141,0.24386 -0.978685,0.8636 -0.119211,0.47498 -0.127343,0.953 -0.01808,1.06228 0.109276,0.10928 0.690669,0.15629 1.291983,0.10449 0.704573,-0.0607 1.156577,0.0707 1.271267,0.36958 0.279413,0.72813 -0.227693,1.2665 -1.954741,2.07524 l -1.599758,0.74914 1.338599,-0.0408 c 1.575407,-0.048 3.311118,1.02343 3.822875,2.35977 0.1829,0.4776 0.236237,1.64684 0.118526,2.59831 -0.163286,1.31986 -0.452559,1.96849 -1.220302,2.73623 -0.553456,0.55346 -0.951095,1.05825 -0.88364,1.12175 0.252737,0.23795 2.798553,1.2626 3.751215,1.50982 1.68105,0.43623 4.04102,0.34915 6.19005,-0.22841 z m -28.840445,-0.7262 c 0.242283,-0.15358 0.427835,-0.37397 0.412337,-0.48975 -0.109447,-0.81781 0.137751,-1.39594 1.404779,-3.28541 l 1.432956,-2.13691 -1.680359,0.53689 c -0.924194,0.29529 -2.311232,0.54018 -3.082303,0.54421 -1.354361,0.007 -1.401948,0.043 -1.401948,1.05792 0,1.39658 0.457144,2.52846 1.361473,3.37097 0.829198,0.77251 0.928228,0.79815 1.553065,0.40208 z m 2.862652,-0.90914 c 0.246245,0.0945 0.49442,0.0688 0.551497,-0.0571 0.05708,-0.12588 0.697547,-0.60747 1.423261,-1.0702 2.662009,-1.69737 7.939008,-5.2964 8.70582,-5.93757 0.433918,-0.36282 0.712141,-0.73647 0.618279,-0.83034 -0.09386,-0.0939 -1.039651,0.21365 -2.101751,0.68336 -1.062096,0.46971 -2.490744,0.99555 -3.174769,1.16852 -0.684025,0.17298 -1.837086,0.46361 -2.562358,0.64585 -0.725269,0.18225 -1.703661,0.66468 -2.174201,1.07208 -1.212352,1.04967 -3.104526,3.69646 -3.104526,4.34263 0,0.44929 0.120056,0.48043 0.685516,0.17781 0.377035,-0.20178 0.886988,-0.28956 1.133232,-0.19507 z m 32.785033,-0.63467 c 0.38078,-0.64537 0.69177,-1.49891 0.69109,-1.89675 -0.001,-0.84319 -1.25586,-3.03985 -1.56143,-2.73428 -0.11421,0.1142 -0.0503,0.36496 0.14197,0.55725 0.37482,0.37482 0.0316,2.49513 -0.59268,3.66165 -0.24359,0.45514 -0.22877,0.77392 0.0516,1.11181 0.21623,0.26055 0.43454,0.47372 0.48512,0.47372 0.0506,0 0.4035,-0.52803 0.78428,-1.1734 z m 10.13624,-6.05285 c -1.23839,-1.91436 -1.6962,-2.35601 -2.74373,-2.6469 -0.69153,-0.19203 -1.41984,-0.34997 -1.61846,-0.35098 -0.19863,-9.9e-4 -1.20061,-0.27878 -2.22663,-0.61727 -1.02602,-0.33849 -1.86549,-0.55435 -1.86549,-0.4797 0,0.0747 0.36067,0.81325 0.80149,1.64132 0.44081,0.82807 1.35579,1.88224 2.03329,2.34262 0.6775,0.46037 2.50635,1.39099 4.06411,2.06804 2.10801,0.9162 2.85907,1.11715 2.93706,0.78581 0.0576,-0.24486 -0.56412,-1.47918 -1.38164,-2.74294 z m -43.915346,0.25342 2.968831,-0.30206 3.463636,-3.62589 c 2.399327,-2.51173 3.311593,-3.67216 2.968832,-3.77645 -0.272143,-0.0828 -1.521846,-0.36402 -2.777114,-0.62493 l -2.282309,-0.47439 -1.692293,0.95507 c -2.901439,1.63747 -4.372116,3.13681 -5.618358,5.72786 -0.63503,1.32028 -1.154602,2.51215 -1.154602,2.64859 0,0.13645 0.259773,0.14148 0.577273,0.0112 0.3175,-0.1303 1.913247,-0.37284 3.546104,-0.53897 z m 10.293462,-2.78178 c 2.564411,-1.30163 3.066278,-1.9222 3.066278,-3.79154 0,-1.78687 -1.59957,-1.04893 -5.409276,2.4955 -1.560058,1.45143 -2.836699,2.73037 -2.836972,2.84208 -0.0013,0.47728 2.899195,-0.38838 5.17997,-1.54604 z m 23.879934,-1.73135 c -0.31687,-0.59209 -1.68119,-1.23227 -1.68119,-0.78887 0,0.10916 0.4058,0.62204 0.90179,1.13974 0.93116,0.97192 1.37935,0.77015 0.7794,-0.35087 z m 6.20821,-0.19476 c -0.45184,-0.44469 -3.95546,-2.72048 -5.45622,-3.5441 -1.92109,-1.05431 -2.21221,-0.83569 -1.1658,0.87547 0.43901,0.71791 1.09529,1.14405 2.39032,1.55209 0.98184,0.30936 2.23048,0.70586 2.77477,0.8811 1.08896,0.35061 1.66923,0.44438 1.45693,0.23544 z m -26.702152,-5.17596 c 1.398372,-0.72887 1.723934,-1.28571 0.752364,-1.28684 -1.011388,-0.001 -6.391564,1.05867 -6.224135,1.2261 0.08847,0.0885 0.949881,0.27574 1.914247,0.41617 0.964368,0.14042 1.860154,0.27383 1.990641,0.29646 0.130483,0.0226 0.83558,-0.27071 1.566883,-0.65189 z m 12.741272,0.008 c 4.42355,-0.61527 7.4185,-2.15027 7.42971,-3.80796 0.002,-0.34105 -0.1741,-1.28808 -0.39201,-2.10451 -0.21791,-0.81642 -0.44558,-1.66996 -0.50592,-1.89675 -0.0603,-0.22678 -0.42611,-0.41234 -0.8128,-0.41234 -0.3867,0 -1.19446,-0.49138 -1.79504,-1.09196 -0.83154,-0.83154 -1.14248,-1.48057 -1.30378,-2.72143 -0.1165,-0.8962 -0.4289,-2.12155 -0.69423,-2.72298 -0.40026,-0.9073 -0.63605,-1.07582 -1.38466,-0.98961 -0.76416,0.088 -0.88649,0.23913 -0.79928,0.98736 0.13177,1.13057 -1.24305,4.14426 -2.59088,5.67936 -0.79823,0.90913 -1.29741,1.18913 -2.11996,1.18913 -0.59174,0 -1.46943,-0.30955 -1.950412,-0.68789 l -0.874519,-0.6879 -0.836472,1.92491 c -0.46006,1.0587 -1.058421,2.37695 -1.32969,2.92944 -0.271268,0.55249 -0.407336,1.22833 -0.302368,1.50187 0.104964,0.27354 0.662448,0.77592 1.238847,1.11641 0.985394,0.58209 5.231804,2.06439 6.082114,2.1231 0.21366,0.0147 1.53727,-0.13297 2.94135,-0.32825 z m -3.17563,-11.01881 c 0.65252,-0.40328 0.33422,-0.71612 -0.59052,-0.58039 -0.51213,0.0752 -1.477,-0.0914 -2.14416,-0.37017 -0.997641,-0.41686 -1.213013,-0.42686 -1.213013,-0.0564 0,0.24775 0.399245,0.74129 0.887213,1.09675 0.66596,0.48512 1.11573,0.58075 1.80354,0.38349 0.50398,-0.14454 1.06961,-0.35753 1.25694,-0.47331 z m 10.83049,0.0923 c 0.63862,-0.63863 0.4574,-0.95166 -0.42301,-0.73069 -0.45037,0.11304 -1.29087,0.041 -1.86778,-0.16014 -0.5769,-0.20111 -1.11144,-0.30313 -1.18785,-0.22672 -0.0764,0.0764 0.17032,0.44819 0.54829,0.82616 0.7563,0.7563 2.31086,0.91088 2.93035,0.29139 z m -10.53111,-2.11942 c 0.90659,-0.18131 1.03085,-0.33841 1.03085,-1.30324 0,-0.60339 -0.16136,-1.84946 -0.35857,-2.76903 -0.27582,-1.28612 -0.56266,-1.7775 -1.24294,-2.12929 -1.00487,-0.51964 -2.47568,-0.34672 -3.06221,0.36001 -0.217558,0.26214 -0.463153,1.64426 -0.545768,3.07138 l -0.15021,2.59476 0.948028,0.14137 c 1.61406,0.24068 2.31249,0.24771 3.38082,0.034 z m 10.88754,-0.013 c 0.7527,-0.20145 0.77698,-0.29891 0.58544,-2.35002 -0.23107,-2.47451 -0.88858,-3.69835 -1.98692,-3.69835 -1.38973,0 -2.63987,2.2791 -2.45752,4.48025 0.0851,1.02716 0.26071,1.30941 0.92958,1.49397 1.10544,0.30502 1.9837,0.32725 2.92942,0.0741 z M 87.530142,176.8205 c -0.374485,-0.24201 -0.229379,-0.32099 0.596742,-0.32482 0.644744,-0.003 1.008096,0.12998 0.887673,0.32482 -0.256114,0.41441 -0.843171,0.41441 -1.484415,0 z m -0.836129,-2.2931 c -0.369154,-0.14963 -0.888699,-0.53912 -1.154545,-0.86553 -0.442201,-0.54294 -0.427182,-0.56714 0.176388,-0.2843 0.362857,0.17004 1.661721,0.30446 2.886364,0.2987 1.224643,-0.006 2.226623,0.0521 2.226623,0.12857 0,0.0765 -0.259773,0.33623 -0.577273,0.57725 -0.641874,0.48725 -2.524278,0.56414 -3.557557,0.14531 z m 39.320327,-1.605 c 0.70976,-1.2828 1.75996,-2.33061 1.75996,-1.75597 0,0.21221 -0.53221,0.94031 -1.18269,1.61801 l -1.18269,1.23217 z m -4.50757,0.33303 c 0,-0.1465 0.65436,-0.7276 1.45413,-1.29134 1.07109,-0.75497 1.72723,-1.59719 2.49087,-3.19726 0.57022,-1.19477 1.12236,-2.1723 1.22699,-2.1723 0.3911,0 -0.27786,2.81327 -0.91353,3.8418 -0.36316,0.5876 -1.39788,1.52221 -2.2994,2.07692 -0.9015,0.5547 -1.7111,1.00855 -1.79908,1.00855 -0.088,0 -0.15998,-0.11986 -0.15998,-0.26637 z m 6.26753,-13.5868 c 0,-0.20209 0.28603,-0.99532 0.63563,-1.76273 0.34959,-0.76742 0.73679,-1.79836 0.86043,-2.291 0.12365,-0.49263 0.36388,-0.8957 0.53387,-0.8957 0.43621,0 -0.0175,2.23046 -0.75034,3.68866 -0.63407,1.26168 -1.27959,1.8977 -1.27959,1.26077 z m 2.30909,-0.2308 c 0,-0.55042 1.45764,-3.72902 1.71005,-3.72902 0.71459,0 -0.21737,3.1828 -1.06474,3.6363 -0.35492,0.18995 -0.64531,0.23167 -0.64531,0.0927 z M 73.503259,144.88064 c 0.266156,-2.01864 1.863146,-4.99799 3.445098,-6.42719 0.741026,-0.66947 1.438995,-1.21722 1.551042,-1.21722 0.112047,0 -0.305258,0.63087 -0.927344,1.40195 -1.487688,1.84397 -2.425528,3.41621 -3.43185,5.75328 l -0.825094,1.9162 z m 0.502207,-4.34051 c 0,-0.70945 1.95362,-3.08032 1.969553,-2.39021 0.01023,0.4434 -1.535117,3.04475 -1.808754,3.04475 -0.08844,0 -0.160799,-0.29454 -0.160799,-0.65454 z m 47.006494,-1.03509 c -1.08857,-0.87662 -2.35032,-1.88882 -2.8039,-2.24933 -0.77421,-0.61538 -0.78321,-0.65621 -0.14705,-0.66735 0.80422,-0.0141 3.29353,1.52861 4.38275,2.71611 0.42464,0.46296 0.72152,1.05609 0.65974,1.31807 -0.0791,0.33546 -0.69768,0.005 -2.09154,-1.1175 z m 0.0831,-2.87625 c -0.49861,-0.30091 -0.90682,-0.65844 -0.90714,-0.79451 -9.9e-4,-0.45701 1.59618,-0.25285 2.12,0.27096 1.13261,1.13262 0.35356,1.46891 -1.21286,0.52355 z m 4.47329,-11.52705 c -0.21543,-0.13699 -0.55613,-0.68156 -0.7571,-1.21015 -0.47307,-1.24426 0.0223,-2.49844 1.28023,-3.24154 0.72764,-0.42983 1.1695,-0.47903 2.04552,-0.22779 0.61457,0.17625 1.17593,0.32046 1.24746,0.32046 0.0715,0 0.0196,-0.85354 -0.11542,-1.89675 -0.13502,-1.04322 -0.22403,-3.38117 -0.1978,-5.19546 0.0421,-2.91298 0.12874,-3.36709 0.74085,-3.88361 0.43846,-0.36999 0.94899,-0.50743 1.38939,-0.37405 1.29389,0.39186 2.87619,1.83967 3.56896,3.26561 0.59219,1.21891 0.86758,1.44678 1.95945,1.62138 0.8053,0.12877 1.27042,0.38057 1.27042,0.68777 0,0.50068 -1.31613,0.98123 -2.47402,0.90333 -0.74353,-0.05 -2.14416,-1.51249 -2.14416,-2.23882 0,-0.26203 -0.22468,-0.47641 -0.49928,-0.47641 -0.2746,0 -0.7874,-0.17994 -1.13954,-0.39985 -0.35215,-0.21992 -0.74117,-0.29895 -0.86449,-0.17563 -0.12332,0.12332 -0.0705,1.899 0.11742,3.94595 0.1879,2.04696 0.26128,4.23089 0.16307,4.85318 -0.24628,1.56043 -1.34305,3.31429 -2.30012,3.67817 -0.95984,0.36493 -2.74865,0.38896 -3.29084,0.0442 z"
       id="path54139"
       inkscape:label="trace" />
  </g>
</svg>
