<?xml version="1.0" encoding="UTF-8" standalone="no"?>
<!-- Created with Inkscape (http://www.inkscape.org/) -->

<svg
   width="83.020554mm"
   height="98.17659mm"
   viewBox="0 0 83.020554 98.17659"
   version="1.1"
   id="svg25433"
   xmlns="http://www.w3.org/2000/svg"
   xmlns:svg="http://www.w3.org/2000/svg">
  <defs
     id="defs25430" />
  <g
     id="layer1"
     transform="translate(-60.990092,-92.927343)">
    <path
       id="path32311"
       style="display:inline;fill:#bcffd6;fill-opacity:1;stroke-width:0.715248;stroke-linejoin:round;stroke-dashoffset:1.51181;paint-order:markers fill stroke"
       d="m 85.993032,137.48728 c 0.55123,-2.19766 0.796663,-4.5786 -3.576558,-0.68865 -3.671154,3.26547 -7.04408,6.90903 -9.592606,11.07675 -1.463501,2.39333 -3.052879,5.10943 -2.798023,7.97346 0.254269,2.85743 1.437646,5.76183 3.361236,7.86943 1.663599,1.82273 3.655751,3.68042 6.056906,4.31893 2.713404,0.72155 5.866309,-1.73425 5.640049,-4.71267 -0.382005,-5.02858 -0.68683,-11.36504 0.0015,-16.40747 0.427073,-3.12879 0.60521,-6.28651 0.907546,-9.42978 z m 18.454178,-2.07377 c -1.29816,3.47608 0.50978,8.32929 0.27195,10.15308 -0.5693,4.36569 0.27913,4.62112 0.71381,6.73263 0.55369,2.6897 0.51399,5.23627 0.15524,7.96983 -0.29562,2.25246 -2.52893,6.34011 1.30696,7.31203 2.20347,0.5583 6.83345,0.74912 8.37098,-2.19785 1.47397,-2.82515 -0.11627,-6.32174 -0.90291,-9.18361 -1.03765,-3.77507 -2.30273,-7.45771 -4.08992,-10.93695 -1.12905,-1.72288 -4.09824,-9.84916 -5.8261,-9.84916 z" />
    <path
       id="path40718"
       style="fill:#a3d480;fill-opacity:1;stroke-width:2.7033;stroke-linejoin:round;stroke-dashoffset:1.51181;paint-order:markers fill stroke"
       d="m 394.82925,538.72303 c 7.42267,6.44774 11.74473,16.61293 9.84263,20.96056 l -8.55274,14.84961 c 2.49229,19.55787 -0.61734,39.22867 -3.75195,58.52344 -2.51999,13.57599 -3.39816,27.88537 -10.09571,40.26172 -4.42484,8.22281 -7.907,18.09485 -16.5039,22.93164 -2.98116,1.02775 -3.2767,4.72854 -6.08789,5.95508 -7.24595,3.28005 -15.55671,2.81575 -23.28907,2.02734 -6.51049,-1.2052 -15.83914,-1.90988 -20.63137,-6.97639 -2.06835,-2.2338 5.87236,-14.83834 6.41909,-16.91444 1.80696,-6.86154 1.66601,-13.86869 3.15155,-20.369 3.63162,-15.89093 -2.58182,-29.02782 -4.28372,-48.08305 -1.55158,-14.28681 -2.7703,-22.11396 -2.48985,-27.38004 0.32675,-6.1356 -1.17663,-7.97854 -8.29524,-3.69498 -5.34288,2.87422 -9.51636,4.68239 -15.34146,5.96151 -4.23379,1.63354 -10.78962,2.12963 -15.37119,1.97132 -9.81932,0.0832 -20.68472,1.48693 -30.43276,-0.0216 -2.14913,0.1965 -10.55274,-6.19067 -8.4258,-7.85007 7.35175,-3.61721 21.85857,-4.14836 29.27693,-7.52022 5.51866,-2.08126 10.45592,-5.84221 20.15559,-10.97574 9.69968,-5.13352 15.43829,-8.60588 20.57292,-12.92465 5.85773,-4.34838 10.54096,-9.28103 12.16326,-13.90754 1.6223,-4.62652 4.10188,-16.54699 4.31017,-24.2635 l 5.81368,-19.26644 c 1.30803,-6.33591 1.42781,-7.45879 3.73362,-13.46087 1.24743,-1.84048 4.5981,-9.41246 5.51831,-12.13524 1.1603,-3.43316 1.92322,-7.03624 0.69544,-10.24945 -2.10161,-5.50015 -1.25068,-9.88241 2.26296,-19.13425 3.66776,-5.4078 8.96001,-10.99068 14.04173,-8.89854 2.69669,1.11023 10.71104,12.36422 13.70051,12.93804 1.78828,0.34326 4.34994,2.96922 6.5797,0.9328 2.22976,-2.03641 5.03085,2.21952 6.29569,1.62742 2.14642,-1.00478 1.0937,-6.65215 6.49502,-13.24299 3.11368,-3.79938 10.21755,-1.67959 11.78545,0.46118 5.21742,7.12371 2.64753,22.2018 2.22175,25.93702 -0.60056,5.26864 -6.48973,8.96333 -4.82953,15.31536 0.96212,3.68113 2.10584,9.03778 2.94281,11.94474 0.93423,4.72641 -0.006,7.61047 -3.27703,11.98693 -2.95182,3.94909 -12.88284,36.98208 -6.3196,42.68328 z"
       transform="scale(0.26458333)" />
    <path
       style="fill:#7b6d54;fill-opacity:1;stroke-width:0.715248;stroke-linejoin:round;stroke-dashoffset:1.51181;paint-order:markers fill stroke"
       d="m 136.46769,144.01306 c -0.27905,0.31894 -3.53838,-0.89959 -4.31249,-0.51391 -1.21551,0.6056 0.1027,2.85637 1.22319,3.55786 0.2228,2.30653 0.34661,3.43338 -0.42002,5.29622 -0.58704,2.40797 -0.58737,5.70086 -1.19212,8.11238 -0.73195,3.97288 -0.59712,7.66232 -1.06919,11.66827 -0.18791,4.66316 -0.0751,7.88256 -0.12319,12.55243 -0.80222,4.45844 0.9274,5.47713 3.40223,4.09361 0.98444,-2.0023 0.41628,-2.79007 -0.30127,-5.09682 -0.24738,-3.10499 -0.8501,-5.53996 -0.28391,-8.63251 0.16105,-2.13331 0.26642,-5.18887 0.70658,-7.278 0.94468,-2.58115 0.75134,-5.84679 1.10575,-9.31023 0.67289,-3.19852 1.98812,-6.11719 2.30744,-9.38687 0.63154,-2.48053 1.7817,-4.47116 2.91118,-6.75044 1.20713,-1.30006 3.91614,-5.47302 1.50893,-5.31021 -2.64028,0.94707 -3.62016,5.41959 -5.46311,6.99822 z"
       id="path50813" />
    <path
       style="fill:#ffffff;stroke:none;stroke-width:0.264583px;stroke-linecap:butt;stroke-linejoin:miter;stroke-opacity:1"
       d="m 94.518225,113.13397 c -2.55697,0.8163 -3.98155,3.65277 -4.054566,6.25561 -0.04852,1.72954 0.365033,3.68716 1.749817,4.75951 0.94747,0.7337 2.455051,0.46833 3.347921,-0.38422 1.364971,-1.30333 1.923637,-3.21531 2.136444,-5.03685 0.201676,-1.72627 -0.06812,-3.71746 -1.386186,-4.96913 -0.474407,-0.45051 -1.169193,-0.8242 -1.79343,-0.62492 z m 9.807805,0.61995 c -1.38904,1.3842 -2.15329,3.27465 -2.22852,5.17397 -0.0629,1.58732 0.34272,3.42457 1.7488,4.35875 0.5406,0.35917 1.2458,0.73976 1.84419,0.50028 1.91273,-0.76549 2.54405,-3.15634 2.49631,-5.11043 -0.0381,-1.5578 -0.34848,-3.18032 -1.20702,-4.4995 -0.49977,-0.76791 -1.67165,-1.28228 -2.45664,-0.60605 0,0 -0.0675,0.056 -0.0996,0.0858 -0.0337,0.0312 -0.0975,0.0972 -0.0975,0.0972 z"
       id="path52290" />
    <path
       style="fill:#000000;stroke-width:0.32987"
       d="m 88.204377,190.72334 c -0.725714,-0.23419 -2.581234,-0.68148 -4.123376,-0.99399 -5.363464,-1.08687 -5.626113,-1.19326 -6.097211,-2.46961 -0.234376,-0.635 -0.644566,-1.74831 -0.911533,-2.47403 -0.595825,-1.61967 -1.639016,-4.94266 -2.381804,-7.58701 -0.305777,-1.08857 -0.677356,-2.2761 -0.825734,-2.63896 -0.148376,-0.36286 -0.50899,-1.32773 -0.801357,-2.14416 -1.054902,-2.94576 -4.373679,-9.02313 -6.901689,-12.63841 -2.067124,-2.95617 -2.838067,-3.80011 -3.875974,-4.24293 -0.751806,-0.32076 -1.295607,-0.77853 -1.295607,-1.09063 0,-0.63399 2.121426,-1.64546 4.538198,-2.16377 0.920853,-0.19748 2.383424,-0.62825 3.250158,-0.95726 1.321813,-0.50175 1.64594,-0.80056 2.010456,-1.85345 0.239021,-0.69039 0.690715,-1.53828 1.003765,-1.88419 0.499562,-0.55201 0.509194,-0.67574 0.07876,-1.01149 -0.665579,-0.51917 -2.710761,-3.63532 -3.735347,-5.69138 -0.460525,-0.92414 -0.883686,-2.11168 -0.940355,-2.63896 -0.08469,-0.78802 0.0328,-0.97795 0.659935,-1.06683 0.419631,-0.0595 1.458722,0.11632 2.309091,0.39063 2.489005,0.80293 4.045794,1.14036 6.329238,1.37188 l 2.144156,0.2174 1.97922,-1.71524 c 1.088572,-0.94337 2.109328,-1.83605 2.268346,-1.98371 0.159017,-0.14766 -0.831652,-0.80033 -2.201488,-1.45038 -2.645376,-1.25533 -6.319364,-4.0773 -6.570894,-5.04706 -0.274574,-1.0586 0.03472,-1.34629 1.158445,-1.07752 0.581505,0.13909 1.475156,0.41884 1.985897,0.62167 1.611379,0.63992 3.811009,0.43852 5.879859,-0.53837 1.400388,-0.66124 1.866016,-1.04126 1.717749,-1.40194 -1.299652,-3.16159 -1.565072,-5.37661 -0.909,-7.58585 0.256672,-0.86431 0.695159,-1.76109 0.97442,-1.99285 0.876125,-0.72713 1.241407,0.11476 1.178666,2.71653 -0.03196,1.32491 0.159696,3.23462 0.425882,4.24381 0.266189,1.0092 0.471206,2.28406 0.4556,2.83302 -0.02309,0.81259 -0.309461,1.17666 -1.540559,1.95861 -2.687927,1.70729 -4.034797,2.18287 -5.737319,2.02582 -0.865774,-0.0799 -1.49928,-0.0703 -1.40779,0.0212 0.559898,0.55989 5.091786,2.71412 6.115693,2.90708 0.492047,0.0927 1.261413,-0.11652 1.907467,-0.51879 0.911649,-0.56764 1.028961,-0.77479 0.742208,-1.31059 -0.18732,-0.35001 -0.340584,-1.01298 -0.340584,-1.47326 0,-1.1524 1.786764,-5.94998 2.60189,-6.98625 0.565242,-0.71858 0.638107,-1.1597 0.476834,-2.88672 -0.191127,-2.04675 0.231126,-3.94582 1.364788,-6.13809 0.477153,-0.92271 2.259171,-1.99804 3.311114,-1.99804 0.401096,0 0.498556,-0.1658 0.339341,-0.57727 -0.122857,-0.3175 -0.353103,-1.24526 -0.511662,-2.06169 -0.158555,-0.81643 -0.429293,-2.21076 -0.601637,-3.09853 -0.430028,-2.21511 -0.27523,-7.771243 0.243108,-8.725782 0.365687,-0.673431 0.332143,-0.855621 -0.258948,-1.406303 -0.528426,-0.492304 -0.632163,-0.869494 -0.467641,-1.700365 0.206575,-1.043271 0.903854,-1.860902 1.604898,-1.881907 0.192575,-0.0058 0.687716,0.304012 1.100311,0.688404 0.528614,0.49248 0.686694,0.906538 0.535237,1.401948 -1.088795,3.561386 -1.278127,4.646442 -1.273866,7.300455 0.0026,1.70741 0.237969,3.84482 0.553618,5.03052 0.301864,1.13393 0.78263,2.98945 1.068364,4.12338 0.873426,3.46617 1.206576,4.20584 1.894315,4.20584 0.497711,0 0.587301,-0.15765 0.421772,-0.74221 -0.498767,-1.76132 -0.91792,-6.5195 -0.748261,-8.49415 0.101323,-1.17929 0.495353,-3.03481 0.875617,-4.12338 0.380268,-1.08857 0.609623,-2.30891 0.509683,-2.711873 -0.127195,-0.51284 0.104964,-1.053504 0.77381,-1.80207 0.87022,-0.973948 1.03253,-1.034328 1.81817,-0.676366 0.68161,0.310565 0.86265,0.626093 0.86265,1.503541 0,1.095455 -0.59626,1.905528 -1.68456,2.288658 -1.36256,0.47968 -2.11206,8.47551 -1.16971,12.47866 0.40611,1.72518 1.47322,3.80872 1.58503,3.0948 0.0276,-0.17644 0.0847,-0.46925 0.12688,-0.65067 0.0422,-0.18143 0.0938,-0.50404 0.1147,-0.7169 0.0209,-0.21287 0.42235,-0.84375 0.89204,-1.40195 0.7073,-0.84057 1.09519,-1.01492 2.25797,-1.01492 1.51242,0 2.23488,0.53713 2.66212,1.97922 0.13438,0.45357 0.37495,0.98875 0.53459,1.18928 0.15965,0.20053 0.23502,1.46744 0.16749,2.81536 -0.0831,1.65843 -0.35143,2.89896 -0.83001,3.83706 -0.5425,1.06338 -0.65937,1.71382 -0.50176,2.79243 0.11302,0.77337 0.41676,2.05633 0.67498,2.85103 0.46863,1.44223 0.46735,1.44765 -0.69572,2.9405 -0.64087,0.82258 -1.16521,1.82852 -1.16521,2.23542 0,0.48226 0.56563,1.2134 1.62469,2.10009 1.68141,1.40776 5.82945,3.50719 7.64815,3.87093 l 1.03938,0.20788 -0.92845,-1.61674 c -0.51064,-0.88921 -1.31998,-2.13629 -1.79854,-2.77129 -0.47855,-0.635 -1.06827,-1.64963 -1.31049,-2.25472 -0.24222,-0.60509 -0.66123,-1.32101 -0.93114,-1.59092 -0.43441,-0.43441 -0.42154,-0.70571 0.1121,-2.36346 0.6063,-1.88346 0.75047,-4.84426 0.356,-7.31112 -0.15332,-0.9588 -0.0969,-1.32254 0.20453,-1.31889 0.93365,0.0113 1.25458,0.65135 1.59499,3.1808 0.25472,1.89274 0.25584,3.20218 0.004,4.56502 l -0.35327,1.91099 2.17586,4.32297 c 1.19672,2.37763 2.3221,4.50244 2.50084,4.72179 0.43149,0.52954 0.0232,2.30132 -0.58403,2.53433 -0.26427,0.10141 -0.96029,-0.0191 -1.54673,-0.26773 -0.58643,-0.24867 -1.88268,-0.63593 -2.88053,-0.86058 -1.88361,-0.42406 -4.21116,-1.58012 -5.57057,-2.7668 -0.66311,-0.57886 -0.57244,-0.27596 0.57424,1.91839 1.21664,2.32821 1.58163,2.74107 3.42641,3.87579 1.1356,0.6985 2.21316,1.27512 2.39459,1.28138 0.18143,0.006 0.92364,0.29819 1.64935,0.64873 0.72572,0.35055 1.78345,0.6424 2.35052,0.64855 1.05064,0.0114 3.21372,-0.83417 7.05078,-2.75624 1.17929,-0.59073 2.76653,-1.26976 3.5272,-1.50896 1.20651,-0.37939 1.53193,-0.36425 2.54956,0.11864 1.31199,0.62259 3.76738,1.51879 4.16112,1.51879 0.14235,0 0.86781,-0.96426 1.61213,-2.14279 0.74431,-1.17854 1.99392,-2.8114 2.77691,-3.62858 1.16379,-1.21459 1.6373,-1.48577 2.59433,-1.48577 0.64388,0 1.35044,0.21658 1.57014,0.48129 0.48125,0.57988 0.17698,2.26918 -0.51166,2.8407 -0.68928,0.57205 -4.04775,7.60279 -4.79487,10.03775 -0.45034,1.46776 -2.17666,10.0739 -2.775,13.83413 -0.28691,1.80305 -0.58816,3.38591 -0.66946,3.51745 -0.15749,0.25483 -1.05928,9.46442 -1.06265,10.85232 -0.006,2.43971 0.73027,8.22793 1.16654,9.17187 0.40765,0.88204 0.42724,1.2331 0.10266,1.83958 -0.46652,0.87171 -2.04874,1.52361 -3.69793,1.52361 -0.78686,0 -1.3886,-0.24749 -1.88409,-0.77491 -0.58807,-0.62598 -0.66778,-0.93329 -0.41473,-1.59888 0.1723,-0.45318 0.34231,-3.48152 0.3778,-6.72963 0.0656,-6.00244 0.41447,-11.82981 0.97568,-16.29658 0.17097,-1.36071 0.54968,-4.40377 0.84159,-6.76234 0.29191,-2.35857 0.74244,-5.28248 1.00118,-6.49758 0.60516,-2.84198 0.59863,-4.10342 -0.0225,-4.34176 -0.2711,-0.10403 -0.78224,-0.66492 -1.13587,-1.24641 -0.47687,-0.78415 -0.55863,-1.21484 -0.31651,-1.66725 0.17956,-0.33549 0.24833,-0.73639 0.15285,-0.8909 -0.24461,-0.39577 -3.15076,0.61945 -6.92765,2.42008 -3.27582,1.56174 -5.60379,2.21348 -6.89237,1.9296 -0.98451,-0.21689 -4.90917,-1.79712 -5.42472,-2.18421 -0.58681,-0.44059 -0.84298,-0.0754 -0.45833,0.65345 1.51563,2.87176 3.79228,9.63862 4.5333,13.47433 0.28041,1.45143 0.66281,2.95185 0.84978,3.33426 0.49738,1.01729 -0.70692,3.16724 -2.44063,4.35707 -1.36469,0.93659 -4.6275,1.89737 -5.21351,1.53519 -0.15986,-0.0988 -0.97329,-0.38508 -1.80763,-0.63618 l -1.51696,-0.45654 0.46548,0.71622 c 3.49511,5.37781 6.93857,11.46056 7.81052,13.79698 l 0.69609,1.86518 1.555,0.0251 c 2.86231,0.0462 6.74073,0.62899 7.17448,1.07804 0.2361,0.24442 0.4642,0.74129 0.50689,1.10414 0.0882,0.75006 -0.30331,1.81429 -0.66751,1.81429 -0.1338,0 -0.67457,-0.37092 -1.20172,-0.82427 -1.04152,-0.89571 -0.98992,-0.86929 -1.94806,-0.9977 -1.43718,-0.19261 -5.31988,-0.83159 -6.02013,-0.99074 -0.40821,-0.0928 -0.74221,-0.39729 -0.74221,-0.67668 0,-0.27939 -0.12281,-0.43208 -0.27292,-0.33931 -0.27922,0.17256 -1.45759,-2.00395 -3.46352,-6.39727 -0.62128,-1.36072 -1.95389,-3.72962 -2.96135,-5.26422 -1.60705,-2.44793 -1.85047,-2.69072 -1.98443,-1.97922 -0.72328,3.84151 -1.54945,6.51816 -2.7621,8.9488 -0.78476,1.57295 -1.54308,2.90892 -1.68517,2.96883 -0.14209,0.0599 -0.59812,0.66558 -1.013404,1.34594 -0.451869,0.74029 -1.010322,1.23701 -1.390755,1.23701 -0.349629,0 -1.08493,0.40027 -1.633998,0.88949 -0.549069,0.48923 -1.25288,0.95621 -1.564027,1.03774 -0.311147,0.0815 -1.812392,0.21233 -3.336105,0.29067 -2.205604,0.1134 -3.214327,-6.6e-4 -4.948052,-0.55942 -1.197715,-0.38603 -2.539175,-0.97561 -2.98102,-1.31018 -1.398068,-1.05865 -1.142106,-3.14574 0.690006,-5.62622 0.466991,-0.63226 0.695911,-1.8883 0.981097,-5.38312 0.276282,-3.38571 0.27616,-4.76875 -3.3e-4,-5.37591 -0.205011,-0.4496 -0.372618,-1.1794 -0.372618,-1.62177 0,-0.78156 -0.03032,-0.77177 -1.072078,0.34585 -0.949838,1.01903 -1.279375,1.15782 -2.890091,1.21725 -2.394709,0.0884 -4.569302,-0.95705 -6.802262,-3.27011 -1.935245,-2.00467 -3.949416,-5.59799 -4.273348,-7.62375 l -0.220568,-1.37934 H 67.6908 c -1.348994,0 -1.728765,0.10186 -1.537277,0.41233 0.139873,0.22679 1.108816,1.54897 2.153204,2.93819 2.602939,3.46235 2.820202,3.84 5.4737,9.51441 1.048763,2.24274 2.494554,6.3595 3.707179,10.55585 0.393209,1.36071 1.028275,3.31063 1.41126,4.33314 l 0.69634,1.85912 1.665626,0.19613 c 2.676329,0.31515 7.553534,1.75052 9.138771,2.68955 0.300232,0.17785 0.597115,0.62024 0.659741,0.9831 0.08718,0.50514 -0.07938,0.67097 -0.710811,0.70768 -0.453572,0.0264 -1.418442,-0.14366 -2.144156,-0.37785 z m 45.439023,-2.66583 c 0.10551,-0.10551 -2.6e-4,-0.66217 -0.23506,-1.23701 -0.46816,-1.1462 -0.74548,-3.1914 -1.01395,-7.47764 -0.21185,-3.38239 0.37865,-11.1381 1.00462,-13.19481 0.24848,-0.81643 0.61538,-2.59773 0.81534,-3.95844 0.3809,-2.59216 1.22227,-6.27719 2.25947,-9.8961 0.33799,-1.17929 0.54979,-2.33285 0.47065,-2.56347 -0.28497,-0.8305 3.76714,-9.89703 5.0635,-11.32949 0.50207,-0.55479 0.52346,-0.70813 0.13249,-0.94977 -0.32585,-0.20138 -0.61992,-0.0578 -0.9765,0.47686 -2.81321,4.21802 -4.4795,6.51456 -4.89577,6.74751 -0.29114,0.16293 -0.41376,0.50298 -0.29396,0.81518 0.20315,0.5294 -0.10644,0.68496 -1.08233,0.54383 -0.26614,-0.0385 -0.90841,-0.42718 -1.42725,-0.86376 -1.50012,-1.26226 -1.80953,-0.9199 -0.43802,0.48466 1.17995,1.20837 1.24782,1.39205 1.23845,3.35149 -0.005,1.14019 -0.15659,2.7544 -0.33585,3.58715 -0.41673,1.93584 -1.40903,8.36878 -1.55653,10.09071 -0.0622,0.72572 -0.1884,1.98747 -0.28052,2.8039 -0.56636,5.0194 -1.40485,20.76641 -1.1988,22.51364 0.0341,0.28919 2.46723,0.33835 2.75002,0.0556 z M 94.719312,185.5715 c 0.498928,-0.20406 0.907143,-0.58284 0.907143,-0.84173 0,-0.25889 0.439096,-0.65534 0.975769,-0.88099 0.536672,-0.22565 1.393097,-0.99781 1.903169,-1.7159 0.86073,-1.21175 2.468267,-4.34287 3.349527,-6.52414 0.48068,-1.18975 2.26782,-12.07978 2.6745,-16.2972 0.33857,-3.51108 0.12175,-7.39434 -0.45636,-8.17321 -0.3099,-0.41752 -0.58814,-0.30311 -1.8492,0.76038 -2.09202,1.76427 -3.656339,2.19005 -7.079487,1.92693 -2.342814,-0.18008 -3.148518,-0.40291 -4.833247,-1.33666 l -2.021758,-1.12056 -1.457053,0.87488 c -1.118477,0.67159 -1.419959,1.02818 -1.297418,1.53462 0.0878,0.36286 0.251427,1.84727 0.363622,3.2987 0.112195,1.45143 0.424421,4.46095 0.693836,6.68783 0.947934,7.83529 -0.01692,18.11638 -1.83872,19.59242 -0.604015,0.48938 -0.624424,0.60525 -0.184176,1.0455 1.510076,1.51008 7.600904,2.21166 10.149853,1.16913 z m -11.917785,-18.84618 1.570508,-1.07207 -0.168956,-2.57903 c -0.09293,-1.41847 -0.271147,-3.27399 -0.396042,-4.12338 -0.124896,-0.84939 -0.225677,-2.24915 -0.223962,-3.11059 0.0016,-0.86143 -0.01633,-1.56652 -0.04007,-1.56688 -0.288194,-0.004 -4.677129,1.78974 -4.9672,2.03041 -0.402056,0.33358 -2.884675,0.63495 -5.957198,0.72314 -1.494625,0.0429 -1.73127,0.13987 -1.731557,0.70944 -9.9e-4,1.77922 3.110715,6.64566 5.393251,8.43485 1.086117,0.85137 2.989593,1.59077 4.14909,1.61171 0.440898,0.008 1.508361,-0.46795 2.372139,-1.0576 z m 29.448623,0.24179 c 0.58001,-0.27524 1.53021,-0.93486 2.11154,-1.46583 1.2476,-1.1395 1.3279,-2.02765 0.53185,-5.88207 -0.61471,-2.97636 -1.64218,-6.18044 -3.08967,-9.6348 -0.57018,-1.36071 -1.28095,-3.06779 -1.57948,-3.7935 -0.65149,-1.58377 -5.69144,-6.67169 -5.69144,-5.74562 0,0.32653 0.14844,0.68544 0.32987,0.79757 0.18143,0.11213 0.32987,0.49199 0.32987,0.84414 0,0.35215 0.12219,0.64027 0.27154,0.64027 0.14935,0 0.90623,0.77932 1.68195,1.73182 1.27788,1.56907 1.39558,1.86427 1.25256,3.14125 -0.0901,0.80424 -0.56442,1.99606 -1.10469,2.77564 -0.91991,1.32738 -0.94844,1.4936 -1.00393,5.84772 -0.0314,2.46482 -0.26593,5.77281 -0.52115,7.35108 l -0.46403,2.8696 0.85102,0.32813 c 2.08204,0.80281 4.64032,0.8845 6.09419,0.1946 z M 76.729786,154.39852 c 0.401831,-0.25061 1.226223,-0.45566 1.831983,-0.45566 0.60576,0 1.909849,-0.38179 2.897971,-0.84841 2.236461,-1.05613 2.155464,-1.00624 4.372633,-2.69313 2.27908,-1.73398 3.501397,-3.305 3.746477,-4.81525 0.154614,-0.95278 0.03616,-1.31321 -0.660509,-2.00989 -1.48684,-1.48684 -2.668369,-1.09089 -6.536538,2.19046 -0.970441,0.82322 -2.395315,1.81513 -3.166387,2.20423 -0.771071,0.38911 -1.397283,0.81579 -1.391583,0.94817 0.0057,0.13239 0.400089,0.52496 0.876412,0.8724 l 0.866048,0.6317 0.972219,-1.2119 c 1.010145,-1.25918 4.471258,-3.18527 5.723811,-3.18527 0.814624,0 1.604449,0.79826 1.291243,1.30504 -0.117041,0.18937 -0.50254,0.34431 -0.856669,0.34431 -1.098718,0 -3.366955,1.25299 -5.076088,2.80405 -0.899536,0.81635 -1.850393,1.48427 -2.113019,1.48427 -0.262626,0 -0.936838,-0.34493 -1.49825,-0.7665 -1.722717,-1.29361 -2.114293,-1.31042 -4.116179,-0.17673 -1.018939,0.57703 -3.483755,1.60572 -5.477364,2.28597 -3.372275,1.15067 -3.544596,1.25043 -2.474027,1.43227 3.31156,0.56249 9.661596,0.36228 10.787816,-0.34013 z m 22.612689,-2.98763 c 1.131185,-0.30401 2.231305,-0.6842 2.444695,-0.84486 0.21338,-0.16065 0.64215,-1.10017 0.9528,-2.08782 0.432,-1.37345 0.52434,-2.50575 0.39267,-4.81512 -0.15451,-2.70984 0.0582,-5.95463 0.60011,-9.15453 0.18991,-1.12141 0.18723,-1.12418 -0.59305,-0.61292 -0.8658,0.5673 -4.665978,1.24462 -6.983065,1.24462 -1.603182,0 -4.253019,-0.61927 -6.18772,-1.44607 -0.989541,-0.42289 -1.268443,-0.43737 -1.564023,-0.0812 -0.430556,0.51879 -0.153376,0.86755 0.689491,0.86755 0.775202,0 1.173734,0.95911 0.560011,1.34772 -0.253225,0.16034 -0.851309,0.2938 -1.329077,0.29658 -0.619657,0.004 -0.925688,0.21781 -1.067572,0.74726 -0.374076,1.39586 -0.271291,1.53569 0.979645,1.33269 0.798616,-0.1296 1.27479,-0.0516 1.453896,0.23822 0.455762,0.73744 -0.01729,1.30343 -1.772867,2.12123 l -1.693263,0.78876 1.3386,-0.0402 c 1.575427,-0.0473 3.311306,1.02452 3.822875,2.36037 0.1829,0.4776 0.236236,1.64684 0.118525,2.59831 -0.163285,1.31986 -0.452558,1.96849 -1.220301,2.73624 -0.553456,0.55345 -0.951095,1.05824 -0.88364,1.12174 0.252737,0.23795 2.798552,1.26261 3.751214,1.50982 1.681048,0.43623 4.041018,0.34915 6.190046,-0.22841 z m 6.807235,-2.27001 c 0.38078,-0.64537 0.69177,-1.49891 0.69109,-1.89675 -0.001,-0.84319 -1.25585,-3.03985 -1.56143,-2.73428 -0.1142,0.1142 -0.0503,0.36496 0.14198,0.55725 0.37482,0.37482 0.0316,2.49513 -0.59269,3.66165 -0.24358,0.45514 -0.22877,0.77392 0.0517,1.11181 0.21623,0.26055 0.43453,0.47372 0.48511,0.47372 0.0506,0 0.40351,-0.52803 0.78428,-1.1734 z m -32.01013,-0.0144 c 0.359766,-0.11166 0.368164,-0.2375 0.04208,-0.63041 -0.590276,-0.71124 -1.158926,-0.60375 -1.569159,0.29662 -0.325045,0.71339 -0.29122,0.77273 0.359386,0.63041 0.395013,-0.0864 0.920477,-0.21989 1.167695,-0.29662 z m 5.570081,-3.34793 c 3.788152,-2.56937 5.192726,-3.65935 4.984215,-3.86786 -0.08117,-0.0812 -1.585121,-0.20071 -3.342115,-0.26565 l -3.194538,-0.11807 -0.939018,1.01248 c -0.516462,0.55686 -1.439075,1.66402 -2.050255,2.46035 l -1.111234,1.44787 0.971233,0.77711 c 0.534179,0.42742 1.067457,0.77785 1.185062,0.77875 0.117605,9.9e-4 1.691099,-1.00034 3.49665,-2.22498 z m -4.701896,-2.49434 c 0.855557,-1.05438 1.502848,-1.96398 1.438425,-2.02132 -0.06443,-0.0573 -0.933566,-0.25985 -1.931423,-0.45001 -1.859372,-0.35435 -3.545068,-0.76711 -4.875487,-1.19384 -0.65053,-0.20865 -0.52539,0.10607 0.926546,2.33021 1.99452,3.0553 2.321026,3.46866 2.642494,3.34548 0.134135,-0.0514 0.943884,-0.95613 1.799445,-2.01052 z m 9.016712,-3.88538 c 0.783696,-0.2732 1.112105,-0.64967 1.366867,-1.56689 0.466172,-1.67836 0.430012,-1.93122 -0.303596,-2.12306 -0.454156,-0.11876 -1.245864,0.37782 -2.699704,1.69334 l -2.057096,1.8614 0.967882,0.20837 c 1.47345,0.31722 1.616842,0.31337 2.725647,-0.0732 z m 22.168543,-1.10747 c -0.39835,-0.64455 -0.78638,-1.1719 -0.8623,-1.1719 -0.37353,0 -0.061,0.99853 0.55931,1.78717 0.97,1.23316 1.18081,0.80507 0.30299,-0.61527 z m -7.401683,-4.82567 c 4.423543,-0.61526 7.418493,-2.15027 7.429713,-3.80796 0.002,-0.34105 -0.1741,-1.28808 -0.39202,-2.1045 -0.21791,-0.81643 -0.44557,-1.66997 -0.50592,-1.89676 -0.0603,-0.22678 -0.4261,-0.41234 -0.8128,-0.41234 -0.38669,0 -1.19446,-0.49138 -1.79504,-1.09196 -0.83154,-0.83153 -1.14248,-1.48057 -1.30378,-2.72143 -0.1165,-0.8962 -0.4289,-2.12155 -0.69422,-2.72298 -0.40026,-0.9073 -0.63605,-1.07582 -1.384662,-0.98961 -0.76416,0.088 -0.886496,0.23913 -0.799285,0.98736 0.131773,1.13058 -1.24305,4.14427 -2.590876,5.67936 -0.798226,0.90913 -1.297415,1.18914 -2.119963,1.18914 -0.591741,0 -1.469423,-0.30956 -1.95041,-0.6879 l -0.874518,-0.6879 -0.836472,1.92491 c -0.46006,1.0587 -1.058421,2.37695 -1.32969,2.92944 -0.271268,0.55249 -0.407337,1.22834 -0.302369,1.50187 0.104965,0.27354 0.662449,0.77592 1.238847,1.11641 0.985395,0.58209 5.231803,2.06439 6.082116,2.1231 0.213657,0.0147 1.537264,-0.13296 2.941349,-0.32825 z m -3.688376,-11.5794 c 0.223757,-0.31946 1.413841,-1.74313 1.344211,-2.0314 -0.677018,0.87879 -1.351874,1.00164 -1.860313,0.69244 -0.912735,-0.55507 -0.999618,-0.74335 -0.828789,-1.79605 0.235023,-1.44829 1.114938,-2.48784 1.895968,-2.23995 0.382117,0.12128 0.785069,-0.002 1.206959,0.97773 0.190198,-1.12671 -0.447824,-1.81967 -0.927615,-2.33038 -1.108348,-1.17978 -2.124677,-1.03551 -3.076639,0.43675 -1.010923,1.56345 -1.361466,3.67254 -0.861957,5.18607 0.609725,1.84749 2.193633,2.41048 3.108175,1.10479 z m 10.338839,0.30655 c 0.49268,-0.61583 1.00392,-1.46286 1.17603,-2.49233 -1.02401,1.38175 -1.71332,0.67895 -2.09017,-0.25512 -0.10222,-0.25336 -0.0631,-2.15852 0.31631,-2.7629 0.23019,-0.36662 1.36084,-0.74964 1.88389,0.70013 0.39608,-0.61145 -0.81265,-2.34152 -0.93467,-2.48854 -0.76859,-0.92609 -1.13391,-0.24517 -2.06767,1.66183 -0.69426,1.41785 -0.87318,2.17556 -0.74297,3.14633 0.19688,1.46789 1.02864,2.90293 1.68255,2.90293 0.24574,0 0.59526,-0.18555 0.7767,-0.41233 z"
       id="path25585" />
  </g>
</svg>
