<?xml version="1.0" encoding="UTF-8" standalone="no"?>
<!-- Created with Inkscape (http://www.inkscape.org/) -->

<svg
   width="82.977325mm"
   height="98.114632mm"
   viewBox="0 0 82.977325 98.114632"
   version="1.1"
   id="svg107547"
   sodipodi:docname="fiddler-A.svg"
   inkscape:version="1.1.2 (0a00cf5339, 2022-02-04)"
   xmlns:inkscape="http://www.inkscape.org/namespaces/inkscape"
   xmlns:sodipodi="http://sodipodi.sourceforge.net/DTD/sodipodi-0.dtd"
   xmlns="http://www.w3.org/2000/svg"
   xmlns:svg="http://www.w3.org/2000/svg">
  <sodipodi:namedview
     id="namedview7"
     pagecolor="#ffffff"
     bordercolor="#666666"
     borderopacity="1.0"
     inkscape:pageshadow="2"
     inkscape:pageopacity="0.0"
     inkscape:pagecheckerboard="0"
     inkscape:document-units="mm"
     showgrid="false"
     inkscape:snap-global="false"
     inkscape:zoom="1.2757015"
     inkscape:cx="133.65196"
     inkscape:cy="248.0988"
     inkscape:window-width="1920"
     inkscape:window-height="967"
     inkscape:window-x="0"
     inkscape:window-y="0"
     inkscape:window-maximized="1"
     inkscape:current-layer="layer1" />
  <defs
     id="defs107544" />
  <g
     id="layer1"
     transform="translate(-64.838482,-97.337263)">
    <path
       style="fill:#bcffd6;fill-opacity:1;stroke:none;stroke-width:0.264583px;stroke-linecap:butt;stroke-linejoin:miter;stroke-opacity:1"
       d="m 99.827245,133.63436 c -15.296975,4.02579 -23.609709,17.86036 -24.489642,20.06713 -0.879933,2.20677 -2.815738,10.99559 4.741653,17.32885 7.557392,6.33327 19.355901,-11.27883 19.355901,-11.27883 0,0 3.061663,7.57332 9.363413,11.6557 6.30176,4.08237 10.64684,-0.88799 11.44069,-2.93582 0.79385,-2.04782 -8.33294,-25.08798 -11.40456,-29.58105 -3.07162,-4.49307 -9.007455,-5.25598 -9.007455,-5.25598 z"
       id="path14141"
       inkscape:label="wings" />
    <path
       style="display:inline;fill:#a3d480;fill-opacity:1;stroke:none;stroke-width:0.264583px;stroke-linecap:butt;stroke-linejoin:miter;stroke-opacity:1"
       d="m 66.037877,158.58985 c 8.216148,4.59372 19.04501,0.32705 21.691649,-1.23972 0,0 0.631524,5.59075 1.451608,12.25886 0.637233,5.18134 2.15833,13.3475 -1.437889,17.22525 -3.596222,3.87774 9.819011,6.66551 15.226605,0.37471 5.40759,-6.29079 6.40526,-31.57732 6.40526,-31.57732 0,0 1.81827,-1.54657 2.0139,-3.83121 0.19563,-2.28465 -2.86272,-4.35218 -2.86272,-4.35218 0,0 -0.80886,-1.06062 -0.83464,-4.59112 -0.0258,-3.5305 1.05409,-5.67022 1.05409,-5.67022 2.95231,-2.53359 2.75937,-5.67545 1.22923,-8.24928 0,0 3.05535,-2.96686 2.17188,-7.68111 -0.88347,-4.71424 -2.62792,-4.59068 -3.92029,-3.73943 -1.30856,0.86193 -1.81976,1.75536 -2.62782,3.21985 -1.56982,-0.51587 -2.46962,-0.72795 -3.9573,-0.0163 -0.65052,-1.91881 -1.03922,-4.42684 -3.973195,-3.30155 -2.933977,1.12529 -3.454265,4.41574 -3.141262,7.19164 0.313002,2.7759 -1.960611,5.65049 -2.632348,7.60764 -0.671737,1.95716 -0.216154,4.7781 -0.216154,4.7781 0,0 -1.107908,2.19457 -1.445112,4.79324 -0.337201,2.59867 -0.727622,4.85768 -0.727622,4.85768 0,0 -3.357753,2.61639 -6.852923,4.98294 -5.229672,3.54096 -13.079328,4.97826 -16.614947,6.95953 z"
       id="path4790"
       sodipodi:nodetypes="ccsssczcsccssccssscscsc"
       inkscape:label="fill" />
    <path
       style="fill:#7b6d54;fill-opacity:1;stroke:none;stroke-width:0.264583px;stroke-linecap:butt;stroke-linejoin:miter;stroke-opacity:1"
       d="m 140.16486,147.75946 c 0.78748,-1.79774 4.0168,-6.74887 5.64369,-6.62327 1.68045,0.12974 2.14986,0.22862 -1.40012,5.47055 -3.54998,5.24194 -6.15375,26.08635 -6.76827,28.34895 -0.59374,2.18608 -0.0403,15.42915 0.51936,17.8894 0.29892,1.31413 -3.98446,1.27325 -4.28626,-0.0157 -0.52433,-2.23932 0.98242,-18.73006 1.01595,-21.79775 0.0335,-3.0677 2.90363,-17.65617 2.38315,-19.00073 -0.52049,-1.34457 -3.18111,-2.82624 -1.39511,-3.9418 1.78599,-1.11555 3.4779,1.51885 4.28761,-0.32965 z"
       id="path21120"
       sodipodi:nodetypes="sssssssscs"
       inkscape:label="cane" />
    <path
       style="fill:#ffffff;stroke:none;stroke-width:0.264583px;stroke-linecap:butt;stroke-linejoin:miter;stroke-opacity:1"
       d="m 94.232845,124.18045 c 0.983798,5.10601 2.971096,5.36433 4.145121,5.0175 1.174023,-0.34683 3.374374,-4.53771 3.644234,-6.10963 0.26986,-1.57193 -0.32154,-1.79881 -0.32154,-1.79881 0,0 -2.72097,0.23423 -4.432412,1.20187 -1.711444,0.96763 -3.035403,1.68907 -3.035403,1.68907 z m 11.460245,-1.51229 c 0.39906,4.86664 2.13316,6.19293 3.72357,5.3858 1.59041,-0.80713 2.80203,-3.4117 2.79154,-4.66891 -0.0105,-1.25721 -0.53021,-0.85026 -0.53021,-0.85026 0,0 -1.77898,-0.56365 -3.16653,-0.59828 -1.38755,-0.0346 -2.81837,0.73165 -2.81837,0.73165 z"
       id="path25296"
       inkscape:label="eyes" />
    <path
       style="fill:#000000;stroke:none;stroke-width:0.32987"
       d="m 92.052768,195.00021 c -0.725715,-0.23271 -2.803896,-0.75233 -4.618182,-1.15471 -4.525307,-1.00365 -4.869164,-1.11484 -5.125027,-1.65734 -0.123256,-0.26135 -0.478147,-0.96082 -0.788641,-1.55439 -0.310497,-0.59358 -0.832354,-2.00377 -1.159685,-3.13377 -2.279326,-7.8686 -3.07054,-10.28035 -4.137046,-12.61039 -2.558493,-5.58964 -2.312621,-5.16584 -6.80248,-11.72529 -1.349116,-1.97098 -2.189173,-2.95393 -2.524526,-2.95393 -0.46032,0 -2.058699,-1.30825 -2.058699,-1.68502 0,-0.39928 2.287867,-1.37996 4.453247,-1.90885 0.907142,-0.22157 2.471202,-0.69946 3.475689,-1.06198 1.515711,-0.54702 1.838106,-0.80131 1.895527,-1.4951 0.03805,-0.45978 0.374158,-1.26426 0.746901,-1.78773 l 0.677712,-0.95176 -1.304597,-1.73985 c -1.760721,-2.34813 -3.600879,-5.80704 -3.73349,-7.01776 -0.102814,-0.93868 -0.04897,-0.98729 1.046154,-0.94454 0.635,0.0248 2.193636,0.35299 3.463636,0.72933 1.27,0.37634 3.348182,0.77961 4.618182,0.89617 l 2.309091,0.21193 1.868731,-1.64214 1.868734,-1.64214 -0.979038,-0.72384 c -0.538474,-0.39811 -1.139144,-1.07522 -1.334826,-1.5047 -0.428716,-0.94092 -0.125912,-1.96763 0.470823,-1.59638 0.228066,0.14189 1.366599,0.57895 2.530068,0.97124 1.924706,0.64897 2.217671,0.67054 3.249874,0.23926 0.961878,-0.4019 1.095835,-0.58412 0.880509,-1.19774 -0.474772,-1.35298 -0.234937,-3.35709 0.678754,-5.67178 0.501313,-1.27 1.178065,-2.60597 1.503894,-2.96883 0.474182,-0.52807 0.567971,-1.08765 0.46995,-2.8039 -0.09236,-1.61717 -0.435463,-2.6729 0.143161,-4.39047 0.827087,-2.45507 2.152907,-3.37943 3.905859,-3.72088 0.589643,-0.11485 1.072078,-0.33108 1.072078,-0.48051 0,-0.14942 -0.161685,-0.68956 -0.359297,-1.2003 -0.197616,-0.51074 -0.579665,-2.56147 -0.848997,-4.55719 -0.493819,-3.65912 -0.39913,-6.49763 0.281923,-8.4513 0.302851,-0.86876 0.272229,-1.08557 -0.189837,-1.34416 -0.818157,-0.45786 -0.598239,-2.516803 0.33407,-3.127676 0.594521,-0.389546 0.848742,-0.400595 1.393236,-0.06055 0.802937,0.501441 1.060397,1.315739 0.648647,2.051499 -0.166832,0.298116 -0.532308,1.840717 -0.812167,3.428017 -0.566064,3.21058 -0.431681,6.36639 0.367561,8.63169 0.277388,0.7862 0.504346,1.77491 0.504346,2.19714 0,0.42222 0.13839,1.10866 0.30754,1.52541 0.16914,0.41675 0.56057,1.61127 0.86983,2.65448 0.46816,1.57923 0.68632,1.89675 1.30322,1.89675 0.72444,0 0.73046,-0.0304 0.27051,-1.36542 -0.28556,-0.82885 -0.49725,-2.93535 -0.53868,-5.36039 -0.0592,-3.46263 0.0369,-4.30266 0.7211,-6.30406 0.43416,-1.27 0.76443,-2.77782 0.73393,-3.35071 -0.0409,-0.76798 0.16891,-1.2181 0.79858,-1.71339 0.6146,-0.48345 1.05618,-0.59761 1.57516,-0.40721 1.40355,0.51493 0.8534,3.09477 -0.79446,3.7255 -0.95842,0.36685 -1.45378,3.11534 -1.44422,8.01335 0.007,3.62207 0.13024,4.89047 0.57105,5.88058 0.39457,0.88626 0.69255,1.19195 1.14554,1.15013 -0.11644,-0.86706 2.26464,-3.19743 3.69526,-3.23721 0.75847,0 1.43696,0.21239 1.70315,0.53313 0.86946,1.04762 1.38083,2.96676 1.39874,5.24935 0.0137,1.74103 -0.1623,2.6917 -0.70617,3.81519 -0.39841,0.82299 -0.71581,1.85769 -0.70535,2.29934 0.0104,0.44165 0.2819,1.81118 0.60321,3.04341 l 0.5842,2.24041 -1.09802,1.16424 c -1.30704,1.38587 -1.43111,2.6686 -0.35581,3.67869 0.53137,0.49915 1.24285,0.72004 2.5046,0.77759 1.37365,0.0626 2.02797,0.29143 2.96639,1.0372 1.31216,1.04277 1.69088,1.51569 1.69863,2.1211 0.003,0.23596 -0.7438,6.6e-4 -1.85681,-0.58467 -1.02402,-0.53867 -1.92892,-0.91233 -2.01088,-0.83037 -0.082,0.082 0.94142,1.19104 2.27419,2.46462 1.86237,1.77964 2.33314,2.40575 2.03399,2.70514 -0.29922,0.29947 -1.03243,0.12438 -3.17031,-0.75705 -2.76719,-1.14089 -2.779,-1.1426 -2.3637,-0.34213 0.22955,0.44248 0.97537,1.18367 1.65737,1.6471 1.80723,1.22804 6.44337,3.1807 7.38583,3.11078 1.15741,-0.0859 4.1384,-1.23902 6.44628,-2.49365 1.08857,-0.59177 2.7442,-1.34869 3.67918,-1.68204 l 1.69995,-0.60609 1.76368,0.83453 c 0.97003,0.45898 2.22762,0.9362 2.79464,1.06049 0.98572,0.21605 1.09678,0.12753 2.53159,-2.01783 2.73758,-4.09333 4.13134,-5.25778 5.84315,-4.8818 1.41219,0.31017 1.53415,1.24089 0.40136,3.06301 -2.75983,4.43929 -4.77194,9.50044 -5.79801,14.58408 -0.45775,2.26785 -1.14703,5.96923 -1.53174,8.22527 -0.3847,2.25604 -0.76354,4.20557 -0.84185,4.33229 -0.25116,0.40637 -0.72468,4.38404 -0.99869,8.38919 -0.23642,3.45564 0.36755,10.3824 1.04707,12.00875 0.41114,0.98398 0.4069,1.21845 -0.0342,1.8916 -0.27691,0.42262 -0.8727,0.84497 -1.32398,0.93857 -0.45127,0.0936 -1.19821,0.24888 -1.65986,0.34508 -0.48866,0.10182 -1.2358,-0.0593 -1.78816,-0.38556 -0.89469,-0.52851 -0.94165,-0.66543 -0.82358,-2.40153 0.0689,-1.01259 0.20678,-5.181 0.30648,-9.26314 0.16207,-6.63637 0.43991,-9.85405 1.82296,-21.11169 0.21175,-1.72357 0.59575,-4.05492 0.85333,-5.18078 0.66073,-2.88797 0.61168,-4.28552 -0.16499,-4.70119 -0.72767,-0.38943 -1.45813,-2.30668 -1.16744,-3.06419 0.51361,-1.33846 -1.17379,-0.9048 -6.55676,1.68508 -5.28414,2.54233 -6.67021,2.65516 -10.60274,0.86304 -1.41255,-0.64372 -2.63017,-1.1085 -2.70581,-1.03286 -0.0757,0.0756 0.30169,1.15702 0.83852,2.40305 2.13513,4.95584 3.67049,9.90581 4.18152,13.4811 0.12966,0.90714 0.36251,1.80944 0.51744,2.00511 0.16674,0.21058 -0.0185,0.94494 -0.45395,1.79956 -0.94653,1.8577 -3.19075,3.2662 -5.59329,3.5104 -1.26725,0.1288 -2.25552,-0.005 -3.63879,-0.49366 l -1.89904,-0.67049 1.11153,1.37778 c 1.58304,1.96225 5.81114,9.21335 7.30041,12.52004 l 1.26315,2.80464 3.73798,0.23356 c 2.98479,0.1865 3.90483,0.36481 4.56604,0.88491 0.87283,0.68657 1.12051,2.08816 0.41572,2.35249 -0.22679,0.085 -1.0096,-0.18602 -1.7396,-0.60239 -0.87317,-0.49803 -2.43474,-0.90566 -4.56432,-1.19147 -2.90339,-0.38965 -3.28375,-0.52023 -3.69005,-1.26687 -0.24914,-0.45785 -0.45894,-0.68666 -0.4662,-0.50847 -0.0274,0.67242 -1.67768,-2.16337 -2.44445,-4.2005 -0.4393,-1.1671 -1.65633,-3.5185 -2.70452,-5.22533 -2.29929,-3.74409 -2.95749,-4.6313 -3.23214,-4.35666 -0.11479,0.1148 -0.20872,0.60136 -0.20872,1.08124 0,1.52237 -1.2637,5.70215 -2.40069,7.9405 -1.75111,3.44731 -3.63321,5.92119 -4.50478,5.92119 -0.31861,0 -0.85906,0.30914 -1.20099,0.68697 -1.020929,1.12811 -2.678721,1.62212 -5.443497,1.62212 -1.900409,0 -3.159635,-0.20906 -4.76162,-0.79055 -1.197874,-0.43481 -2.466379,-1.05158 -2.818902,-1.37061 -0.99154,-0.89733 -0.846489,-2.90363 0.344058,-4.75894 0.877287,-1.36713 1.026807,-1.98934 1.367226,-5.68951 0.307383,-3.34109 0.296675,-4.54012 -0.0547,-6.12397 l -0.43692,-1.96945 -1.087258,1.15283 c -1.069337,1.13383 -1.124623,1.15071 -3.354486,1.02471 -1.985366,-0.11218 -2.497315,-0.28657 -4.117987,-1.40277 -2.889787,-1.99027 -5.859875,-6.41268 -6.3703,-9.48525 l -0.200947,-1.20962 -1.910881,-0.10986 c -1.213385,-0.0698 -1.838449,0.0106 -1.712449,0.22 0.109138,0.18143 0.88424,1.22052 1.72245,2.30909 2.487544,3.23054 4.043245,5.75483 5.533159,8.97816 1.573534,3.40423 2.533301,6.07852 4.176984,11.63873 0.616781,2.08643 1.439834,4.50544 1.829005,5.37558 0.548613,1.22665 0.83943,1.54024 1.294446,1.39582 0.838484,-0.26613 5.094445,0.66207 7.635795,1.66531 2.084469,0.82288 3.185133,1.79943 2.775382,2.46242 -0.246337,0.39858 -0.955162,0.34743 -2.630668,-0.18983 z m 45.439022,-2.65439 c 0.10552,-0.10551 -2.6e-4,-0.66217 -0.23505,-1.23701 -0.46816,-1.1462 -0.74549,-3.1914 -1.01395,-7.47764 -0.21185,-3.38239 0.37864,-11.1381 1.00461,-13.19481 0.24848,-0.81643 0.61539,-2.59772 0.81534,-3.95844 0.3809,-2.59216 1.22227,-6.27718 2.25948,-9.8961 0.33799,-1.17929 0.54978,-2.33285 0.47065,-2.56347 -0.28498,-0.8305 3.76713,-9.89703 5.06349,-11.32949 0.50207,-0.55478 0.52347,-0.70813 0.13249,-0.94977 -0.32584,-0.20138 -0.61992,-0.0578 -0.97649,0.47687 -2.81322,4.21802 -4.47951,6.51455 -4.89578,6.74751 -0.29114,0.16293 -0.41376,0.50297 -0.29396,0.81517 0.20315,0.5294 -0.10644,0.68496 -1.08233,0.54384 -0.26614,-0.0385 -0.90841,-0.42719 -1.42725,-0.86377 -1.50012,-1.26226 -1.80953,-0.9199 -0.43801,0.48466 1.17994,1.20838 1.24781,1.39205 1.23844,3.3515 -0.005,1.14018 -0.15658,2.75439 -0.33585,3.58715 -0.41672,1.93583 -1.40903,8.36877 -1.55653,10.09071 -0.0622,0.72571 -0.1884,1.98746 -0.28052,2.80389 -0.56636,5.0194 -1.40485,20.76641 -1.1988,22.51364 0.0341,0.2892 2.46723,0.33836 2.75002,0.0556 z m -38.924087,-2.48601 c 0.498928,-0.20406 0.907143,-0.58284 0.907143,-0.84173 0,-0.25889 0.439096,-0.65533 0.975764,-0.88099 0.53668,-0.22565 1.3931,-0.99781 1.90317,-1.71589 0.86073,-1.21176 2.46827,-4.34288 3.34953,-6.52415 0.48068,-1.18975 2.26782,-12.07977 2.6745,-16.2972 0.33858,-3.51108 0.12175,-7.39434 -0.45636,-8.17321 -0.3099,-0.41752 -0.58814,-0.30311 -1.8492,0.76039 -2.09202,1.76426 -3.65634,2.19005 -7.079486,1.92692 -2.342814,-0.18008 -3.148518,-0.4029 -4.833248,-1.33666 l -2.021757,-1.12055 -1.457053,0.87487 c -1.118478,0.67159 -1.419959,1.02819 -1.297419,1.53462 0.0878,0.36286 0.251427,1.84728 0.363623,3.2987 0.112195,1.45143 0.42442,4.46095 0.693835,6.68783 0.947935,7.83529 -0.01692,18.11638 -1.838719,19.59242 -0.604015,0.48938 -0.624424,0.60525 -0.184176,1.0455 1.510076,1.51008 7.600903,2.21167 10.149853,1.16913 z m -11.917786,-18.84617 1.570509,-1.07208 -0.168957,-2.57903 c -0.09293,-1.41847 -0.271146,-3.27399 -0.396042,-4.12338 -0.124895,-0.84939 -0.225677,-2.24915 -0.223962,-3.11059 0.0016,-0.86143 -0.01633,-1.56652 -0.04007,-1.56688 -0.288195,-0.004 -4.67713,1.78974 -4.967201,2.03041 -0.402056,0.33358 -2.884675,0.63495 -5.957198,0.72315 -1.494625,0.0429 -1.73127,0.13986 -1.731557,0.70943 -9.9e-4,1.77922 3.110715,6.64566 5.393251,8.43486 1.086117,0.85136 2.989593,1.59076 4.14909,1.61171 0.440898,0.008 1.508361,-0.46796 2.372139,-1.0576 z m 29.448623,0.24178 c 0.58001,-0.27524 1.53021,-0.93486 2.11154,-1.46582 1.2476,-1.13951 1.32791,-2.02766 0.53185,-5.88208 -0.61471,-2.97636 -1.64218,-6.18043 -3.08967,-9.63479 -0.57018,-1.36072 -1.28095,-3.0678 -1.57948,-3.79351 -0.65149,-1.58377 -5.69144,-6.67169 -5.69144,-5.74562 0,0.32653 0.14844,0.68544 0.32987,0.79757 0.18143,0.11213 0.32987,0.49199 0.32987,0.84414 0,0.35215 0.12219,0.64027 0.27154,0.64027 0.14935,0 0.90623,0.77932 1.68195,1.73182 1.27788,1.56908 1.39558,1.86427 1.25256,3.14125 -0.0901,0.80424 -0.56442,1.99607 -1.10469,2.77565 -0.9199,1.32738 -0.94844,1.49359 -1.00393,5.84771 -0.0314,2.46482 -0.26593,5.77281 -0.52115,7.35109 l -0.46403,2.86959 0.85102,0.32814 c 2.08204,0.8028 4.64033,0.88449 6.09419,0.19459 z M 80.578176,158.68683 c 0.401831,-0.25061 1.226223,-0.45566 1.831983,-0.45566 0.913638,0 3.529789,-0.99211 5.064259,-1.92048 1.37567,-0.8323 4.181767,-3.20037 4.885208,-4.12263 1.004537,-1.31701 1.381572,-2.89622 0.892411,-3.73783 -0.315287,-0.54245 -0.355643,-0.50955 -0.364563,0.29717 -0.0055,0.49893 -0.153251,0.90714 -0.328296,0.90714 -0.514733,0 -0.98269,-1.15413 -0.780872,-1.92589 0.155431,-0.59436 0.04522,-0.71307 -0.662026,-0.71307 -0.948948,0 -2.277091,0.82617 -4.886086,3.03937 -0.970442,0.82322 -2.395316,1.81513 -3.166387,2.20424 -0.771072,0.3891 -1.397284,0.81578 -1.391584,0.94816 0.0057,0.13239 0.40009,0.52496 0.876412,0.8724 l 0.866048,0.6317 0.972219,-1.2119 c 1.010145,-1.25918 4.471258,-3.18527 5.723811,-3.18527 0.814625,0 1.604449,0.79826 1.291244,1.30504 -0.117041,0.18937 -0.502541,0.34432 -0.856669,0.34432 -1.098719,0 -3.366955,1.25298 -5.076088,2.80405 -0.899536,0.81634 -1.850394,1.48426 -2.11302,1.48426 -0.262626,0 -0.936837,-0.34493 -1.49825,-0.7665 -1.722717,-1.2936 -2.114293,-1.31042 -4.116179,-0.17673 -1.018939,0.57703 -3.483755,1.60572 -5.477365,2.28597 -3.372275,1.15067 -3.544596,1.25043 -2.474026,1.43227 3.31156,0.56249 9.661596,0.36228 10.787816,-0.34013 z m 22.612694,-2.98763 c 1.13118,-0.30401 2.2313,-0.6842 2.44469,-0.84485 0.21339,-0.16066 0.63044,-1.06297 0.92679,-2.00513 0.412,-1.30987 0.50866,-2.64427 0.41072,-5.67008 -0.10912,-3.37101 -0.20968,-3.97285 -0.67901,-4.06364 -0.73682,-0.14255 -4.26318,2.02696 -5.30271,3.26237 -0.93566,1.11197 -1.354637,1.10041 -4.423155,-0.122 -1.491227,-0.59406 -1.795717,-0.62742 -2.045,-0.22407 -0.186997,0.30257 -0.134135,0.65553 0.146205,0.97625 0.713334,0.81607 0.918009,1.92061 0.678543,3.66175 -0.164566,1.19654 -0.493453,1.905 -1.22304,2.63459 -0.548868,0.54887 -0.942752,1.0499 -0.875297,1.11341 0.252736,0.23794 2.798552,1.2626 3.751214,1.50981 1.681048,0.43623 4.04102,0.34915 6.19005,-0.22841 z m 6.80724,-2.27 c 0.38077,-0.64538 0.69177,-1.49891 0.69109,-1.89676 -0.001,-0.84319 -1.25586,-3.03985 -1.56144,-2.73427 -0.1142,0.11419 -0.0503,0.36495 0.14198,0.55724 0.37482,0.37482 0.0316,2.49513 -0.59269,3.66165 -0.24358,0.45514 -0.22877,0.77392 0.0517,1.11182 0.21623,0.26054 0.43453,0.47372 0.48511,0.47372 0.0506,0 0.40351,-0.52803 0.78429,-1.1734 z m -32.778504,0.18379 c 0.930699,0 1.222496,-0.33209 0.770429,-0.8768 -0.580707,-0.6997 -1.064524,-0.52149 -1.714369,0.63148 -0.331687,0.5885 -0.41333,0.88444 -0.181428,0.65765 0.231905,-0.22678 0.738322,-0.41233 1.125368,-0.41233 z m 6.338445,-3.54611 c 3.788153,-2.56937 5.192727,-3.65935 4.984216,-3.86786 -0.08117,-0.0812 -1.585122,-0.20071 -3.342116,-0.26565 l -3.194538,-0.11807 -0.939018,1.01248 c -0.516461,0.55687 -1.439075,1.66402 -2.050255,2.46035 l -1.111234,1.44787 0.971233,0.77712 c 0.534179,0.42741 1.067457,0.77785 1.185062,0.77875 0.117606,9.9e-4 1.691099,-1.00035 3.49665,-2.22499 z m -4.586617,-2.52224 1.658109,-2.1099 -1.54553,-0.22578 c -0.850043,-0.12418 -2.582006,-0.50095 -3.84881,-0.83725 -1.266803,-0.33631 -2.335566,-0.57919 -2.375028,-0.53972 -0.116092,0.11609 2.013042,3.33808 2.285416,3.45848 0.136803,0.0605 0.248735,0.27358 0.248735,0.47355 0,0.41409 1.309479,1.89052 1.67674,1.89052 0.133244,0 0.988406,-0.94945 1.900368,-2.1099 z m 14.070185,-2.46031 c 0.09967,-0.25975 0.109128,-0.54436 0.02101,-0.63248 -0.08812,-0.0881 -0.796709,0.14488 -1.574648,0.51777 l -1.414437,0.67798 1.393424,-0.0455 c 0.871184,-0.0284 1.461345,-0.2225 1.574648,-0.51776 z m 7.160441,-0.13382 c 0.41646,-0.41007 1.27374,-1.14562 1.90506,-1.63456 0.90321,-0.6995 1.00867,-0.8822 0.4948,-0.85721 -0.35918,0.0174 -1.63973,-0.0768 -2.845665,-0.20954 -2.357678,-0.25944 -3.310333,0.0174 -3.908886,1.13576 -0.301085,0.56259 -0.148042,0.74452 1.229453,1.4615 0.865341,0.45041 1.752154,0.82584 1.970693,0.83428 0.218539,0.008 0.738085,-0.32015 1.154545,-0.73023 z m -12.348341,-1.25668 c 1.001037,-0.34896 1.559134,-1.0941 1.224728,-1.63518 -0.09491,-0.15357 -0.601683,-0.49329 -1.126163,-0.75493 -0.929208,-0.46355 -0.989218,-0.43943 -2.345631,0.94265 l -1.392025,1.41837 0.950237,0.14158 c 0.522633,0.0779 1.113641,0.16382 1.313355,0.19101 0.19971,0.0272 0.818688,-0.10939 1.375499,-0.3035 z m 25.283231,-0.78789 c -1.60283,-1.4153 -2.67973,-1.57531 -1.85355,-0.27541 0.24828,0.39064 2.24854,1.37792 2.84316,1.40331 0.1663,0.007 -0.27903,-0.50045 -0.98961,-1.1279 z m -16.132423,-1.92451 c 0.723676,-0.15917 3.022853,-0.20528 5.109283,-0.10246 3.28508,0.16188 3.8886,0.11038 4.50308,-0.38433 0.39026,-0.31419 0.81664,-1.08267 0.94749,-1.70772 l 0.23792,-1.13645 -0.82623,0.54136 c -0.45443,0.29776 -2.1264,0.72325 -3.71548,0.94556 -2.31104,0.3233 -3.391556,0.31978 -5.399185,-0.0175 -1.380467,-0.23196 -3.077903,-0.7115 -3.772085,-1.06564 -1.053991,-0.53771 -1.348117,-0.57267 -1.78339,-0.21203 -0.458018,0.37948 -0.405447,0.45218 0.433446,0.59934 0.58798,0.10314 1.000377,0.40473 1.073638,0.78515 0.144477,0.7502 -0.46288,1.17971 -1.677779,1.18648 -0.65816,0.004 -0.907143,0.17116 -0.907143,0.61028 0,0.39029 0.556448,0.88818 1.566883,1.40196 l 1.566884,0.79674 0.663448,-0.97563 c 0.451018,-0.66324 1.084754,-1.0683 1.97922,-1.26505 z m 12.815583,1.25104 c -0.20688,-0.53912 -0.77903,-0.68044 -0.77903,-0.19243 0,0.25037 0.23119,0.42082 0.89679,0.66119 0.0397,0.0143 -0.0133,-0.19662 -0.11776,-0.46876 z m -6.03281,-4.64239 c 2.91089,-0.55218 4.71564,-1.30719 5.68384,-2.37781 0.70237,-0.77666 0.73898,-1.37491 0.20629,-3.37071 -0.21792,-0.81643 -0.44558,-1.66997 -0.50593,-1.89676 -0.0603,-0.22678 -0.4261,-0.41233 -0.8128,-0.41233 -0.38669,0 -1.19446,-0.49138 -1.79504,-1.09197 -0.83153,-0.83153 -1.14248,-1.48057 -1.30378,-2.72142 -0.1165,-0.89621 -0.4289,-2.12155 -0.69422,-2.72299 -0.40026,-0.9073 -0.63605,-1.07582 -1.38466,-0.98961 -0.76416,0.088 -0.8865,0.23913 -0.79929,0.98736 0.13178,1.13058 -1.24305,4.14427 -2.590872,5.67936 -0.798226,0.90913 -1.297415,1.18914 -2.119963,1.18914 -0.591741,0 -1.469423,-0.30956 -1.95041,-0.6879 l -0.874519,-0.6879 -0.836471,1.92491 c -0.46006,1.0587 -1.058421,2.37695 -1.32969,2.92944 -0.271269,0.55249 -0.407337,1.22834 -0.302369,1.50188 0.104965,0.27353 0.662448,0.77592 1.238847,1.1164 1.292035,0.76323 5.384193,2.08675 6.564347,2.1231 0.47889,0.0147 2.1019,-0.20673 3.60669,-0.49219 z m -3.00018,-12.38025 c -1.003692,1.00823 -2.152225,1.59551 -2.90416,0.66777 -0.710304,-0.87638 -0.700409,-2.06394 -0.181836,-2.74272 -1.053966,0.26883 -2.361084,0.82281 -2.741667,1.47865 -0.02547,3.80978 3.969219,5.6211 5.827663,0.5963 z m 10.66202,-0.73844 c -1.35507,1.64544 -2.47965,1.40008 -3.00241,0.44241 -0.3677,-0.67361 -0.79379,-1.77582 -0.31853,-2.40157 -0.35425,-0.0541 -0.85306,0.0168 -1.78356,0.54476 -0.28095,1.44139 1.2904,3.92996 2.05544,3.83652 0.47943,-0.0586 2.21134,0.48008 3.04906,-2.42212 z m -14.350774,-2.38787 c 1.815506,-0.72632 2.754191,-0.97901 4.104604,-1.10495 0.0532,-1.11548 -0.64265,-2.03183 -1.288615,-2.32229 -1.378874,-0.60994 -2.184875,-0.68321 -2.629095,-0.23899 -0.126205,0.12621 -0.464493,0.23061 -0.751757,0.23201 -0.656003,0.003 -2.006709,2.32131 -2.006709,3.44398 0,0.46298 0.09968,0.84179 0.221521,0.84179 0.121837,0 1.179358,-0.3832 2.350051,-0.85155 z m 12.751114,-3.93082 c -1.55326,-0.30238 -3.8465,2.44994 -3.55093,3.4922 0.75262,-0.0648 1.74806,-0.0583 2.63425,-0.0199 0.88619,0.0384 1.80461,0.27905 2.61541,0.50703 0.27814,-1.48444 -0.57652,-3.76084 -1.69873,-3.9793 z"
       id="path107877"
       sodipodi:nodetypes="csssssssssssscssssscccsssssssssssssssssssssssssscssssscsccscscscsscsscssssssssscsssssssssssssssssssssscsssssccsscsscssssssssssssssssscssssccssssssssccssssssssscssssscsssssssssssssssscsssssssccssccsscssscsssssssssssssscssssssssssssssscsssssssssssssssssssssssssccsssssccsssssssscsscscsscssssssssssccssssccsscsssssccsssscscssscsscsssscsscscccsscssscssssssssscsssscscsccccsccscsccscssssczcs"
       inkscape:label="trace" />
    <path
       style="fill:none;stroke:#de514d;stroke-width:1.365;stroke-linecap:round;stroke-linejoin:miter;stroke-miterlimit:4;stroke-dasharray:none;stroke-opacity:1"
       d="m 109.75597,111.4002 c 3.24075,-0.46469 5.02952,1.5577 3.58142,4.62002 m 3.2421,1.1311 c -1.25876,-3.39449 0.59059,-4.92515 3.23836,-2.55562 m -1.64343,-6.67678 c -2.53844,2.13299 -0.31131,3.55777 2.08942,3.93947 m -5.42417,-5.13127 c 0.53516,3.74637 -3.57501,3.3381 -4.43424,0.86172"
       id="path25477"
       sodipodi:nodetypes="cccccccc"
       inkscape:label="anger" />
  </g>
</svg>
