<?xml version="1.0" encoding="UTF-8" standalone="no"?>
<!-- Created with Inkscape (http://www.inkscape.org/) -->

<svg
   width="77.730103mm"
   height="96.811462mm"
   viewBox="0 0 77.730103 96.811462"
   version="1.1"
   id="svg51204"
   xmlns="http://www.w3.org/2000/svg"
   xmlns:svg="http://www.w3.org/2000/svg">
  <defs
     id="defs51201" />
  <g
     id="layer1"
     transform="translate(-58.630234,-92.557214)">
    <path
       style="display:inline;fill:#756475;fill-opacity:1;stroke:none;stroke-width:0.264583px;stroke-linecap:butt;stroke-linejoin:miter;stroke-opacity:1"
       d="m 59.598378,120.70003 c 2.392613,2.91401 6.893347,4.70163 6.893347,6.05879 0,1.35716 3.764198,26.41002 3.764198,26.41002 -1.825538,1.35619 -2.366134,12.17057 -0.412046,20.50985 1.954088,8.33927 10.243396,16.67627 18.832094,14.55984 8.588698,-2.11643 12.327969,-16.26012 12.327969,-16.26012 l 8.30245,-1.75447 c 0.84181,2.40423 5.37588,8.61015 13.02736,8.52424 13.8206,-0.15517 16.53666,-25.61981 8.22029,-37.12963 -5.36715,-7.66243 -12.47157,-6.9227 -12.34749,-6.26971 0,0 -2.01274,-2.22285 -2.82415,-9.10197 -0.81141,-6.87911 -3.49464,-13.92191 -10.73692,-13.1882 -7.242284,0.73371 -28.842395,2.79877 -33.688427,3.55203 -7.83274,1.2175 -10.232859,1.99468 -11.358675,4.08933 z"
       id="path51501" />
    <path
       style="display:inline;fill:#f085ef;fill-opacity:1;stroke:none;stroke-width:0.264583px;stroke-linecap:butt;stroke-linejoin:miter;stroke-opacity:1"
       d="m 76.323155,96.786903 c -3.091728,10.409117 2.705044,36.023517 3.184678,37.391107 0.479634,1.36759 2.674199,8.13643 2.674199,8.13643 0,0 7.540818,1.72206 10.612136,4.16499 3.071318,2.44292 6.81587,11.58298 6.81587,11.58298 0,0 19.356902,-4.3527 20.404682,-5.62679 1.04779,-1.2741 -2.84478,-14.19431 -3.27835,-19.90041 -0.43357,-5.70609 -1.95656,-38.861914 -1.95656,-38.861914 0,0 -9.82443,0.03384 -17.173582,1.065458 -7.40866,1.039974 -21.283073,2.048149 -21.283073,2.048149 z"
       id="path54196" />
    <path
       style="fill:#ffffff;stroke:#000000;stroke-width:0.264583px;stroke-linecap:butt;stroke-linejoin:miter;stroke-opacity:1"
       d="m 90.84161,134.3917 c 2.22547,7.9114 8.83475,6.51764 12.71964,1.78769 -6.065172,1.58509 -10.066561,-0.0118 -12.71964,-1.78769 z m -3.062934,-15.7269 c 0.412226,11.60624 12.616534,10.83395 11.201041,-0.70907 -1.471852,-12.00265 -11.601949,-10.57852 -11.201041,0.70907 z m 14.895104,-0.98297 c 3.48082,11.25113 10.51173,7.47393 9.71888,-2.43721 -0.85961,-10.7457 -13.404069,-9.47452 -9.71888,2.43721 z"
       id="path57211" />
    <path
       style="fill:#000000;stroke-width:0.32987"
       d="m 83.73262,189.06505 c -3.673127,-0.59021 -4.688147,-1.10358 -7.542128,-3.81458 -5.327633,-5.06073 -7.169018,-9.81216 -7.670229,-19.79196 -0.311219,-6.19674 -0.23365,-10.05665 0.230348,-11.46258 0.221274,-0.67046 0.284484,-1.88451 0.156019,-2.99655 -0.479348,-4.14942 -1.220437,-8.95704 -1.813643,-11.76555 -0.840967,-3.98153 -1.332616,-7.0539 -1.54877,-9.67853 -0.257466,-3.12621 -1.043709,-4.45572 -3.341389,-5.65017 -3.438128,-1.78732 -4.311766,-3.04708 -2.977075,-4.29287 0.812101,-0.758 3.106407,-1.89048 4.714659,-2.32719 4.089044,-1.11033 6.766652,-1.66043 7.751948,-1.59258 0.635,0.0437 1.709941,-0.0389 2.388761,-0.18356 1.133177,-0.24152 1.215687,-0.33435 1.007899,-1.13401 -0.124474,-0.47902 -0.234545,-4.28511 -0.244606,-8.45797 -0.02236,-9.283584 6.6e-4,-9.356134 3.227004,-10.152309 1.170139,-0.28876 2.403055,-0.454818 2.739816,-0.369018 0.336761,0.0858 2.913139,-0.153402 5.725282,-0.531561 11.414661,-1.53497 19.725504,-2.306848 24.837924,-2.306848 3.48678,0 4.19758,0.08311 4.23188,0.494805 0.0227,0.272143 0.092,0.90302 0.15405,1.401948 0.1198,0.963313 0.41974,13.344813 0.44776,18.483353 0.0149,2.73746 0.0856,3.08742 0.66698,3.30249 0.85097,0.31479 6.00631,7.13564 7.22515,9.55933 0.52254,1.03908 1.42719,3.07677 2.01033,4.5282 0.58315,1.45143 1.35896,3.38117 1.72402,4.28831 0.36507,0.90715 0.79682,1.79037 0.95945,1.96273 0.16264,0.17236 0.2957,0.72901 0.2957,1.23701 0,0.508 0.13415,0.92364 0.29811,0.92364 0.53353,0 3.74767,5.35285 4.0446,6.73591 0.15893,0.74025 0.57214,1.93967 0.91824,2.66539 1.35668,2.8447 1.9946,7.15212 2.00953,13.56905 0.0194,8.31829 -2.80544,13.17406 -9.77813,16.80847 -2.316,1.20718 -3.36701,1.33755 -6.1352,0.76099 -3.62989,-0.75604 -9.89005,-4.70496 -11.12919,-7.02032 -0.56231,-1.05068 -0.97971,-1.06214 -4.5526,-0.12506 -3.32659,0.87248 -3.46411,1.02921 -4.50499,5.13421 -0.895901,3.53326 -1.948286,5.42974 -4.340517,7.82197 -1.987996,1.98799 -5.880358,4.01197 -8.183461,4.25529 -0.750514,0.0793 -2.552103,-0.0466 -4.003532,-0.27988 z m 6.627906,-2.38632 c 5.81884,-2.66395 8.151863,-6.63016 9.474678,-16.10724 0.320536,-2.29643 0.416496,-4.26162 0.261396,-5.35293 -0.155125,-1.0914 -0.122204,-1.76532 0.0897,-1.83595 0.19367,-0.0645 0.0501,-0.65864 -0.340616,-1.4094 -0.371463,-0.7138 -0.957369,-2.48535 -1.30201,-3.93678 -0.51913,-2.18629 -1.02271,-3.23088 -2.935709,-6.08967 -2.053765,-3.06914 -2.564417,-3.60725 -4.618182,-4.86651 -3.712157,-2.27609 -4.601923,-2.56723 -8.305658,-2.71764 -0.213829,-0.009 -0.625206,-0.25222 -0.914179,-0.54119 -0.480628,-0.48063 -0.672404,-0.47671 -2.250186,0.046 -0.948631,0.31426 -1.910334,0.62025 -2.13712,0.67999 -0.226786,0.0597 -0.412338,0.38691 -0.412338,0.72706 0,0.75265 1.052322,3.81748 1.776849,5.17498 0.290497,0.54428 0.529092,1.15946 0.53021,1.36706 0.0036,0.66827 1.89362,2.42644 2.608405,2.42644 0.544946,0 0.692329,-0.20481 0.692329,-0.96212 0,-1.1655 0.241372,-1.26285 2.511608,-1.01296 2.085435,0.22955 2.766703,0.91111 2.561827,2.56293 -0.137721,1.11037 -1.07031,2.34059 -2.244542,2.9609 -0.954044,0.50399 -2.392403,-0.13232 -2.895557,-1.28095 -0.343246,-0.78358 -0.605388,-0.95912 -1.322034,-0.88529 -0.647159,0.0667 -1.216231,-0.22034 -2.061688,-1.03979 -0.642287,-0.62253 -1.167796,-1.253 -1.167796,-1.40103 0,-0.14803 -0.498355,-1.34356 -1.107457,-2.65672 -0.609098,-1.31316 -1.247087,-2.74095 -1.417752,-3.17287 -0.289082,-0.73162 -0.347726,-0.74788 -0.857748,-0.23786 -0.301099,0.3011 -0.46169,0.77095 -0.356864,1.04412 0.104823,0.27316 -0.266145,1.42442 -0.824371,2.55833 -1.282753,2.60565 -1.929121,5.05042 -2.539413,9.60494 -1.029043,7.67957 -0.188851,13.75773 2.675949,19.35847 0.555538,1.08608 3.838996,4.63226 5.371091,5.80085 1.490581,1.13692 4.579785,1.99487 7.345924,2.04014 1.721239,0.0282 2.596454,-0.15177 4.111274,-0.84528 z m 33.451314,-9.4672 c 0.45357,-0.24645 1.62175,-0.8696 2.59596,-1.38475 1.61501,-0.85402 6.18033,-5.34404 7.10244,-6.9853 1.61205,-2.86928 1.00325,-15.63699 -0.99937,-20.95908 -2.06769,-5.49499 -4.76646,-9.08894 -7.37955,-9.82734 -0.81643,-0.2307 -1.70708,-0.59207 -1.97922,-0.80303 -0.88622,-0.68699 -2.54727,-1.205 -3.51065,-1.09483 -0.90295,0.10327 -0.93856,0.17249 -0.84663,1.64597 0.10027,1.60708 2.04243,11.18597 2.65191,13.07943 0.31831,0.98889 0.26367,1.18513 -0.57402,2.06168 -0.56733,0.59367 -1.26322,0.96877 -1.79723,0.96877 -0.47929,0 -0.87143,0.13013 -0.87143,0.28917 0,0.15904 1.84708,1.20062 4.10464,2.31462 2.25754,1.114 4.52128,2.36606 5.03052,2.78236 0.50923,0.4163 1.66809,1.1757 2.57523,1.68755 2.07247,1.16938 3.46364,2.44778 3.46364,3.18291 0,0.5838 -2.73577,2.60833 -3.52467,2.60833 -0.2435,0 -0.70049,0.13628 -1.01553,0.30284 -0.72707,0.38442 -4.96262,1.25194 -7.33513,1.50239 -0.99786,0.10534 -2.55649,0.33026 -3.46364,0.49983 -5.5434,1.03621 -7.46751,1.46002 -7.59972,1.67395 -0.22403,0.36248 2.60343,3.38547 3.68607,3.94099 0.51965,0.26664 1.6861,0.91205 2.59211,1.43423 2.38644,1.37546 5.63867,1.87024 7.09427,1.07931 z m -16.82338,-7.37026 c 0.99786,-0.35129 5.45111,-1.34567 9.89611,-2.20972 8.33989,-1.62117 10.69889,-2.18286 12.7275,-3.03047 0.97218,-0.4062 1.11166,-0.57793 0.78706,-0.96904 -0.21698,-0.26145 -0.50629,-0.40627 -0.64292,-0.32183 -0.13662,0.0844 -0.5204,-0.14703 -0.85284,-0.51437 -0.67466,-0.74549 -3.11921,-2.26219 -6.54029,-4.05785 -1.25039,-0.65631 -2.43793,-1.3156 -2.63896,-1.46509 -0.20104,-0.14949 -1.28764,-0.67552 -2.41466,-1.16895 -1.97553,-0.86492 -2.11179,-0.88046 -3.79351,-0.43259 -2.2161,0.59019 -6.06601,1.47595 -7.35216,1.69153 -0.95072,0.15936 -2.45884,0.50473 -4.66536,1.06842 l -1.03679,0.26486 0.62993,2.47181 c 0.34647,1.35949 0.68591,3.21501 0.75432,4.12338 0.0684,0.90836 0.23153,2.47 0.36249,3.47031 l 0.2381,1.81874 1.36385,-0.0502 c 0.75012,-0.0276 2.18028,-0.33763 3.17813,-0.68892 z m -2.81863,-14.31664 c 1.26189,-0.33961 3.26585,-0.71194 4.45324,-0.82741 1.1874,-0.11547 2.80519,-0.49832 3.59509,-0.85077 0.78991,-0.35245 2.27432,-0.77856 3.2987,-0.94691 3.48715,-0.57309 3.84739,-0.74578 3.79224,-1.8179 -0.0272,-0.52915 -0.35057,-2.29807 -0.71855,-3.93092 -0.94797,-4.20646 -2.09078,-10.24899 -2.20598,-11.66392 -0.26053,-3.20003 -0.83749,-8.87816 -0.97676,-9.61271 -0.34156,-1.80142 -0.97827,-13.10412 -1.32866,-23.58571 -0.10917,-3.265712 -0.27154,-6.420095 -0.36083,-7.009738 -0.1573,-1.038723 -0.2118,-1.072078 -1.75173,-1.072078 -0.87416,0 -2.38315,0.150536 -3.35331,0.334523 -1.56147,0.296127 -5.74702,0.762906 -10.696244,1.192861 -2.087392,0.181339 -5.688667,0.648874 -8.246754,1.070634 -2.925492,0.482335 -4.615625,0.667076 -7.916883,0.865359 -4.484515,0.269352 -5.084532,0.412184 -5.258318,1.251721 -0.315923,1.526168 -0.398377,6.344528 -0.155484,9.085918 0.623339,7.03527 1.325131,13.52089 1.594193,14.73275 1.071817,4.82749 1.970859,9.05018 2.106953,9.8961 0.350359,2.17772 1.738584,6.58934 2.551417,8.10814 0.423128,0.79062 3.016111,2.11387 4.767211,2.4328 1.440166,0.26231 5.663537,2.8195 7.298175,4.41895 1.327167,1.2986 4.713937,6.74416 4.960195,7.97546 0.216088,1.08044 0.368112,1.07886 4.552089,-0.0471 z m -8.765474,-14.79045 c -1.760979,-0.36892 -3.897251,-2.06835 -4.749243,-3.77807 -0.93024,-1.86675 -0.988763,-2.41992 -0.345737,-3.26807 0.431856,-0.56961 0.543883,-0.55204 2.381069,0.37348 3.328432,1.67677 6.234915,1.98664 10.916855,1.16391 3.54774,-0.62343 -2.3644,4.62432 -6.114395,5.42727 -0.673872,0.14429 -1.613718,0.18095 -2.088549,0.0815 z m 2.935214,-1.99083 c 0.776679,-0.35252 1.70481,-0.84593 2.06251,-1.09647 0.57978,-0.40609 0.43872,-0.44503 -1.299537,-0.35871 -2.073818,0.10297 -3.1236,-0.14447 -5.87696,-1.38524 l -1.722621,-0.77628 0.511592,1.07282 c 0.578589,1.21331 3.221416,3.20302 4.239847,3.19206 0.370164,-0.004 1.308489,-0.29567 2.085169,-0.64818 z m -6.39889,-11.24774 c -1.303001,-0.37788 -3.597178,-2.84842 -4.413481,-4.75278 -0.45246,-1.05555 -0.650224,-2.40528 -0.711445,-4.85559 -0.10215,-4.08855 0.444758,-5.60727 2.796079,-7.76444 1.473025,-1.3514 1.606101,-1.40195 3.690768,-1.40195 1.954883,0 2.253099,0.0925 3.104217,0.96321 3.087122,3.15808 4.226992,6.53753 3.629102,10.75942 -0.390596,2.75811 -1.367067,4.79178 -3.016121,6.2816 -1.028796,0.92946 -1.495654,1.12299 -2.649817,1.09848 -0.77055,-0.0164 -1.863733,-0.16394 -2.429302,-0.32795 z m 4.216093,-2.33909 c 1.582436,-1.694 2.004245,-2.84468 2.181335,-5.95057 0.156784,-2.74977 0.112202,-3.00392 -0.880816,-5.02102 -1.923146,-3.90646 -4.375559,-4.90727 -6.802773,-2.77615 -1.788991,1.57075 -2.138782,2.50726 -2.138782,5.72624 0,3.67455 0.462445,5.421 1.871241,7.06686 1.862404,2.1758 4.258699,2.57228 5.769795,0.95464 z m -2.896075,-4.14454 c -0.725807,-0.49476 -1.77613,-3.05309 -1.77613,-4.32622 0,-0.97678 0.236692,-1.55112 0.957023,-2.32223 1.445962,-1.54791 2.703012,-1.29427 4.001981,0.8075 1.365665,2.2097 0.249909,5.81661 -1.857852,6.00589 -0.526347,0.0473 -1.122607,-0.0269 -1.325022,-0.16494 z m 12.447312,3.8905 c -2.74057,-1.76196 -4.0651,-4.41767 -4.49584,-9.01424 -0.33377,-3.56183 0.0266,-5.61075 1.27404,-7.24484 1.30223,-1.70579 2.20878,-1.9493 4.95958,-1.33222 1.91344,0.42923 2.35371,0.67925 3.51061,1.99355 2.33035,2.64741 2.98372,6.65004 1.77614,10.88079 -0.74636,2.61486 -1.61655,4.0735 -2.95087,4.94637 -1.4646,0.95808 -2.29978,0.91105 -4.07366,-0.22941 z m 3.47147,-1.59221 c 1.3762,-1.11004 2.42717,-4.40676 2.42717,-7.61362 0,-3.42974 -2.61562,-6.58514 -5.55408,-6.70028 -1.21197,-0.0475 -1.53149,0.0958 -2.39058,1.07185 l -0.99162,1.12665 0.17176,3.29871 c 0.24452,4.69618 1.15874,7.07913 3.32166,8.658 1.19547,0.87267 2.07325,0.91885 3.01569,0.15869 z m -1.78376,-4.4463 c -0.92753,-0.29739 -1.14836,-0.5903 -1.58972,-2.10854 -0.75696,-2.60383 -0.0466,-4.08605 1.94823,-4.06516 1.01803,0.0106 2.8197,1.13169 2.43579,1.5156 -0.10483,0.10484 -0.0498,0.56091 0.12227,1.01351 0.41316,1.08671 -0.17864,3.27998 -1.00425,3.72183 -0.34477,0.18452 -0.67372,0.32033 -0.73101,0.30181 -0.0573,-0.0185 -0.58887,-0.1891 -1.18131,-0.37905 z m -4.78148,-14.29744 c -0.40676,-0.40676 0.81734,-1.7592 2.19661,-2.42688 1.35189,-0.65445 3.82797,-0.93178 3.82599,-0.42854 -6.6e-4,0.13607 -1.22518,0.83929 -2.72143,1.5627 -1.49625,0.72342 -2.80395,1.35739 -2.906,1.40882 -0.10206,0.0514 -0.27988,-6.6e-4 -0.39517,-0.1161 z m -9.150451,-0.69663 c -1.179286,-0.2688 -2.478149,-0.55189 -2.886364,-0.62907 -0.408214,-0.0772 -0.742208,-0.34408 -0.742208,-0.5931 0,-1.28434 5.756396,-0.68086 7.040544,0.73811 1.041958,1.15135 0.101095,1.28483 -3.411972,0.48406 z m -19.390294,36.26923 c -0.511071,-5.38051 0.08207,-12.88888 1.268746,-16.06056 0.660202,-1.76455 0.683461,-2.99988 0.108313,-5.75292 -0.156527,-0.74924 -0.244625,-0.77389 -1.878742,-0.52555 -0.942984,0.14331 -2.456725,0.29028 -3.363867,0.32661 -0.907143,0.0363 -2.476458,0.24074 -3.487364,0.45427 -1.010907,0.21352 -2.257859,0.46436 -2.771005,0.55741 -0.51315,0.0931 -1.30714,0.36522 -1.764423,0.60481 -0.823326,0.43139 -0.809834,0.44594 1.384551,1.49322 1.567817,0.74825 2.50479,1.45628 3.203375,2.42065 0.909175,1.25508 0.982291,1.56022 0.922944,3.85173 -0.0451,1.74136 0.203853,3.6278 0.829049,6.28218 0.939579,3.98912 2.53337,9.72273 3.156788,11.35645 l 0.368445,0.96553 1.179923,-1.21478 1.179922,-1.21479 z m 5.370813,1.98186 c 0.544286,-0.27337 1.032339,-0.53326 1.084564,-0.57752 0.05222,-0.0443 -0.344226,-1.40239 -0.881001,-3.01805 -0.536774,-1.61565 -1.300836,-4.56649 -1.697907,-6.55742 -0.397075,-1.99093 -0.835307,-4.18242 -0.97385,-4.86997 -0.138545,-0.68755 -0.321075,-1.31927 -0.405628,-1.40382 -0.08455,-0.0845 -0.326066,1.24864 -0.536705,2.96264 -0.488498,3.97499 -0.493796,10.99929 -0.0098,12.92162 0.361673,1.43633 0.405097,1.47539 1.401948,1.26089 0.565793,-0.12174 1.474041,-0.44501 2.018327,-0.71837 z m 45.846752,-9.95642 c -2.44194,-6.03768 -3.32488,-7.54786 -7.9207,-13.54762 l -0.88438,-1.15454 0.21778,3.13376 c 0.18652,2.6838 0.54933,5.99941 1.36042,12.43228 l 0.1742,1.38162 2.11963,-0.12276 c 1.88372,-0.10909 2.34991,-0.002 4.18868,0.95845 1.13798,0.59466 2.10976,0.98225 2.15951,0.86131 0.0498,-0.12095 -0.58706,-1.89507 -1.41514,-3.9425 z"
       id="path51448" />
  </g>
</svg>
