<?xml version="1.0" encoding="UTF-8" standalone="no"?>
<!-- Created with Inkscape (http://www.inkscape.org/) -->

<svg
   width="77.730103mm"
   height="96.811455mm"
   viewBox="0 0 77.730103 96.811455"
   version="1.1"
   id="svg59504"
   xmlns="http://www.w3.org/2000/svg"
   xmlns:svg="http://www.w3.org/2000/svg">
  <defs
     id="defs59501" />
  <g
     id="layer1"
     transform="translate(-70.359137,-97.205198)">
    <path
       style="fill:#756475;fill-opacity:1;stroke:none;stroke-width:0.264583px;stroke-linecap:butt;stroke-linejoin:miter;stroke-opacity:1"
       d="m 71.498983,125.09009 c 4.378118,4.45517 6.178215,2.24778 6.937171,7.64275 1.048271,7.45153 3.69017,24.52669 3.69017,24.52669 -1.886414,9.10161 -1.717696,28.40891 8.703501,34.2033 9.405595,5.22969 18.225845,-0.63516 21.953075,-14.59888 l 8.11152,-1.53764 c 3.50731,4.26123 15.81921,13.46934 23.16422,2.00775 10.63026,-16.58808 -5.35634,-43.05078 -14.32718,-37.16931 -3.81055,-12.66643 -3.74975,-22.5871 -8.90584,-22.56379 -5.15609,0.0233 -36.322331,2.63802 -40.263149,3.69279 -3.940815,1.05477 -9.063488,3.79634 -9.063488,3.79634 z"
       id="path59738" />
    <path
       style="fill:#f085ef;fill-opacity:1;stroke:none;stroke-width:0.264583px;stroke-linecap:butt;stroke-linejoin:miter;stroke-opacity:1"
       d="m 88.023871,101.97467 c -1.807181,13.20336 1.895094,37.8619 5.55861,44.71957 10.462049,1.69737 15.425409,8.12538 18.050839,15.10114 12.31434,-1.02271 17.50886,-3.10404 21.03335,-4.99741 -1.69626,-8.28189 -3.85232,-17.0058 -4.46724,-20.65965 -1.31214,-7.79664 -0.67737,-33.79282 -1.90195,-36.739496 -0.64482,-1.55161 -6.6128,-1.11458 -14.84608,-0.09298 -4.04194,0.501531 -23.427529,2.668826 -23.427529,2.668826 z"
       id="path65325" />
    <path
       style="fill:#ffffff;stroke:none;stroke-width:0.264583px;stroke-linecap:butt;stroke-linejoin:miter;stroke-opacity:1"
       d="m 99.817055,123.72603 c 1.044835,11.02213 12.245265,9.93282 10.960875,-1.28405 -1.33664,-11.67317 -12.108712,-10.82466 -10.960875,1.28405 z m 14.421615,-0.28478 c 3.25781,10.38065 11.77029,6.74586 9.71885,-3.678 -2.05614,-10.44773 -13.61454,-8.73517 -9.71885,3.678 z"
       id="path69091" />
    <path
       style="fill:#000000;stroke-width:0.32987"
       d="m 95.461522,193.71304 c -3.673127,-0.59022 -4.688147,-1.10358 -7.542128,-3.81459 -5.327633,-5.06073 -7.169017,-9.81216 -7.670229,-19.79196 -0.311219,-6.19673 -0.23365,-10.05665 0.230349,-11.46258 0.221273,-0.67046 0.284483,-1.88451 0.156018,-2.99655 -0.479347,-4.14941 -1.220437,-8.95703 -1.813642,-11.76554 -0.840968,-3.98153 -1.332616,-7.05391 -1.54877,-9.67853 -0.257467,-3.12621 -1.043709,-4.45573 -3.34139,-5.65018 -3.438127,-1.78732 -4.311765,-3.04708 -2.977074,-4.29286 0.8121,-0.758 3.106406,-1.89049 4.714659,-2.32719 4.089043,-1.11033 6.766652,-1.66043 7.751947,-1.59259 0.635,0.0437 1.709941,-0.0389 2.388761,-0.18356 1.133177,-0.24151 1.215687,-0.33435 1.007899,-1.134 -0.124473,-0.47903 -0.234545,-4.28512 -0.244606,-8.45797 -0.02237,-9.28359 6.6e-4,-9.35614 3.227004,-10.15231 1.170139,-0.28876 2.403055,-0.454822 2.739816,-0.36902 0.336761,0.0858 2.913139,-0.153404 5.725282,-0.531563 11.414662,-1.53497 19.725502,-2.306849 24.837922,-2.306849 3.48678,0 4.19758,0.08311 4.23188,0.494806 0.0227,0.272142 0.092,0.903019 0.15405,1.401948 0.1198,0.963308 0.41974,13.344808 0.44776,18.483358 0.0149,2.73746 0.0856,3.08742 0.66698,3.30248 0.85097,0.31479 6.00631,7.13565 7.22515,9.55933 0.52254,1.03908 1.42719,3.07678 2.01033,4.52821 0.58315,1.45142 1.35896,3.38116 1.72402,4.28831 0.36507,0.90714 0.79682,1.79037 0.95945,1.96272 0.16264,0.17236 0.2957,0.72902 0.2957,1.23702 0,0.508 0.13415,0.92363 0.29811,0.92363 0.53353,0 3.74767,5.35285 4.0446,6.73591 0.15893,0.74025 0.57214,1.93968 0.91824,2.66539 1.35668,2.8447 1.9946,7.15213 2.00953,13.56906 0.0194,8.31828 -2.80544,13.17405 -9.77813,16.80847 -2.316,1.20718 -3.36701,1.33754 -6.1352,0.76098 -3.62989,-0.75603 -9.89005,-4.70496 -11.12919,-7.02031 -0.56231,-1.05068 -0.97971,-1.06215 -4.5526,-0.12507 -3.32659,0.87249 -3.46411,1.02922 -4.50499,5.13422 -0.8959,3.53325 -1.94828,5.42973 -4.34052,7.82196 -1.98799,1.988 -5.88035,4.01198 -8.183457,4.25529 -0.750514,0.0793 -2.552103,-0.0466 -4.003531,-0.27987 z m 6.627908,-2.38632 c 5.81884,-2.66396 8.15186,-6.63017 9.47468,-16.10724 0.32053,-2.29643 0.4165,-4.26163 0.26139,-5.35293 -0.15512,-1.09141 -0.1222,-1.76533 0.0897,-1.83595 0.19366,-0.0646 0.0501,-0.65865 -0.34062,-1.40941 -0.37147,-0.7138 -0.95737,-2.48535 -1.30202,-3.93678 -0.51913,-2.18628 -1.0227,-3.23087 -2.9357,-6.08966 -2.05377,-3.06915 -2.56442,-3.60726 -4.61819,-4.86652 -3.712153,-2.27609 -4.601918,-2.56722 -8.305654,-2.71764 -0.213828,-0.009 -0.625206,-0.25222 -0.914179,-0.54119 -0.480627,-0.48062 -0.672404,-0.4767 -2.250185,0.046 -0.948631,0.31425 -1.910334,0.62025 -2.13712,0.67998 -0.226786,0.0597 -0.412338,0.38691 -0.412338,0.72706 0,0.75265 1.052322,3.81749 1.776849,5.17498 0.290497,0.54429 0.529092,1.15947 0.53021,1.36706 0.0036,0.66827 1.893619,2.42645 2.608405,2.42645 0.544946,0 0.692328,-0.20482 0.692328,-0.96212 0,-1.1655 0.241373,-1.26285 2.511608,-1.01297 2.085436,0.22955 2.766703,0.91111 2.561828,2.56294 -0.137721,1.11036 -1.07031,2.34059 -2.244542,2.96089 -0.954044,0.50399 -2.392403,-0.13232 -2.895557,-1.28094 -0.343247,-0.78358 -0.605388,-0.95912 -1.322034,-0.8853 -0.647159,0.0667 -1.216231,-0.22034 -2.061688,-1.03979 -0.642287,-0.62253 -1.167796,-1.25299 -1.167796,-1.40102 0,-0.14804 -0.498355,-1.34356 -1.107457,-2.65673 -0.609098,-1.31316 -1.247087,-2.74095 -1.417752,-3.17287 -0.289082,-0.73161 -0.347726,-0.74788 -0.857748,-0.23785 -0.301099,0.3011 -0.46169,0.77095 -0.356863,1.04411 0.104822,0.27317 -0.266146,1.42442 -0.824372,2.55834 -1.282753,2.60564 -1.92912,5.05042 -2.539413,9.60493 -1.029043,7.67958 -0.188851,13.75774 2.675949,19.35848 0.555538,1.08608 3.838996,4.63226 5.371091,5.80084 1.490581,1.13692 4.579784,1.99487 7.345924,2.04015 1.721239,0.0282 2.596456,-0.15178 4.111276,-0.84528 z m 33.45131,-9.4672 c 0.45357,-0.24646 1.62175,-0.8696 2.59596,-1.38476 1.615,-0.85401 6.18033,-5.34404 7.10244,-6.9853 1.61205,-2.86927 1.00325,-15.63699 -0.99937,-20.95908 -2.06769,-5.49499 -4.76646,-9.08894 -7.37955,-9.82734 -0.81643,-0.2307 -1.70708,-0.59206 -1.97922,-0.80303 -0.88623,-0.68699 -2.54727,-1.205 -3.51065,-1.09482 -0.90295,0.10327 -0.93856,0.17249 -0.84663,1.64597 0.10027,1.60707 2.04243,11.18597 2.65191,13.07942 0.31831,0.9889 0.26367,1.18513 -0.57402,2.06169 -0.56733,0.59366 -1.26322,0.96877 -1.79723,0.96877 -0.47929,0 -0.87143,0.13012 -0.87143,0.28917 0,0.15904 1.84708,1.20061 4.10464,2.31461 2.25754,1.114 4.52128,2.36606 5.03051,2.78236 0.50924,0.41631 1.6681,1.1757 2.57524,1.68755 2.07247,1.16938 3.46363,2.44779 3.46363,3.18291 0,0.5838 -2.73576,2.60833 -3.52466,2.60833 -0.2435,0 -0.70049,0.13628 -1.01553,0.30285 -0.72707,0.38441 -4.96262,1.25194 -7.33513,1.50239 -0.99786,0.10533 -2.55649,0.33025 -3.46364,0.49982 -5.5434,1.03621 -7.46751,1.46003 -7.59972,1.67395 -0.22403,0.36248 2.60343,3.38547 3.68607,3.941 0.51965,0.26664 1.6861,0.91204 2.59211,1.43423 2.38644,1.37545 5.63867,1.87024 7.09427,1.07931 z m -16.82338,-7.37027 c 0.99786,-0.35129 5.45111,-1.34566 9.89611,-2.20972 8.33989,-1.62117 10.69889,-2.18286 12.7275,-3.03046 0.97218,-0.40621 1.11166,-0.57793 0.78706,-0.96905 -0.21698,-0.26144 -0.50629,-0.40627 -0.64292,-0.32183 -0.13662,0.0844 -0.5204,-0.14703 -0.85284,-0.51437 -0.67466,-0.74549 -3.11921,-2.26219 -6.54029,-4.05785 -1.25039,-0.65631 -2.43793,-1.3156 -2.63896,-1.46509 -0.20104,-0.14949 -1.28764,-0.67551 -2.41466,-1.16894 -1.97553,-0.86492 -2.11179,-0.88046 -3.79351,-0.43259 -2.2161,0.59019 -6.06601,1.47595 -7.35216,1.69153 -0.95072,0.15935 -2.45884,0.50473 -4.66536,1.06841 l -1.03679,0.26486 0.62993,2.47181 c 0.34647,1.3595 0.68591,3.21502 0.75432,4.12338 0.0684,0.90836 0.23153,2.47 0.36249,3.47031 l 0.2381,1.81874 1.36385,-0.0502 c 0.75012,-0.0276 2.18028,-0.33763 3.17813,-0.68893 z m -2.81863,-14.31664 c 1.26189,-0.33961 3.26585,-0.71194 4.45324,-0.82741 1.1874,-0.11547 2.80519,-0.49831 3.59509,-0.85077 0.78991,-0.35245 2.27432,-0.77856 3.2987,-0.94691 3.48715,-0.57308 3.84739,-0.74577 3.79224,-1.81789 -0.0272,-0.52916 -0.35057,-2.29807 -0.71855,-3.93093 -0.94797,-4.20646 -2.09078,-10.24898 -2.20598,-11.66392 -0.26053,-3.20003 -0.83749,-8.87816 -0.97676,-9.6127 -0.34155,-1.80142 -0.97827,-13.10413 -1.32865,-23.58571 -0.10918,-3.26572 -0.27155,-6.4201 -0.36084,-7.009743 -0.1573,-1.038723 -0.2118,-1.072078 -1.75173,-1.072078 -0.87415,0 -2.38315,0.150535 -3.35331,0.334523 -1.56147,0.296127 -5.74702,0.762905 -10.69624,1.192858 -2.0874,0.18134 -5.68867,0.64888 -8.24676,1.07064 -2.925489,0.48233 -4.615621,0.66707 -7.916879,0.86536 -4.484515,0.26935 -5.084532,0.41218 -5.258318,1.25172 -0.315923,1.52617 -0.398377,6.34453 -0.155484,9.08592 0.623339,7.03526 1.325131,13.52088 1.594193,14.73274 1.071817,4.8275 1.970858,9.05019 2.106953,9.89611 0.350358,2.17771 1.738584,6.58934 2.551417,8.10813 0.423127,0.79062 3.016111,2.11387 4.76721,2.43281 1.440168,0.2623 5.663538,2.8195 7.298178,4.41895 1.32716,1.2986 4.71393,6.74415 4.96019,7.97545 0.21609,1.08044 0.36811,1.07887 4.55209,-0.0472 z m -4.43851,-19.06537 c 0,-0.58947 1.99975,-1.96883 3.87083,-2.66997 2.62177,-0.98243 4.26027,-1.13958 5.23345,-0.50192 1.209,0.79216 0.95352,1.16335 -0.80073,1.16335 -1.03998,0 -2.61296,0.4006 -4.53344,1.15455 -3.05576,1.19964 -3.77011,1.36145 -3.77011,0.85399 z m -7.79064,-8.96365 c -1.303,-0.37787 -3.59718,-2.84842 -4.41348,-4.75278 -0.45246,-1.05554 -0.650223,-2.40527 -0.711444,-4.85559 -0.102151,-4.08855 0.444757,-5.60727 2.796074,-7.76444 1.47303,-1.3514 1.60611,-1.40195 3.69077,-1.40195 1.95489,0 2.2531,0.0925 3.10422,0.96322 3.08712,3.15808 4.22699,6.53753 3.6291,10.75941 -0.39059,2.75811 -1.36707,4.79179 -3.01612,6.28161 -1.0288,0.92945 -1.49565,1.12299 -2.64982,1.09848 -0.77055,-0.0164 -1.86373,-0.16394 -2.4293,-0.32796 z m 4.21609,-2.33908 c 1.58244,-1.69401 2.00425,-2.84468 2.18134,-5.95058 0.15678,-2.74976 0.1122,-3.00391 -0.88082,-5.02102 -1.92314,-3.90646 -4.37556,-4.90727 -6.80277,-2.77615 -1.78899,1.57076 -2.13878,2.50726 -2.13878,5.72624 0,3.67455 0.46244,5.421 1.87124,7.06686 1.8624,2.1758 4.2587,2.57228 5.76979,0.95465 z m -2.89607,-4.14454 c -0.72581,-0.49477 -1.77613,-3.0531 -1.77613,-4.32623 0,-0.97678 0.23669,-1.55111 0.95702,-2.32223 1.44596,-1.54791 2.70301,-1.29426 4.00198,0.80751 1.36567,2.2097 0.24991,5.8166 -1.85785,6.00588 -0.52635,0.0473 -1.12261,-0.0269 -1.32502,-0.16493 z m 12.44731,3.89049 c -2.74057,-1.76195 -4.0651,-4.41767 -4.49584,-9.01423 -0.33377,-3.56184 0.0266,-5.61076 1.27404,-7.24485 1.30223,-1.70578 2.20878,-1.9493 4.95958,-1.33222 1.91344,0.42923 2.35371,0.67925 3.51061,1.99355 2.33035,2.64742 2.98372,6.65004 1.77614,10.88079 -0.74636,2.61487 -1.61655,4.07351 -2.95087,4.94637 -1.4646,0.95808 -2.29978,0.91105 -4.07366,-0.22941 z m 3.47147,-1.59221 c 1.3762,-1.11004 2.42717,-4.40675 2.42717,-7.61361 0,-3.42974 -2.61562,-6.58514 -5.55408,-6.70028 -1.21197,-0.0475 -1.53149,0.0958 -2.39057,1.07184 l -0.99163,1.12666 0.17176,3.2987 c 0.24452,4.69618 1.15874,7.07914 3.32166,8.65801 1.19547,0.87266 2.07325,0.91885 3.01569,0.15868 z m -1.78376,-4.4463 c -0.92753,-0.29739 -1.14836,-0.5903 -1.58972,-2.10854 -0.75696,-2.60383 -0.0466,-4.08604 1.94824,-4.06516 1.01802,0.0106 2.81969,1.1317 2.43578,1.51561 -0.10483,0.10483 -0.0498,0.56091 0.12227,1.01351 0.41316,1.0867 -0.17864,3.27997 -1.00425,3.72183 -0.34477,0.18451 -0.67372,0.32032 -0.73101,0.3018 -0.0573,-0.0185 -0.58887,-0.18909 -1.18131,-0.37905 z m -16.9029,-12.76042 c -1.29974,-0.39536 -2.966692,-1.3281 -2.966692,-1.66001 0,-0.60327 0.615115,-0.65253 2.188272,-0.17527 0.88288,0.26785 2.64433,0.49088 3.91433,0.49562 2.19263,0.008 3.53014,0.37184 3.06787,0.83411 -0.67755,0.67755 -4.59015,0.9964 -6.20378,0.50555 z m 12.10607,-3.53158 c -0.4421,-0.4421 0.91138,-2.03946 2.29953,-2.71388 2.32027,-1.12727 3.68366,-0.95635 5.32365,0.6674 0.76151,0.75399 1.38458,1.49619 1.38458,1.64936 0,0.51854 -0.85637,0.28221 -1.97922,-0.5462 -0.61479,-0.45357 -1.54165,-0.82468 -2.05969,-0.82468 -1.06812,0 -2.92172,0.85447 -3.31709,1.52911 -0.27257,0.46507 -1.27989,0.61076 -1.65176,0.23889 z m -28.525393,37.56716 c -0.511071,-5.3805 0.08207,-12.88888 1.268746,-16.06055 0.660202,-1.76455 0.683461,-2.99988 0.108313,-5.75292 -0.156527,-0.74925 -0.244625,-0.77389 -1.878742,-0.52555 -0.942983,0.1433 -2.456724,0.29028 -3.363867,0.3266 -0.907143,0.0363 -2.476457,0.24075 -3.487364,0.45427 -1.010907,0.21353 -2.257859,0.46437 -2.771005,0.55742 -0.513149,0.0931 -1.30714,0.36521 -1.764422,0.60481 -0.823326,0.43138 -0.809835,0.44593 1.384551,1.49322 1.567816,0.74825 2.504789,1.45628 3.203375,2.42065 0.909175,1.25507 0.98229,1.56021 0.922943,3.85173 -0.0451,1.74135 0.203854,3.6278 0.82905,6.28217 0.939579,3.98912 2.533369,9.72274 3.156788,11.35645 l 0.368445,0.96554 1.179922,-1.21479 1.179922,-1.21479 z m 5.370813,1.98186 c 0.544286,-0.27337 1.032339,-0.53325 1.084564,-0.57752 0.05223,-0.0443 -0.344226,-1.40239 -0.881001,-3.01804 -0.536775,-1.61566 -1.300836,-4.56649 -1.697908,-6.55743 -0.397074,-1.99093 -0.835307,-4.18242 -0.973849,-4.86996 -0.138545,-0.68755 -0.321075,-1.31927 -0.405628,-1.40382 -0.08455,-0.0845 -0.326066,1.24863 -0.536705,2.96263 -0.488498,3.975 -0.493796,10.99929 -0.0098,12.92163 0.361673,1.43633 0.405097,1.47538 1.401948,1.26089 0.565793,-0.12175 1.474041,-0.44502 2.018327,-0.71838 z m 45.84675,-9.95642 c -2.44194,-6.03767 -3.32488,-7.54786 -7.9207,-13.54761 l -0.88438,-1.15455 0.21778,3.13377 c 0.18652,2.68379 0.54933,5.9994 1.36042,12.43227 l 0.1742,1.38163 2.11963,-0.12276 c 1.88372,-0.1091 2.34991,-0.002 4.18868,0.95845 1.13798,0.59466 2.10976,0.98225 2.15951,0.8613 0.0497,-0.12094 -0.58706,-1.89507 -1.41514,-3.9425 z"
       id="path59685" />
  </g>
</svg>
