<?xml version="1.0" encoding="UTF-8" standalone="no"?>
<!-- Created with Inkscape (http://www.inkscape.org/) -->

<svg
   width="77.730103mm"
   height="96.811455mm"
   viewBox="0 0 77.730103 96.811455"
   version="1.1"
   id="svg70277"
   xmlns="http://www.w3.org/2000/svg"
   xmlns:svg="http://www.w3.org/2000/svg">
  <defs
     id="defs70274" />
  <g
     id="layer1"
     transform="translate(-67.282259,-95.245478)">
    <path
       style="fill:#756475;fill-opacity:1;stroke:none;stroke-width:0.264583px;stroke-linecap:butt;stroke-linejoin:miter;stroke-opacity:1"
       d="m 68.135735,123.82325 c 5.26593,1.26251 6.413937,5.56153 7.230975,9.30672 1.26878,5.8159 1.398669,13.2583 3.691567,19.96004 -2.162562,13.66015 -2.109586,32.20728 10.996308,37.29807 13.390305,5.20127 18.567365,-9.57023 19.363565,-14.88891 5.49867,-1.50382 6.84907,-2.43388 8.42927,-2.27844 8.93856,13.27865 22.50382,8.18199 25.87776,-2.78958 3.36144,-10.93091 -2.34157,-33.72815 -17.1884,-31.94024 -4.48988,-21.65231 -14.27368,-25.90339 -21.66742,-22.92406 -11.813075,4.76012 -26.324567,1.38489 -36.733625,8.2564 z"
       id="path70497" />
    <path
       style="fill:#f085ef;fill-opacity:1;stroke:none;stroke-width:0.264583px;stroke-linecap:butt;stroke-linejoin:miter;stroke-opacity:1"
       d="m 84.494642,100.11077 c -1.652542,22.73431 5.556827,42.36078 6.565152,45.14532 14.541666,3.15343 15.648846,12.1873 17.229146,15.44235 5.94344,-2.53685 16.25502,-2.38676 21.31619,-6.15323 -0.78041,-4.41102 -2.47762,-8.15035 -3.91101,-22.73162 -1.25797,-12.79684 -1.86426,-34.839063 -3.30894,-35.370952 -0.68854,-0.253501 -10.75748,0.221136 -21.40037,1.451372 -9.446141,1.091901 -16.490168,2.21676 -16.490168,2.21676 z"
       id="path73872" />
    <path
       style="fill:#ffffff;stroke:none;stroke-width:0.264583px;stroke-linecap:butt;stroke-linejoin:miter;stroke-opacity:1"
       d="m 96.352883,122.52965 c 1.128936,11.07885 12.941737,8.4353 11.528717,-2.2915 -1.47193,-11.174 -12.880319,-10.9725 -11.528717,2.2915 z m 14.756497,-2.66699 c 1.18544,10.04397 10.97533,9.96283 9.93044,-2.13451 -0.67767,-7.84571 -11.61639,-12.15009 -9.93044,2.13451 z"
       id="path76418" />
    <path
       style="fill:#000000;stroke-width:0.32987"
       d="m 92.384644,191.75332 c -3.673127,-0.59022 -4.688147,-1.10359 -7.542127,-3.81459 -5.327634,-5.06073 -7.169018,-9.81216 -7.67023,-19.79196 -0.311219,-6.19673 -0.23365,-10.05665 0.230349,-11.46258 0.221273,-0.67046 0.284483,-1.88451 0.156018,-2.99655 -0.479347,-4.14941 -1.220437,-8.95703 -1.813642,-11.76554 -0.840968,-3.98153 -1.332616,-7.05391 -1.54877,-9.67853 -0.257467,-3.12622 -1.043709,-4.45573 -3.34139,-5.65018 -3.438127,-1.78732 -4.311765,-3.04708 -2.977074,-4.29286 0.8121,-0.75801 3.106406,-1.89049 4.714659,-2.32719 4.089043,-1.11033 6.766652,-1.66043 7.751948,-1.59259 0.635,0.0437 1.709941,-0.0389 2.388761,-0.18356 1.133176,-0.24151 1.215687,-0.33435 1.007898,-1.134 -0.124473,-0.47903 -0.234544,-4.28512 -0.244605,-8.45797 -0.02236,-9.28359 6.6e-4,-9.35614 3.227004,-10.152315 1.170138,-0.28876 2.403054,-0.454818 2.739816,-0.369018 0.336761,0.0858 2.913139,-0.153402 5.725282,-0.531561 11.414659,-1.53497 19.725509,-2.306848 24.837929,-2.306848 3.48678,0 4.19757,0.08311 4.23188,0.494805 0.0227,0.272143 0.092,0.903019 0.15404,1.401948 0.1198,0.963313 0.41975,13.344809 0.44776,18.483359 0.0149,2.73746 0.0856,3.08742 0.66699,3.30248 0.85096,0.31479 6.00631,7.13565 7.22514,9.55933 0.52254,1.03908 1.42719,3.07678 2.01034,4.5282 0.58315,1.45143 1.35895,3.38117 1.72402,4.28832 0.36506,0.90714 0.79682,1.79037 0.95945,1.96272 0.16263,0.17236 0.2957,0.72902 0.2957,1.23702 0,0.508 0.13415,0.92363 0.2981,0.92363 0.53353,0 3.74767,5.35285 4.04461,6.73591 0.15892,0.74025 0.57213,1.93968 0.91823,2.66539 1.35669,2.8447 1.9946,7.15213 2.00953,13.56906 0.0194,8.31828 -2.80543,13.17405 -9.77813,16.80847 -2.316,1.20718 -3.36701,1.33754 -6.1352,0.76098 -3.62988,-0.75603 -9.89004,-4.70496 -11.12919,-7.02031 -0.5623,-1.05068 -0.97971,-1.06215 -4.5526,-0.12507 -3.32658,0.87249 -3.46411,1.02922 -4.50498,5.13422 -0.89591,3.53325 -1.94829,5.42973 -4.34052,7.82196 -1.988,1.988 -5.88036,4.01197 -8.183464,4.25529 -0.750514,0.0793 -2.552103,-0.0466 -4.003532,-0.27987 z M 99.01255,189.367 c 5.81884,-2.66396 8.15186,-6.63017 9.47468,-16.10724 0.32053,-2.29643 0.4165,-4.26163 0.26139,-5.35293 -0.15512,-1.09141 -0.1222,-1.76533 0.0897,-1.83595 0.19366,-0.0646 0.0501,-0.65865 -0.34062,-1.40941 -0.37146,-0.7138 -0.95737,-2.48535 -1.30201,-3.93678 -0.51913,-2.18628 -1.02271,-3.23087 -2.93571,-6.08966 -2.05377,-3.06915 -2.56442,-3.60726 -4.618183,-4.86652 -3.712157,-2.27609 -4.601922,-2.56722 -8.305658,-2.71764 -0.213828,-0.009 -0.625206,-0.25222 -0.914179,-0.54119 -0.480627,-0.48062 -0.672404,-0.4767 -2.250186,0.046 -0.94863,0.31426 -1.910334,0.62026 -2.13712,0.67999 -0.226785,0.0597 -0.412337,0.38691 -0.412337,0.72706 0,0.75265 1.052322,3.81749 1.776849,5.17498 0.290496,0.54429 0.529091,1.15947 0.53021,1.36706 0.0036,0.66827 1.893619,2.42645 2.608405,2.42645 0.544945,0 0.692328,-0.20482 0.692328,-0.96212 0,-1.16551 0.241373,-1.26285 2.511608,-1.01297 2.085436,0.22955 2.766703,0.91111 2.561828,2.56294 -0.137721,1.11036 -1.07031,2.34059 -2.244542,2.96089 -0.954044,0.50399 -2.392403,-0.13232 -2.895557,-1.28094 -0.343247,-0.78358 -0.605388,-0.95913 -1.322034,-0.8853 -0.647159,0.0667 -1.216231,-0.22034 -2.061688,-1.03979 -0.642287,-0.62253 -1.167797,-1.25299 -1.167797,-1.40102 0,-0.14804 -0.498354,-1.34357 -1.107456,-2.65673 -0.609099,-1.31316 -1.247088,-2.74095 -1.417752,-3.17287 -0.289082,-0.73161 -0.347726,-0.74788 -0.857749,-0.23785 -0.301098,0.30109 -0.461689,0.77095 -0.356863,1.04411 0.104823,0.27317 -0.266146,1.42442 -0.824372,2.55834 -1.282753,2.60564 -1.92912,5.05042 -2.539413,9.60493 -1.029043,7.67958 -0.18885,13.75774 2.67595,19.35847 0.555537,1.08609 3.838995,4.63227 5.37109,5.80085 1.490581,1.13692 4.579785,1.99487 7.345925,2.04015 1.721239,0.0282 2.596454,-0.15178 4.111273,-0.84528 z m 33.45132,-9.4672 c 0.45357,-0.24646 1.62175,-0.8696 2.59596,-1.38476 1.615,-0.85401 6.18033,-5.34404 7.10243,-6.9853 1.61205,-2.86927 1.00326,-15.63699 -0.99937,-20.95908 -2.06769,-5.49499 -4.76646,-9.08894 -7.37954,-9.82734 -0.81643,-0.2307 -1.70708,-0.59206 -1.97922,-0.80303 -0.88623,-0.68699 -2.54727,-1.205 -3.51065,-1.09482 -0.90296,0.10326 -0.93856,0.17249 -0.84663,1.64597 0.10027,1.60707 2.04242,11.18597 2.6519,13.07942 0.31831,0.9889 0.26368,1.18513 -0.57401,2.06169 -0.56734,0.59366 -1.26322,0.96877 -1.79724,0.96877 -0.47928,0 -0.87143,0.13012 -0.87143,0.28916 0,0.15905 1.84709,1.20062 4.10464,2.31462 2.25755,1.114 4.52128,2.36606 5.03052,2.78236 0.50923,0.41631 1.66809,1.1757 2.57523,1.68755 2.07247,1.16938 3.46364,2.44779 3.46364,3.18291 0,0.5838 -2.73577,2.60833 -3.52467,2.60833 -0.2435,0 -0.70048,0.13628 -1.01552,0.30285 -0.72708,0.38441 -4.96263,1.25194 -7.33514,1.50239 -0.99785,0.10533 -2.55649,0.33025 -3.46363,0.49982 -5.54341,1.03621 -7.46751,1.46003 -7.59973,1.67395 -0.22402,0.36248 2.60343,3.38547 3.68608,3.94099 0.51965,0.26665 1.68609,0.91205 2.5921,1.43424 2.38644,1.37545 5.63867,1.87024 7.09428,1.07931 z m -16.82338,-7.37027 c 0.99786,-0.35129 5.4511,-1.34566 9.8961,-2.20972 8.33989,-1.62117 10.6989,-2.18286 12.7275,-3.03046 0.97219,-0.40621 1.11166,-0.57793 0.78706,-0.96905 -0.21697,-0.26144 -0.50629,-0.40627 -0.64291,-0.32183 -0.13663,0.0844 -0.52041,-0.14703 -0.85285,-0.51437 -0.67466,-0.74549 -3.11921,-2.26219 -6.54029,-4.05785 -1.25039,-0.65631 -2.43792,-1.3156 -2.63896,-1.46509 -0.20103,-0.14949 -1.28763,-0.67551 -2.41465,-1.16894 -1.97554,-0.86492 -2.1118,-0.88046 -3.79351,-0.43259 -2.21611,0.59019 -6.06602,1.47595 -7.35217,1.69153 -0.95072,0.15935 -2.45884,0.50473 -4.66536,1.06841 l -1.03678,0.26486 0.62993,2.47181 c 0.34646,1.3595 0.6859,3.21502 0.75432,4.12338 0.0684,0.90836 0.23153,2.47 0.36248,3.47031 l 0.2381,1.81874 1.36385,-0.0502 c 0.75012,-0.0276 2.18028,-0.33763 3.17814,-0.68893 z m -2.81864,-14.31664 c 1.26189,-0.33961 3.26585,-0.71194 4.45325,-0.82741 1.18739,-0.11547 2.80518,-0.49831 3.59509,-0.85077 0.7899,-0.35245 2.27432,-0.77856 3.2987,-0.94691 3.48714,-0.57308 3.84739,-0.74577 3.79224,-1.81789 -0.0272,-0.52916 -0.35057,-2.29807 -0.71855,-3.93093 -0.94798,-4.20646 -2.09079,-10.24898 -2.20599,-11.66392 -0.26053,-3.20003 -0.83749,-8.87816 -0.97676,-9.6127 -0.34155,-1.80142 -0.97827,-13.10413 -1.32865,-23.58571 -0.10917,-3.26572 -0.27155,-6.420101 -0.36084,-7.009744 -0.15729,-1.038723 -0.21179,-1.072078 -1.75172,-1.072078 -0.87416,0 -2.38315,0.150535 -3.35331,0.334523 -1.56148,0.296127 -5.74702,0.762906 -10.69625,1.192861 -2.08739,0.181338 -5.68867,0.648874 -8.246753,1.070633 -2.925493,0.482336 -4.615625,0.667075 -7.916883,0.865355 -4.484515,0.26936 -5.084533,0.41219 -5.258318,1.25173 -0.315923,1.52617 -0.398378,6.34453 -0.155485,9.08591 0.62334,7.03527 1.325132,13.52089 1.594194,14.73275 1.071817,4.8275 1.970858,9.05019 2.106953,9.89611 0.350358,2.17771 1.738583,6.58934 2.551416,8.10813 0.423128,0.79062 3.016112,2.11387 4.767211,2.43281 1.440167,0.2623 5.663535,2.81949 7.298175,4.41895 1.32717,1.29859 4.71394,6.74415 4.9602,7.97545 0.21608,1.08044 0.36811,1.07887 4.55208,-0.0472 z M 98.14417,138.64198 c 0.264883,-0.32063 1.303974,-0.95095 2.30909,-1.40071 2.54201,-1.13746 6.6482,-1.15695 9.45097,-0.0448 1.15995,0.46025 1.94275,0.9695 1.94275,1.26385 0,0.56216 -0.71034,0.55295 -5.05727,-0.0656 -2.1631,-0.30779 -3.1463,-0.30295 -4.61818,0.0227 -1.0285,0.22758 -2.463769,0.50238 -3.189483,0.61067 -1.232682,0.18393 -1.2878,0.15853 -0.837877,-0.3861 z m 2.44853,-8.45811 c -1.302996,-0.37787 -3.597174,-2.84842 -4.413477,-4.75278 -0.45246,-1.05555 -0.650223,-2.40527 -0.711444,-4.85559 -0.102151,-4.08855 0.444757,-5.60727 2.796078,-7.76444 1.473025,-1.3514 1.606102,-1.40195 3.690773,-1.40195 1.95488,0 2.25309,0.0925 3.10421,0.96322 3.08712,3.15808 4.227,6.53753 3.6291,10.75941 -0.39059,2.75811 -1.36706,4.79179 -3.01612,6.28161 -1.02879,0.92945 -1.49565,1.12299 -2.64981,1.09848 -0.77055,-0.0164 -1.86374,-0.16394 -2.42931,-0.32796 z m 4.2161,-2.33908 c 1.58243,-1.69401 2.00424,-2.84469 2.18133,-5.95058 0.15679,-2.74976 0.1122,-3.00391 -0.88081,-5.02102 -1.92315,-3.90646 -4.37556,-4.90727 -6.802776,-2.77615 -1.788992,1.57076 -2.138783,2.50726 -2.138783,5.72624 0,3.67455 0.462445,5.421 1.871242,7.06686 1.862407,2.1758 4.258697,2.57228 5.769797,0.95465 z m -2.89608,-4.14455 c -0.7258,-0.49476 -1.77613,-3.05309 -1.77613,-4.32622 0,-0.97678 0.23669,-1.55111 0.95703,-2.32223 1.44596,-1.54791 2.70301,-1.29426 4.00198,0.80751 1.36566,2.20969 0.24991,5.8166 -1.85786,6.00588 -0.52634,0.0473 -1.1226,-0.0269 -1.32502,-0.16494 z m 12.44732,3.8905 c -2.74058,-1.76196 -4.06511,-4.41767 -4.49584,-9.01423 -0.33378,-3.56184 0.0266,-5.61076 1.27404,-7.24485 1.30223,-1.70578 2.20878,-1.9493 4.95957,-1.33222 1.91344,0.42923 2.35372,0.67925 3.51061,1.99355 2.33035,2.64742 2.98373,6.65004 1.77614,10.88079 -0.74636,2.61487 -1.61654,4.07351 -2.95087,4.94637 -1.4646,0.95808 -2.29978,0.91105 -4.07365,-0.22941 z m 3.47146,-1.59221 c 1.3762,-1.11004 2.42717,-4.40675 2.42717,-7.61361 0,-3.42974 -2.61561,-6.58514 -5.55408,-6.70028 -1.21196,-0.0475 -1.53149,0.0958 -2.39057,1.07184 l -0.99162,1.12666 0.17175,3.2987 c 0.24452,4.69618 1.15874,7.07913 3.32166,8.65801 1.19547,0.87266 2.07325,0.91885 3.01569,0.15868 z m -1.78375,-4.4463 c -0.92753,-0.29739 -1.14837,-0.5903 -1.58973,-2.10854 -0.75696,-2.60383 -0.0466,-4.08604 1.94824,-4.06516 1.01802,0.0106 2.81969,1.1317 2.43579,1.51561 -0.10484,0.10483 -0.0498,0.56091 0.12226,1.01351 0.41317,1.0867 -0.17864,3.27997 -1.00425,3.72183 -0.34476,0.18451 -0.67372,0.32032 -0.731,0.3018 -0.0573,-0.0185 -0.58888,-0.18909 -1.18131,-0.37905 z m -13.27704,-11.63898 c -4.070042,-1.59036 -7.052226,-3.43235 -6.481297,-4.00328 0.209936,-0.20994 2.590863,0.54933 5.826397,1.85802 0.99786,0.40361 2.44517,0.88045 3.21624,1.05965 0.77107,0.17919 1.40195,0.46223 1.40195,0.62897 0,0.16673 0.0371,0.41197 0.0825,0.54496 0.21707,0.63646 -2.33336,0.58079 -4.04575,-0.0883 z m 7.76987,-0.92781 c -0.68379,-0.5 -0.55942,-0.61493 1.3064,-1.20733 0.72572,-0.23041 2.46661,-0.99211 3.86865,-1.69267 1.40205,-0.70055 2.60938,-1.27373 2.68296,-1.27373 0.0736,0 0.21137,0.29671 0.3062,0.65934 0.21215,0.81126 -0.79711,1.58201 -3.88683,2.96827 -2.43665,1.09325 -3.36674,1.212 -4.27738,0.54612 z m -27.815061,33.84195 c -0.511071,-5.3805 0.08207,-12.88888 1.268747,-16.06055 0.660202,-1.76455 0.683461,-2.99988 0.108313,-5.75293 -0.156527,-0.74924 -0.244626,-0.77388 -1.878743,-0.52554 -0.942983,0.1433 -2.456724,0.29027 -3.363867,0.3266 -0.907143,0.0363 -2.476457,0.24075 -3.487364,0.45427 -1.010907,0.21353 -2.257859,0.46437 -2.771005,0.55741 -0.513149,0.0931 -1.30714,0.36522 -1.764422,0.60482 -0.823326,0.43138 -0.809835,0.44593 1.38455,1.49322 1.567817,0.74825 2.50479,1.45628 3.203376,2.42065 0.909175,1.25507 0.982291,1.56021 0.922944,3.85173 -0.0451,1.74135 0.203853,3.6278 0.829049,6.28217 0.939579,3.98912 2.53337,9.72274 3.156788,11.35645 l 0.368445,0.96554 1.179922,-1.21479 1.179923,-1.21479 z m 5.370814,1.98186 c 0.544285,-0.27337 1.032338,-0.53325 1.084563,-0.57752 0.05222,-0.0443 -0.344226,-1.40239 -0.881,-3.01804 -0.536775,-1.61566 -1.300837,-4.5665 -1.697908,-6.55743 -0.397074,-1.99093 -0.835307,-4.18242 -0.973849,-4.86996 -0.138546,-0.68755 -0.321076,-1.31927 -0.405628,-1.40382 -0.08455,-0.0846 -0.326067,1.24863 -0.536706,2.96263 -0.488498,3.975 -0.493795,10.99929 -0.0098,12.92163 0.361673,1.43633 0.405097,1.47538 1.401948,1.26089 0.565794,-0.12175 1.474042,-0.44502 2.018327,-0.71838 z m 45.846747,-9.95642 c -2.44194,-6.03768 -3.32487,-7.54786 -7.92069,-13.54761 l -0.88439,-1.15455 0.21779,3.13377 c 0.18651,2.68379 0.54932,5.9994 1.36041,12.43227 l 0.1742,1.38163 2.11963,-0.12276 c 1.88373,-0.1091 2.34991,-0.002 4.18868,0.95844 1.13798,0.59467 2.10976,0.98226 2.15952,0.86131 0.0498,-0.12095 -0.58707,-1.89507 -1.41515,-3.9425 z"
       id="path70444" />
  </g>
</svg>
