<?xml version="1.0" encoding="UTF-8" standalone="no"?>
<!-- Created with Inkscape (http://www.inkscape.org/) -->

<svg
   width="77.730095mm"
   height="96.811455mm"
   viewBox="0 0 77.730095 96.811455"
   version="1.1"
   id="svg36320"
   inkscape:version="1.1.2 (0a00cf5339, 2022-02-04)"
   sodipodi:docname="marble-1.svg"
   xmlns:inkscape="http://www.inkscape.org/namespaces/inkscape"
   xmlns:sodipodi="http://sodipodi.sourceforge.net/DTD/sodipodi-0.dtd"
   xmlns="http://www.w3.org/2000/svg"
   xmlns:svg="http://www.w3.org/2000/svg">
  <sodipodi:namedview
     id="namedview36322"
     pagecolor="#ffffff"
     bordercolor="#666666"
     borderopacity="1.0"
     inkscape:pageshadow="2"
     inkscape:pageopacity="0.0"
     inkscape:pagecheckerboard="0"
     inkscape:document-units="mm"
     showgrid="false"
     inkscape:snap-global="false"
     inkscape:zoom="0.84032419"
     inkscape:cx="-82.706176"
     inkscape:cy="156.48722"
     inkscape:window-width="1920"
     inkscape:window-height="967"
     inkscape:window-x="0"
     inkscape:window-y="0"
     inkscape:window-maximized="1"
     inkscape:current-layer="layer1" />
  <defs
     id="defs36317" />
  <g
     inkscape:label="Layer 1"
     inkscape:groupmode="layer"
     id="layer1"
     transform="translate(-56.745991,-106.9362)">
    <path
       style="fill:#756475;fill-opacity:1;stroke:none;stroke-width:0.264583px;stroke-linecap:butt;stroke-linejoin:miter;stroke-opacity:1"
       d="m 57.487938,135.65792 c 2.13627,1.99757 5.532386,2.18782 6.159517,4.24032 1.307359,4.27879 2.670063,16.0989 4.511483,27.71729 -0.67589,1.03608 -1.922721,8.8292 -0.256235,18.29909 1.666489,9.46988 5.715003,13.50193 12.324384,16.13951 6.609384,2.63759 16.876932,-1.83733 18.778082,-15.77048 2.704981,-0.39057 7.047441,-1.18731 8.674001,-1.81389 5.75987,11.29357 18.6818,11.13086 24.40188,0.41294 2.29776,-3.94139 1.98673,-18.83965 -1.68687,-26.38524 -3.30319,-6.78475 -11.46793,-10.95868 -15.33464,-8.51564 l -1.7081,-22.8779 c 0,0 -41.754704,2.56621 -49.316721,4.95151 -7.562013,2.38531 -6.546781,3.60249 -6.546781,3.60249 z"
       id="path36720"
       sodipodi:nodetypes="cscsscccsccsc"
       inkscape:label="chair" />
    <path
       style="fill:#f085ef;fill-opacity:1;stroke:none;stroke-width:0.264583px;stroke-linecap:butt;stroke-linejoin:miter;stroke-opacity:1"
       d="m 74.553531,111.90756 c -1.938567,6.36815 -0.115522,23.69638 0.711666,27.84214 0.827188,4.14576 4.847669,16.72555 4.847669,16.72555 0,0 6.696951,1.29714 11.24472,5.06532 4.54777,3.76818 6.532007,10.65141 6.532007,10.65141 0,0 20.055857,-4.50975 20.682287,-5.37058 0.62642,-0.86083 -3.51413,-17.88798 -3.82979,-22.69151 -0.31567,-4.80353 -1.75185,-36.21973 -1.75185,-36.21973 0,0 -11.92956,0.24739 -16.531799,1.25173 -4.602242,1.00434 -21.90491,2.74567 -21.90491,2.74567 z"
       id="path41725"
       inkscape:label="fill" />
    <path
       style="fill:#ffffff;stroke:none;stroke-width:0.264583px;stroke-linecap:butt;stroke-linejoin:miter;stroke-opacity:1"
       d="m 88.223303,125.37867 c -2.897626,2.87481 -3.112229,7.53636 -1.796554,11.20707 0.847033,2.52559 3.21637,4.81588 6.044322,4.49142 2.262133,-0.0991 3.68845,-2.28368 4.43355,-4.19387 1.369551,-3.88787 0.595445,-8.90527 -2.849585,-11.47763 -1.688993,-1.18611 -4.274631,-1.74614 -5.831733,-0.027 z m 13.223317,-1.59944 c -1.87429,3.25088 -1.709541,7.35112 -0.4804,10.79963 0.73351,2.08996 2.6806,4.1592 5.09482,3.68964 2.44435,-0.24242 3.79859,-2.63823 4.326,-4.79544 0.89617,-3.75288 -0.26859,-8.4784 -3.92306,-10.33961 -1.60649,-0.85046 -3.80744,-0.91266 -5.01736,0.64578 z"
       id="path50223"
       inkscape:label="eyes" />
    <path
       style="fill:#000000;stroke-width:0.32987"
       d="m 81.848375,203.44404 c -3.673126,-0.59022 -4.688147,-1.10359 -7.542127,-3.81459 -5.327633,-5.06073 -7.169018,-9.81216 -7.670229,-19.79196 -0.311219,-6.19674 -0.23365,-10.05665 0.230348,-11.46258 0.221274,-0.67046 0.284484,-1.88451 0.156019,-2.99655 -0.479347,-4.14941 -1.220437,-8.95703 -1.813642,-11.76554 -0.840968,-3.98154 -1.332616,-7.05391 -1.54877,-9.67854 -0.257467,-3.12621 -1.043709,-4.45572 -3.34139,-5.65017 -3.438129,-1.78732 -4.311766,-3.04708 -2.977073,-4.29287 0.8121,-0.758 3.106405,-1.89048 4.714657,-2.32719 4.089044,-1.11033 6.766652,-1.66042 7.751948,-1.59258 0.635,0.0437 1.709941,-0.0389 2.388761,-0.18356 1.133177,-0.24152 1.215687,-0.33435 1.007899,-1.13401 -0.124474,-0.47902 -0.234545,-4.28511 -0.244606,-8.45797 -0.02237,-9.28358 6.6e-4,-9.35613 3.227004,-10.15231 1.170139,-0.28876 2.403054,-0.45482 2.739816,-0.36902 0.336761,0.0858 2.913139,-0.1534 5.725281,-0.53156 11.414661,-1.53497 19.725509,-2.30684 24.837919,-2.30684 3.48678,0 4.19758,0.0831 4.23189,0.4948 0.0227,0.27214 0.092,0.90302 0.15404,1.40195 0.1198,0.96331 0.41974,13.34481 0.44776,18.48335 0.0149,2.73746 0.0856,3.08743 0.66698,3.30249 0.85097,0.31479 6.00632,7.13565 7.22515,9.55933 0.52254,1.03908 1.42719,3.07677 2.01034,4.5282 0.58315,1.45143 1.35895,3.38117 1.72402,4.28831 0.36506,0.90715 0.79682,1.79037 0.95945,1.96273 0.16263,0.17236 0.2957,0.72901 0.2957,1.23701 0,0.508 0.13414,0.92364 0.2981,0.92364 0.53353,0 3.74767,5.35285 4.0446,6.73591 0.15893,0.74025 0.57214,1.93967 0.91824,2.66539 1.35669,2.8447 1.9946,7.15212 2.00953,13.56905 0.0194,8.31829 -2.80543,13.17406 -9.77813,16.80848 -2.316,1.20717 -3.36701,1.33754 -6.1352,0.76098 -3.62988,-0.75604 -9.89004,-4.70496 -11.12919,-7.02032 -0.5623,-1.05068 -0.97971,-1.06214 -4.5526,-0.12506 -3.326584,0.87248 -3.464107,1.02921 -4.504982,5.13421 -0.895905,3.53326 -1.948289,5.42974 -4.34052,7.82197 -1.987996,1.98799 -5.880358,4.01197 -8.183461,4.25529 -0.750514,0.0793 -2.552103,-0.0466 -4.003532,-0.27987 z m 6.627906,-2.38633 c 5.818839,-2.66395 8.151862,-6.63016 9.474678,-16.10723 0.320535,-2.29643 0.4165,-4.26163 0.261392,-5.35294 -0.155121,-1.0914 -0.1222,-1.76532 0.08969,-1.83595 0.19366,-0.0646 0.05008,-0.65864 -0.340621,-1.4094 -0.371463,-0.7138 -0.957369,-2.48535 -1.302011,-3.93678 -0.519129,-2.18629 -1.022709,-3.23088 -2.935708,-6.08966 -2.053765,-3.06915 -2.564417,-3.60726 -4.618182,-4.86652 -3.712157,-2.27609 -4.601922,-2.56723 -8.305658,-2.71764 -0.213828,-0.009 -0.625206,-0.25222 -0.914179,-0.54119 -0.480627,-0.48063 -0.672404,-0.47671 -2.250186,0.046 -0.94863,0.31426 -1.910334,0.62025 -2.137119,0.67999 -0.226786,0.0597 -0.412338,0.38691 -0.412338,0.72706 0,0.75265 1.052322,3.81748 1.776849,5.17498 0.290497,0.54428 0.529092,1.15946 0.53021,1.36706 0.0036,0.66827 1.893619,2.42645 2.608405,2.42645 0.544945,0 0.692328,-0.20482 0.692328,-0.96213 0,-1.1655 0.241373,-1.26285 2.511608,-1.01296 2.085436,0.22955 2.766703,0.91111 2.561827,2.56293 -0.13772,1.11037 -1.070309,2.34059 -2.244541,2.9609 -0.954044,0.50399 -2.392403,-0.13232 -2.895557,-1.28094 -0.343247,-0.78358 -0.605388,-0.95913 -1.322034,-0.8853 -0.647159,0.0667 -1.216231,-0.22034 -2.061688,-1.03979 -0.642287,-0.62253 -1.167797,-1.25299 -1.167797,-1.40103 0,-0.14803 -0.498354,-1.34356 -1.107456,-2.65672 -0.609099,-1.31316 -1.247087,-2.74095 -1.417752,-3.17287 -0.289082,-0.73162 -0.347726,-0.74788 -0.857748,-0.23786 -0.301099,0.3011 -0.46169,0.77095 -0.356864,1.04412 0.104823,0.27316 -0.266145,1.42442 -0.824371,2.55834 -1.282753,2.60564 -1.92912,5.05042 -2.539413,9.60493 -1.029043,7.67958 -0.188851,13.75773 2.675949,19.35847 0.555538,1.08608 3.838996,4.63226 5.371091,5.80085 1.49058,1.13692 4.579784,1.99487 7.345923,2.04015 1.72124,0.0282 2.596454,-0.15178 4.111274,-0.84529 z m 33.451309,-9.4672 c 0.45358,-0.24645 1.62176,-0.86959 2.59597,-1.38475 1.615,-0.85402 6.18032,-5.34404 7.10243,-6.9853 1.61205,-2.86927 1.00326,-15.63699 -0.99937,-20.95908 -2.06769,-5.49499 -4.76646,-9.08894 -7.37954,-9.82734 -0.81643,-0.2307 -1.70708,-0.59207 -1.97923,-0.80303 -0.88622,-0.68699 -2.54726,-1.205 -3.51064,-1.09483 -0.90296,0.10327 -0.93856,0.1725 -0.84663,1.64598 0.10027,1.60707 2.04242,11.18596 2.6519,13.07942 0.31831,0.9889 0.26368,1.18513 -0.57401,2.06169 -0.56734,0.59366 -1.26322,0.96877 -1.79724,0.96877 -0.47928,0 -0.87143,0.13012 -0.87143,0.28916 0,0.15904 1.84709,1.20062 4.10464,2.31462 2.25755,1.114 4.52128,2.36606 5.03052,2.78236 0.50923,0.4163 1.66809,1.1757 2.57523,1.68755 2.07247,1.16938 3.46364,2.44778 3.46364,3.18291 0,0.5838 -2.73577,2.60833 -3.52467,2.60833 -0.2435,0 -0.70048,0.13628 -1.01552,0.30284 -0.72708,0.38442 -4.96263,1.25195 -7.33514,1.50239 -0.99785,0.10534 -2.55649,0.33026 -3.46363,0.49983 -5.54341,1.03621 -7.46751,1.46002 -7.59973,1.67395 -0.22402,0.36248 2.60343,3.38547 3.68608,3.94099 0.51965,0.26664 1.68609,0.91205 2.5921,1.43423 2.38644,1.37546 5.63867,1.87025 7.09427,1.07931 z m -16.82337,-7.37026 c 0.99786,-0.35129 5.4511,-1.34567 9.8961,-2.20972 8.33989,-1.62117 10.6989,-2.18286 12.7275,-3.03047 0.97219,-0.4062 1.11166,-0.57793 0.78706,-0.96904 -0.21698,-0.26145 -0.50629,-0.40627 -0.64291,-0.32183 -0.13663,0.0844 -0.52041,-0.14703 -0.85285,-0.51437 -0.67466,-0.74549 -3.11921,-2.26219 -6.54029,-4.05785 -1.25039,-0.65631 -2.43792,-1.3156 -2.63896,-1.46509 -0.20104,-0.14949 -1.28763,-0.67551 -2.41466,-1.16895 -1.97553,-0.86492 -2.11179,-0.88046 -3.7935,-0.43258 -2.21611,0.59019 -6.06602,1.47594 -7.35217,1.69152 -0.95072,0.15936 -2.45884,0.50473 -4.665356,1.06842 l -1.036785,0.26486 0.62993,2.47181 c 0.346462,1.35949 0.685902,3.21501 0.754317,4.12338 0.06841,0.90836 0.231534,2.47 0.362484,3.47031 l 0.2381,1.81874 1.36385,-0.0502 c 0.75012,-0.0276 2.18028,-0.33764 3.17814,-0.68893 z m -2.81864,-14.31664 c 1.26189,-0.33961 3.26585,-0.71194 4.45325,-0.82741 1.18739,-0.11547 2.80518,-0.49832 3.59509,-0.85077 0.7899,-0.35245 2.27432,-0.77856 3.2987,-0.94691 3.48714,-0.57308 3.84739,-0.74577 3.79223,-1.8179 -0.0272,-0.52915 -0.35057,-2.29807 -0.71855,-3.93092 -0.94797,-4.20646 -2.09078,-10.24898 -2.20598,-11.66392 -0.26053,-3.20003 -0.83749,-8.87816 -0.97676,-9.6127 -0.34155,-1.80142 -0.97827,-13.10413 -1.32865,-23.58572 -0.10917,-3.26571 -0.27155,-6.42009 -0.36084,-7.00974 -0.15729,-1.03872 -0.21179,-1.07207 -1.75172,-1.07207 -0.87416,0 -2.38315,0.15053 -3.35331,0.33452 -1.56148,0.29613 -5.74702,0.7629 -10.69625,1.19286 -2.087391,0.18134 -5.688666,0.64887 -8.246752,1.07063 -2.925493,0.48234 -4.615626,0.66708 -7.916883,0.86536 -4.484515,0.26935 -5.084533,0.41219 -5.258318,1.25172 -0.315923,1.52618 -0.398378,6.34453 -0.155484,9.08592 0.623339,7.03527 1.325131,13.52089 1.594193,14.73275 1.071817,4.82749 1.970858,9.05018 2.106953,9.8961 0.350358,2.17772 1.738584,6.58934 2.551416,8.10814 0.423128,0.79062 3.016112,2.11387 4.767211,2.4328 1.440167,0.26231 5.663537,2.8195 7.298175,4.41895 1.327166,1.2986 4.713936,6.74416 4.960194,7.97546 0.216088,1.08044 0.368112,1.07886 4.552085,-0.0472 z m -5.548563,-19.11863 c -0.478038,-0.37603 -0.869162,-0.82135 -0.869162,-0.98961 0,-0.42841 1.232666,-0.3834 1.503555,0.0549 0.223108,0.361 1.951538,0.26211 3.33968,-0.19108 0.61981,-0.20235 0.69377,-0.13526 0.53218,0.48267 -0.36337,1.38955 -3.066815,1.77538 -4.506253,0.64312 z m -6.680582,-8.91039 c -1.303001,-0.37787 -3.597178,-2.84842 -4.413481,-4.75278 -0.45246,-1.05555 -0.650224,-2.40528 -0.711444,-4.85559 -0.102151,-4.08855 0.444757,-5.60727 2.796078,-7.76444 1.473025,-1.3514 1.606101,-1.40195 3.690768,-1.40195 1.954883,0 2.253099,0.0925 3.104217,0.96321 3.087122,3.15809 4.226995,6.53754 3.629102,10.75942 -0.390596,2.75811 -1.367068,4.79178 -3.016121,6.28161 -1.028796,0.92945 -1.495655,1.12299 -2.649817,1.09848 -0.770551,-0.0164 -1.863733,-0.16395 -2.429302,-0.32796 z m 4.216093,-2.33909 c 1.582436,-1.694 2.004244,-2.84468 2.181335,-5.95057 0.156784,-2.74976 0.112202,-3.00392 -0.880816,-5.02102 -1.923146,-3.90646 -4.375559,-4.90727 -6.802773,-2.77615 -1.788991,1.57075 -2.138782,2.50726 -2.138782,5.72624 0,3.67455 0.462445,5.421 1.871241,7.06686 1.862404,2.1758 4.258699,2.57228 5.769795,0.95464 z m -2.896075,-4.14454 c -0.725807,-0.49476 -1.77613,-3.05309 -1.77613,-4.32622 0,-0.97678 0.236692,-1.55112 0.957023,-2.32223 1.445962,-1.54791 2.703011,-1.29427 4.001981,0.8075 1.365665,2.2097 0.249909,5.81661 -1.857852,6.00589 -0.526347,0.0473 -1.122607,-0.0269 -1.325022,-0.16494 z m 12.447317,3.8905 c -2.74058,-1.76196 -4.06511,-4.41767 -4.495844,-9.01423 -0.333773,-3.56184 0.02655,-5.61076 1.274044,-7.24485 1.30223,-1.70578 2.20878,-1.9493 4.95957,-1.33222 1.91344,0.42923 2.35372,0.67925 3.51061,1.99355 2.33035,2.64742 2.98373,6.65004 1.77614,10.88079 -0.74636,2.61487 -1.61655,4.07351 -2.95087,4.94637 -1.4646,0.95808 -2.29978,0.91105 -4.07365,-0.22941 z m 3.47146,-1.59221 c 1.3762,-1.11004 2.42717,-4.40675 2.42717,-7.61362 0,-3.42974 -2.61561,-6.58513 -5.55408,-6.70028 -1.21196,-0.0475 -1.53149,0.0958 -2.39057,1.07185 l -0.99162,1.12666 0.17175,3.2987 c 0.24452,4.69618 1.15874,7.07913 3.32166,8.65801 1.19547,0.87266 2.07325,0.91885 3.01569,0.15868 z m -1.78375,-4.4463 c -0.92753,-0.29739 -1.14837,-0.5903 -1.58973,-2.10854 -0.75696,-2.60383 -0.0466,-4.08604 1.94824,-4.06516 1.01802,0.0106 2.81969,1.1317 2.43579,1.5156 -0.10484,0.10484 -0.0498,0.56092 0.12226,1.01351 0.41317,1.08671 -0.17864,3.27998 -1.00425,3.72183 -0.34476,0.18452 -0.67372,0.32033 -0.731,0.30181 -0.0573,-0.0185 -0.58888,-0.18909 -1.18131,-0.37905 z M 83.727583,118.44279 c 0.156286,-0.47833 3.185338,-1.81522 4.881411,-2.15443 0.745174,-0.14904 0.991329,-0.0769 0.991329,0.29069 0,0.30078 -0.793483,0.77439 -2.061688,1.23057 -2.838044,1.02088 -4.00085,1.21407 -3.811052,0.63317 z m 20.125377,-2.0631 c -1.14176,-0.20464 -2.07262,-0.52051 -2.06858,-0.70194 0.0202,-0.90555 4.57544,-0.214 4.88897,0.74221 0.15419,0.47027 0.0172,0.46831 -2.82039,-0.0403 z m -31.663709,38.13842 c -0.511071,-5.38051 0.08207,-12.88888 1.268746,-16.06056 0.660202,-1.76454 0.683461,-2.99987 0.108313,-5.75292 -0.156527,-0.74924 -0.244625,-0.77389 -1.878742,-0.52554 -0.942984,0.1433 -2.456725,0.29027 -3.363867,0.3266 -0.907143,0.0363 -2.476457,0.24074 -3.487364,0.45427 -1.010907,0.21353 -2.257859,0.46436 -2.771005,0.55741 -0.513149,0.0931 -1.30714,0.36522 -1.764422,0.60482 -0.823327,0.43138 -0.809835,0.44593 1.38455,1.49322 1.567817,0.74824 2.50479,1.45627 3.203376,2.42065 0.909174,1.25507 0.98229,1.56021 0.922943,3.85172 -0.0451,1.74136 0.203853,3.62781 0.82905,6.28218 0.939579,3.98912 2.533369,9.72274 3.156787,11.35645 l 0.368446,0.96554 1.179922,-1.21479 1.179922,-1.21479 z m 5.370813,1.98186 c 0.544286,-0.27337 1.032338,-0.53325 1.084563,-0.57752 0.05223,-0.0443 -0.344226,-1.40239 -0.881,-3.01804 -0.536775,-1.61566 -1.300836,-4.5665 -1.697908,-6.55743 -0.397074,-1.99093 -0.835307,-4.18242 -0.973849,-4.86997 -0.138545,-0.68755 -0.321076,-1.31927 -0.405628,-1.40382 -0.08455,-0.0846 -0.326067,1.24864 -0.536705,2.96264 -0.488498,3.97499 -0.493796,10.99929 -0.0098,12.92162 0.361672,1.43633 0.405097,1.47539 1.401948,1.2609 0.565793,-0.12175 1.474041,-0.44502 2.018326,-0.71838 z m 45.846746,-9.95642 c -2.44194,-6.03768 -3.32487,-7.54786 -7.92069,-13.54762 l -0.88439,-1.15454 0.21779,3.13376 c 0.18651,2.6838 0.54932,5.99941 1.36041,12.43228 l 0.1742,1.38163 2.11963,-0.12277 c 1.88373,-0.10909 2.34991,-0.002 4.18868,0.95845 1.13798,0.59467 2.10976,0.98226 2.15951,0.86131 0.0498,-0.12095 -0.58706,-1.89507 -1.41514,-3.9425 z"
       id="path36667"
       inkscape:label="trace" />
  </g>
</svg>
