<?xml version="1.0" encoding="UTF-8" standalone="no"?>
<!-- Created with Inkscape (http://www.inkscape.org/) -->

<svg
   width="82.44603mm"
   height="110.3025mm"
   viewBox="0 0 82.44603 110.3025"
   version="1.1"
   id="svg104078"
   xmlns="http://www.w3.org/2000/svg"
   xmlns:svg="http://www.w3.org/2000/svg">
  <defs
     id="defs104075" />
  <g
     id="layer1"
     transform="translate(-69.723409,-83.742745)">
    <path
       style="fill:#de514d;fill-opacity:1;stroke:none;stroke-width:0.264583px;stroke-linecap:butt;stroke-linejoin:miter;stroke-opacity:1"
       d="m 120.12865,92.373974 c 0.198,1.247428 7.77039,4.116219 10.89276,5.956394 -5.41132,8.367542 -4.91321,7.665392 -4.70843,7.933272 4.15989,2.69547 7.33745,4.92033 9.22883,6.31636 0.9755,-2.86916 1.39309,-5.54998 3.67989,-9.30077 2.52644,2.88296 5.22972,5.25356 6.49339,5.98777 3.15183,-3.0372 4.34306,-5.49502 5.68096,-7.10848 -3.37339,-3.537362 -6.71289,-4.003872 -8.9888,-6.093398 1.95657,-2.643309 3.47423,-4.854486 4.89094,-6.698023 -3.25074,-1.267154 -5.63699,-4.02899 -6.91642,-4.923647 -1.77035,1.793991 -3.19842,4.179402 -4.48063,6.273515 -6.04102,-4.064828 -8.58185,-6.287872 -9.91182,-6.258959 -1.86762,2.288075 -5.11247,6.484927 -5.86067,7.915966 z"
       id="path104298" />
    <path
       style="fill:#35a37b;fill-opacity:1;stroke:none;stroke-width:0.264583px;stroke-linecap:butt;stroke-linejoin:miter;stroke-opacity:1"
       d="m 81.593517,122.93448 c -0.01156,17.77545 7.871324,44.80692 8.864215,51.13525 9.576488,-3.71761 45.187058,-10.3211 51.238958,-13.09542 -8.83442,-26.30808 -8.98662,-45.22683 -11.3804,-46.87336 -13.935,0.89137 -45.847481,4.58076 -48.722773,8.83353 z"
       id="path108346" />
    <path
       style="fill:#ffffff;stroke:none;stroke-width:0.264583px;stroke-linecap:butt;stroke-linejoin:miter;stroke-opacity:1"
       d="m 96.134268,138.55537 c -0.994909,6.87496 5.189232,9.23767 10.855822,4.55959 10.32447,-8.52342 -9.020372,-17.24281 -10.855822,-4.55959 z m 19.094722,-3.23795 c 1.35942,-8.94566 13.92312,-6.25501 11.66202,2.18791 -1.53753,5.74111 -12.98985,6.5499 -11.66202,-2.18791 z"
       id="path111741" />
    <path
       style="fill:#000000;stroke-width:0.32987"
       d="m 105.25335,193.30298 c 0.0108,-1.02039 -0.61325,-7.12764 -0.83318,-8.15381 -0.32059,-1.49589 -1.15243,-12.84453 -0.97531,-13.30609 0.13729,-0.35777 -0.38365,-0.32273 -2.56333,0.17241 -3.798544,0.86287 -6.435512,1.53867 -8.17849,2.09599 -1.824182,0.58327 -3.182778,0.60829 -3.206717,0.059 -0.0099,-0.22678 -0.395425,-1.89675 -0.856752,-3.71104 -0.46133,-1.81428 -0.928136,-3.84524 -1.037346,-4.51323 -0.190361,-1.16435 -0.243962,-1.20717 -1.297142,-1.03626 -1.313777,0.2132 -2.508537,-0.34641 -2.508537,-1.17495 0,-0.49897 -0.672793,-0.74158 -4.040909,-1.45718 -2.2225,-0.47219 -4.634675,-0.95123 -5.360389,-1.06451 -1.660481,-0.2592 -4.385281,-1.48147 -4.610387,-2.06808 -0.276841,-0.72144 0.34923,-1.54528 2.542055,-3.34504 1.137583,-0.93367 2.641204,-2.17365 3.34138,-2.75553 0.700179,-0.58187 1.479299,-1.13404 1.731379,-1.22704 0.25208,-0.093 1.666059,-1.35393 3.142178,-2.80206 l 2.68385,-2.63297 -0.588726,-3.6304 c -0.3238,-1.99672 -0.64765,-4.22417 -0.719671,-4.94989 -0.07202,-0.72571 -0.279651,-2.21013 -0.461403,-3.2987 -0.181751,-1.08857 -0.418512,-4.3643 -0.526139,-7.2794 l -0.195682,-5.30019 1.283831,-0.76636 c 0.706104,-0.42149 1.729153,-0.88218 2.273439,-1.02373 0.544285,-0.14156 2.399805,-0.66156 4.123376,-1.15555 1.723572,-0.49399 4.098637,-1.0102 5.277922,-1.14714 1.179286,-0.13693 3.628572,-0.57089 5.442858,-0.96433 1.814282,-0.39346 4.486232,-0.85436 5.937662,-1.02423 4.75639,-0.55668 8.8973,-1.00432 9.4013,-1.01631 0.46567,-0.0111 6.90181,-0.93366 10.87151,-1.55837 1.68351,-0.26493 3.41706,-0.262 5.24317,0.009 0.98935,0.14674 1.40092,1.37205 2.36549,7.04233 0.9508,5.58932 1.23081,7.15028 1.39057,7.75195 0.0723,0.27214 0.24242,1.01435 0.37812,1.64935 0.91689,4.29038 1.65469,6.97102 1.97487,7.17522 0.60584,0.3864 3.78805,1.70098 6.96978,2.87924 5.14045,1.90362 6.74873,2.73175 7.10012,3.65596 0.17707,0.46575 0.32195,0.91284 0.32195,0.99354 0,0.0807 -1.03909,1.26738 -2.30909,2.63707 -1.27,1.3697 -2.30909,2.60987 -2.30909,2.75594 0,0.14607 -0.45006,0.76812 -1.00014,1.38235 -0.86655,0.96761 -0.97545,1.29439 -0.8153,2.44646 0.14868,1.06953 0.0451,1.47974 -0.52964,2.0966 -0.59552,0.63921 -0.92664,0.73298 -1.9886,0.56317 -0.70076,-0.11207 -1.27411,-0.11929 -1.27411,-0.0161 0,0.57147 0.80107,3.34282 1.06342,3.67897 0.50536,0.64754 -0.44773,2.16091 -1.55823,2.47422 -6.16781,1.74016 -7.11656,1.97694 -9.07142,2.26393 -0.99786,0.14649 -3.01107,0.50926 -4.4738,0.80614 l -2.6595,0.53979 0.10826,1.87333 c 0.25447,4.40325 1.2026,13.04986 1.73024,15.7792 0.72671,3.75903 0.52408,3.44239 1.84876,2.8889 1.70594,-0.71279 8.17745,-0.53047 8.3239,0.23451 0.15197,0.79378 -0.73915,1.03261 -4.21812,1.1305 -3.07819,0.0866 -4.94806,0.49891 -4.94806,1.09101 0,0.16477 -0.35471,0.36738 -0.78825,0.45026 -0.68182,0.13034 -0.84252,-0.0305 -1.19015,-1.19073 -0.22104,-0.73778 -0.52649,-2.16137 -0.67878,-3.16353 -0.15228,-1.00216 -0.49617,-3.08386 -0.7642,-4.62601 -0.60084,-3.45706 -0.84643,-6.40413 -0.90196,-10.82361 -0.0377,-3.00133 -0.10609,-3.37698 -0.58113,-3.1928 -0.29611,0.11481 -1.13215,0.33298 -1.85786,0.48482 -0.72572,0.15185 -2.72968,0.65469 -4.45325,1.11743 -1.72357,0.46273 -4.83018,1.29453 -6.90358,1.84842 -2.07339,0.5539 -3.84321,1.0805 -3.93294,1.17023 -0.0897,0.0897 0.0948,1.98064 0.41003,4.20205 0.31525,2.22141 0.74042,6.82775 0.94484,10.23631 l 0.37167,6.1974 0.84395,-0.17233 c 0.46417,-0.0948 2.50899,-0.20918 4.54404,-0.2542 3.59537,-0.0795 4.75614,0.18893 4.26347,0.98608 -0.26934,0.43581 -4.61111,1.06593 -6.89853,1.00118 -1.09312,-0.0309 -2.06937,0.11167 -2.2926,0.33491 -0.21384,0.21383 -0.72855,0.38879 -1.1438,0.38879 -0.56538,0 -0.75303,-0.18641 -0.74715,-0.74221 z M 92.025032,172.77801 c 0.516217,-0.26694 1.510828,-0.6248 2.210242,-0.79524 0.699413,-0.17044 3.052961,-0.78006 5.230104,-1.35472 2.177142,-0.57465 4.477982,-1.17453 5.112982,-1.33307 1.62329,-0.40527 12.20204,-3.18462 15.17403,-3.98666 3.25157,-0.87749 6.09801,-1.4929 9.73117,-2.10395 3.54401,-0.59604 9.74282,-2.12719 10.27427,-2.53781 0.28257,-0.21832 0.26591,-0.68523 -0.0659,-1.84704 -0.60046,-2.10251 -1.4695,-5.81153 -1.83281,-7.82238 -0.2829,-1.56576 -0.7759,-3.55706 -1.79669,-7.25714 -0.56905,-2.06262 -0.96305,-3.85188 -1.63437,-7.42208 -0.28998,-1.54215 -0.66418,-3.24922 -0.83156,-3.79351 -0.58357,-1.89768 -1.68464,-7.27988 -2.12573,-10.39091 -0.24437,-1.72357 -0.62178,-4.06152 -0.83868,-5.19545 l -0.39436,-2.06169 h -1.60277 c -0.88152,0 -4.05505,0.3722 -7.05229,0.82712 -2.99723,0.45491 -6.08249,0.90009 -6.85613,0.98929 -0.77365,0.0892 -1.92617,0.23296 -2.56117,0.31947 -0.635,0.0865 -2.49052,0.24657 -4.12338,0.35567 -1.63286,0.1091 -4.00792,0.4164 -5.27792,0.6829 -2.49595,0.52375 -4.379202,0.8726 -8.741559,1.61929 -1.542143,0.26396 -3.620325,0.7159 -4.618182,1.0043 -0.997857,0.28841 -2.589095,0.72026 -3.536086,0.95966 -0.946991,0.2394 -2.1771,0.63527 -2.733571,0.8797 -1.148681,0.50456 -1.132052,-0.51474 -0.139103,8.52624 0.745308,6.78618 2.13105,15.68842 2.553756,16.40576 0.08189,0.13897 0.244681,0.99488 0.361748,1.90203 0.304754,2.36147 1.923529,9.88781 3.121753,14.51428 0.563863,2.17714 1.204745,5.18309 1.424178,6.67987 0.219433,1.49679 0.450827,2.72143 0.514205,2.72143 0.06338,0 0.537592,-0.21841 1.053813,-0.48536 z m 7.081592,-26.91916 c -2.570407,-0.74618 -4.001922,-3.5064 -3.638233,-7.01516 0.391998,-3.78187 2.050506,-5.99317 5.104559,-6.80595 1.67774,-0.4465 4.78433,-0.3772 6.02567,0.13441 1.34868,0.55584 3.81844,3.00057 4.25726,4.21409 0.35547,0.98305 0.29514,1.3181 -0.58268,3.23557 -1.07461,2.34733 -3.89433,5.38721 -5.70211,6.14732 -1.18054,0.49638 -3.90929,0.54119 -5.464466,0.0897 z m 5.636676,-1.7685 c 2.19188,-1.40504 4.78312,-5.07434 4.78312,-6.77311 0,-0.86286 -2.21323,-3.16288 -3.52255,-3.66068 -1.52685,-0.58051 -4.77673,-0.34638 -6.348114,0.45732 -1.948405,0.99653 -2.739908,2.54012 -2.790735,5.44248 -0.05158,2.94523 0.843617,4.49804 2.864741,4.96917 1.624118,0.37859 4.076068,0.16576 5.013538,-0.43518 z m -2.98458,-1.718 c -1.759253,-1.89826 -0.39917,-5.39521 1.91813,-4.93175 0.54119,0.10824 1.17749,0.1968 1.41399,0.1968 0.73802,0 1.46675,0.99458 1.46675,2.00183 0,1.27343 -2.06211,3.60596 -3.18791,3.60596 -0.44359,0 -1.16356,-0.39009 -1.61096,-0.87284 z m 16.33392,-0.0973 c -2.41593,-0.73402 -3.7821,-3.14133 -3.55551,-6.26516 0.18134,-2.50016 1.09504,-4.19383 3.16593,-5.8685 1.37603,-1.11276 2.01141,-1.41046 3.01025,-1.41046 1.52604,0 4.53688,1.2819 5.53354,2.35597 0.90383,0.97403 2.06532,3.49892 2.07492,4.51052 0.007,0.72092 -0.51013,2.00724 -0.95244,2.36987 -0.11065,0.0907 -0.49664,0.72976 -0.85776,1.4201 -0.36112,0.69033 -0.96119,1.54215 -1.33349,1.8929 -1.10008,1.03643 -5.09995,1.598 -7.08544,0.99476 z m 4.62858,-1.53781 c 0.93796,-0.15567 1.36026,-0.50958 2.25116,-1.88659 0.66577,-1.02905 1.16721,-2.29105 1.2763,-3.21216 0.16281,-1.37465 0.0755,-1.63581 -0.92885,-2.77975 -1.21153,-1.37985 -3.24333,-2.45985 -4.6491,-2.47122 -1.29392,-0.0105 -3.05009,0.9207 -3.63497,1.92735 -0.79674,1.37126 -1.22346,3.99513 -0.9177,5.64281 0.49439,2.66409 2.41858,3.47407 6.60316,2.77956 z m -2.72143,-1.14702 c -0.37803,-0.22019 -0.57727,-0.73994 -0.57727,-1.50593 0,-2.6292 2.7775,-4.33024 4.47169,-2.73863 0.99482,0.93458 1.0792,2.57116 0.17259,3.34742 -1.47084,1.25937 -2.90277,1.57524 -4.06701,0.89714 z m -34.282763,21.18415 c 0.346417,-0.22184 0.363662,-0.6452 0.08388,-2.0594 -0.1937,-0.97908 -0.652513,-3.54254 -1.019583,-5.69657 -0.367066,-2.15403 -0.78105,-4.11951 -0.919961,-4.36773 -0.184721,-0.33008 -0.925197,0.23463 -2.756425,2.10213 -1.377119,1.4044 -3.922255,3.66676 -5.655861,5.02747 -1.733603,1.36072 -3.113967,2.62247 -3.067475,2.8039 0.09196,0.35885 0.300808,0.4079 6.631828,1.55752 5.003321,0.90853 6.109749,1.01295 6.703597,0.63268 z M 140.95726,151.546 c 0.2271,-0.2745 0.71804,-0.37011 1.30138,-0.25344 0.83831,0.16767 1.03801,0.0234 1.90112,-1.37351 1.61775,-2.61826 2.73494,-4.01992 3.36288,-4.21922 0.75618,-0.24001 0.76446,-0.76625 0.0213,-1.35412 -0.85862,-0.67922 -3.62639,-2.08935 -4.11241,-2.09522 -0.23282,-0.003 -1.75207,-0.59657 -3.37612,-1.31948 -1.62405,-0.7229 -3.00893,-1.31437 -3.07751,-1.31437 -0.17979,0 0.25509,1.908 0.81733,3.58598 0.26572,0.79301 0.53383,1.68366 0.59582,1.97922 0.062,0.29557 0.40431,1.79915 0.76072,3.34129 0.35641,1.54214 0.76843,3.39766 0.91559,4.12338 0.25847,1.27459 0.27195,1.28581 0.39639,0.32987 0.0708,-0.54429 0.29293,-1.18796 0.4935,-1.43038 z m -6.27587,-38.82473 c -0.58834,-0.24751 -1.72713,-0.94006 -2.53066,-1.53901 -0.80351,-0.59895 -2.25189,-1.5809 -3.2186,-2.18211 -0.96672,-0.60121 -2.19066,-1.44298 -2.71988,-1.87059 -0.93552,-0.75591 -0.94695,-0.80079 -0.41197,-1.61728 0.30265,-0.46189 0.94281,-1.54986 1.4226,-2.41772 0.47978,-0.86786 1.3792,-2.14489 1.99869,-2.83785 0.6195,-0.692966 1.06863,-1.435174 0.99807,-1.649353 -0.12641,-0.383701 -3.40882,-2.218271 -4.69452,-2.623815 -0.80797,-0.254854 -5.49291,-2.796694 -5.89409,-3.197865 -0.5553,-0.555304 5.35415,-8.480527 6.54669,-8.779837 0.73475,-0.184409 3.20004,1.215626 4.14453,2.353667 0.24164,0.291158 1.11666,0.889299 1.94449,1.329201 0.82782,0.439901 1.93414,1.133419 2.45849,1.54115 0.52839,0.410868 1.00802,0.589064 1.07598,0.399751 0.0674,-0.187867 0.78729,-1.226958 1.59967,-2.309091 0.81237,-1.082132 1.47861,-2.130058 1.48051,-2.328725 0.002,-0.198666 0.26542,-0.598273 0.58558,-0.888015 0.52814,-0.477959 0.67993,-0.479429 1.6371,-0.01586 0.58024,0.28102 1.42394,0.994672 1.87489,1.585893 0.45094,0.591221 1.53266,1.403738 2.40381,1.805593 0.87115,0.401855 1.75753,0.95341 1.96974,1.225678 0.57779,0.741307 -0.0512,2.202303 -2.09522,4.866434 -0.96484,1.257575 -1.75425,2.379689 -1.75425,2.493586 0,0.113897 0.70174,0.548017 1.55943,0.964712 1.75966,0.854911 4.32628,2.541641 5.99,3.936506 l 1.11697,0.93647 -1.1596,1.81276 c -0.63779,0.99702 -1.84552,2.58506 -2.68386,3.52898 -0.83833,0.94392 -1.52424,1.8436 -1.52424,1.99931 0,0.1557 -0.39613,0.38252 -0.88028,0.50403 -0.78156,0.19616 -1.20584,-0.10311 -3.78318,-2.6685 -1.59659,-1.5892 -2.97355,-2.81879 -3.05991,-2.73243 -0.0864,0.0864 -0.60924,1.48884 -1.16195,3.11661 -1.46418,4.31212 -1.86095,5.40417 -2.02172,5.56451 -0.079,0.0788 -0.62497,-0.0593 -1.21331,-0.30679 z m 1.81517,-6.16358 c 0.53263,-1.60328 1.19514,-2.88065 1.78927,-3.44987 l 0.94347,-0.9039 3.04401,3.02297 3.04402,3.02297 2.41301,-2.98779 c 1.32716,-1.64329 2.36625,-3.01499 2.30909,-3.04824 -0.0572,-0.0332 -0.77191,-0.58347 -1.58834,-1.22274 -0.81643,-0.63927 -2.07818,-1.51608 -2.80389,-1.948475 -1.84156,-1.097234 -4.16427,-3.012387 -4.0521,-3.341084 0.18802,-0.550977 2.76288,-3.754746 3.85809,-4.800427 1.01751,-0.971499 1.06498,-1.094339 0.4948,-1.280571 -1.89182,-0.617917 -2.47294,-0.972377 -3.78357,-2.307804 -0.79073,-0.805705 -1.60781,-1.464919 -1.81571,-1.464919 -0.2079,0 -1.16352,1.261754 -2.12359,2.803896 -0.96007,1.542143 -1.92847,2.803896 -2.15199,2.803896 -0.57828,0 -2.73028,-0.930671 -3.74769,-1.62076 -0.47446,-0.321817 -1.46491,-0.979799 -2.201,-1.462183 -0.73608,-0.482384 -1.90834,-1.399163 -2.60501,-2.037287 -0.69667,-0.638124 -1.28734,-1.120207 -1.31261,-1.071296 -0.50699,0.981545 -2.74941,4.135112 -3.81966,5.371692 l -1.40914,1.628139 1.28394,0.576808 c 0.70616,0.317244 1.4754,0.5807 1.70942,0.585457 0.60584,0.01232 2.89006,1.216715 4.44808,2.345338 0.73041,0.529108 1.50254,0.962014 1.71583,0.962014 0.2133,0 0.72873,0.362886 1.1454,0.806413 0.89033,0.947714 0.76425,1.940161 -0.42862,3.374003 -0.42671,0.51292 -1.34902,1.93455 -2.04958,3.15919 -0.70055,1.22465 -1.42767,2.22977 -1.61581,2.23361 -0.18815,0.004 0.53261,0.45882 1.60167,1.01107 1.06906,0.55225 2.92458,1.6564 4.12338,2.45367 l 2.17962,1.44957 0.27971,-1.0587 c 0.15383,-0.58228 0.66031,-2.20438 1.1255,-3.60466 z"
       id="path104245" />
  </g>
</svg>
