<?xml version="1.0" encoding="UTF-8" standalone="no"?>
<!-- Created with Inkscape (http://www.inkscape.org/) -->

<svg
   width="73.110344mm"
   height="80.829857mm"
   viewBox="0 0 73.110344 80.829857"
   version="1.1"
   id="svg77186"
   xmlns="http://www.w3.org/2000/svg"
   xmlns:svg="http://www.w3.org/2000/svg">
  <defs
     id="defs77183" />
  <g
     id="layer1"
     transform="translate(-65.591574,-121.41558)">
    <path
       style="fill:#35a37b;fill-opacity:1;stroke:none;stroke-width:0.264583px;stroke-linecap:butt;stroke-linejoin:miter;stroke-opacity:1"
       d="m 67.328621,130.84535 c -1.00677,16.70174 5.273335,36.3037 8.534061,51.07666 13.65705,-3.58006 31.824608,-8.7333 50.709668,-12.45255 -3.96557,-15.03038 -9.25782,-36.44527 -10.40133,-46.66422 -9.89036,-0.62091 -46.280796,5.06678 -48.842399,8.04011 z"
       id="path77420" />
    <path
       style="fill:#ffffff;stroke:none;stroke-width:0.264583px;stroke-linecap:butt;stroke-linejoin:miter;stroke-opacity:1"
       d="m 83.531058,142.70092 c -5.547921,7.89077 2.112312,14.37721 8.385306,8.95945 10.479366,-9.05067 -4.928655,-13.87582 -8.385306,-8.95945 z m 17.564702,3.95461 c 4.145,8.30948 14.91249,-1.27053 10.785,-6.35501 -5.64058,-6.9484 -13.368177,1.17651 -10.785,6.35501 z"
       id="path81453" />
    <path
       style="fill:#000000;stroke-width:0.32987"
       d="m 90.725892,201.54402 c 0.01079,-1.02039 -0.613252,-7.12764 -0.83318,-8.15381 -0.332852,-1.55309 -1.149026,-12.8534 -0.963303,-13.33739 0.161099,-0.41982 -0.05786,-0.42091 -1.738656,-0.009 -1.05763,0.25938 -2.36829,0.56645 -2.912575,0.68237 -2.039597,0.43439 -5.640331,1.39205 -6.53641,1.73843 -1.251857,0.48392 -2.752848,0.45493 -2.763892,-0.0534 -0.0049,-0.22679 -0.38638,-1.89676 -0.847671,-3.71104 -0.461293,-1.81429 -1.021551,-4.18935 -1.245022,-5.27792 -0.22347,-1.08857 -0.594594,-2.57299 -0.824718,-3.2987 -0.230124,-0.72572 -0.577692,-2.13591 -0.772368,-3.13377 -0.194679,-0.99786 -0.636679,-2.9276 -0.982228,-4.28831 -0.600848,-2.36607 -0.644259,-2.43381 -0.994825,-1.55234 -0.201607,0.50693 -0.434505,1.24914 -0.51755,1.64935 -0.08304,0.40022 -0.405955,1.76675 -0.717576,3.03675 -0.578157,2.35625 -0.741327,8.58114 -0.306961,11.71039 0.113327,0.81643 0.292581,2.25945 0.398344,3.20672 0.138272,1.23845 0.354162,1.77368 0.768469,1.90517 0.743583,0.23601 1.513827,1.12072 1.803839,2.07191 0.311021,1.02009 -1.460045,2.71231 -2.838681,2.71231 -2.157657,0 -2.959139,-2.22134 -1.733444,-4.8043 0.521343,-1.09865 0.51436,-1.84883 -0.03819,-4.1022 -0.111219,-0.45357 -0.191695,-3.02815 -0.178833,-5.7213 0.02718,-5.69341 0.720535,-9.25216 2.494732,-12.80473 0.977682,-1.95766 1.061905,-2.33563 0.771804,-3.46363 -0.379608,-1.47603 -1.541447,-8.17876 -1.791901,-10.3376 -0.09472,-0.81643 -0.314637,-2.37506 -0.488709,-3.46363 -0.174076,-1.08858 -0.41149,-4.3872 -0.527585,-7.33029 -0.199884,-5.06709 -0.17773,-5.36298 0.417458,-5.57547 0.345697,-0.12341 0.851203,-0.40744 1.123346,-0.63117 0.704434,-0.57912 9.678515,-3.12151 11.018216,-3.12151 0.615251,0 2.878199,-0.38372 5.028781,-0.85271 3.996634,-0.87157 5.989752,-1.15238 12.651703,-1.78251 2.086429,-0.19734 5.129484,-0.57186 6.762334,-0.83225 7.61425,-1.21423 9.54841,-1.3768 12.67642,-1.06551 1.06411,0.1059 1.16017,0.48255 3.31486,12.99752 0.16119,0.93622 0.44648,2.27219 0.63398,2.96883 0.57381,2.13192 1.97657,8.44018 2.21046,9.9405 0.18332,1.17588 0.45164,1.57557 1.57829,2.35105 0.74658,0.51387 2.18166,1.76538 3.18906,2.78113 1.99951,2.01609 3.19351,4.19629 6.146,11.22236 1.98739,4.72941 2.23399,5.14965 3.03093,5.16512 0.784,0.0152 2.2168,1.3885 2.4601,2.3579 0.23896,0.95209 -0.35347,1.65305 -1.89126,2.23771 -0.82598,0.31404 -1.12961,0.24904 -2.22602,-0.47652 -0.99382,-0.65769 -1.26957,-1.05054 -1.26957,-1.80871 0,-0.54925 0.23101,-1.09782 0.53362,-1.26717 0.48319,-0.2704 0.48567,-0.37327 0.0263,-1.08846 -0.27904,-0.43442 -1.46743,-3.10445 -2.64088,-5.9334 -1.17344,-2.82896 -2.54074,-5.7978 -3.03845,-6.59741 -1.02269,-1.64307 -5.37721,-6.09933 -4.96637,-5.08241 0.20919,0.51778 2.25327,9.036 3.00799,12.53506 0.76886,3.56463 0.9721,4.31413 1.21501,4.48062 0.15432,0.10577 0.13323,0.57988 -0.0469,1.05358 -0.26764,0.70395 -0.76711,0.99231 -2.73421,1.57855 -3.39643,1.01222 -5.47414,1.52594 -7.18987,1.77773 -0.81643,0.11982 -2.37506,0.41914 -3.46363,0.66516 -1.08858,0.24602 -2.50736,0.53598 -3.15285,0.64435 -1.14415,0.19209 -1.17185,0.23218 -1.10286,1.59592 0.34,6.72072 0.74444,10.64778 1.60487,15.58331 0.75583,4.33554 0.66232,4.16251 1.95727,3.62145 0.74279,-0.31036 2.23662,-0.43458 4.68135,-0.38928 3.05424,0.0566 3.60623,0.14854 3.69607,0.61562 0.14597,0.7589 -0.8613,1.01537 -4.38361,1.11612 -2.99615,0.0857 -4.78465,0.50829 -4.78465,1.13053 0,0.47854 -1.17031,0.42042 -1.58455,-0.0787 -1.00091,-1.20602 -2.65245,-12.7784 -2.73392,-19.15663 -0.0446,-3.48937 -0.0625,-3.56944 -0.74996,-3.35557 -0.38736,0.1205 -1.22384,0.33793 -1.85884,0.48318 -1.55301,0.35524 -7.297879,1.89577 -7.916883,2.12298 -0.272143,0.0999 -0.86591,0.25228 -1.319481,0.33864 -0.453571,0.0864 -1.975097,0.47879 -3.381169,0.87206 -3.000063,0.83911 -2.824423,0.20366 -1.9196,6.94491 0.350289,2.6098 0.741865,7.00308 0.870165,9.76286 0.209151,4.49899 0.288966,4.98797 0.771955,4.72949 0.47342,-0.25337 4.31519,-0.45856 7.580333,-0.40488 1.24487,0.0205 2.0019,0.53744 1.50468,1.02754 -0.40284,0.39708 -5.670326,1.09889 -6.761988,0.90093 -0.457533,-0.083 -1.420391,0.054 -2.139683,0.30431 -1.796605,0.62527 -2.126333,0.58212 -2.117238,-0.27712 z m -13.22832,-20.52496 c 0.516217,-0.26695 1.510828,-0.62481 2.210242,-0.79525 0.699414,-0.17044 3.052961,-0.78006 5.230104,-1.35471 2.177143,-0.57466 4.477987,-1.17454 5.112987,-1.33308 1.623284,-0.40527 12.202035,-3.18462 15.174025,-3.98666 3.25157,-0.87748 6.09801,-1.4929 9.73117,-2.10394 3.54401,-0.59605 9.74281,-2.1272 10.27427,-2.53782 0.28257,-0.21832 0.26591,-0.68522 -0.0659,-1.84703 -0.60047,-2.10251 -1.4695,-5.81154 -1.83281,-7.82239 -0.2829,-1.56575 -0.7759,-3.55706 -1.79669,-7.25714 -0.56905,-2.06261 -0.96305,-3.85188 -1.63438,-7.42208 -0.28997,-1.54214 -0.66418,-3.24922 -0.83155,-3.7935 -0.58358,-1.89769 -1.68465,-7.27989 -2.12573,-10.39091 -0.24438,-1.72357 -0.62178,-4.06153 -0.83868,-5.19546 l -0.39436,-2.06169 h -1.60277 c -0.88152,0 -4.05505,0.37221 -7.05229,0.82712 -2.99723,0.45491 -6.08249,0.9001 -6.85613,0.98929 -0.773646,0.0892 -1.926172,0.23296 -2.561172,0.31948 -0.635,0.0865 -2.49052,0.24656 -4.123377,0.35566 -1.632857,0.1091 -4.007922,0.41641 -5.277922,0.68291 -2.495952,0.52375 -4.3792,0.8726 -8.741558,1.61928 -1.542143,0.26396 -3.620324,0.7159 -4.618182,1.00431 -0.997857,0.28841 -2.589094,0.72025 -3.536085,0.95965 -0.946991,0.23941 -2.1771,0.63527 -2.733571,0.8797 -1.14868,0.50456 -1.132052,-0.51473 -0.139103,8.52624 0.745308,6.78618 2.13105,15.68842 2.553755,16.40576 0.08189,0.13897 0.244682,0.99489 0.361749,1.90203 0.304754,2.36148 1.923529,9.88781 3.121752,14.51429 0.563864,2.17714 1.204745,5.18308 1.424178,6.67987 0.219433,1.49678 0.450827,2.72142 0.514205,2.72142 0.06338,0 0.537593,-0.21841 1.053813,-0.48535 z m 7.081592,-26.91916 c -2.570407,-0.74619 -4.001921,-3.5064 -3.638233,-7.01517 0.391998,-3.78186 2.050506,-5.99317 5.104559,-6.80595 1.677736,-0.44649 4.784327,-0.3772 6.025671,0.13441 1.348674,0.55584 3.818442,3.00058 4.257258,4.2141 0.355475,0.98304 0.295138,1.31809 -0.582683,3.23556 -1.074611,2.34733 -3.894324,5.38721 -5.702105,6.14733 -1.180546,0.49638 -3.909294,0.54118 -5.464467,0.0897 z m 5.592397,-1.72988 c 2.265354,-1.48508 4.827396,-5.10027 4.827396,-6.81174 0,-0.86285 -2.213231,-3.16288 -3.522545,-3.66068 -1.52685,-0.5805 -4.776727,-0.34638 -6.348116,0.45732 -1.948404,0.99654 -2.739908,2.54012 -2.790734,5.44248 -0.05158,2.94535 0.843639,4.49814 2.86474,4.96898 1.717726,0.40018 4.036321,0.21524 4.969259,-0.39636 z m -2.940303,-1.75663 c -1.783292,-1.9242 -0.391936,-5.41097 1.959362,-4.91019 0.56387,0.12009 1.311194,0.27939 1.660718,0.354 1.597498,0.34101 1.590644,2.3323 -0.01415,4.1086 -1.419191,1.57088 -2.44671,1.69842 -3.605939,0.44759 z m 16.333922,-0.0973 c -2.41593,-0.73401 -3.782097,-3.14132 -3.55551,-6.26516 0.18134,-2.50016 1.09504,-4.19382 3.16593,-5.86849 1.37603,-1.11276 2.01141,-1.41047 3.01025,-1.41047 1.52604,0 4.53688,1.2819 5.53354,2.35597 0.90383,0.97404 2.06532,3.49892 2.07492,4.51052 0.007,0.72092 -0.51013,2.00725 -0.95244,2.36987 -0.11065,0.0907 -0.49664,0.72976 -0.85776,1.4201 -0.36112,0.69034 -0.96119,1.54215 -1.33349,1.89291 -1.10008,1.03643 -5.09995,1.59799 -7.08544,0.99475 z m 4.62858,-1.53781 c 0.93796,-0.15567 1.36026,-0.50957 2.25116,-1.88659 0.66577,-1.02905 1.16721,-2.29104 1.2763,-3.21216 0.16281,-1.37465 0.0755,-1.6358 -0.92885,-2.77974 -1.21153,-1.37986 -3.24333,-2.45986 -4.6491,-2.47123 -1.3166,-0.0106 -3.0518,0.92585 -3.67722,1.98461 -0.79167,1.34018 -1.18892,3.87908 -0.87396,5.58555 0.49165,2.6638 2.41638,3.47419 6.60167,2.77956 z m -2.72143,-1.14702 c -0.37803,-0.22019 -0.57727,-0.73993 -0.57727,-1.50593 0,-2.6292 2.7775,-4.33024 4.47169,-2.73863 1.27746,1.20011 1.1024,2.65653 -0.44851,3.73132 -1.31179,0.90906 -2.47011,1.08159 -3.44591,0.51324 z"
       id="path77367" />
  </g>
</svg>
