<?xml version="1.0" encoding="UTF-8" standalone="no"?>
<!-- Created with Inkscape (http://www.inkscape.org/) -->

<svg
   width="87.910225mm"
   height="113.66313mm"
   viewBox="0 0 87.910225 113.66313"
   version="1.1"
   id="svg89690"
   xmlns="http://www.w3.org/2000/svg"
   xmlns:svg="http://www.w3.org/2000/svg">
  <defs
     id="defs89687" />
  <g
     id="layer1"
     transform="translate(-62.379373,-85.908419)">
    <path
       style="fill:#ffdc0e;fill-opacity:1;stroke:none;stroke-width:0.264583px;stroke-linecap:butt;stroke-linejoin:miter;stroke-opacity:1"
       d="m 73.762107,101.03588 c -0.539332,1.54646 -0.402537,3.3647 -0.584451,4.24546 -2.0544,0.57596 -3.848344,2.21163 -4.055946,2.81174 1.163872,0.86327 2.367496,0.5669 3.729955,0.81784 -0.133471,2.39546 0.04437,4.05635 0.470676,4.76832 2.127659,-1.65895 2.179321,-2.8068 3.167572,-3.348 4.159973,1.33735 3.824445,1.39288 4.975019,1.38371 -0.02848,-2.45871 -1.119949,-3.03552 -2.132586,-4.29577 1.310766,-1.28262 2.336119,-2.9813 2.054449,-4.13882 -1.413527,-0.38203 -3.820813,0.37977 -4.85889,1.03355 -1.008454,-1.77082 -1.410101,-2.82908 -2.765798,-3.27803 z M 107.0944,93.290236 c 0.5434,1.159177 3.23355,1.038112 3.88193,1.176768 -0.0476,1.360629 0.94946,3.060914 1.39752,3.434271 1.47639,-1.453966 1.57135,-3.169565 1.91355,-3.436887 1.27057,0.240118 4.82643,0.229077 5.66436,-0.255969 0.34185,-1.241845 -2.55202,-2.462259 -3.45262,-3.153347 0.0623,-0.850066 1.78354,-2.637964 1.31221,-3.895964 -1.02837,-0.928442 -2.63287,0.906655 -3.76587,1.405721 -0.92625,-0.641841 -1.98774,-2.544035 -3.12281,-2.310561 -1.16924,1.52122 0.006,3.340584 -0.15131,4.220054 -1.6249,1.661444 -3.31958,1.767312 -3.67696,2.815914 z m 18.14248,14.628724 c 1.21304,0.90246 1.9216,0.76111 2.4343,1.38407 -0.97279,2.68711 -1.34974,2.68035 -0.96505,3.25392 0.84918,0.21132 2.0787,-1.59462 3.07328,-1.71559 0.72896,1.01054 1.95155,1.87593 2.61979,1.39375 0.9755,-0.58733 -0.42683,-1.55403 -0.19253,-2.33234 1.5796,-0.78754 2.10024,-0.59781 2.52412,-1.81839 0.22536,-0.57382 -2.19008,-0.60189 -3.18161,-1.27551 -0.39032,-1.34234 -1.18938,-2.50959 -1.67293,-2.28247 -0.5536,0.55707 -1.01365,1.36901 -1.337,2.0433 -1.64097,0.1749 -3.26349,0.87289 -3.30237,1.34926 z"
       id="path90194" />
    <path
       style="fill:#35a37b;fill-opacity:1;stroke:none;stroke-width:0.264583px;stroke-linecap:butt;stroke-linejoin:miter;stroke-opacity:1"
       d="m 78.597344,127.82289 c 0.778359,17.27888 7.757905,43.78658 8.760875,51.7023 18.337671,-5.54649 44.876071,-10.73864 50.784631,-13.00364 -3.75787,-11.95591 -9.72306,-40.25837 -10.22036,-46.91498 -11.04183,1.25017 -41.980991,4.88968 -49.325146,8.21632 z"
       id="path97981" />
    <path
       style="fill:#ffffff;stroke:none;stroke-width:0.264583px;stroke-linecap:butt;stroke-linejoin:miter;stroke-opacity:1"
       d="m 93.454854,144.38152 c -0.50191,9.83285 9.166716,7.15667 12.071156,2.77996 6.28177,-9.46603 -11.465509,-14.64511 -12.071156,-2.77996 z m 19.091296,-3.33704 c -0.89983,3.32976 1.60355,9.68418 9.19068,4.53223 8.13134,-5.52148 -5.46251,-18.32801 -9.19068,-4.53223 z"
       id="path102297" />
    <path
       style="fill:#000000;stroke-width:0.32987"
       d="m 102.28726,198.82926 c 0.0108,-1.02039 -0.61326,-7.12764 -0.83318,-8.15381 -0.3206,-1.49589 -1.15243,-12.84453 -0.97532,-13.30609 0.13729,-0.35777 -0.38364,-0.32273 -2.563326,0.17241 -3.798544,0.86287 -6.435512,1.53868 -8.17849,2.09599 -1.824181,0.58328 -3.182778,0.60829 -3.206717,0.059 -0.0099,-0.22679 -0.390985,-1.89676 -0.846885,-3.71104 -0.4559,-1.81429 -1.007987,-4.18935 -1.22686,-5.27792 -0.218868,-1.08858 -0.531734,-2.35033 -0.695254,-2.8039 -0.163523,-0.45357 -0.504374,-1.78955 -0.757454,-2.96883 -0.253076,-1.17929 -0.697164,-3.02888 -0.986862,-4.11022 -0.289696,-1.08133 -0.528993,-2.19464 -0.531771,-2.47402 -0.01046,-1.05023 -0.576956,-1.37232 -2.665113,-1.51523 -1.162126,-0.0795 -2.425947,-0.21699 -2.808498,-0.30545 -0.38255,-0.0885 -1.765108,-0.31254 -3.072354,-0.49794 -1.599421,-0.22684 -2.990299,-0.68286 -4.252507,-1.39424 -1.031634,-0.58143 -2.418288,-1.33138 -3.081455,-1.66657 -0.663166,-0.33517 -1.600305,-1.20562 -2.082533,-1.93431 -1.411006,-2.13218 -0.738141,-3.70264 2.463615,-5.75007 0.816428,-0.52209 2.30644,-1.56895 3.311134,-2.32638 1.004698,-0.75742 2.530414,-1.7079 3.390481,-2.11219 1.210016,-0.56877 1.521328,-0.86874 1.376188,-1.32603 -0.541089,-1.70482 1.256706,-3.54708 3.101,-3.17772 l 0.861456,0.17254 -0.112957,-4.54311 -0.112954,-4.54311 1.267499,-0.75673 c 0.697128,-0.4162 1.712828,-0.87254 2.257113,-1.0141 0.544286,-0.14156 2.399805,-0.66156 4.123377,-1.15555 1.723571,-0.49399 4.098636,-1.0102 5.277922,-1.14714 1.179285,-0.13693 3.628571,-0.57088 5.442857,-0.96433 1.814285,-0.39345 4.486238,-0.85436 5.937658,-1.02423 4.75639,-0.55667 8.8973,-1.00432 9.4013,-1.01631 0.46567,-0.0111 6.90182,-0.93365 10.87151,-1.55837 1.68351,-0.26493 3.41706,-0.262 5.24318,0.009 0.98934,0.14674 1.40091,1.37205 2.36548,7.04233 1.13138,6.65082 1.23045,7.20132 1.45445,8.08182 0.11539,0.45357 0.33492,1.41844 0.48784,2.14416 0.15293,0.72571 0.66745,3.00939 1.14338,5.07485 0.47593,2.06545 0.86533,4.02517 0.86533,4.35493 0,0.33409 0.62075,1.02682 1.40195,1.56451 4.01528,2.76367 5.75842,5.36104 9.33583,13.9109 2.03018,4.85207 2.27433,5.2721 3.07469,5.28978 0.81577,0.0181 2.28048,1.36909 2.49048,2.29723 0.22376,0.98896 -0.35667,1.82736 -1.58962,2.29613 -1.31984,0.5018 -1.68848,0.4348 -2.81269,-0.51116 -1.11681,-0.93974 -1.36814,-2.40065 -0.53234,-3.09431 0.41385,-0.34346 0.41759,-0.50193 0.0263,-1.11247 -0.25097,-0.39157 -1.4164,-3.02656 -2.58985,-5.85551 -1.17344,-2.82896 -2.54074,-5.79779 -3.03844,-6.5974 -0.78341,-1.25862 -5.10656,-5.89736 -5.10656,-5.47934 0,0.0833 0.20915,0.65197 0.46477,1.26377 0.25563,0.61179 0.45765,1.18658 0.44894,1.27729 -0.0181,0.18907 1.18875,5.79871 1.88073,8.74156 0.25597,1.08857 0.64202,2.79565 0.8579,3.79351 0.21587,0.99785 0.53329,1.99214 0.70537,2.20952 0.51143,0.64607 -0.43914,2.15972 -1.55381,2.47421 -6.16782,1.74016 -7.11657,1.97694 -9.07143,2.26393 -0.99786,0.14649 -3.01107,0.50926 -4.47379,0.80614 l -2.65951,0.53979 0.10826,1.87333 c 0.25447,4.40325 1.2026,13.04987 1.73025,15.7792 0.72671,3.75903 0.52407,3.44239 1.84875,2.8889 1.70594,-0.71279 8.17745,-0.53047 8.32391,0.23451 0.15196,0.79378 -0.73916,1.03261 -4.21813,1.1305 -3.07818,0.0866 -4.94805,0.49891 -4.94805,1.09101 0,0.16477 -0.35472,0.36738 -0.78825,0.45026 -0.68183,0.13034 -0.84252,-0.0305 -1.19016,-1.19073 -0.22104,-0.73778 -0.52649,-2.16137 -0.67877,-3.16353 -0.15229,-1.00216 -0.49618,-3.08386 -0.76421,-4.626 -0.60084,-3.45706 -0.84643,-6.40414 -0.90196,-10.82362 -0.0377,-3.00133 -0.10609,-3.37698 -0.58113,-3.1928 -0.29611,0.11481 -1.13215,0.33298 -1.85786,0.48483 -0.72572,0.15184 -2.72968,0.65468 -4.45325,1.11742 -1.72357,0.46273 -4.83018,1.29453 -6.90357,1.84843 -2.0734,0.55389 -3.84322,1.0805 -3.93294,1.17022 -0.0897,0.0897 0.0948,1.98065 0.41003,4.20205 0.31524,2.22141 0.74041,6.82775 0.94483,10.23632 l 0.37167,6.19739 0.84395,-0.17233 c 0.46418,-0.0948 2.50899,-0.20917 4.54404,-0.2542 3.59537,-0.0795 4.75615,0.18893 4.26347,0.98609 -0.26934,0.4358 -4.61111,1.06592 -6.89853,1.00117 -1.09312,-0.0309 -2.06936,0.11168 -2.2926,0.33491 -0.21383,0.21383 -0.72854,0.38879 -1.1438,0.38879 -0.56538,0 -0.75303,-0.18641 -0.74714,-0.74221 z M 89.058936,178.3043 c 0.516217,-0.26695 1.510828,-0.62481 2.210242,-0.79525 0.699414,-0.17044 3.052961,-0.78006 5.230104,-1.35471 2.177143,-0.57466 4.477988,-1.17454 5.112988,-1.33308 1.62328,-0.40527 12.20203,-3.18462 15.17402,-3.98666 3.25157,-0.87748 6.09801,-1.4929 9.73117,-2.10394 3.54401,-0.59605 9.74282,-2.1272 10.27427,-2.53782 0.28257,-0.21832 0.26591,-0.68523 -0.0659,-1.84703 -0.60046,-2.10251 -1.4695,-5.81154 -1.83281,-7.82239 -0.2829,-1.56575 -0.77589,-3.55706 -1.79669,-7.25714 -0.56904,-2.06261 -0.96305,-3.85188 -1.63437,-7.42208 -0.28998,-1.54214 -0.66418,-3.24922 -0.83156,-3.79351 -0.58357,-1.89768 -1.68464,-7.27988 -2.12573,-10.3909 -0.24437,-1.72358 -0.62177,-4.06153 -0.83867,-5.19546 l -0.39437,-2.06169 h -1.60277 c -0.88152,0 -4.05505,0.37221 -7.05229,0.82712 -2.99723,0.45491 -6.08249,0.9001 -6.85613,0.98929 -0.77364,0.0892 -1.92617,0.23296 -2.56117,0.31948 -0.635,0.0865 -2.49052,0.24656 -4.12338,0.35566 -1.63285,0.1091 -4.00792,0.41641 -5.277917,0.68291 -2.495952,0.52375 -4.379201,0.8726 -8.741558,1.61928 -1.542143,0.26396 -3.620325,0.7159 -4.618182,1.00431 -0.997857,0.28841 -2.589094,0.72025 -3.536085,0.95965 -0.946992,0.23941 -2.1771,0.63527 -2.733571,0.8797 -1.148681,0.50456 -1.132052,-0.51473 -0.139103,8.52624 0.807466,7.35212 0.893172,7.88396 3.375577,20.94675 1.063732,5.59753 1.09351,5.72993 2.670863,11.87532 0.558813,2.17715 1.195561,5.18309 1.414994,6.67987 0.219433,1.49679 0.450827,2.72143 0.514205,2.72143 0.06338,0 0.537593,-0.21841 1.053813,-0.48535 z m 7.081592,-26.91916 c -2.570407,-0.74619 -4.001921,-3.5064 -3.638233,-7.01517 0.391998,-3.78187 2.050506,-5.99317 5.104559,-6.80595 1.677736,-0.4465 4.784326,-0.3772 6.025676,0.13441 1.34867,0.55584 3.81844,3.00058 4.25725,4.2141 0.35548,0.98304 0.29514,1.31809 -0.58268,3.23556 -1.07461,2.34733 -3.89432,5.38721 -5.70211,6.14732 -1.18054,0.49639 -3.909289,0.54119 -5.464462,0.0897 z m 5.636672,-1.7685 c 2.19189,-1.40504 4.78312,-5.07435 4.78312,-6.77312 0,-0.86286 -2.21323,-3.16288 -3.52254,-3.66068 -1.52685,-0.5805 -4.776731,-0.34638 -6.34812,0.45732 -1.948405,0.99653 -2.739908,2.54012 -2.790734,5.44248 -0.05158,2.94524 0.843616,4.49804 2.86474,4.96918 1.624116,0.37859 4.076064,0.16575 5.013534,-0.43518 z m -2.984579,-1.71801 c -1.75925,-1.89826 -0.399166,-5.3952 1.918129,-4.93175 0.54119,0.10824 1.17749,0.1968 1.41399,0.1968 0.73802,0 1.46675,0.99458 1.46675,2.00183 0,1.27343 -2.06211,3.60596 -3.1879,3.60596 -0.443595,0 -1.163569,-0.39009 -1.610969,-0.87284 z m 16.333919,-0.0973 c -2.41593,-0.73402 -3.78209,-3.14133 -3.55551,-6.26516 0.18135,-2.50016 1.09504,-4.19383 3.16593,-5.86849 1.37603,-1.11276 2.01141,-1.41047 3.01026,-1.41047 1.52604,0 4.53687,1.2819 5.53353,2.35597 0.90383,0.97404 2.06533,3.49892 2.07492,4.51052 0.007,0.72092 -0.51013,2.00724 -0.95244,2.36987 -0.11064,0.0907 -0.49664,0.72976 -0.85776,1.4201 -0.36112,0.69034 -0.96119,1.54215 -1.33349,1.89291 -1.10007,1.03643 -5.09995,1.59799 -7.08544,0.99475 z m 4.62859,-1.53781 c 0.93796,-0.15567 1.36025,-0.50957 2.25115,-1.88659 0.66578,-1.02905 1.16721,-2.29104 1.2763,-3.21216 0.16281,-1.37465 0.0755,-1.63581 -0.92884,-2.77974 -1.21153,-1.37986 -3.24334,-2.45986 -4.64911,-2.47123 -1.29392,-0.0104 -3.05009,0.9207 -3.63497,1.92735 -0.79674,1.37126 -1.22346,3.99513 -0.91769,5.64281 0.49438,2.66409 2.41857,3.47407 6.60316,2.77956 z m -2.72143,-1.14702 c -0.37804,-0.22019 -0.57728,-0.73993 -0.57728,-1.50593 0,-2.6292 2.7775,-4.33024 4.4717,-2.73863 0.99481,0.93458 1.07919,2.57116 0.17258,3.34742 -1.47084,1.25938 -2.90277,1.57524 -4.067,0.89714 z m -36.309602,8.85045 c -0.09819,-0.58965 -0.487512,-2.77916 -0.865157,-4.86559 -0.603471,-3.33408 -0.91059,-5.20771 -0.985448,-6.01188 -0.01224,-0.13154 -0.449451,-0.15372 -0.971573,-0.0493 -0.8975,0.1795 -2.291027,-0.29503 -2.701468,-0.91991 -0.213653,-0.32529 -2.026738,0.61794 -4.819818,2.50743 -1.056171,0.71448 -2.501616,1.67935 -3.212099,2.14415 -0.710482,0.4648 -1.560195,1.28628 -1.888251,1.82552 -0.592259,0.97352 -0.590274,0.9869 0.281425,1.89675 0.482839,0.50398 1.019251,0.91632 1.192027,0.91632 0.172776,0 1.019286,0.43388 1.881133,0.96418 2.079175,1.27933 4.153632,1.95557 6.636265,2.1633 1.122099,0.0939 2.11452,0.24504 2.205376,0.3359 0.09086,0.0909 0.898906,0.16519 1.795658,0.16519 H 80.90263 Z M 70.044477,131.61434 c -0.398714,-0.16057 -0.968819,-0.76356 -1.266899,-1.33999 -0.524633,-1.01453 -0.512849,-1.10209 0.368514,-2.73844 1.064451,-1.97628 3.268426,-4.91203 4.715018,-6.28053 l 1.016423,-0.96155 -3.056551,-1.51248 c -3.898616,-1.92915 -7.841064,-5.14642 -8.796069,-7.17811 -1.072296,-2.28121 -0.824068,-3.66487 0.859798,-4.79266 1.142839,-0.76542 1.833015,-0.94392 4.288312,-1.10905 1.609441,-0.10825 3.334474,-0.35117 3.833403,-0.53982 0.831048,-0.31423 0.907142,-0.48844 0.907142,-2.07688 0,-2.96408 1.420791,-3.311592 2.707904,-0.66233 0.458318,0.94337 0.893404,1.4411 1.167691,1.33585 0.240452,-0.0923 1.254928,-0.40549 2.254392,-0.69604 2.043212,-0.59398 2.865027,-0.29273 2.628777,0.96362 -0.07321,0.38934 -0.144146,0.80782 -0.157628,0.92998 -0.01349,0.12215 -0.406255,0.67576 -0.87283,1.23026 -0.466575,0.55449 -0.761911,1.14797 -0.656306,1.31884 0.105605,0.17087 1.415107,0.71372 2.910002,1.20633 1.494899,0.49261 3.142349,1.11021 3.661001,1.37244 0.888508,0.44924 1.041014,0.415 2.638961,-0.59243 8.163124,-5.14648 16.164418,-9.44201 19.732878,-10.593698 1.59456,-0.514629 2.25177,-0.896965 2.37915,-1.384082 0.0968,-0.37017 0.0481,-0.752567 -0.1082,-0.849773 -0.15632,-0.09721 -0.33629,-0.544917 -0.39994,-0.994914 -0.0973,-0.688282 -0.38425,-0.877614 -1.80711,-1.192559 -0.93027,-0.20591 -1.85803,-0.477368 -2.06169,-0.603239 -0.6577,-0.406481 -0.39419,-1.183426 0.53684,-1.582858 0.49893,-0.214051 1.32826,-0.675487 1.84296,-1.025414 0.83904,-0.570442 0.91082,-0.759711 0.69419,-1.830369 -0.34531,-1.706639 -0.22169,-2.786001 0.36923,-3.22381 0.73615,-0.545417 1.20016,-0.395246 2.47758,0.801831 0.62203,0.58292 1.25221,1.060541 1.40039,1.06138 0.14818,8.25e-4 0.76446,-0.376067 1.36952,-0.837571 0.81351,-0.620489 1.32342,-0.783053 1.95722,-0.62398 1.06109,0.266317 1.06735,0.606078 0.0483,2.618938 -0.44483,0.878649 -0.73164,1.722356 -0.63736,1.874905 0.0943,0.15255 0.75015,0.57261 1.45749,0.933467 1.39275,0.710528 2.22621,1.847032 1.72333,2.349916 -0.3041,0.304095 -1.64233,0.482461 -4.26298,0.568186 -1.26133,0.04126 -1.43948,0.162548 -2.17701,1.482139 l -0.80327,1.437202 1.51727,-0.474157 c 4.94121,-1.544155 6.10401,-1.771348 7.92344,-1.548112 2.46916,0.302954 3.13066,0.585431 4.2173,1.80088 2.03103,2.27178 1.96853,4.683742 -0.19767,7.629322 -0.56347,0.7662 -1.02449,1.50035 -1.02449,1.63144 0,0.50316 2.8416,-0.90124 3.57542,-1.76708 0.99782,-1.17733 1.25462,-1.14806 2.0713,0.23612 0.52961,0.89763 1.06417,1.26868 2.46291,1.70959 0.98256,0.30973 1.78647,0.69122 1.78647,0.84777 0,0.48241 -1.5897,1.90398 -2.12916,1.90398 -0.57146,0 -0.65582,0.57778 -0.19157,1.31195 0.21082,0.33337 0.14098,0.67197 -0.22111,1.07207 -0.7119,0.78664 -1.05378,0.73981 -2.13055,-0.2918 l -0.91499,-0.87661 -1.26495,0.87661 c -2.08634,1.44583 -2.58364,1.01971 -1.48897,-1.27585 0.70241,-1.47295 0.34599,-1.79353 -2.0023,-1.80093 -1.53236,-0.005 -1.70452,0.093 -3.95844,2.24866 -1.29602,1.23954 -3.09861,2.75989 -4.00575,3.37855 -0.90714,0.61866 -2.07279,1.46323 -2.59032,1.87683 -1.97188,1.57587 -5.72718,2.74548 -6.03688,1.88022 -0.0673,-0.18803 0.73298,-0.74041 1.7784,-1.22752 3.49552,-1.62875 9.80926,-6.52835 13.40441,-10.40211 1.13728,-1.22542 3.17566,-4.75013 3.17432,-5.48896 -0.002,-1.132455 -1.26147,-2.836506 -2.46942,-3.34122 -1.55042,-0.647809 -3.52403,-0.581871 -6.2709,0.209509 -1.27,0.365889 -3.97974,1.096951 -6.02163,1.624581 -2.0419,0.52763 -4.93651,1.55352 -6.43247,2.27975 -3.26947,1.58719 -11.156519,5.98945 -14.017176,7.82386 l -2.060887,1.32155 2.720627,1.27155 c 8.219236,3.84146 10.092336,4.76795 10.291736,5.0906 0.12088,0.19558 0.0871,0.35559 -0.075,0.35559 -0.39833,0 -5.639111,-2.1509 -10.387094,-4.26302 l -3.880605,-1.72627 -2.057057,1.39825 c -2.497103,1.69736 -7.249447,5.3762 -7.796474,6.03532 -0.332782,0.40098 -0.11424,0.55825 1.351749,0.97278 0.961789,0.27195 2.639357,0.67856 3.727928,0.90356 1.088571,0.22501 2.196582,0.60901 2.462246,0.85334 0.765391,0.70391 -2.311819,0.56361 -5.266142,-0.24011 -4.403667,-1.19801 -3.911445,-1.30525 -6.414664,1.39757 -3.22451,3.48164 -4.906792,6.69154 -3.849456,7.34501 0.160449,0.0992 0.976878,0.20621 1.814286,0.23788 1.688664,0.0639 1.969014,0.45695 0.676412,0.9484 -1.010122,0.38405 -1.706874,0.38092 -2.682682,-0.012 z m 8.356316,-14.45412 c 1.259612,-1.05761 3.509112,-2.77705 4.998891,-3.82096 1.489779,-1.04392 2.708689,-2.00701 2.708689,-2.1402 0,-0.13319 -0.853539,-0.51103 -1.896753,-0.83965 -1.043214,-0.32861 -2.053042,-0.65726 -2.24406,-0.73032 -0.217253,-0.0831 -0.296527,0.30211 -0.211704,1.0287 0.185047,1.58504 -0.416438,1.74008 -3.065315,0.79009 l -2.15492,-0.77284 -1.776225,1.97744 -1.776225,1.97744 -0.198503,-1.15455 c -0.109177,-0.635 -0.236167,-1.81917 -0.282204,-2.6315 -0.08349,-1.47326 -0.08737,-1.47758 -1.550145,-1.72563 -1.894094,-0.32119 -2.627238,-0.98502 -1.968856,-1.78273 0.434254,-0.52615 0.333515,-0.54964 -1.458695,-0.34021 -2.569457,0.30027 -3.847563,0.97989 -3.847563,2.04589 0,1.41386 0.835337,2.90253 2.303049,4.10431 0.775514,0.635 1.682845,1.40927 2.016291,1.7206 1.310873,1.22391 6.832945,4.1589 7.917482,4.20814 0.108109,0.005 1.227153,-0.8564 2.486766,-1.91402 z m -3.859075,-5.41667 c 0.184078,-0.22678 0.682633,-0.84139 1.107902,-1.3658 l 0.773219,-0.95347 1.73037,0.57474 c 1.853438,0.61561 2.402741,0.48569 1.756397,-0.41544 -0.221485,-0.3088 -0.648413,-1.03649 -0.948723,-1.61708 -0.545107,-1.05385 -0.543996,-1.05787 0.661772,-2.39251 0.664289,-0.73529 1.207796,-1.4849 1.207796,-1.6658 0,-0.52874 -1.701058,-0.36585 -3.176606,0.30419 l -1.362321,0.61863 -1.111705,-1.53301 -1.111705,-1.53302 -0.0985,2.07294 -0.0985,2.07294 -1.856582,0.82107 c -2.073936,0.91719 -2.034441,1.4153 0.140057,1.7663 1.249821,0.20175 1.254103,0.20785 1.353493,1.93002 0.0993,1.7206 0.397094,2.09955 1.033638,1.3153 z m 57.748472,-0.41681 c 0,-0.0932 -0.17896,-0.45598 -0.3977,-0.80622 -0.32714,-0.52385 -0.29017,-0.75562 0.20844,-1.30659 0.33338,-0.36837 0.88344,-0.75778 1.22237,-0.86535 1.00414,-0.31871 0.70744,-0.71197 -0.70788,-0.93829 -0.72827,-0.11645 -1.63971,-0.52732 -2.02542,-0.91303 l -0.7013,-0.7013 -0.53107,0.66774 c -0.29209,0.36726 -1.12155,0.85605 -1.84325,1.0862 l -1.31217,0.41845 1.06477,0.50427 c 1.1002,0.52104 1.3045,0.85721 0.7349,1.20924 -0.43813,0.27078 -0.42473,1.48442 0.0164,1.48442 0.19044,0 0.75252,-0.21009 1.24907,-0.46687 0.80948,-0.41859 0.98685,-0.4023 1.71544,0.1576 0.80339,0.61737 1.30742,0.79846 1.30742,0.46973 z M 113.30045,94.425371 c 0.20079,-0.643462 0.45905,-0.742879 1.94119,-0.747259 2.62569,-0.0078 2.86563,-0.357038 1.24872,-1.817816 -1.33141,-1.202848 -1.35481,-1.259647 -0.84158,-2.04293 0.29035,-0.443126 0.44377,-1.024946 0.34093,-1.292934 -0.152,-0.396117 -0.39321,-0.329948 -1.28962,0.353778 l -1.10265,0.841029 -0.66551,-0.739466 c -0.36603,-0.406707 -0.7608,-1.008648 -0.87727,-1.337647 -0.44271,-1.250561 -0.96074,-0.151678 -0.77533,1.644697 0.1799,1.743078 0.15982,1.796505 -0.94404,2.511381 -1.60351,1.038465 -1.53855,1.232381 0.56664,1.691436 0.72236,0.157518 0.91828,0.430068 1.10543,1.537751 0.20391,1.206948 0.27062,1.283879 0.64447,0.743244 0.22937,-0.331681 0.52124,-0.937049 0.64862,-1.345264 z"
       id="path90141" />
  </g>
</svg>
