<?xml version="1.0" encoding="UTF-8" standalone="no"?>
<!-- Created with Inkscape (http://www.inkscape.org/) -->

<svg
   width="78.617989mm"
   height="101.32228mm"
   viewBox="0 0 78.617989 101.32228"
   version="1.1"
   id="svg82562"
   xmlns="http://www.w3.org/2000/svg"
   xmlns:svg="http://www.w3.org/2000/svg">
  <defs
     id="defs82559" />
  <g
     id="layer1"
     transform="translate(-60.055187,-98.982578)">
    <path
       style="fill:#00be34;fill-opacity:1;stroke:none;stroke-width:0.264583px;stroke-linecap:butt;stroke-linejoin:miter;stroke-opacity:1"
       d="m 118.0521,108.2668 c -1.80021,1.17579 -4.08796,2.95774 -4.93467,5.24766 8.16748,6.66288 10.82421,8.47678 12.05872,7.11159 1.754,-1.93966 8.88171,-9.60998 13.22606,-12.9076 -2.42127,-2.14409 -4.92477,-4.90845 -6.51262,-7.22966 -5.21469,5.28446 -8.67072,10.68958 -8.7699,12.84654 -3.88007,-4.21971 -5.1744,-5.08415 -5.06759,-5.06853 z"
       id="path82795" />
    <path
       style="fill:#35a37b;fill-opacity:1;stroke:none;stroke-width:0.264583px;stroke-linecap:butt;stroke-linejoin:miter;stroke-opacity:1"
       d="m 61.571629,129.02713 c 0.03178,17.93183 7.853913,43.95345 9.002697,51.04619 33.899254,-9.95931 43.111914,-10.05586 50.321954,-12.40678 -3.86947,-17.30947 -8.00023,-34.84957 -10.49505,-47.12068 -19.299438,0.83164 -41.496291,4.41199 -48.829601,8.48127 z"
       id="path85991" />
    <path
       style="fill:#ffffff;stroke:none;stroke-width:0.264583px;stroke-linecap:butt;stroke-linejoin:miter;stroke-opacity:1"
       d="m 76.91803,141.54101 c -3.759626,5.48979 3.295202,16.41687 11.406422,6.62654 6.524796,-7.8755 -6.827736,-13.31234 -11.406422,-6.62654 z m 18.971576,-0.49654 c -2.300915,8.81989 8.582084,9.27743 11.214344,2.16242 1.87577,-5.07021 -8.73042,-11.68383 -11.214344,-2.16242 z"
       id="path87305" />
    <path
       style="fill:#000000;stroke-width:0.32987"
       d="m 85.189506,199.60343 c 0.01079,-1.02039 -0.613252,-7.12764 -0.83318,-8.15381 -0.332852,-1.55309 -1.149027,-12.8534 -0.963303,-13.33739 0.161099,-0.41982 -0.05786,-0.42092 -1.738657,-0.009 -1.057629,0.25939 -2.368289,0.56646 -2.912575,0.68238 -2.039597,0.43439 -5.64033,1.39204 -6.536409,1.73843 -1.251858,0.48391 -2.752849,0.45492 -2.763893,-0.0534 -0.0049,-0.22678 -0.38638,-1.89675 -0.847671,-3.71103 -0.461293,-1.81429 -1.021551,-4.18935 -1.245022,-5.27793 -0.223471,-1.08857 -0.594594,-2.57298 -0.824718,-3.2987 -0.230124,-0.72571 -0.577692,-2.13591 -0.772368,-3.13376 -0.194679,-0.99786 -0.636679,-2.9276 -0.982228,-4.28831 -0.600848,-2.36608 -0.644259,-2.43381 -0.994826,-1.55234 -0.201606,0.50693 -0.434505,1.24914 -0.517549,1.64935 -0.08304,0.40021 -0.405955,1.76675 -0.717577,3.03675 -0.578157,2.35624 -0.741327,8.58114 -0.30696,11.71039 0.113327,0.81643 0.292581,2.25945 0.398344,3.20672 0.138272,1.23844 0.354162,1.77368 0.768469,1.90517 0.743583,0.23601 1.513827,1.12071 1.803839,2.0719 0.311021,1.02009 -1.460045,2.71231 -2.838681,2.71231 -2.157658,0 -2.95914,-2.22134 -1.733445,-4.8043 0.521344,-1.09865 0.51436,-1.84882 -0.03819,-4.10219 -0.111219,-0.45357 -0.191694,-3.02816 -0.178832,-5.7213 0.02718,-5.69341 0.720535,-9.25216 2.494732,-12.80473 0.977682,-1.95766 1.061904,-2.33563 0.771803,-3.46364 -0.379608,-1.47603 -1.541446,-8.17876 -1.7919,-10.33759 -0.09472,-0.81643 -0.314637,-2.37507 -0.48871,-3.46364 -0.174075,-1.08857 -0.411489,-4.3872 -0.527584,-7.33028 -0.199885,-5.06709 -0.177731,-5.36298 0.417457,-5.57547 0.345698,-0.12342 0.851204,-0.40745 1.123347,-0.63118 0.704434,-0.57911 9.678515,-3.12151 11.018216,-3.12151 0.615251,0 2.8782,-0.38372 5.028781,-0.8527 3.996634,-0.87157 5.989753,-1.15238 12.651704,-1.78251 2.086429,-0.19735 5.129481,-0.57186 6.762338,-0.83225 7.614242,-1.21423 9.548412,-1.37681 12.676422,-1.06551 1.06411,0.1059 1.16016,0.48254 3.31486,12.99752 0.16118,0.93621 0.44647,2.27219 0.63398,2.96883 0.5738,2.13192 1.97657,8.44018 2.21046,9.9405 0.18332,1.17596 0.45155,1.57547 1.57829,2.35074 0.74658,0.51371 2.09963,1.70527 3.00677,2.64791 1.99134,2.06926 5.32393,4.63526 6.02005,4.63526 0.60986,0 1.21379,-0.71557 2.08799,-2.47402 0.36079,-0.72572 0.83996,-1.61637 1.06482,-1.97922 1.15298,-1.86054 1.34418,-2.44603 1.3124,-4.01876 -0.0423,-2.09067 0.42693,-2.79731 1.90643,-2.87136 1.07118,-0.0536 1.14324,-0.133 1.32097,-1.45543 0.41125,-3.06006 1.72002,-2.54314 2.13149,0.84187 0.67325,5.53857 0.31007,6.51407 -2.42523,6.51407 h -1.5666 l -1.26262,2.14415 c -2.25487,3.82917 -3.31929,5.26072 -3.91806,5.26942 -0.32203,0.005 -1.5957,-0.50022 -2.83038,-1.12199 -1.69125,-0.8517 -2.84422,-1.78468 -4.67523,-3.7832 -1.33671,-1.45898 -2.46676,-2.61631 -2.51123,-2.57184 -0.0445,0.0445 0.51279,2.67466 1.23835,5.84488 0.72556,3.17022 1.38323,6.06091 1.4615,6.42377 0.76886,3.56462 0.9721,4.31413 1.21501,4.48062 0.15432,0.10576 0.13323,0.57987 -0.0469,1.05358 -0.26764,0.70394 -0.76711,0.99231 -2.73421,1.57855 -3.39644,1.01222 -5.47414,1.52594 -7.18987,1.77773 -0.81643,0.11981 -2.37507,0.41913 -3.46364,0.66516 -1.08857,0.24602 -2.50735,0.53598 -3.15285,0.64435 -1.14414,0.19208 -1.17184,0.23217 -1.10285,1.59592 0.34,6.72072 0.74443,10.64777 1.60487,15.58331 0.75583,4.33554 0.66231,4.16251 1.95726,3.62145 0.7428,-0.31036 2.23663,-0.43458 4.68136,-0.38928 3.05424,0.0566 3.60623,0.14853 3.69607,0.61562 0.14597,0.7589 -0.8613,1.01537 -4.38361,1.11612 -2.99617,0.0857 -4.78466,0.50829 -4.78466,1.13052 0,0.47855 -1.17032,0.42043 -1.58455,-0.0787 -1.00091,-1.20602 -2.65245,-12.7784 -2.73392,-19.15664 -0.0446,-3.48936 -0.0625,-3.56943 -0.74996,-3.35556 -0.38736,0.1205 -1.22385,0.33793 -1.85885,0.48318 -1.553008,0.35523 -7.297875,1.89577 -7.916879,2.12298 -0.272143,0.0999 -0.865909,0.25228 -1.319481,0.33864 -0.453571,0.0864 -1.975097,0.47879 -3.381169,0.87206 -3.000063,0.83911 -2.824424,0.20366 -1.9196,6.94491 0.350289,2.60979 0.741865,7.00308 0.870165,9.76286 0.209151,4.49899 0.288966,4.98797 0.771955,4.72949 0.47342,-0.25337 4.31519,-0.45857 7.580333,-0.40488 1.244871,0.0204 2.001896,0.53744 1.50468,1.02754 -0.402841,0.39708 -5.670326,1.09888 -6.761988,0.90093 -0.457533,-0.083 -1.420391,0.054 -2.139683,0.30431 -1.796605,0.62527 -2.126333,0.58211 -2.117238,-0.27712 z M 71.961185,179.07846 c 0.516217,-0.26694 1.510829,-0.6248 2.210242,-0.79524 0.699414,-0.17044 3.052962,-0.78006 5.230105,-1.35471 2.177142,-0.57466 4.477987,-1.17454 5.112987,-1.33308 1.623284,-0.40527 12.202031,-3.18462 15.174026,-3.98666 3.251565,-0.87748 6.098005,-1.4929 9.731165,-2.10395 3.54402,-0.59604 9.74282,-2.12719 10.27427,-2.53781 0.28257,-0.21832 0.26591,-0.68523 -0.0659,-1.84704 -0.60046,-2.10251 -1.4695,-5.81153 -1.83281,-7.82238 -0.2829,-1.56576 -0.77589,-3.55706 -1.79669,-7.25714 -0.56904,-2.06262 -0.96305,-3.85188 -1.63437,-7.42208 -0.28998,-1.54214 -0.66418,-3.24922 -0.83156,-3.79351 -0.58357,-1.89768 -1.68464,-7.27988 -2.12573,-10.39091 -0.24437,-1.72357 -0.62177,-4.06152 -0.83867,-5.19545 l -0.39436,-2.06169 h -1.60277 c -0.88153,0 -4.05506,0.3722 -7.05229,0.82712 -2.997237,0.45491 -6.082499,0.90009 -6.85614,0.98929 -0.773642,0.0892 -1.926168,0.23296 -2.561168,0.31947 -0.635,0.0865 -2.49052,0.24657 -4.123377,0.35567 -1.632857,0.1091 -4.007922,0.4164 -5.277922,0.6829 -2.495953,0.52375 -4.379201,0.87261 -8.741559,1.61929 -1.542142,0.26396 -3.620324,0.7159 -4.618181,1.00431 -0.997858,0.2884 -2.589095,0.72025 -3.536086,0.95965 -0.946991,0.2394 -2.1771,0.63527 -2.733571,0.8797 -1.148681,0.50456 -1.132052,-0.51473 -0.139103,8.52624 0.745308,6.78618 2.13105,15.68842 2.553755,16.40576 0.08189,0.13897 0.244681,0.99489 0.361749,1.90203 0.304754,2.36148 1.923529,9.88781 3.121752,14.51428 0.563864,2.17715 1.204746,5.18309 1.424178,6.67987 0.219433,1.49679 0.450827,2.72143 0.514205,2.72143 0.06338,0 0.537593,-0.21841 1.053813,-0.48536 z m 7.081593,-26.91916 c -2.570407,-0.74618 -4.001922,-3.5064 -3.638233,-7.01516 0.391998,-3.78187 2.050505,-5.99317 5.104559,-6.80595 1.677736,-0.4465 4.784327,-0.3772 6.025671,0.13441 1.348674,0.55584 3.818442,3.00058 4.257258,4.21409 0.355475,0.98305 0.295138,1.3181 -0.582683,3.23557 -1.074611,2.34733 -3.894324,5.38721 -5.702105,6.14732 -1.180546,0.49638 -3.909294,0.54119 -5.464467,0.0897 z m 5.592397,-1.72987 c 2.265354,-1.48508 4.827396,-5.10027 4.827396,-6.81174 0,-0.86286 -2.213231,-3.16288 -3.522545,-3.66068 -1.52685,-0.58051 -4.776727,-0.34638 -6.348116,0.45732 -1.948405,0.99653 -2.739908,2.54012 -2.790735,5.44248 -0.05158,2.94535 0.84364,4.49813 2.864741,4.96898 1.717726,0.40017 4.036321,0.21523 4.969259,-0.39636 z m -2.940304,-1.75663 c -1.783291,-1.92421 -0.391935,-5.41097 1.959363,-4.91019 0.56387,0.12009 1.311194,0.27939 1.660718,0.354 1.597498,0.34101 1.590644,2.33229 -0.01415,4.1086 -1.41919,1.57088 -2.446709,1.69842 -3.605939,0.44759 z m 16.333922,-0.0973 c -2.415932,-0.73402 -3.782096,-3.14133 -3.555512,-6.26516 0.181347,-2.50016 1.095044,-4.19383 3.165932,-5.8685 1.376031,-1.11276 2.011407,-1.41046 3.010257,-1.41046 1.52604,0 4.53687,1.2819 5.53353,2.35597 0.90384,0.97404 2.06533,3.49892 2.07492,4.51052 0.007,0.72092 -0.51013,2.00724 -0.95244,2.36987 -0.11064,0.0907 -0.49664,0.72976 -0.85775,1.4201 -0.36113,0.69034 -0.9612,1.54215 -1.33349,1.8929 -1.10008,1.03644 -5.09996,1.598 -7.085447,0.99476 z m 4.628587,-1.53781 c 0.93796,-0.15567 1.36026,-0.50958 2.25116,-1.88659 0.66577,-1.02905 1.1672,-2.29105 1.2763,-3.21216 0.1628,-1.37465 0.0755,-1.63581 -0.92885,-2.77974 -1.21153,-1.37986 -3.24334,-2.45986 -4.64911,-2.47123 -1.316591,-0.0106 -3.051797,0.92585 -3.677217,1.9846 -0.791665,1.34019 -1.188921,3.87908 -0.873961,5.58556 0.491651,2.6638 2.416381,3.47419 6.601678,2.77956 z m -2.721433,-1.14702 c -0.378037,-0.22019 -0.577272,-0.73993 -0.577272,-1.50593 0,-2.6292 2.777495,-4.33024 4.471695,-2.73863 1.27746,1.20011 1.10239,2.65653 -0.44852,3.73131 -1.31178,0.90907 -2.47011,1.0816 -3.445903,0.51325 z m 22.348703,-25.47748 c -2.30323,-1.3191 -7.45071,-4.87004 -8.01497,-5.52906 -0.29884,-0.34901 -0.6694,-0.63457 -0.82346,-0.63457 -0.51703,0 -1.11225,-0.82569 -0.95331,-1.32243 0.42906,-1.341 4.75508,-5.60484 5.68658,-5.60484 0.13701,0 1.26516,1.20591 2.507,2.67981 1.92343,2.28285 2.27428,2.57016 2.3685,1.93959 0.17553,-1.1747 5.885,-9.64362 8.14659,-12.083917 l 0.8111,-0.875195 0.74378,0.949468 c 0.40907,0.522204 1.48598,1.819204 2.39312,2.882214 0.90715,1.06302 2.13393,2.60573 2.7262,3.42825 1.21125,1.68217 1.14394,1.92161 -0.90707,3.22676 -1.45875,0.92828 -4.96039,4.33669 -7.10643,6.91722 -2.59301,3.118 -4.4895,4.79084 -5.42628,4.78637 -0.45753,-0.002 -1.42564,-0.34404 -2.15135,-0.75967 z m 4.35529,-2.45259 c 0.88916,-1.04322 2.15353,-2.63896 2.80971,-3.54611 1.41036,-1.94977 4.93533,-5.42171 6.41701,-6.32045 l 1.04695,-0.63504 -1.10411,-1.07956 c -0.60727,-0.59375 -1.66085,-1.8879 -2.3413,-2.87589 l -1.23718,-1.79633 -0.80409,0.74585 c -1.6734,1.55219 -6.92951,9.34089 -7.34854,10.88935 -0.18412,0.68035 -0.45488,1.23701 -0.6017,1.23701 -0.29494,0 -3.42326,-3.24098 -4.59126,-4.75661 l -0.74221,-0.9631 -1.22799,1.1278 c -0.67539,0.62029 -1.68878,1.5655 -2.25197,2.10047 l -1.02398,0.97266 1.02398,0.74844 c 1.54852,1.13182 2.42524,1.7248 5.37381,3.6346 1.48526,0.96201 2.79289,1.89864 2.90583,2.08139 0.11295,0.18275 0.62724,0.33227 1.14286,0.33227 0.73396,0 1.28852,-0.41182 2.55418,-1.89675 z"
       id="path82742" />
  </g>
</svg>
